<svg width="70" height="60" viewBox="0 0 70 60" fill="none" xmlns="http://www.w3.org/2000/svg">
<path d="M5.69036 44.9572L0 59.8463H3.02049L3.85632 57.4603H9.30819L10.144 59.8463H13.1645L7.47245 44.9572H5.69036ZM4.80258 54.7573L6.58177 49.6782L8.36096 54.7573H4.80258Z" fill="#040404"/>
<path d="M17.1446 57.0404H14.3398V59.846H17.1446V57.0404Z" fill="#040404"/>
<path d="M28.107 47.6607V44.9572H17.1953V47.6607H21.2488V59.8463H24.0538V47.6607H28.107Z" fill="#040404"/>
<path d="M30.6563 57.0404H27.8516V59.846H30.6563V57.0404Z" fill="#040404"/>
<path d="M40.5138 54.5315C40.5138 55.3856 40.2835 56.0478 39.8229 56.5181C39.3624 56.9883 38.7125 57.2238 37.8732 57.2246C37.0405 57.2246 36.3956 56.9891 35.9386 56.5181C35.4816 56.047 35.2529 55.3848 35.2526 54.5315V44.9572H32.4479V54.4599C32.4189 55.4945 32.6364 56.5212 33.0824 57.455C33.4863 58.2654 34.1345 58.9283 34.9353 59.3502C35.8563 59.7787 36.8598 60.0007 37.8756 60.0007C38.8913 60.0007 39.8948 59.7787 40.8158 59.3502C41.6194 58.9289 42.2709 58.2664 42.6789 57.4557C43.1284 56.5229 43.3478 55.4958 43.3187 54.4607V44.9572H40.5138V54.5315Z" fill="#040404"/>
<path d="M47.9138 57.0404H45.1094V59.846H47.9138V57.0404Z" fill="#040404"/>
<path d="M59.8884 44.9572L57.054 54.9925L54.2188 44.9572H50.5234V59.8463H53.0723V49.4698L55.8158 58.1872H58.2936L61.0369 49.2733V59.8463H63.5855V44.9572H59.8884Z" fill="#040404"/>
<path d="M65.5703 41.06H66.2087V42.9789H66.6502V41.0602H67.2886V40.6345H65.5706L65.5703 41.06Z" fill="#161615"/>
<path d="M69.4164 40.6343L68.9698 42.2142L68.5233 40.6343H67.9414V42.9791H68.3428V41.3457L68.7746 42.7178H69.1646L69.5966 41.314V42.9791H69.9977V40.6343H69.4164Z" fill="#161615"/>
<path d="M32.9375 36.912L35.4972 33.7233H32.9375V36.912Z" fill="#464545"/>
<path d="M50.2427 4.50807C47.6299 5.72146 45.1811 7.26072 42.9547 9.08917C42.6574 9.33864 42.365 9.59399 42.0773 9.85522C38.2371 6.81397 32.9375 6.84902 32.9375 6.84902V33.7218L45.7478 23.6294L39.7887 25.3699C42.1329 23.1276 44.4917 20.87 46.8651 18.597L46.9572 18.5083L46.9289 18.372C46.6973 17.2202 46.6398 16.0401 46.7585 14.8712C46.9069 13.6994 47.1703 12.5452 47.5448 11.425C47.9301 10.3041 48.396 9.21243 48.9389 8.15873C49.4737 7.1053 50.0812 6.09031 50.7567 5.12111L51.6575 3.84741L50.2427 4.50807ZM48.2789 7.82998C47.747 8.92765 47.2953 10.0624 46.9272 11.2254C46.5673 12.3959 46.3239 13.5991 46.2006 14.8175C46.1111 16.0008 46.1932 17.1908 46.4444 18.3505C42.2662 22.5636 38.0665 26.8595 33.7583 31.1495L33.7608 30.9431C33.769 30.6018 33.7849 30.2585 33.8091 29.9152C33.8589 29.2287 33.9248 28.5408 34.0266 27.8566C34.2199 26.4848 34.5072 25.1279 34.8866 23.7955C35.6368 21.1197 36.7638 18.5644 38.2337 16.2063C39.7128 13.8442 41.5293 11.7112 43.6257 9.87528C45.364 8.37925 47.2541 7.0694 49.2651 5.96718C48.9137 6.57683 48.5868 7.19615 48.2789 7.82998V7.82998Z" fill="#005990"/>
<path d="M41.3436 15.9831C40.3987 15.8932 35.7204 26.1986 38.6444 21.4734C41.5685 16.7482 41.9733 19.745 41.9733 19.745C41.9733 19.745 42.2881 16.074 41.3436 15.9831Z" fill="#464545"/>
<path d="M32.9386 36.912L30.3789 33.7233H32.9386V36.912Z" fill="#161615"/>
<path d="M14.2188 3.84814L15.1196 5.12184C15.795 6.0911 16.4024 7.10608 16.9374 8.15947C17.4803 9.21316 17.9462 10.3048 18.3315 11.4258C18.7056 12.5457 18.9687 13.6997 19.1168 14.8712C19.236 16.0402 19.179 17.2205 18.9476 18.3725L18.9194 18.5088L19.0114 18.5975C21.3795 20.8756 23.7383 23.1333 26.0878 25.3704L20.1288 23.6299L32.939 33.7223V6.84903C32.939 6.84903 27.6394 6.81398 23.799 9.85523C23.511 9.59464 23.2186 9.33929 22.9219 9.08917C20.6951 7.26065 18.246 5.72139 15.6328 4.50808L14.2188 3.84814ZM16.611 5.96839C18.6219 7.07057 20.5119 8.38041 22.2501 9.8765C24.3459 11.7124 26.162 13.8452 27.6406 16.207C29.1105 18.5651 30.2374 21.1205 30.9876 23.7963C31.3671 25.1286 31.6545 26.4855 31.8478 27.8574C31.9498 28.5415 32.0155 29.2295 32.0653 29.916C32.0894 30.2592 32.1059 30.6025 32.1136 30.9438L32.116 31.1503C27.8088 26.8605 23.6089 22.5644 19.4299 18.3512C19.681 17.1915 19.7631 16.0015 19.6738 14.8183C19.5503 13.5998 19.3069 12.3966 18.9469 11.2261C18.579 10.0631 18.1273 8.92835 17.5954 7.83071C17.2876 7.19616 16.9618 6.57683 16.611 5.96718V5.96839Z" fill="#113769"/>
<path d="M24.5317 15.9831C25.4765 15.8932 30.1546 26.1986 27.2308 21.4734C24.3069 16.7482 23.9019 19.745 23.9019 19.745C23.9019 19.745 23.5871 16.074 24.5317 15.9831Z" fill="#161615"/>
<path d="M41.3921 6.79852L32.9369 1.91429L24.3624 6.86765L22.9062 5.79363L32.9369 0L42.7458 5.66527L41.3921 6.79852Z" fill="#E13510"/>
<path d="M49.2752 14.6034V30.2213L32.9404 39.6569L16.6032 30.2213V14.6034C16.2569 13.0773 15.6789 11.7891 14.9453 10.8882V31.1788L32.9392 41.5714L50.9331 31.1788V10.8882C50.2 11.7891 49.6215 13.0773 49.2752 14.6034Z" fill="#E13510"/>
</svg>
