<svg width="60" height="60" viewBox="0 0 60 60" fill="none" xmlns="http://www.w3.org/2000/svg">
<path d="M59.9976 36.0822C59.7222 36.337 59.4738 36.6452 59.1656 36.8392C56.5043 38.5218 53.8243 40.169 51.1689 41.8618C50.5713 42.2422 50.085 42.2371 49.4885 41.8567C47.0194 40.2793 44.5234 38.7514 42.0472 37.1854C41.7203 36.9787 41.4836 36.9508 41.1484 37.1739C40.184 37.813 39.195 38.4103 38.2106 39.0126C37.5649 39.4069 37.0224 39.2953 36.7411 38.7323C36.4763 38.201 36.6696 37.6431 37.2684 37.264C38.2282 36.6566 39.1832 36.0378 40.1617 35.4685C40.5367 35.2504 40.6727 35.0056 40.6703 34.539C40.6492 31.4324 40.6715 28.327 40.6492 25.2203C40.6445 24.5483 40.8625 24.1222 41.4027 23.7888C44.1484 22.096 46.8846 20.3841 49.6127 18.6584C50.1096 18.3439 50.5408 18.3414 51.033 18.6508C53.781 20.3816 56.5418 22.0896 59.2875 23.8243C59.5605 23.9967 59.7632 24.301 59.9988 24.5432C59.9976 28.3891 59.9976 32.235 59.9976 36.0822ZM58.1227 26.6126C55.8329 28.0417 53.6544 29.3909 51.4935 30.7717C51.3482 30.8643 51.2603 31.1889 51.2591 31.4057C51.2427 33.8961 51.2474 36.3865 51.2509 38.8769C51.2509 39.0329 51.2838 39.1875 51.3072 39.4044C53.5466 38.0083 55.7262 36.6566 57.893 35.2821C58.0184 35.2022 58.1051 34.9473 58.1109 34.7698C58.1355 34.0533 58.1215 33.3344 58.1215 32.618C58.1227 30.6589 58.1227 28.7011 58.1227 26.6126ZM57.1641 24.8615C56.9274 24.7017 56.7516 24.5737 56.5688 24.4595C55.0665 23.5187 53.5653 22.5765 52.0595 21.6433C51.4865 21.287 50.9017 20.6821 50.3228 20.6821C49.7439 20.6834 49.1604 21.2908 48.5873 21.6483C46.8999 22.7008 45.2159 23.7621 43.4699 24.8577C45.7233 26.2627 47.9147 27.6359 50.1189 28.9826C50.2537 29.065 50.5256 28.9952 50.6849 28.9001C51.5392 28.3929 52.3783 27.8553 53.2232 27.3265C54.5192 26.5163 55.8153 25.7047 57.1641 24.8615ZM42.5757 26.6494C42.5757 29.136 42.5757 31.5046 42.5757 33.9265C42.8007 33.7909 42.9695 33.692 43.1371 33.588C43.948 33.0821 44.7554 32.5685 45.5698 32.0702C46.1675 31.705 46.7112 31.8254 46.9948 32.3618C47.2784 32.8982 47.0956 33.4358 46.4921 33.834C46.3421 33.9329 46.1886 34.0255 46.0374 34.1206C45.1983 34.6468 44.3605 35.1743 43.4628 35.7373C45.455 36.9812 47.3709 38.1782 49.3256 39.3993C49.3502 39.2281 49.3725 39.1482 49.3725 39.0671C49.3748 36.4689 49.3854 33.8708 49.3572 31.2726C49.3549 31.052 49.1334 30.754 48.9389 30.6284C47.2292 29.5303 45.5019 28.4614 43.7792 27.3861C43.396 27.149 43.0105 26.9157 42.5757 26.6494Z" fill="white"/>
<path d="M0 24.5433C0.254291 24.2922 0.47577 23.9815 0.766389 23.7977C3.47922 22.0858 6.20962 20.4057 8.91894 18.6901C9.45799 18.349 9.91149 18.3579 10.4423 18.6939C13.1364 20.3981 15.8387 22.0884 18.5515 23.7571C19.1316 24.1134 19.3613 24.5623 19.3554 25.2876C19.3261 28.3727 19.3507 31.4577 19.3343 34.5416C19.332 34.9714 19.441 35.2238 19.7972 35.4355C20.8237 36.0416 21.8304 36.6908 22.8428 37.3249C23.2143 37.5569 23.4663 37.9158 23.3409 38.3659C23.2553 38.6715 23.0233 39.0392 22.7714 39.1483C22.5159 39.2586 22.1128 39.1736 21.8479 39.0215C20.8308 38.4394 19.837 37.8105 18.8504 37.1689C18.5433 36.9698 18.3136 36.9698 18.0031 37.1664C15.5106 38.7412 12.9981 40.2819 10.5115 41.8669C9.91618 42.246 9.42635 42.2346 8.83222 41.8555C6.17681 40.1627 3.4968 38.5168 0.834356 36.8367C0.52616 36.6414 0.276556 36.3358 0.00117185 36.0809C0 32.235 0 28.3891 0 24.5433ZM1.90543 26.6596C1.89136 26.8219 1.87613 26.9208 1.87613 27.0184C1.87496 29.5925 1.86441 32.1666 1.89254 34.7406C1.89488 34.9625 2.09878 35.2669 2.28862 35.3873C4.16475 36.5907 6.05846 37.7649 7.94748 38.9454C8.17716 39.0887 8.41036 39.2256 8.69746 39.3993C8.71855 39.2205 8.73965 39.1216 8.73965 39.0227C8.74199 36.4487 8.75136 33.8746 8.72441 31.3005C8.72207 31.0773 8.51465 30.7705 8.32247 30.6475C6.34321 29.382 4.34873 28.147 2.35776 26.9056C2.22886 26.8257 2.09175 26.761 1.90543 26.6596ZM2.8183 24.8539C5.08231 26.2665 7.25608 27.6321 9.44627 28.9674C9.59392 29.0574 9.8904 28.9851 10.0627 28.8811C11.4736 28.024 12.8716 27.1402 14.2731 26.264C15.0055 25.8062 15.7356 25.3459 16.536 24.8438C14.2755 23.4337 12.1005 22.0719 9.91618 20.7265C9.79548 20.6517 9.56697 20.6492 9.44627 20.7227C7.26312 22.0706 5.08817 23.435 2.8183 24.8539ZM17.4488 26.6545C17.2086 26.7902 17.0375 26.8802 16.8734 26.9816C14.9645 28.1723 13.0638 29.3782 11.1443 30.5486C10.7564 30.7844 10.6005 31.0393 10.6052 31.5351C10.6322 33.9215 10.6169 36.3092 10.6169 38.6956C10.6169 38.8997 10.6169 39.1039 10.6169 39.4323C12.6278 38.177 14.5426 36.9825 16.5395 35.7373C15.5094 35.0931 14.5508 34.4972 13.5946 33.8936C12.8938 33.4511 12.6946 32.9248 12.9993 32.3555C13.3028 31.7912 13.8372 31.7126 14.5274 32.1361C14.8672 32.3441 15.2024 32.5597 15.5411 32.7689C16.1586 33.1505 16.7774 33.531 17.4476 33.9443C17.4488 31.4844 17.4488 29.1233 17.4488 26.6545Z" fill="white"/>
<path d="M39.6795 11.4675C39.6795 13.0309 39.6912 14.5931 39.6713 16.1553C39.6666 16.5611 39.7674 16.8007 40.1119 17.0062C41.2392 17.6769 42.3478 18.3858 43.4564 19.0908C44.0856 19.4902 44.272 20.0684 43.9708 20.6086C43.6802 21.1285 43.1482 21.2312 42.54 20.8571C41.4045 20.1572 40.2701 19.456 39.151 18.7269C38.8405 18.5252 38.6131 18.5392 38.3073 18.7332C35.8323 20.2979 33.3398 21.8284 30.8719 23.4058C30.2614 23.7964 29.7645 23.8103 29.1446 23.4122C26.7317 21.8601 24.2814 20.374 21.8674 18.8245C21.4151 18.5341 21.0975 18.5481 20.6651 18.8384C19.6221 19.5384 18.5476 20.1851 17.48 20.8419C16.8507 21.2299 16.2847 21.1171 16.0082 20.5718C15.7304 20.0228 15.9332 19.475 16.5742 19.0718C17.6534 18.3934 18.7269 17.7036 19.8202 17.0556C20.1917 16.835 20.3323 16.5826 20.3288 16.1173C20.3088 13.055 20.3358 9.99276 20.3065 6.9305C20.2995 6.13799 20.5526 5.65107 21.1983 5.25799C23.8654 3.63366 26.5161 1.97509 29.1528 0.293701C29.7457 -0.0854359 30.2285 -0.104456 30.8285 0.277217C33.4992 1.98016 36.185 3.65521 38.8826 5.30871C39.4686 5.66755 39.7006 6.13038 39.6877 6.84301C39.6607 8.38365 39.6795 9.92555 39.6795 11.4675ZM36.86 6.403C34.5902 4.98409 32.4351 3.62478 30.2625 2.30097C30.1008 2.20207 29.7762 2.27307 29.5911 2.3872C27.7091 3.54109 25.8388 4.72035 23.9662 5.89199C23.7213 6.04542 23.4799 6.20266 23.1553 6.40934C23.2818 6.48669 23.331 6.51713 23.3803 6.54883C25.4908 7.8663 27.5954 9.19264 29.7188 10.4873C29.8852 10.5887 30.2086 10.5443 30.3914 10.4353C31.5691 9.73282 32.7293 8.9961 33.8929 8.26699C34.8503 7.66722 35.8054 7.06491 36.86 6.403ZM30.9375 20.9941C32.9343 19.7489 34.8573 18.5506 36.8425 17.3117C36.5858 17.1431 36.4229 17.0315 36.2565 16.9275C35.5991 16.5142 34.937 16.1084 34.2831 15.69C33.6878 15.3096 33.5132 14.7542 33.8027 14.214C34.0828 13.6916 34.6323 13.5863 35.2358 13.9464C35.5253 14.1202 35.8077 14.3078 36.096 14.4866C36.628 14.815 37.1612 15.1396 37.76 15.5074C37.76 13.0271 37.76 10.6585 37.76 8.28601C37.6827 8.29108 37.6381 8.27967 37.61 8.29742C35.4632 9.63137 33.3164 10.9653 31.1777 12.3145C31.0582 12.3893 30.9492 12.6061 30.9481 12.757C30.934 15.4592 30.9375 18.1613 30.9375 20.9941ZM29.0614 20.9966C29.0614 18.1537 29.0708 15.4541 29.0426 12.7532C29.0403 12.5567 28.8059 12.2993 28.6196 12.1801C26.6368 10.9197 24.6435 9.68083 22.6502 8.44071C22.5272 8.36463 22.3889 8.31644 22.2365 8.24543C22.2365 10.6788 22.2365 13.0499 22.2365 15.5226C23.1119 14.9761 23.9146 14.4701 24.722 13.9731C25.3583 13.5812 25.9173 13.6776 26.2032 14.2178C26.4927 14.7643 26.2993 15.3235 25.6642 15.728C24.8626 16.239 24.0541 16.7386 23.1564 17.3003C25.1392 18.543 27.0505 19.7387 29.0614 20.9966Z" fill="white"/>
<path d="M39.6773 48.1841C39.6773 49.8744 39.6668 51.5647 39.6832 53.2549C39.689 53.8927 39.4676 54.315 38.9449 54.6371C36.2168 56.3185 33.497 58.0176 30.7877 59.7358C30.2334 60.087 29.7728 60.0895 29.215 59.7345C26.5081 58.0138 23.787 56.3185 21.0578 54.6371C20.5375 54.3163 20.3102 53.9029 20.3125 53.2613C20.3254 49.8389 20.3242 46.4165 20.3137 42.9941C20.3113 42.3792 20.5281 41.9734 21.0285 41.664C23.7894 39.9585 26.5421 38.2378 29.2865 36.5032C29.7834 36.1887 30.2123 36.1862 30.7056 36.4968C33.4525 38.2289 36.2028 39.9522 38.9648 41.6577C39.491 41.9823 39.6902 42.4185 39.6832 43.0525C39.6668 44.7618 39.6773 46.4723 39.6773 48.1841ZM30.9353 57.2872C33.2052 55.8709 35.3719 54.5306 37.5188 53.1573C37.6805 53.0533 37.7883 52.711 37.7906 52.4789C37.8094 50.0063 37.8035 47.5349 37.8 45.0623C37.8 44.9038 37.7695 44.744 37.7461 44.5145C37.5211 44.6451 37.3512 44.7377 37.1871 44.8404C35.5817 45.8421 34.0196 46.9389 32.3591 47.8177C31.2236 48.4187 30.8205 49.1567 30.9013 50.5325C31.0302 52.7363 30.9353 54.9566 30.9353 57.2872ZM22.2461 44.4815C22.2168 44.6971 22.1968 44.777 22.1957 44.8569C22.1933 47.4347 22.1828 50.0126 22.2109 52.5892C22.2133 52.8124 22.4254 53.1167 22.6187 53.241C24.3296 54.3404 26.0569 55.408 27.7807 56.4833C28.1803 56.7318 28.5823 56.974 28.9877 57.2226C29.0252 57.1325 29.0533 57.097 29.0533 57.0615C29.0568 54.4 29.0651 51.7371 29.044 49.0756C29.0428 48.8854 28.8541 48.6317 28.6877 48.5202C27.9424 48.0193 27.1725 47.5603 26.4132 47.086C25.048 46.2339 23.6839 45.3806 22.2461 44.4815ZM36.825 42.7177C36.6961 42.615 36.6399 42.5618 36.5766 42.5212C34.5036 41.2227 32.4365 39.9141 30.3471 38.6461C30.1537 38.5282 29.7799 38.5713 29.5725 38.6981C27.6026 39.8951 25.6503 41.1251 23.6945 42.3475C23.5316 42.4489 23.3781 42.5668 23.1695 42.7114C25.4054 44.11 27.5756 45.4731 29.7553 46.8172C29.8865 46.8984 30.1396 46.887 30.2744 46.8033C32.44 45.4668 34.595 44.1125 36.825 42.7177Z" fill="white"/>
</svg>
