<svg width="45" height="46" viewBox="0 0 45 46" fill="none" xmlns="http://www.w3.org/2000/svg">
<path d="M5.222 40.4996C5.23796 40.3925 5.25299 40.3474 5.24924 40.3024C5.15813 39.2119 5.49532 38.9667 6.57361 38.9902C8.24457 39.0259 9.91647 38.9996 11.5884 38.9996C11.7396 38.9996 11.8918 38.9996 11.95 38.9996C11.5433 37.7889 11.0201 36.6101 10.7703 35.3759C10.5185 34.137 10.5392 32.8427 10.4349 31.4995C10.2884 31.4995 9.99631 31.4845 9.70701 31.5023C6.6882 31.6874 5.84285 30.8533 5.9875 27.7697C6.06734 26.0705 5.99971 24.3648 5.99783 22.6619C5.99783 22.6319 5.9875 22.6018 5.96872 22.5004C5.8344 22.5004 5.686 22.5004 5.53759 22.5004C4.47528 22.5004 3.41296 22.5051 2.35065 22.4994C0.972738 22.491 0.00810706 21.5451 0.00528925 20.1794C-0.00222491 17.2264 -0.00128564 14.2733 0.00528925 11.3212C0.00810706 9.9752 0.967102 9.00681 2.30368 9.00305C5.27178 8.99554 8.24081 8.9946 11.2089 9.00305C12.5248 9.00681 13.4942 9.96768 13.4988 11.2817C13.5092 14.2658 13.5092 17.2498 13.4979 20.2339C13.4932 21.5216 12.5258 22.4825 11.2399 22.4966C10.0095 22.5098 8.77995 22.4994 7.50255 22.4994C7.50255 22.6478 7.50255 22.7521 7.50255 22.8573C7.50255 24.9199 7.50067 26.9816 7.50349 29.0443C7.50442 29.745 7.76178 29.9967 8.46905 29.9995C9.14063 30.0023 9.81315 29.9882 10.4847 30.0061C10.7731 30.0136 10.9074 29.946 11.007 29.6379C12.4891 25.0777 15.5831 22.2768 20.2597 21.2267C20.503 21.1722 20.7519 21.1403 20.9989 21.1074C21.229 21.0774 21.461 21.0595 21.7203 21.0342C21.7203 18.5207 21.7203 16.0326 21.7203 13.5003C20.5687 13.5003 19.4322 13.5012 18.2966 13.5003C16.6398 13.4993 15.7531 12.6117 15.7522 10.9539C15.7512 8.12577 15.7512 5.29857 15.7522 2.47043C15.7531 0.914055 16.6689 0.00202385 18.2309 0.00108458C21.09 0.000145306 23.9492 -0.000793965 26.8083 0.00108458C28.3327 0.00202385 29.2495 0.924387 29.2504 2.46009C29.2523 5.31923 29.2523 8.17837 29.2504 11.0375C29.2495 12.5892 28.3299 13.4984 26.7632 13.5003C25.6107 13.5012 24.4573 13.5003 23.2776 13.5003C23.2776 16.0147 23.2776 18.4925 23.2776 20.991C23.9407 21.1102 24.6226 21.1854 25.2782 21.3573C29.6355 22.5004 32.5303 25.2224 33.9449 29.4979C34.0754 29.8915 34.2276 30.0399 34.6503 30.0127C35.319 29.9694 35.9934 30.0089 36.665 29.9986C37.1966 29.9901 37.4935 29.713 37.4953 29.1945C37.5038 27.023 37.4981 24.8514 37.4963 22.6798C37.4963 22.6366 37.4775 22.5924 37.4568 22.5013C36.3391 22.5013 35.2185 22.5013 34.0989 22.5013C32.3725 22.5013 31.5009 21.6334 31.5 19.9155C31.5 17.1033 31.499 14.2911 31.5 11.479C31.5009 9.9179 32.4139 9.00305 33.9712 9.00211C36.8303 9.00117 39.6895 9.00023 42.5486 9.00211C44.0759 9.00305 44.9973 9.92354 44.9982 11.4536C45.0001 14.3287 45.001 17.2029 44.9982 20.078C44.9963 21.5724 44.0646 22.4976 42.5655 22.5013C41.3961 22.5041 40.2267 22.5022 38.9991 22.5022C38.9991 22.6995 38.9991 22.8648 38.9991 23.0301C38.9991 25.0458 39.0019 27.0615 38.9982 29.0762C38.9953 30.5715 38.0655 31.4967 36.5673 31.5014C35.8666 31.5033 35.165 31.5014 34.4032 31.5014C34.7245 34.1614 34.2192 36.6364 32.8844 39.0015C33.6856 39.0015 34.4136 39.0015 35.1415 39.0015C36.3137 39.0015 37.485 39.0015 38.6572 39.0015C39.5298 39.0015 39.743 39.2109 39.7496 40.0657C39.7505 40.1897 39.7496 40.3127 39.7496 40.5015C40.4212 40.5015 41.0711 40.5193 41.7202 40.4949C42.1691 40.478 42.4875 40.6274 42.7534 40.9965C43.4015 41.8963 44.0759 42.7764 44.7446 43.6603C44.9541 43.9373 45.0903 44.2191 44.9193 44.5657C44.7418 44.9264 44.429 45.0025 44.0599 45.0025C29.6862 44.9997 15.3126 44.9997 0.938924 45.0025C0.57073 45.0025 0.257014 44.9292 0.0785523 44.5685C-0.0933341 44.2219 0.0409815 43.9411 0.251378 43.6631C0.939863 42.7539 1.62647 41.8437 2.30087 40.9251C2.52535 40.6189 2.80244 40.4874 3.17908 40.4949C3.85254 40.5099 4.52224 40.4996 5.222 40.4996ZM12.0026 32.9798C11.9941 38.7469 16.683 43.4799 22.4238 43.4987C28.267 43.5175 32.9896 38.8268 33.0019 32.992C33.0141 27.2446 28.3027 22.5126 22.5553 22.4985C16.7328 22.4863 12.011 27.1751 12.0026 32.9798ZM27.7495 4.53119C24.2225 4.53119 20.7519 4.53119 17.2522 4.53119C17.2522 6.73002 17.2503 8.89692 17.2531 11.0648C17.2541 11.7354 17.518 11.9965 18.1905 11.9993C19.3139 12.0031 20.4382 12.0003 21.5615 12.0003C23.3255 12.0003 25.0894 12.0031 26.8525 11.9984C27.4094 11.9974 27.7391 11.7448 27.7419 11.2573C27.757 9.02747 27.7495 6.79671 27.7495 4.53119ZM1.52691 13.52C1.51658 13.613 1.50436 13.6731 1.50436 13.7332C1.50343 15.8719 1.49873 18.0097 1.5053 20.1484C1.50718 20.7345 1.80117 20.9985 2.43142 20.9985C5.30371 21.0013 8.17506 21.0013 11.0474 20.9985C11.7452 20.9975 12.0007 20.7383 12.0017 20.0329C12.0045 18.144 12.0026 16.2552 12.0026 14.3672C12.0026 14.0911 12.0026 13.8149 12.0026 13.52C8.4916 13.52 5.03133 13.52 1.52691 13.52ZM33.0028 13.5209C33.0028 15.7752 32.9981 17.9759 33.0066 20.1757C33.0084 20.7458 33.3146 20.9985 33.959 20.9985C36.8153 21.0004 39.6716 21.0004 42.5279 20.9985C43.2531 20.9985 43.501 20.7439 43.501 20.0047C43.5029 17.9759 43.502 15.9461 43.5001 13.9173C43.5001 13.7839 43.4832 13.6506 43.4738 13.52C39.9712 13.5209 36.5119 13.5209 33.0028 13.5209ZM28.6042 43.4668C33.2235 43.4668 37.9415 43.4668 42.7233 43.4668C42.3974 43.03 42.1297 42.628 41.8141 42.2692C41.692 42.1302 41.4637 42.0194 41.2787 42.0118C40.5461 41.9827 39.8116 42.0081 39.0789 41.9968C38.5511 41.9884 38.2749 41.7085 38.2552 41.1862C38.2467 40.9721 38.2543 40.7579 38.2543 40.5006C38.042 40.5006 37.8739 40.5006 37.7057 40.5006C36.0517 40.5006 34.3967 40.5278 32.7426 40.4865C32.1349 40.4714 31.7376 40.6565 31.3027 41.0951C30.4433 41.9583 29.474 42.7125 28.6042 43.4668ZM16.5055 43.4874C15.3455 42.7088 14.3038 41.8306 13.3843 40.7992C13.2434 40.6414 12.9766 40.5146 12.7662 40.5128C10.8933 40.4912 9.02041 40.4996 7.1475 40.5015C7.02727 40.5015 6.90705 40.5165 6.75301 40.5268C6.75301 40.6903 6.75395 40.8284 6.75301 40.9655C6.74737 41.7667 6.51819 41.9987 5.72639 42.0006C5.05575 42.0015 4.38417 41.9977 3.71353 42.0034C3.5933 42.0043 3.4186 41.993 3.3613 42.0626C2.99405 42.5068 2.65309 42.9736 2.26048 43.4884C7.08551 43.4874 11.795 43.4874 16.5055 43.4874ZM27.7372 2.98421C27.7438 2.84801 27.7504 2.75596 27.7513 2.66392C27.7635 1.70962 27.5597 1.50016 26.6214 1.49922C25.638 1.49922 24.6555 1.49922 23.6721 1.49922C21.8311 1.49922 19.9901 1.4964 18.1492 1.5011C17.5715 1.50204 17.2804 1.76316 17.255 2.28727C17.2437 2.51457 17.2531 2.74188 17.2531 2.98421C20.7726 2.98421 24.231 2.98421 27.7372 2.98421ZM12.0017 11.9805C12.0017 11.7279 12.0082 11.525 12.0007 11.3231C11.981 10.7961 11.7095 10.504 11.1864 10.5031C8.22203 10.4965 5.25769 10.4993 2.29241 10.5021C1.88007 10.5021 1.59547 10.7135 1.52503 11.1155C1.47619 11.3954 1.51564 11.6903 1.51564 11.9796C5.03226 11.9805 8.49066 11.9805 12.0017 11.9805ZM43.502 11.9843C43.502 11.8453 43.501 11.7532 43.502 11.6612C43.5123 10.7088 43.3085 10.5003 42.3683 10.5003C41.2139 10.5003 40.0586 10.5003 38.9042 10.5003C37.2352 10.5003 35.5651 10.4984 33.896 10.5021C33.3785 10.5031 33.0667 10.7257 33.0169 11.153C32.985 11.4236 33.0113 11.7006 33.0113 11.9852C36.5251 11.9843 39.9835 11.9843 43.502 11.9843Z" fill="url(#paint0_linear_356_138)"/>
<path d="M5.222 40.4996C5.23796 40.3925 5.25299 40.3474 5.24924 40.3024C5.15813 39.2119 5.49532 38.9667 6.57361 38.9902C8.24457 39.0259 9.91647 38.9996 11.5884 38.9996C11.7396 38.9996 11.8918 38.9996 11.95 38.9996C11.5433 37.7889 11.0201 36.6101 10.7703 35.3759C10.5185 34.137 10.5392 32.8427 10.4349 31.4995C10.2884 31.4995 9.99631 31.4845 9.70701 31.5023C6.6882 31.6874 5.84285 30.8533 5.9875 27.7697C6.06734 26.0705 5.99971 24.3648 5.99783 22.6619C5.99783 22.6319 5.9875 22.6018 5.96872 22.5004C5.8344 22.5004 5.686 22.5004 5.53759 22.5004C4.47528 22.5004 3.41296 22.5051 2.35065 22.4994C0.972738 22.491 0.00810706 21.5451 0.00528925 20.1794C-0.00222491 17.2264 -0.00128564 14.2733 0.00528925 11.3212C0.00810706 9.9752 0.967102 9.00681 2.30368 9.00305C5.27178 8.99554 8.24081 8.9946 11.2089 9.00305C12.5248 9.00681 13.4942 9.96768 13.4988 11.2817C13.5092 14.2658 13.5092 17.2498 13.4979 20.2339C13.4932 21.5216 12.5258 22.4825 11.2399 22.4966C10.0095 22.5098 8.77995 22.4994 7.50255 22.4994C7.50255 22.6478 7.50255 22.7521 7.50255 22.8573C7.50255 24.9199 7.50067 26.9816 7.50349 29.0443C7.50442 29.745 7.76178 29.9967 8.46905 29.9995C9.14063 30.0023 9.81315 29.9882 10.4847 30.0061C10.7731 30.0136 10.9074 29.946 11.007 29.6379C12.4891 25.0777 15.5831 22.2768 20.2597 21.2267C20.503 21.1722 20.7519 21.1403 20.9989 21.1074C21.229 21.0774 21.461 21.0595 21.7203 21.0342C21.7203 18.5207 21.7203 16.0326 21.7203 13.5003C20.5687 13.5003 19.4322 13.5012 18.2966 13.5003C16.6398 13.4993 15.7531 12.6117 15.7522 10.9539C15.7512 8.12577 15.7512 5.29857 15.7522 2.47043C15.7531 0.914055 16.6689 0.00202385 18.2309 0.00108458C21.09 0.000145306 23.9492 -0.000793965 26.8083 0.00108458C28.3327 0.00202385 29.2495 0.924387 29.2504 2.46009C29.2523 5.31923 29.2523 8.17837 29.2504 11.0375C29.2495 12.5892 28.3299 13.4984 26.7632 13.5003C25.6107 13.5012 24.4573 13.5003 23.2776 13.5003C23.2776 16.0147 23.2776 18.4925 23.2776 20.991C23.9407 21.1102 24.6226 21.1854 25.2782 21.3573C29.6355 22.5004 32.5303 25.2224 33.9449 29.4979C34.0754 29.8915 34.2276 30.0399 34.6503 30.0127C35.319 29.9694 35.9934 30.0089 36.665 29.9986C37.1966 29.9901 37.4935 29.713 37.4953 29.1945C37.5038 27.023 37.4981 24.8514 37.4963 22.6798C37.4963 22.6366 37.4775 22.5924 37.4568 22.5013C36.3391 22.5013 35.2185 22.5013 34.0989 22.5013C32.3725 22.5013 31.5009 21.6334 31.5 19.9155C31.5 17.1033 31.499 14.2911 31.5 11.479C31.5009 9.9179 32.4139 9.00305 33.9712 9.00211C36.8303 9.00117 39.6895 9.00023 42.5486 9.00211C44.0759 9.00305 44.9973 9.92354 44.9982 11.4536C45.0001 14.3287 45.001 17.2029 44.9982 20.078C44.9963 21.5724 44.0646 22.4976 42.5655 22.5013C41.3961 22.5041 40.2267 22.5022 38.9991 22.5022C38.9991 22.6995 38.9991 22.8648 38.9991 23.0301C38.9991 25.0458 39.0019 27.0615 38.9982 29.0762C38.9953 30.5715 38.0655 31.4967 36.5673 31.5014C35.8666 31.5033 35.165 31.5014 34.4032 31.5014C34.7245 34.1614 34.2192 36.6364 32.8844 39.0015C33.6856 39.0015 34.4136 39.0015 35.1415 39.0015C36.3137 39.0015 37.485 39.0015 38.6572 39.0015C39.5298 39.0015 39.743 39.2109 39.7496 40.0657C39.7505 40.1897 39.7496 40.3127 39.7496 40.5015C40.4212 40.5015 41.0711 40.5193 41.7202 40.4949C42.1691 40.478 42.4875 40.6274 42.7534 40.9965C43.4015 41.8963 44.0759 42.7764 44.7446 43.6603C44.9541 43.9373 45.0903 44.2191 44.9193 44.5657C44.7418 44.9264 44.429 45.0025 44.0599 45.0025C29.6862 44.9997 15.3126 44.9997 0.938924 45.0025C0.57073 45.0025 0.257014 44.9292 0.0785523 44.5685C-0.0933341 44.2219 0.0409815 43.9411 0.251378 43.6631C0.939863 42.7539 1.62647 41.8437 2.30087 40.9251C2.52535 40.6189 2.80244 40.4874 3.17908 40.4949C3.85254 40.5099 4.52224 40.4996 5.222 40.4996ZM12.0026 32.9798C11.9941 38.7469 16.683 43.4799 22.4238 43.4987C28.267 43.5175 32.9896 38.8268 33.0019 32.992C33.0141 27.2446 28.3027 22.5126 22.5553 22.4985C16.7328 22.4863 12.011 27.1751 12.0026 32.9798ZM27.7495 4.53119C24.2225 4.53119 20.7519 4.53119 17.2522 4.53119C17.2522 6.73002 17.2503 8.89692 17.2531 11.0648C17.2541 11.7354 17.518 11.9965 18.1905 11.9993C19.3139 12.0031 20.4382 12.0003 21.5615 12.0003C23.3255 12.0003 25.0894 12.0031 26.8525 11.9984C27.4094 11.9974 27.7391 11.7448 27.7419 11.2573C27.757 9.02747 27.7495 6.79671 27.7495 4.53119ZM1.52691 13.52C1.51658 13.613 1.50436 13.6731 1.50436 13.7332C1.50343 15.8719 1.49873 18.0097 1.5053 20.1484C1.50718 20.7345 1.80117 20.9985 2.43142 20.9985C5.30371 21.0013 8.17506 21.0013 11.0474 20.9985C11.7452 20.9975 12.0007 20.7383 12.0017 20.0329C12.0045 18.144 12.0026 16.2552 12.0026 14.3672C12.0026 14.0911 12.0026 13.8149 12.0026 13.52C8.4916 13.52 5.03133 13.52 1.52691 13.52ZM33.0028 13.5209C33.0028 15.7752 32.9981 17.9759 33.0066 20.1757C33.0084 20.7458 33.3146 20.9985 33.959 20.9985C36.8153 21.0004 39.6716 21.0004 42.5279 20.9985C43.2531 20.9985 43.501 20.7439 43.501 20.0047C43.5029 17.9759 43.502 15.9461 43.5001 13.9173C43.5001 13.7839 43.4832 13.6506 43.4738 13.52C39.9712 13.5209 36.5119 13.5209 33.0028 13.5209ZM28.6042 43.4668C33.2235 43.4668 37.9415 43.4668 42.7233 43.4668C42.3974 43.03 42.1297 42.628 41.8141 42.2692C41.692 42.1302 41.4637 42.0194 41.2787 42.0118C40.5461 41.9827 39.8116 42.0081 39.0789 41.9968C38.5511 41.9884 38.2749 41.7085 38.2552 41.1862C38.2467 40.9721 38.2543 40.7579 38.2543 40.5006C38.042 40.5006 37.8739 40.5006 37.7057 40.5006C36.0517 40.5006 34.3967 40.5278 32.7426 40.4865C32.1349 40.4714 31.7376 40.6565 31.3027 41.0951C30.4433 41.9583 29.474 42.7125 28.6042 43.4668ZM16.5055 43.4874C15.3455 42.7088 14.3038 41.8306 13.3843 40.7992C13.2434 40.6414 12.9766 40.5146 12.7662 40.5128C10.8933 40.4912 9.02041 40.4996 7.1475 40.5015C7.02727 40.5015 6.90705 40.5165 6.75301 40.5268C6.75301 40.6903 6.75395 40.8284 6.75301 40.9655C6.74737 41.7667 6.51819 41.9987 5.72639 42.0006C5.05575 42.0015 4.38417 41.9977 3.71353 42.0034C3.5933 42.0043 3.4186 41.993 3.3613 42.0626C2.99405 42.5068 2.65309 42.9736 2.26048 43.4884C7.08551 43.4874 11.795 43.4874 16.5055 43.4874ZM27.7372 2.98421C27.7438 2.84801 27.7504 2.75596 27.7513 2.66392C27.7635 1.70962 27.5597 1.50016 26.6214 1.49922C25.638 1.49922 24.6555 1.49922 23.6721 1.49922C21.8311 1.49922 19.9901 1.4964 18.1492 1.5011C17.5715 1.50204 17.2804 1.76316 17.255 2.28727C17.2437 2.51457 17.2531 2.74188 17.2531 2.98421C20.7726 2.98421 24.231 2.98421 27.7372 2.98421ZM12.0017 11.9805C12.0017 11.7279 12.0082 11.525 12.0007 11.3231C11.981 10.7961 11.7095 10.504 11.1864 10.5031C8.22203 10.4965 5.25769 10.4993 2.29241 10.5021C1.88007 10.5021 1.59547 10.7135 1.52503 11.1155C1.47619 11.3954 1.51564 11.6903 1.51564 11.9796C5.03226 11.9805 8.49066 11.9805 12.0017 11.9805ZM43.502 11.9843C43.502 11.8453 43.501 11.7532 43.502 11.6612C43.5123 10.7088 43.3085 10.5003 42.3683 10.5003C41.2139 10.5003 40.0586 10.5003 38.9042 10.5003C37.2352 10.5003 35.5651 10.4984 33.896 10.5021C33.3785 10.5031 33.0667 10.7257 33.0169 11.153C32.985 11.4236 33.0113 11.7006 33.0113 11.9852C36.5251 11.9843 39.9835 11.9843 43.502 11.9843Z" fill="black" fill-opacity="0.2"/>
<path d="M21.7609 26.9995C21.7609 26.4716 21.7609 26.0076 21.7609 25.5229C22.2578 25.5229 22.7208 25.5229 23.2346 25.5229C23.2346 25.9954 23.2346 26.4697 23.2346 27.0098C24.451 26.9149 25.5227 27.1329 26.3107 28.0909C26.7522 28.6272 26.9776 29.2453 27.0011 29.9704C26.5033 29.9704 26.0261 29.9704 25.549 29.9704C25.2287 28.8057 24.8182 28.4995 23.5802 28.4995C22.7518 28.4995 21.9243 28.4948 21.0959 28.5004C20.1284 28.508 19.516 29.1185 19.5019 30.0794C19.4991 30.2982 19.4963 30.5171 19.5029 30.7359C19.5273 31.6066 20.1491 32.234 21.0254 32.2462C21.9318 32.2594 22.8373 32.2491 23.7437 32.25C25.7706 32.2519 27.0067 33.488 26.9954 35.5281C26.9926 35.977 26.9757 36.442 26.8574 36.8703C26.5155 38.1111 25.3714 38.9592 24.0762 38.9968C23.8263 39.0043 23.5765 38.9977 23.2759 38.9977C23.2759 39.4861 23.2759 39.9614 23.2759 40.4677C22.7518 40.4677 22.2784 40.4677 21.7684 40.4677C21.7684 39.9999 21.7684 39.5369 21.7684 38.9996C20.4844 39.0879 19.3479 38.8334 18.5636 37.7419C18.2001 37.2357 18.0188 36.6712 18.001 36.0231C18.5016 36.0231 18.9656 36.0231 19.3141 36.0231C19.6165 36.4598 19.8297 36.8966 20.1622 37.2047C20.3736 37.401 20.7587 37.4761 21.0705 37.4874C22.022 37.5221 22.9763 37.5071 23.9287 37.4977C24.8642 37.4893 25.4813 36.8703 25.4992 35.9404C25.5039 35.7065 25.5067 35.4717 25.4982 35.2378C25.4672 34.3944 24.8445 33.7679 23.9973 33.7547C23.0449 33.7397 22.0915 33.7538 21.1381 33.75C19.2897 33.7425 18.0094 32.4717 18.0029 30.6335C18.001 30.2597 17.986 29.8783 18.0498 29.513C18.31 28.0148 19.5132 27.0192 21.0442 27.0014C21.2612 26.9976 21.4772 26.9995 21.7609 26.9995Z" fill="url(#paint1_linear_356_138)"/>
<path d="M21.7609 26.9995C21.7609 26.4716 21.7609 26.0076 21.7609 25.5229C22.2578 25.5229 22.7208 25.5229 23.2346 25.5229C23.2346 25.9954 23.2346 26.4697 23.2346 27.0098C24.451 26.9149 25.5227 27.1329 26.3107 28.0909C26.7522 28.6272 26.9776 29.2453 27.0011 29.9704C26.5033 29.9704 26.0261 29.9704 25.549 29.9704C25.2287 28.8057 24.8182 28.4995 23.5802 28.4995C22.7518 28.4995 21.9243 28.4948 21.0959 28.5004C20.1284 28.508 19.516 29.1185 19.5019 30.0794C19.4991 30.2982 19.4963 30.5171 19.5029 30.7359C19.5273 31.6066 20.1491 32.234 21.0254 32.2462C21.9318 32.2594 22.8373 32.2491 23.7437 32.25C25.7706 32.2519 27.0067 33.488 26.9954 35.5281C26.9926 35.977 26.9757 36.442 26.8574 36.8703C26.5155 38.1111 25.3714 38.9592 24.0762 38.9968C23.8263 39.0043 23.5765 38.9977 23.2759 38.9977C23.2759 39.4861 23.2759 39.9614 23.2759 40.4677C22.7518 40.4677 22.2784 40.4677 21.7684 40.4677C21.7684 39.9999 21.7684 39.5369 21.7684 38.9996C20.4844 39.0879 19.3479 38.8334 18.5636 37.7419C18.2001 37.2357 18.0188 36.6712 18.001 36.0231C18.5016 36.0231 18.9656 36.0231 19.3141 36.0231C19.6165 36.4598 19.8297 36.8966 20.1622 37.2047C20.3736 37.401 20.7587 37.4761 21.0705 37.4874C22.022 37.5221 22.9763 37.5071 23.9287 37.4977C24.8642 37.4893 25.4813 36.8703 25.4992 35.9404C25.5039 35.7065 25.5067 35.4717 25.4982 35.2378C25.4672 34.3944 24.8445 33.7679 23.9973 33.7547C23.0449 33.7397 22.0915 33.7538 21.1381 33.75C19.2897 33.7425 18.0094 32.4717 18.0029 30.6335C18.001 30.2597 17.986 29.8783 18.0498 29.513C18.31 28.0148 19.5132 27.0192 21.0442 27.0014C21.2612 26.9976 21.4772 26.9995 21.7609 26.9995Z" fill="black" fill-opacity="0.2"/>
<path d="M21.7852 6.02002C23.2777 6.02002 24.7382 6.02002 26.2251 6.02002C26.2251 6.50093 26.2251 6.96305 26.2251 7.46274C24.7636 7.46274 23.2917 7.46274 21.7852 7.46274C21.7852 7.00531 21.7852 6.53192 21.7852 6.02002Z" fill="url(#paint2_linear_356_138)"/>
<path d="M21.7852 6.02002C23.2777 6.02002 24.7382 6.02002 26.2251 6.02002C26.2251 6.50093 26.2251 6.96305 26.2251 7.46274C24.7636 7.46274 23.2917 7.46274 21.7852 7.46274C21.7852 7.00531 21.7852 6.53192 21.7852 6.02002Z" fill="black" fill-opacity="0.2"/>
<path d="M26.2429 9.02832C26.2429 9.52426 26.2429 9.97511 26.2429 10.4635C24.7626 10.4635 23.2908 10.4635 21.7852 10.4635C21.7852 10.0042 21.7852 9.53083 21.7852 9.02832C23.257 9.02832 24.7288 9.02832 26.2429 9.02832Z" fill="url(#paint3_linear_356_138)"/>
<path d="M26.2429 9.02832C26.2429 9.52426 26.2429 9.97511 26.2429 10.4635C24.7626 10.4635 23.2908 10.4635 21.7852 10.4635C21.7852 10.0042 21.7852 9.53083 21.7852 9.02832C23.257 9.02832 24.7288 9.02832 26.2429 9.02832Z" fill="black" fill-opacity="0.2"/>
<path d="M20.2438 6.02832C20.2438 6.52426 20.2438 6.9751 20.2438 7.46259C19.7648 7.46259 19.2924 7.46259 18.7852 7.46259C18.7852 7.00328 18.7852 6.53083 18.7852 6.02832C19.2576 6.02832 19.7301 6.02832 20.2438 6.02832Z" fill="url(#paint4_linear_356_138)"/>
<path d="M20.2438 6.02832C20.2438 6.52426 20.2438 6.9751 20.2438 7.46259C19.7648 7.46259 19.2924 7.46259 18.7852 7.46259C18.7852 7.00328 18.7852 6.53083 18.7852 6.02832C19.2576 6.02832 19.7301 6.02832 20.2438 6.02832Z" fill="black" fill-opacity="0.2"/>
<path d="M18.7617 10.461C18.7617 9.97165 18.7617 9.52174 18.7617 9.03613C19.2426 9.03613 19.7151 9.03613 20.2204 9.03613C20.2204 9.50107 20.2204 9.97259 20.2204 10.461C19.731 10.461 19.2483 10.461 18.7617 10.461Z" fill="url(#paint5_linear_356_138)"/>
<path d="M18.7617 10.461C18.7617 9.97165 18.7617 9.52174 18.7617 9.03613C19.2426 9.03613 19.7151 9.03613 20.2204 9.03613C20.2204 9.50107 20.2204 9.97259 20.2204 10.461C19.731 10.461 19.2483 10.461 18.7617 10.461Z" fill="black" fill-opacity="0.2"/>
<path d="M10.4762 16.4777C8.99589 16.4777 7.53532 16.4777 6.03906 16.4777C6.03906 16.0081 6.03906 15.5347 6.03906 15.0303C7.50526 15.0303 8.9771 15.0303 10.4762 15.0303C10.4762 15.498 10.4762 15.9602 10.4762 16.4777Z" fill="url(#paint6_linear_356_138)"/>
<path d="M10.4762 16.4777C8.99589 16.4777 7.53532 16.4777 6.03906 16.4777C6.03906 16.0081 6.03906 15.5347 6.03906 15.0303C7.50526 15.0303 8.9771 15.0303 10.4762 15.0303C10.4762 15.498 10.4762 15.9602 10.4762 16.4777Z" fill="black" fill-opacity="0.2"/>
<path d="M6.02344 19.4749C6.02344 18.9893 6.02344 18.5272 6.02344 18.0322C7.49903 18.0322 8.97087 18.0322 10.4728 18.0322C10.4728 18.5037 10.4728 18.9771 10.4728 19.4749C8.99905 19.4749 7.53848 19.4749 6.02344 19.4749Z" fill="url(#paint7_linear_356_138)"/>
<path d="M6.02344 19.4749C6.02344 18.9893 6.02344 18.5272 6.02344 18.0322C7.49903 18.0322 8.97087 18.0322 10.4728 18.0322C10.4728 18.5037 10.4728 18.9771 10.4728 19.4749C8.99905 19.4749 7.53848 19.4749 6.02344 19.4749Z" fill="black" fill-opacity="0.2"/>
<path d="M3.03125 15.0229C3.50934 15.0229 3.97052 15.0229 4.46833 15.0229C4.46833 15.4898 4.46833 15.9632 4.46833 16.4675C4.00433 16.4675 3.53188 16.4675 3.03125 16.4675C3.03125 15.9913 3.03125 15.5189 3.03125 15.0229Z" fill="url(#paint8_linear_356_138)"/>
<path d="M3.03125 15.0229C3.50934 15.0229 3.97052 15.0229 4.46833 15.0229C4.46833 15.4898 4.46833 15.9632 4.46833 16.4675C4.00433 16.4675 3.53188 16.4675 3.03125 16.4675C3.03125 15.9913 3.03125 15.5189 3.03125 15.0229Z" fill="black" fill-opacity="0.2"/>
<path d="M4.471 19.4789C3.97413 19.4789 3.51295 19.4789 3.02734 19.4789C3.02734 18.997 3.02734 18.5349 3.02734 18.0371C3.49134 18.0371 3.96474 18.0371 4.471 18.0371C4.471 18.4983 4.471 18.9698 4.471 19.4789Z" fill="url(#paint9_linear_356_138)"/>
<path d="M4.471 19.4789C3.97413 19.4789 3.51295 19.4789 3.02734 19.4789C3.02734 18.997 3.02734 18.5349 3.02734 18.0371C3.49134 18.0371 3.96474 18.0371 4.471 18.0371C4.471 18.4983 4.471 18.9698 4.471 19.4789Z" fill="black" fill-opacity="0.2"/>
<path d="M41.9799 15.0332C41.9799 15.5273 41.9799 15.9894 41.9799 16.4759C40.4987 16.4759 39.0381 16.4759 37.5391 16.4759C37.5391 16.0147 37.5391 15.5413 37.5391 15.0332C38.9977 15.0332 40.4696 15.0332 41.9799 15.0332Z" fill="url(#paint10_linear_356_138)"/>
<path d="M41.9799 15.0332C41.9799 15.5273 41.9799 15.9894 41.9799 16.4759C40.4987 16.4759 39.0381 16.4759 37.5391 16.4759C37.5391 16.0147 37.5391 15.5413 37.5391 15.0332C38.9977 15.0332 40.4696 15.0332 41.9799 15.0332Z" fill="black" fill-opacity="0.2"/>
<path d="M41.9799 18.0332C41.9799 18.5273 41.9799 18.9894 41.9799 19.475C40.4987 19.475 39.0381 19.475 37.5391 19.475C37.5391 19.0138 37.5391 18.5404 37.5391 18.0332C38.9977 18.0332 40.4686 18.0332 41.9799 18.0332Z" fill="url(#paint11_linear_356_138)"/>
<path d="M41.9799 18.0332C41.9799 18.5273 41.9799 18.9894 41.9799 19.475C40.4987 19.475 39.0381 19.475 37.5391 19.475C37.5391 19.0138 37.5391 18.5404 37.5391 18.0332C38.9977 18.0332 40.4686 18.0332 41.9799 18.0332Z" fill="black" fill-opacity="0.2"/>
<path d="M35.986 15.0371C35.986 15.519 35.986 15.9801 35.986 16.4704C35.4976 16.4704 35.0252 16.4704 34.5273 16.4704C34.5273 15.998 34.5273 15.5359 34.5273 15.0371C34.9895 15.0371 35.4619 15.0371 35.986 15.0371Z" fill="url(#paint12_linear_356_138)"/>
<path d="M35.986 15.0371C35.986 15.519 35.986 15.9801 35.986 16.4704C35.4976 16.4704 35.0252 16.4704 34.5273 16.4704C34.5273 15.998 34.5273 15.5359 34.5273 15.0371C34.9895 15.0371 35.4619 15.0371 35.986 15.0371Z" fill="black" fill-opacity="0.2"/>
<path d="M35.9646 19.4836C35.4827 19.4836 35.0215 19.4836 34.5312 19.4836C34.5312 18.9952 34.5312 18.5227 34.5312 18.0249C35.0037 18.0249 35.4658 18.0249 35.9646 18.0249C35.9646 18.487 35.9646 18.9595 35.9646 19.4836Z" fill="url(#paint13_linear_356_138)"/>
<path d="M35.9646 19.4836C35.4827 19.4836 35.0215 19.4836 34.5312 19.4836C34.5312 18.9952 34.5312 18.5227 34.5312 18.0249C35.0037 18.0249 35.4658 18.0249 35.9646 18.0249C35.9646 18.487 35.9646 18.9595 35.9646 19.4836Z" fill="black" fill-opacity="0.2"/>
<defs>
<linearGradient id="paint0_linear_356_138" x1="0" y1="0" x2="46.2748" y2="43.6511" gradientUnits="userSpaceOnUse">
<stop stop-color="#2842EF"/>
<stop offset="1" stop-color="#A25FFD"/>
</linearGradient>
<linearGradient id="paint1_linear_356_138" x1="18" y1="25.5229" x2="31.2235" y2="33.0362" gradientUnits="userSpaceOnUse">
<stop stop-color="#2842EF"/>
<stop offset="1" stop-color="#A25FFD"/>
</linearGradient>
<linearGradient id="paint2_linear_356_138" x1="21.7852" y1="6.02002" x2="22.7003" y2="8.67686" gradientUnits="userSpaceOnUse">
<stop stop-color="#2842EF"/>
<stop offset="1" stop-color="#A25FFD"/>
</linearGradient>
<linearGradient id="paint3_linear_356_138" x1="21.7852" y1="9.02832" x2="22.6889" y2="11.6765" gradientUnits="userSpaceOnUse">
<stop stop-color="#2842EF"/>
<stop offset="1" stop-color="#A25FFD"/>
</linearGradient>
<linearGradient id="paint4_linear_356_138" x1="18.7852" y1="6.02832" x2="20.2612" y2="7.44448" gradientUnits="userSpaceOnUse">
<stop stop-color="#2842EF"/>
<stop offset="1" stop-color="#A25FFD"/>
</linearGradient>
<linearGradient id="paint5_linear_356_138" x1="18.7617" y1="9.03613" x2="20.2285" y2="10.4526" gradientUnits="userSpaceOnUse">
<stop stop-color="#2842EF"/>
<stop offset="1" stop-color="#A25FFD"/>
</linearGradient>
<linearGradient id="paint6_linear_356_138" x1="6.03906" y1="15.0303" x2="6.96001" y2="17.6936" gradientUnits="userSpaceOnUse">
<stop stop-color="#2842EF"/>
<stop offset="1" stop-color="#A25FFD"/>
</linearGradient>
<linearGradient id="paint7_linear_356_138" x1="6.02344" y1="18.0322" x2="6.93707" y2="20.6903" gradientUnits="userSpaceOnUse">
<stop stop-color="#2842EF"/>
<stop offset="1" stop-color="#A25FFD"/>
</linearGradient>
<linearGradient id="paint8_linear_356_138" x1="3.03125" y1="15.0229" x2="4.51622" y2="16.4165" gradientUnits="userSpaceOnUse">
<stop stop-color="#2842EF"/>
<stop offset="1" stop-color="#A25FFD"/>
</linearGradient>
<linearGradient id="paint9_linear_356_138" x1="3.02734" y1="18.0371" x2="4.51" y2="19.4376" gradientUnits="userSpaceOnUse">
<stop stop-color="#2842EF"/>
<stop offset="1" stop-color="#A25FFD"/>
</linearGradient>
<linearGradient id="paint10_linear_356_138" x1="37.5391" y1="15.0332" x2="38.4541" y2="17.6902" gradientUnits="userSpaceOnUse">
<stop stop-color="#2842EF"/>
<stop offset="1" stop-color="#A25FFD"/>
</linearGradient>
<linearGradient id="paint11_linear_356_138" x1="37.5391" y1="18.0332" x2="38.453" y2="20.6888" gradientUnits="userSpaceOnUse">
<stop stop-color="#2842EF"/>
<stop offset="1" stop-color="#A25FFD"/>
</linearGradient>
<linearGradient id="paint12_linear_356_138" x1="34.5273" y1="15.0371" x2="36.0025" y2="16.4533" gradientUnits="userSpaceOnUse">
<stop stop-color="#2842EF"/>
<stop offset="1" stop-color="#A25FFD"/>
</linearGradient>
<linearGradient id="paint13_linear_356_138" x1="34.5312" y1="18.0249" x2="36.0294" y2="19.4136" gradientUnits="userSpaceOnUse">
<stop stop-color="#2842EF"/>
<stop offset="1" stop-color="#A25FFD"/>
</linearGradient>
</defs>
</svg>
