<svg width="60" height="60" viewBox="0 0 60 60" fill="none" xmlns="http://www.w3.org/2000/svg">
<path d="M6.18052 0C22.0578 0 37.9364 0 53.8136 0C53.8719 0.0281799 53.9275 0.0669274 53.9912 0.0810173C56.4508 0.661054 57.7144 2.08766 57.7212 4.29979C57.7253 5.62777 57.705 6.95575 57.7334 8.28373C57.7416 8.64302 57.8324 9.01758 57.9802 9.35456C58.5727 10.7025 59.2167 12.034 59.8093 13.3819C59.9408 13.6814 60.0181 14.0266 59.9964 14.3448C59.9028 15.735 59.3306 16.9784 58.2229 17.9894C57.8243 18.3534 57.7117 18.7091 57.7131 19.18C57.7239 31.2492 57.7212 43.3196 57.7212 55.39C57.7212 55.6248 57.7266 55.8585 57.7144 56.0933C57.5992 58.3137 55.6345 59.9927 53.0679 59.9939C37.6869 60.0033 22.3059 60.0033 6.92489 59.9833C6.27001 59.9822 5.56089 59.8483 4.96973 59.6064C3.08235 58.835 2.26883 57.4659 2.26883 55.6812C2.27561 43.5133 2.27019 31.3467 2.27968 19.1788C2.27968 18.708 2.17663 18.3475 1.76716 17.9894C0.911606 17.2403 0.400443 16.3009 0.133336 15.2724C-0.0673328 14.4986 -0.0714004 13.7553 0.329937 12.991C0.953638 11.8027 1.47972 10.5757 2.01257 9.35456C2.16036 9.01758 2.25256 8.64302 2.25934 8.28373C2.28781 6.87825 2.25527 5.4716 2.27561 4.06496C2.30273 2.10175 3.68436 0.595301 5.86867 0.104501C5.97714 0.0821915 6.07747 0.0363991 6.18052 0ZM4.58059 19.6825C4.58059 19.9479 4.58059 20.1416 4.58059 20.3353C4.58059 32.0911 4.58059 43.848 4.58059 55.6037C4.58059 57.2464 5.45513 58.0025 7.35063 58.0037C22.4374 58.0037 37.5242 58.0037 52.6096 58.0037C54.5485 58.0037 55.4122 57.2558 55.4122 55.5732C55.4122 43.8362 55.4122 32.0993 55.4122 20.3635C55.4122 20.1534 55.4122 19.9432 55.4122 19.6849C52.0876 20.4727 49.407 19.7013 47.3312 17.3894C44.3889 20.8473 38.6468 20.8708 35.7358 17.3753C34.3094 19.0637 32.3963 19.9925 29.9774 19.989C27.568 19.9854 25.6657 19.0461 24.2217 17.3448C22.7642 19.059 20.8524 19.9901 18.4349 19.9901C16.0241 19.989 14.1219 19.0449 12.6792 17.3612C10.5749 19.699 7.91603 20.4657 4.58059 19.6825ZM55.3281 7.95261C55.3647 7.87747 55.3973 7.84224 55.3973 7.80819C55.404 6.73383 55.4108 5.66064 55.4122 4.58628C55.4135 2.68414 54.6271 1.99608 52.4564 1.99608C38.3146 1.99608 24.1743 1.99608 10.0325 1.99608C8.99531 1.99608 7.95671 1.98316 6.92082 2.00078C5.71274 2.02074 4.71889 2.69118 4.64296 3.71623C4.54127 5.11114 4.6172 6.51544 4.6172 7.95261C21.5344 7.95261 38.4163 7.95261 55.3281 7.95261ZM2.83559 13.0027C5.82392 13.0027 8.70108 13.0039 11.5782 12.998C11.6976 12.998 11.8887 12.951 11.924 12.8806C12.3782 11.9436 12.8121 10.9996 13.2799 9.99096C10.2793 9.99096 7.4225 9.98744 4.56703 9.99918C4.42331 10.0004 4.19959 10.0978 4.14942 10.2C3.70334 11.1064 3.28845 12.0246 2.83559 13.0027ZM57.1599 13.0039C56.7043 12.0223 56.2948 11.1017 55.8379 10.1988C55.7783 10.0825 55.4773 10.0004 55.2874 9.99918C52.5432 9.98744 49.7975 9.99214 47.0532 9.99448C46.9732 9.99448 46.8932 10.0156 46.7441 10.0368C47.0112 10.6274 47.2512 11.1663 47.498 11.7029C48.0973 13.0039 48.0986 13.0039 49.704 13.0039C52.1527 13.0039 54.6027 13.0039 57.1599 13.0039ZM23.9601 9.99096C21.2605 9.99096 18.6993 9.98627 16.138 10.0015C15.9794 10.0027 15.7353 10.1201 15.6784 10.2364C15.2404 11.1252 14.8391 12.0281 14.3917 13.0027C17.3095 13.0027 20.1351 13.0062 22.9594 12.9921C23.0869 12.991 23.2997 12.8524 23.3255 12.7502C23.5479 11.8626 23.739 10.9679 23.9601 9.99096ZM45.6038 13.0027C45.1903 12.0962 44.7944 11.2755 44.4432 10.4395C44.2967 10.0896 44.0771 9.97805 43.6514 9.98039C41.3125 9.99801 38.9736 9.98861 36.6347 9.99096C36.4625 9.99096 36.2903 10.0156 36.0463 10.0344C36.2564 10.969 36.4449 11.8638 36.6754 12.7502C36.7025 12.8571 36.9574 12.9898 37.1079 12.991C39.8969 13.0074 42.6846 13.0027 45.6038 13.0027ZM34.3501 12.9792C34.1386 12.0528 33.9515 11.1569 33.7142 10.2704C33.683 10.1518 33.4023 10.0039 33.2342 10.0027C31.0716 9.98509 28.909 9.98509 26.7477 10.0027C26.5837 10.0039 26.3071 10.1577 26.2759 10.2786C26.0413 11.1628 25.8542 12.0563 25.6468 12.9792C28.5741 12.9792 31.4282 12.9792 34.3501 12.9792ZM11.2867 15.0434C8.335 15.0434 5.42394 15.0434 2.5034 15.0434C2.92507 16.733 4.80295 17.9894 6.87337 18.0011C8.95327 18.014 10.8528 16.7494 11.2867 15.0434ZM48.6857 15.0152C49.2403 16.908 51.3351 18.1772 53.4787 17.9765C55.5315 17.7851 57.3823 16.4042 57.4324 15.0152C54.5295 15.0152 51.6279 15.0152 48.6857 15.0152ZM14.05 15.0176C14.5503 16.8598 16.6234 18.1491 18.744 17.9858C20.8226 17.825 22.6801 16.4712 22.7899 15.0176C19.8911 15.0176 16.9922 15.0176 14.05 15.0176ZM37.1933 15.0234C37.3737 16.6109 39.5037 18.0399 41.6013 18.0011C43.7097 17.9624 45.7963 16.5111 45.8831 15.0234C42.987 15.0234 40.0908 15.0234 37.1933 15.0234ZM25.6115 15.0199C26.002 16.7389 27.9911 18.0516 30.0764 17.9999C32.178 17.9483 34.0857 16.6309 34.3664 15.0199C31.4634 15.0199 28.5646 15.0199 25.6115 15.0199Z" fill="black"/>
<path d="M8.06515 29.9975C8.06515 29.2754 8.05837 28.5533 8.0665 27.8312C8.07871 26.8531 8.58038 26.0958 9.54034 25.6026C11.0508 24.8277 12.5788 24.0774 14.1123 23.3377C15.0682 22.8762 16.0621 22.8774 17.018 23.3377C18.5325 24.0668 20.0348 24.816 21.533 25.5709C22.554 26.0852 23.0557 26.8837 23.0719 27.8934C23.0936 29.2977 23.0936 30.7044 23.0719 32.1087C23.0557 33.1185 22.5526 33.9169 21.5317 34.4312C20.0334 35.185 18.5311 35.9341 17.0152 36.6621C16.0851 37.1083 15.1103 37.1353 14.1733 36.6844C12.5992 35.9271 11.0318 35.1592 9.4861 34.3596C8.54784 33.8746 8.08006 33.1161 8.06922 32.1639C8.05837 31.4418 8.06515 30.7197 8.06515 29.9975ZM10.3701 29.9494C10.3701 30.6128 10.3891 31.2762 10.3633 31.9396C10.3484 32.34 10.522 32.5936 10.9233 32.7885C12.2982 33.4543 13.6473 34.1611 15.0384 34.7987C15.3163 34.9267 15.8031 34.9326 16.0783 34.8069C17.4898 34.16 18.8796 33.4742 20.2382 32.7474C20.5039 32.6054 20.7358 32.2273 20.7466 31.9514C20.8008 30.6457 20.7995 29.3377 20.752 28.0308C20.7425 27.7702 20.5283 27.4085 20.2788 27.277C18.8796 26.5338 17.4491 25.8316 16.0038 25.1541C15.7746 25.0461 15.3624 25.0414 15.1347 25.1482C13.6907 25.8257 12.2616 26.5279 10.861 27.2711C10.6142 27.4026 10.4189 27.7537 10.3905 28.0191C10.324 28.6578 10.3701 29.3048 10.3701 29.9494Z" fill="black"/>
<path d="M23.0771 47.0217C23.0771 47.7051 23.0879 48.3885 23.0744 49.0707C23.054 50.1051 22.5564 50.9164 21.5097 51.4413C20.0291 52.1845 18.5458 52.9219 17.0529 53.6464C16.0754 54.1207 15.0679 54.129 14.0876 53.6534C12.5555 52.9102 11.0261 52.1622 9.51972 51.3838C8.56112 50.8883 8.0703 50.1227 8.06623 49.1458C8.06081 47.7216 8.06216 46.2961 8.06487 44.8719C8.06623 43.8691 8.57468 43.0977 9.55904 42.5928C11.0505 41.8284 12.5582 41.0875 14.0714 40.356C15.0734 39.8723 16.0957 39.8828 17.0977 40.3748C18.5661 41.0957 20.0331 41.8202 21.4948 42.5505C22.5429 43.073 23.0472 43.8809 23.0716 44.9141C23.0906 45.6163 23.0771 46.3184 23.0771 47.0217ZM20.7694 46.9947C20.7707 46.9947 20.7721 46.9947 20.7734 46.9947C20.7734 46.3513 20.8317 45.702 20.7477 45.0656C20.7084 44.7685 20.4765 44.3858 20.1945 44.2331C18.8576 43.5133 17.4868 42.8382 16.0943 42.2006C15.8164 42.0726 15.3283 42.0679 15.0503 42.1948C13.6578 42.8312 12.3087 43.538 10.9325 44.2002C10.5 44.4081 10.3536 44.6863 10.3604 45.102C10.3821 46.3501 10.3875 47.5994 10.3576 48.8476C10.3468 49.3161 10.5285 49.6049 11.0044 49.8315C12.3454 50.4691 13.6714 51.1313 14.9893 51.8041C15.3839 52.0061 15.716 52.019 16.116 51.8159C17.4746 51.1255 18.8657 50.482 20.2013 49.7611C20.4819 49.6096 20.7029 49.2221 20.7423 48.9227C20.8263 48.2875 20.7694 47.6382 20.7694 46.9947Z" fill="black"/>
<path d="M48.5108 24.0105C49.0667 24.0387 49.4843 24.2946 49.5656 24.7596C49.6294 25.1318 49.8707 25.248 50.1717 25.4324C50.6218 25.7095 51.053 26.0418 51.3866 26.421C51.7838 26.8719 51.6293 27.4567 51.1411 27.769C50.6381 28.0919 50.0266 28.0261 49.5656 27.5964C49.4585 27.4966 49.3744 27.3768 49.2592 27.2852C48.866 26.9752 48.3575 26.8719 47.963 27.1443C47.6566 27.3557 47.4044 27.7549 47.361 28.093C47.304 28.5322 47.6864 28.8433 48.2016 28.9537C48.4186 29.0007 48.6477 29.0065 48.8714 29.0312C50.4008 29.1944 51.5872 30.1443 51.8815 31.4429C52.1635 32.6876 51.4611 33.985 50.1405 34.6061C49.83 34.7517 49.6307 34.8821 49.5697 35.2343C49.4897 35.6981 49.0816 35.9705 48.5121 35.9846C47.9115 35.9999 47.4803 35.7298 47.3786 35.2425C47.3027 34.8809 47.0776 34.7517 46.7739 34.5674C46.3224 34.2926 45.8926 33.9592 45.559 33.5799C45.1604 33.1279 45.3136 32.5455 45.8031 32.232C46.3075 31.9103 46.9163 31.9831 47.3827 32.4011C47.5969 32.5936 47.8166 32.8155 48.0877 32.9189C48.6979 33.1502 49.4083 32.8132 49.5805 32.2625C49.7473 31.7283 49.3744 31.1799 48.7399 31.0496C48.5216 31.005 48.2938 30.9944 48.0701 30.9698C46.5285 30.8007 45.3719 29.8719 45.0641 28.5557C44.7753 27.324 45.4804 26.023 46.8064 25.3948C47.1196 25.2469 47.3054 25.1095 47.3732 24.7655C47.4722 24.2747 47.9047 24.0164 48.5108 24.0105Z" fill="black"/>
<path d="M51.93 49.2433C51.9001 50.1321 51.3198 51.0268 50.1429 51.6045C49.8379 51.7548 49.6304 51.8757 49.5708 52.2303C49.4935 52.6941 49.0867 52.9665 48.5159 52.9806C47.9152 52.9959 47.4841 52.7305 47.3797 52.2421C47.3037 51.8828 47.0868 51.7501 46.779 51.5658C46.3262 51.2934 45.8964 50.9587 45.5615 50.5806C45.1642 50.1321 45.3174 49.5415 45.8001 49.2315C46.2963 48.9122 46.9282 48.9791 47.3783 49.4018C47.4854 49.5016 47.5668 49.6237 47.6834 49.7141C48.0752 50.0159 48.524 50.091 48.9945 49.8773C49.4596 49.6648 49.686 49.3114 49.6006 48.857C49.5179 48.412 49.2101 48.1184 48.68 48.0362C48.4359 47.9987 48.1878 47.9846 47.9424 47.9529C46.4604 47.7568 45.3215 46.7893 45.0544 45.5012C44.8062 44.3024 45.4896 43.039 46.7451 42.4225C47.0624 42.2676 47.3132 42.1537 47.3783 41.7674C47.461 41.2789 47.9017 41.003 48.501 41.0159C49.1003 41.0288 49.4148 41.34 49.6182 41.8073C49.7131 42.0257 49.9274 42.2182 50.1253 42.3885C50.5361 42.7407 51.0337 43.0308 51.3849 43.4206C51.7876 43.8679 51.6317 44.4539 51.1449 44.7685C50.6392 45.0938 50.0331 45.0304 49.5694 44.6006C49.4623 44.5008 49.3769 44.3811 49.263 44.2895C48.8711 43.976 48.3586 43.8797 47.9668 44.1462C47.659 44.3552 47.4068 44.7544 47.3634 45.0926C47.3065 45.5317 47.6847 45.8441 48.2027 45.9521C48.421 45.9979 48.6474 46.0096 48.8711 46.0319C50.6216 46.2045 51.9178 47.448 51.93 49.2433Z" fill="black"/>
<path d="M34.5912 31.0038C32.453 31.0038 30.3134 31.0061 28.1752 31.0015C27.9068 31.0015 27.6288 30.9991 27.3726 30.9404C26.8261 30.8148 26.5441 30.4672 26.5509 29.9905C26.5563 29.5161 26.8397 29.1721 27.3929 29.0547C27.6288 29.0042 27.8837 28.9995 28.1291 28.9995C32.4516 28.996 36.7742 28.996 41.0967 28.9995C41.3434 28.9995 41.5956 29.0042 41.8329 29.0523C42.3861 29.1651 42.6817 29.5091 42.6898 29.9799C42.698 30.4778 42.3983 30.8371 41.8126 30.951C41.5522 31.0015 41.277 31.0015 41.0072 31.0015C38.8676 31.005 36.7294 31.0038 34.5912 31.0038Z" fill="black"/>
<path d="M34.6636 41.0065C36.8696 41.0065 39.077 41.0042 41.283 41.0077C42.148 41.0089 42.6741 41.374 42.6971 41.9693C42.7202 42.5846 42.1656 43.0014 41.287 43.0014C36.8289 43.0049 32.3708 43.0049 27.9114 43.0014C27.0639 43.0002 26.5365 42.6057 26.5352 42.0022C26.5338 41.3987 27.0585 41.01 27.9087 41.0089C30.1608 41.0042 32.4115 41.0065 34.6636 41.0065Z" fill="black"/>
<path d="M34.602 24.0093C36.8311 24.0093 39.0601 24.007 41.2892 24.0105C42.1542 24.0117 42.6789 24.378 42.6965 24.9745C42.7155 25.5897 42.161 26.003 41.281 26.0042C36.8229 26.0077 32.3648 26.0054 27.9067 26.0066C27.2572 26.0066 26.7474 25.821 26.5834 25.2269C26.4451 24.7267 26.6647 24.3322 27.1962 24.1173C27.4281 24.0234 27.7182 24.014 27.9826 24.0128C30.1886 24.0058 32.396 24.0093 34.602 24.0093Z" fill="black"/>
<path d="M34.593 46.0037C36.799 46.0037 39.005 45.9955 41.2123 46.0131C41.5567 46.0155 41.9974 46.0531 42.2184 46.2339C42.4747 46.4441 42.7038 46.8597 42.6414 47.1333C42.5723 47.4327 42.1994 47.7274 41.8767 47.92C41.6679 48.0444 41.3113 48.0045 41.0212 48.0045C36.7434 48.0092 32.4656 48.008 28.1892 48.0069C28.0089 48.0069 27.8272 48.0127 27.6496 47.994C26.9798 47.9259 26.5432 47.5325 26.5391 47.0053C26.5337 46.4558 26.9974 46.0261 27.7052 46.0167C29.3932 45.9932 31.0813 46.0061 32.7707 46.0037C33.3781 46.0026 33.9855 46.0037 34.593 46.0037Z" fill="black"/>
<path d="M32.2514 35.9905C30.8101 35.9905 29.3675 35.994 27.9262 35.9893C27.0639 35.9858 26.5473 35.6136 26.5392 35.0077C26.531 34.4018 27.0571 33.9967 27.9018 33.9956C30.8305 33.9897 33.7592 33.9897 36.6878 33.9956C37.5353 33.9967 38.0735 34.3924 38.0817 34.9877C38.0912 35.5854 37.5542 35.9858 36.7109 35.9893C35.2249 35.9952 33.7375 35.9905 32.2514 35.9905Z" fill="black"/>
<path d="M32.2473 52.99C30.806 52.99 29.3634 52.9947 27.9221 52.9889C27.0584 52.9853 26.5445 52.6108 26.5391 52.0049C26.535 51.4002 27.0597 50.9963 27.9058 50.9951C30.8345 50.9881 33.7632 50.9892 36.6918 50.9951C37.5379 50.9963 38.0748 51.3967 38.0816 51.992C38.0884 52.5908 37.5569 52.9853 36.7081 52.9889C35.2221 52.9947 33.7347 52.99 32.2473 52.99Z" fill="black"/>
<path d="M48.5251 5.99058C47.3997 5.99058 46.2744 5.9988 45.149 5.98824C44.3585 5.98119 43.8487 5.57258 43.8595 4.98432C43.869 4.4172 44.3626 4.00272 45.1137 3.9992C47.3645 3.98746 49.6139 3.98511 51.8646 4.00038C52.5981 4.00507 53.0998 4.45008 53.0903 5.01133C53.0808 5.5761 52.5805 5.97884 51.8334 5.98706C50.7297 5.9988 49.6274 5.99058 48.5251 5.99058Z" fill="black"/>
<path d="M8.64093 5.98706C8.4389 5.98706 8.23552 5.99763 8.0335 5.98471C7.38268 5.94597 6.91762 5.5444 6.9027 5.01955C6.88779 4.50057 7.33929 4.05909 7.98469 4.00625C8.36433 3.97455 8.7494 3.98276 9.13175 3.99803C9.86257 4.02503 10.3683 4.44773 10.3642 5.00664C10.3588 5.57258 9.85986 5.96593 9.11548 5.98941C8.9582 5.99411 8.80092 5.99058 8.64228 5.99058C8.64093 5.98941 8.64093 5.98824 8.64093 5.98706Z" fill="black"/>
<path d="M14.4183 5.98706C14.2163 5.98706 14.0129 5.99763 13.8109 5.98472C13.1506 5.94597 12.6964 5.55615 12.6801 5.02425C12.6638 4.50175 13.1086 4.06143 13.7526 4.00625C14.1323 3.97455 14.5173 3.98277 14.8997 3.99686C15.6413 4.02386 16.1362 4.43364 16.1335 5.00077C16.1322 5.56906 15.6359 5.96475 14.8915 5.98824C14.7343 5.99293 14.577 5.98941 14.4197 5.98941C14.4183 5.98941 14.4183 5.98824 14.4183 5.98706Z" fill="black"/>
<path d="M20.1882 5.98706C19.9862 5.98706 19.7828 5.99763 19.5808 5.98472C18.911 5.94362 18.4812 5.56554 18.469 5.01955C18.4581 4.47826 18.8757 4.06143 19.532 4.00625C19.9102 3.97455 20.2967 3.98277 20.6777 3.99686C21.4275 4.02504 21.8966 4.42425 21.8925 5.00664C21.8885 5.59724 21.4288 5.96475 20.66 5.98941C20.5028 5.99411 20.3455 5.99059 20.1882 5.99059C20.1882 5.98941 20.1882 5.98824 20.1882 5.98706Z" fill="black"/>
</svg>
