<svg width="45" height="45" viewBox="0 0 45 45" fill="none" xmlns="http://www.w3.org/2000/svg">
<path d="M9.00908 21.7497C9.00908 19.6307 9.01284 17.5709 9.00063 15.511C8.9997 15.3777 8.90395 15.22 8.80632 15.1176C8.38671 14.6764 7.93706 14.2633 7.52308 13.8164C7.30342 13.5798 7.07156 13.5 6.74957 13.4887C6.20981 13.4699 5.83995 13.5507 5.51328 14.0952C5.00636 14.942 3.90993 15.2002 2.9806 14.8613C2.04 14.5177 1.45611 13.6154 1.51243 12.5893C1.565 11.626 2.26905 10.8035 3.24532 10.566C4.19437 10.335 5.21382 10.751 5.68131 11.6241C5.85122 11.9414 6.03896 12.0541 6.36845 12.0006C7.40105 11.8316 8.21492 12.1649 8.84856 13.0117C9.13581 13.3957 9.5113 13.714 9.87271 14.0886C10.7917 13.6032 11.6844 13.1329 12.5744 12.6597C13.1254 12.3667 13.8914 12.1968 14.1617 11.7368C14.4434 11.257 14.2509 10.4947 14.2556 9.85622C14.2612 9.09293 14.2565 8.32869 14.2565 7.50437C13.4887 7.50437 12.7452 7.49217 12.0036 7.51845C11.905 7.52221 11.7924 7.70998 11.722 7.83297C11.1907 8.75494 10.174 9.18963 9.16303 8.91548C8.15578 8.64321 7.48835 7.74566 7.50806 6.69038C7.52684 5.6595 8.24778 4.79387 9.28319 4.55634C10.2294 4.33946 11.2348 4.77416 11.7004 5.66138C11.8525 5.95055 12.0224 6.01346 12.3143 6.00876C13.1573 5.9928 14.0012 5.99937 14.8442 6.00407C15.4872 6.00782 15.7538 6.27352 15.7566 6.91758C15.7613 8.24232 15.7585 9.56799 15.7585 10.9387C15.8974 10.8815 15.9979 10.8486 16.0889 10.8007C17.8678 9.86092 19.6439 8.91454 21.4275 7.98319C21.664 7.8602 21.7682 7.72688 21.7626 7.44804C21.7438 6.54204 21.7476 5.63603 21.7607 4.73003C21.7645 4.48593 21.7016 4.34979 21.4678 4.22586C20.5075 3.71418 20.071 2.71335 20.3301 1.70126C20.5901 0.676955 21.4706 -0.00559857 22.5211 3.46068e-05C23.5452 0.00566779 24.4154 0.687283 24.6754 1.68811C24.9383 2.70021 24.5046 3.70667 23.5509 4.21929C23.3256 4.3404 23.243 4.46433 23.2476 4.71689C23.2627 5.63885 23.243 6.56081 23.2645 7.48184C23.2683 7.63206 23.3734 7.85175 23.4973 7.91841C25.3363 8.91173 27.1856 9.88533 29.0339 10.8617C29.0856 10.889 29.1466 10.8974 29.2517 10.9284C29.2517 9.64967 29.2517 8.40474 29.2517 7.15981C29.2517 6.19372 29.4404 6.00219 30.3904 6.00219C31.1714 6.00219 31.9524 5.98811 32.7325 6.0097C33.0216 6.01815 33.1624 5.9252 33.3014 5.66795C33.8336 4.67839 34.9864 4.25966 36.0312 4.64178C37.0516 5.01451 37.6721 6.09232 37.474 7.1476C37.2656 8.25734 36.2837 9.0535 35.16 8.99529C34.3161 8.95116 33.6722 8.54557 33.2798 7.79542C33.1587 7.56446 33.0291 7.49029 32.7794 7.49592C32.1252 7.51282 31.4709 7.50155 30.7499 7.50155C30.7499 7.73627 30.7499 7.94845 30.7499 8.1597C30.7499 9.25347 30.7396 10.3473 30.7621 11.4401C30.7659 11.5988 30.8898 11.825 31.025 11.8983C32.3655 12.6324 33.7191 13.3413 35.1159 14.0811C35.651 13.5422 36.2011 13.0146 36.7183 12.4569C37.03 12.1217 37.3736 11.9443 37.8335 11.9978C37.9565 12.0119 38.0842 11.9912 38.2081 12.0015C38.7488 12.0457 39.1534 11.9884 39.4932 11.4082C39.9935 10.5538 41.0909 10.2994 42.0231 10.6364C42.9627 10.9763 43.5513 11.8832 43.4959 12.9057C43.4433 13.8708 42.7431 14.6914 41.7668 14.9327C40.8196 15.1664 39.7983 14.7515 39.3289 13.8793C39.16 13.5657 38.9694 13.515 38.6465 13.484C38.025 13.4239 37.642 13.7178 37.183 14.0905C36.2255 14.8688 35.8678 15.7701 35.9749 17.0029C36.0875 18.3041 36.0002 19.6223 36.0002 20.9433C36.5099 21.0212 37.0028 21.0681 37.4834 21.1752C40.5371 21.8549 42.713 24.5523 42.7459 27.6852C42.7534 28.4335 42.7468 29.1827 42.7468 29.9554C42.9402 29.9967 43.1176 30.0286 43.2932 30.0737C44.2769 30.3253 44.9847 31.1628 44.9885 32.174C45.0026 35.72 45.0054 39.2671 44.9875 42.8132C44.9819 44.0168 44.0009 44.9866 42.7928 44.9894C38.2635 45.0035 33.7341 45.0035 29.2057 44.9894C27.961 44.9857 27.0138 43.9858 27.0082 42.7174C26.996 40.2651 27.0007 37.8118 26.9978 35.3595C26.9978 35.3445 26.9922 35.3285 26.9763 35.2478C26.8326 35.3182 26.7012 35.3792 26.5726 35.4468C25.4142 36.059 24.2502 36.6608 23.1021 37.2926C22.6882 37.5208 22.3315 37.518 21.9165 37.2945C20.0494 36.2881 18.171 35.3022 16.2964 34.3099C16.1462 34.2301 15.9941 34.1559 15.7594 34.0376C15.7594 34.3474 15.7594 34.6009 15.7594 34.8544C15.7594 35.9322 15.7632 37.01 15.7576 38.0888C15.7548 38.7291 15.4853 38.9939 14.8404 38.9976C13.9815 39.0023 13.1226 39.0061 12.2636 38.9948C12.0074 38.991 11.8572 39.0474 11.7211 39.3037C11.217 40.2566 10.1994 40.6857 9.18838 40.42C8.19052 40.1571 7.51182 39.283 7.509 38.2578C7.50619 37.211 8.19427 36.3303 9.21654 36.0721C10.2257 35.8167 11.2057 36.2655 11.7511 37.2119C11.8215 37.3349 11.9811 37.4813 12.105 37.487C12.7123 37.5151 13.3225 37.5001 13.9318 37.4992C14.0228 37.4992 14.1139 37.4907 14.2594 37.4842C14.2594 36.5031 14.1777 35.5313 14.2819 34.5793C14.3955 33.5438 14.0397 32.9795 13.0785 32.5795C11.9895 32.1251 10.9748 31.4933 9.89899 30.9224C9.34327 31.4792 8.78473 32.0228 8.24778 32.5871C7.96992 32.8781 7.66577 33.0443 7.25649 33.0039C7.08658 32.987 6.91197 33.0152 6.74206 32.9983C6.22577 32.9485 5.85497 33.033 5.54144 33.5691C5.04579 34.415 3.94748 34.6976 3.01721 34.3765C2.07567 34.0507 1.47395 33.1494 1.51525 32.1251C1.55468 31.1562 2.24652 30.3216 3.21528 30.0747C4.1709 29.8305 5.1575 30.2427 5.68131 31.0867C5.778 31.2417 5.93664 31.4858 6.05398 31.4783C6.50081 31.4501 6.99552 31.6979 7.39166 31.3083C7.87041 30.837 8.34728 30.3638 8.81383 29.8812C8.90395 29.7883 8.95839 29.655 9.00721 29.5311C9.03349 29.4635 9.01284 29.3771 9.01284 29.2982C9.01284 27.3012 9.01284 25.3052 9.01284 23.2519C8.23464 23.2519 7.49117 23.2519 6.74676 23.2519C6.09059 23.2519 5.43442 23.2688 4.77919 23.2444C4.48819 23.2341 4.3502 23.3336 4.21127 23.588C3.6715 24.5795 2.52344 24.9935 1.47958 24.6095C0.439473 24.2265 -0.181023 23.1167 0.0470864 22.0539C0.281767 20.9611 1.2449 20.1978 2.35447 20.256C3.19838 20.3011 3.82169 20.7189 4.24694 21.4512C4.31922 21.5761 4.47505 21.7347 4.59426 21.7366C6.04459 21.7563 7.49492 21.7497 9.00908 21.7497ZM12.7583 22.499C12.7583 24.2171 12.763 25.9352 12.7537 27.6533C12.7527 27.9134 12.81 28.0711 13.0662 28.1979C16.1246 29.7151 19.1755 31.2501 22.2348 32.7654C22.3831 32.8387 22.6328 32.834 22.7839 32.7598C24.8266 31.7562 26.8589 30.729 28.8997 29.7198C29.1541 29.594 29.2771 29.4541 29.2583 29.1546C29.2301 28.7189 29.248 28.2805 29.2517 27.843C29.2696 25.5719 30.1801 23.7439 31.959 22.3328C32.1101 22.2126 32.234 21.9591 32.2369 21.7657C32.2594 20.2983 32.2378 18.8299 32.2585 17.3615C32.2631 17.0404 32.143 16.9005 31.8717 16.7663C28.8546 15.2697 25.8423 13.7638 22.8337 12.2484C22.5802 12.1208 22.3934 12.1377 22.1465 12.2625C19.1389 13.7779 16.1274 15.2857 13.1094 16.7794C12.8231 16.9212 12.749 17.0902 12.7508 17.3915C12.7659 19.0946 12.7583 20.7968 12.7583 22.499ZM35.9965 31.4989C33.8261 31.4989 31.6549 31.498 29.4845 31.4998C28.7495 31.5008 28.5017 31.7477 28.5017 32.4838C28.4998 35.8271 28.4998 39.1704 28.5017 42.5137C28.5017 43.2488 28.7504 43.4976 29.4855 43.4976C33.8271 43.4985 38.1687 43.4985 42.5103 43.4976C43.2443 43.4976 43.494 43.2478 43.494 42.5127C43.4959 39.1694 43.4959 35.8261 43.494 32.4828C43.494 31.7486 43.2443 31.4998 42.5093 31.4998C40.3381 31.498 38.1677 31.4989 35.9965 31.4989ZM34.4982 21.1611C34.4982 19.3848 34.4898 17.6366 34.5058 15.8894C34.5086 15.5664 34.4109 15.3965 34.1199 15.2425C30.3519 13.2605 26.5914 11.2664 22.8327 9.26662C22.6027 9.14363 22.4291 9.13612 22.1935 9.26098C18.4076 11.2748 14.6142 13.2756 10.8321 15.2951C10.6819 15.3749 10.5242 15.6115 10.5232 15.7758C10.5063 20.2579 10.5073 24.741 10.5214 29.2231C10.5223 29.3808 10.6528 29.6109 10.7889 29.6841C14.6001 31.7177 18.4179 33.7372 22.2413 35.7463C22.3774 35.8177 22.6112 35.8318 22.7436 35.7632C24.0887 35.0713 25.4227 34.3577 26.7557 33.6433C26.8523 33.5916 26.9791 33.4846 26.9866 33.3945C27.0147 33.0659 26.9978 32.7326 26.9978 32.3411C25.6198 33.0293 24.3197 33.6677 23.0317 34.3296C22.6619 34.5192 22.3418 34.5136 21.9719 34.3277C18.5869 32.6246 15.1962 30.9328 11.8046 29.2428C11.4254 29.0541 11.2545 28.7781 11.2554 28.3528C11.262 24.448 11.262 20.5433 11.2554 16.6386C11.2545 16.2095 11.4357 15.9429 11.8131 15.7542C15.1906 14.0708 18.5662 12.3855 21.9362 10.6871C22.3399 10.4834 22.6835 10.49 23.0834 10.6918C26.4111 12.3686 29.7436 14.037 33.0827 15.6903C33.5652 15.9288 33.7689 16.2461 33.7595 16.7888C33.7332 18.3022 33.7501 19.8166 33.7501 21.377C34.0064 21.3047 34.227 21.2399 34.4982 21.1611ZM32.2491 29.9798C32.2491 29.6747 32.2378 29.4109 32.2509 29.148C32.2932 28.3415 32.2294 27.5059 32.4171 26.7342C32.8527 24.9438 34.6484 23.7861 36.4301 24.0227C38.3151 24.2734 39.7016 25.7963 39.7401 27.6768C39.756 28.4363 39.7429 29.1968 39.7429 29.9704C40.2667 29.9704 40.7389 29.9704 41.2402 29.9704C41.2402 29.164 41.2561 28.3856 41.2373 27.6092C41.182 25.3062 39.5852 23.2745 37.3914 22.6924C35.1 22.0849 32.7503 23.0304 31.5131 25.0161C30.5462 26.5689 30.7659 28.273 30.7603 29.9798C31.2634 29.9798 31.7253 29.9798 32.2491 29.9798ZM38.2466 29.977C38.2466 29.7883 38.2475 29.6212 38.2466 29.4541C38.2409 28.7847 38.286 28.1096 38.2175 27.4458C38.1095 26.3999 37.2196 25.5888 36.188 25.5061C35.1629 25.4235 34.0899 26.0413 33.8947 27.0355C33.706 27.9923 33.7557 28.9959 33.7013 29.977C35.2821 29.977 36.7418 29.977 38.2466 29.977ZM21.7579 2.21669C21.7372 2.61759 22.0536 2.97154 22.4563 2.99876C22.8562 3.02505 23.2148 2.71429 23.2486 2.31246C23.2833 1.89466 22.9491 1.52005 22.5295 1.50691C22.1259 1.49283 21.7785 1.81298 21.7579 2.21669ZM10.5054 6.74295C10.5017 6.34018 10.1656 6.00595 9.76288 6.00407C9.36204 6.00125 9.02129 6.33361 9.01284 6.73638C9.00439 7.15793 9.35923 7.51094 9.7779 7.49874C10.1797 7.48653 10.5092 7.14479 10.5054 6.74295ZM35.9936 6.75234C35.9946 6.34863 35.6623 6.01158 35.2596 6.00501C34.8371 5.99843 34.4889 6.35239 34.5011 6.77394C34.5133 7.17671 34.8559 7.50437 35.2577 7.4978C35.6613 7.49217 35.9936 7.15605 35.9936 6.75234ZM4.5079 12.7395C4.50227 12.3376 4.16433 12.0043 3.76162 12.0034C3.35984 12.0025 3.0219 12.3367 3.01533 12.7385C3.00876 13.1591 3.36548 13.5122 3.78415 13.4971C4.18592 13.484 4.51447 13.1404 4.5079 12.7395ZM41.9911 12.7564C41.994 12.3536 41.6645 12.0128 41.2618 12.0043C40.8393 11.995 40.4892 12.347 40.4986 12.7686C40.508 13.1714 40.8478 13.5009 41.2505 13.4971C41.6541 13.4943 41.9883 13.1601 41.9911 12.7564ZM3.00876 22.4915C3.005 22.0887 2.66894 21.7544 2.26623 21.7526C1.86539 21.7497 1.52464 22.0821 1.51619 22.4849C1.50774 22.9064 1.86258 23.2594 2.28125 23.2472C2.68396 23.235 3.01251 22.8933 3.00876 22.4915ZM3.7588 32.9955C4.16057 32.9964 4.49945 32.665 4.50884 32.2622C4.51823 31.8425 4.16151 31.4886 3.7419 31.5008C3.34013 31.5121 3.01064 31.8547 3.01627 32.2566C3.02096 32.6612 3.35609 32.9945 3.7588 32.9955ZM10.5054 38.2578C10.512 37.8569 10.1834 37.5133 9.78165 37.5001C9.38176 37.487 9.03161 37.8118 9.01284 38.2137C8.99312 38.6333 9.33951 38.9957 9.75912 38.9948C10.1618 38.9939 10.4988 38.6606 10.5054 38.2578Z" fill="url(#paint0_linear_356_145)"/>
<path d="M9.00908 21.7497C9.00908 19.6307 9.01284 17.5709 9.00063 15.511C8.9997 15.3777 8.90395 15.22 8.80632 15.1176C8.38671 14.6764 7.93706 14.2633 7.52308 13.8164C7.30342 13.5798 7.07156 13.5 6.74957 13.4887C6.20981 13.4699 5.83995 13.5507 5.51328 14.0952C5.00636 14.942 3.90993 15.2002 2.9806 14.8613C2.04 14.5177 1.45611 13.6154 1.51243 12.5893C1.565 11.626 2.26905 10.8035 3.24532 10.566C4.19437 10.335 5.21382 10.751 5.68131 11.6241C5.85122 11.9414 6.03896 12.0541 6.36845 12.0006C7.40105 11.8316 8.21492 12.1649 8.84856 13.0117C9.13581 13.3957 9.5113 13.714 9.87271 14.0886C10.7917 13.6032 11.6844 13.1329 12.5744 12.6597C13.1254 12.3667 13.8914 12.1968 14.1617 11.7368C14.4434 11.257 14.2509 10.4947 14.2556 9.85622C14.2612 9.09293 14.2565 8.32869 14.2565 7.50437C13.4887 7.50437 12.7452 7.49217 12.0036 7.51845C11.905 7.52221 11.7924 7.70998 11.722 7.83297C11.1907 8.75494 10.174 9.18963 9.16303 8.91548C8.15578 8.64321 7.48835 7.74566 7.50806 6.69038C7.52684 5.6595 8.24778 4.79387 9.28319 4.55634C10.2294 4.33946 11.2348 4.77416 11.7004 5.66138C11.8525 5.95055 12.0224 6.01346 12.3143 6.00876C13.1573 5.9928 14.0012 5.99937 14.8442 6.00407C15.4872 6.00782 15.7538 6.27352 15.7566 6.91758C15.7613 8.24232 15.7585 9.56799 15.7585 10.9387C15.8974 10.8815 15.9979 10.8486 16.0889 10.8007C17.8678 9.86092 19.6439 8.91454 21.4275 7.98319C21.664 7.8602 21.7682 7.72688 21.7626 7.44804C21.7438 6.54204 21.7476 5.63603 21.7607 4.73003C21.7645 4.48593 21.7016 4.34979 21.4678 4.22586C20.5075 3.71418 20.071 2.71335 20.3301 1.70126C20.5901 0.676955 21.4706 -0.00559857 22.5211 3.46068e-05C23.5452 0.00566779 24.4154 0.687283 24.6754 1.68811C24.9383 2.70021 24.5046 3.70667 23.5509 4.21929C23.3256 4.3404 23.243 4.46433 23.2476 4.71689C23.2627 5.63885 23.243 6.56081 23.2645 7.48184C23.2683 7.63206 23.3734 7.85175 23.4973 7.91841C25.3363 8.91173 27.1856 9.88533 29.0339 10.8617C29.0856 10.889 29.1466 10.8974 29.2517 10.9284C29.2517 9.64967 29.2517 8.40474 29.2517 7.15981C29.2517 6.19372 29.4404 6.00219 30.3904 6.00219C31.1714 6.00219 31.9524 5.98811 32.7325 6.0097C33.0216 6.01815 33.1624 5.9252 33.3014 5.66795C33.8336 4.67839 34.9864 4.25966 36.0312 4.64178C37.0516 5.01451 37.6721 6.09232 37.474 7.1476C37.2656 8.25734 36.2837 9.0535 35.16 8.99529C34.3161 8.95116 33.6722 8.54557 33.2798 7.79542C33.1587 7.56446 33.0291 7.49029 32.7794 7.49592C32.1252 7.51282 31.4709 7.50155 30.7499 7.50155C30.7499 7.73627 30.7499 7.94845 30.7499 8.1597C30.7499 9.25347 30.7396 10.3473 30.7621 11.4401C30.7659 11.5988 30.8898 11.825 31.025 11.8983C32.3655 12.6324 33.7191 13.3413 35.1159 14.0811C35.651 13.5422 36.2011 13.0146 36.7183 12.4569C37.03 12.1217 37.3736 11.9443 37.8335 11.9978C37.9565 12.0119 38.0842 11.9912 38.2081 12.0015C38.7488 12.0457 39.1534 11.9884 39.4932 11.4082C39.9935 10.5538 41.0909 10.2994 42.0231 10.6364C42.9627 10.9763 43.5513 11.8832 43.4959 12.9057C43.4433 13.8708 42.7431 14.6914 41.7668 14.9327C40.8196 15.1664 39.7983 14.7515 39.3289 13.8793C39.16 13.5657 38.9694 13.515 38.6465 13.484C38.025 13.4239 37.642 13.7178 37.183 14.0905C36.2255 14.8688 35.8678 15.7701 35.9749 17.0029C36.0875 18.3041 36.0002 19.6223 36.0002 20.9433C36.5099 21.0212 37.0028 21.0681 37.4834 21.1752C40.5371 21.8549 42.713 24.5523 42.7459 27.6852C42.7534 28.4335 42.7468 29.1827 42.7468 29.9554C42.9402 29.9967 43.1176 30.0286 43.2932 30.0737C44.2769 30.3253 44.9847 31.1628 44.9885 32.174C45.0026 35.72 45.0054 39.2671 44.9875 42.8132C44.9819 44.0168 44.0009 44.9866 42.7928 44.9894C38.2635 45.0035 33.7341 45.0035 29.2057 44.9894C27.961 44.9857 27.0138 43.9858 27.0082 42.7174C26.996 40.2651 27.0007 37.8118 26.9978 35.3595C26.9978 35.3445 26.9922 35.3285 26.9763 35.2478C26.8326 35.3182 26.7012 35.3792 26.5726 35.4468C25.4142 36.059 24.2502 36.6608 23.1021 37.2926C22.6882 37.5208 22.3315 37.518 21.9165 37.2945C20.0494 36.2881 18.171 35.3022 16.2964 34.3099C16.1462 34.2301 15.9941 34.1559 15.7594 34.0376C15.7594 34.3474 15.7594 34.6009 15.7594 34.8544C15.7594 35.9322 15.7632 37.01 15.7576 38.0888C15.7548 38.7291 15.4853 38.9939 14.8404 38.9976C13.9815 39.0023 13.1226 39.0061 12.2636 38.9948C12.0074 38.991 11.8572 39.0474 11.7211 39.3037C11.217 40.2566 10.1994 40.6857 9.18838 40.42C8.19052 40.1571 7.51182 39.283 7.509 38.2578C7.50619 37.211 8.19427 36.3303 9.21654 36.0721C10.2257 35.8167 11.2057 36.2655 11.7511 37.2119C11.8215 37.3349 11.9811 37.4813 12.105 37.487C12.7123 37.5151 13.3225 37.5001 13.9318 37.4992C14.0228 37.4992 14.1139 37.4907 14.2594 37.4842C14.2594 36.5031 14.1777 35.5313 14.2819 34.5793C14.3955 33.5438 14.0397 32.9795 13.0785 32.5795C11.9895 32.1251 10.9748 31.4933 9.89899 30.9224C9.34327 31.4792 8.78473 32.0228 8.24778 32.5871C7.96992 32.8781 7.66577 33.0443 7.25649 33.0039C7.08658 32.987 6.91197 33.0152 6.74206 32.9983C6.22577 32.9485 5.85497 33.033 5.54144 33.5691C5.04579 34.415 3.94748 34.6976 3.01721 34.3765C2.07567 34.0507 1.47395 33.1494 1.51525 32.1251C1.55468 31.1562 2.24652 30.3216 3.21528 30.0747C4.1709 29.8305 5.1575 30.2427 5.68131 31.0867C5.778 31.2417 5.93664 31.4858 6.05398 31.4783C6.50081 31.4501 6.99552 31.6979 7.39166 31.3083C7.87041 30.837 8.34728 30.3638 8.81383 29.8812C8.90395 29.7883 8.95839 29.655 9.00721 29.5311C9.03349 29.4635 9.01284 29.3771 9.01284 29.2982C9.01284 27.3012 9.01284 25.3052 9.01284 23.2519C8.23464 23.2519 7.49117 23.2519 6.74676 23.2519C6.09059 23.2519 5.43442 23.2688 4.77919 23.2444C4.48819 23.2341 4.3502 23.3336 4.21127 23.588C3.6715 24.5795 2.52344 24.9935 1.47958 24.6095C0.439473 24.2265 -0.181023 23.1167 0.0470864 22.0539C0.281767 20.9611 1.2449 20.1978 2.35447 20.256C3.19838 20.3011 3.82169 20.7189 4.24694 21.4512C4.31922 21.5761 4.47505 21.7347 4.59426 21.7366C6.04459 21.7563 7.49492 21.7497 9.00908 21.7497ZM12.7583 22.499C12.7583 24.2171 12.763 25.9352 12.7537 27.6533C12.7527 27.9134 12.81 28.0711 13.0662 28.1979C16.1246 29.7151 19.1755 31.2501 22.2348 32.7654C22.3831 32.8387 22.6328 32.834 22.7839 32.7598C24.8266 31.7562 26.8589 30.729 28.8997 29.7198C29.1541 29.594 29.2771 29.4541 29.2583 29.1546C29.2301 28.7189 29.248 28.2805 29.2517 27.843C29.2696 25.5719 30.1801 23.7439 31.959 22.3328C32.1101 22.2126 32.234 21.9591 32.2369 21.7657C32.2594 20.2983 32.2378 18.8299 32.2585 17.3615C32.2631 17.0404 32.143 16.9005 31.8717 16.7663C28.8546 15.2697 25.8423 13.7638 22.8337 12.2484C22.5802 12.1208 22.3934 12.1377 22.1465 12.2625C19.1389 13.7779 16.1274 15.2857 13.1094 16.7794C12.8231 16.9212 12.749 17.0902 12.7508 17.3915C12.7659 19.0946 12.7583 20.7968 12.7583 22.499ZM35.9965 31.4989C33.8261 31.4989 31.6549 31.498 29.4845 31.4998C28.7495 31.5008 28.5017 31.7477 28.5017 32.4838C28.4998 35.8271 28.4998 39.1704 28.5017 42.5137C28.5017 43.2488 28.7504 43.4976 29.4855 43.4976C33.8271 43.4985 38.1687 43.4985 42.5103 43.4976C43.2443 43.4976 43.494 43.2478 43.494 42.5127C43.4959 39.1694 43.4959 35.8261 43.494 32.4828C43.494 31.7486 43.2443 31.4998 42.5093 31.4998C40.3381 31.498 38.1677 31.4989 35.9965 31.4989ZM34.4982 21.1611C34.4982 19.3848 34.4898 17.6366 34.5058 15.8894C34.5086 15.5664 34.4109 15.3965 34.1199 15.2425C30.3519 13.2605 26.5914 11.2664 22.8327 9.26662C22.6027 9.14363 22.4291 9.13612 22.1935 9.26098C18.4076 11.2748 14.6142 13.2756 10.8321 15.2951C10.6819 15.3749 10.5242 15.6115 10.5232 15.7758C10.5063 20.2579 10.5073 24.741 10.5214 29.2231C10.5223 29.3808 10.6528 29.6109 10.7889 29.6841C14.6001 31.7177 18.4179 33.7372 22.2413 35.7463C22.3774 35.8177 22.6112 35.8318 22.7436 35.7632C24.0887 35.0713 25.4227 34.3577 26.7557 33.6433C26.8523 33.5916 26.9791 33.4846 26.9866 33.3945C27.0147 33.0659 26.9978 32.7326 26.9978 32.3411C25.6198 33.0293 24.3197 33.6677 23.0317 34.3296C22.6619 34.5192 22.3418 34.5136 21.9719 34.3277C18.5869 32.6246 15.1962 30.9328 11.8046 29.2428C11.4254 29.0541 11.2545 28.7781 11.2554 28.3528C11.262 24.448 11.262 20.5433 11.2554 16.6386C11.2545 16.2095 11.4357 15.9429 11.8131 15.7542C15.1906 14.0708 18.5662 12.3855 21.9362 10.6871C22.3399 10.4834 22.6835 10.49 23.0834 10.6918C26.4111 12.3686 29.7436 14.037 33.0827 15.6903C33.5652 15.9288 33.7689 16.2461 33.7595 16.7888C33.7332 18.3022 33.7501 19.8166 33.7501 21.377C34.0064 21.3047 34.227 21.2399 34.4982 21.1611ZM32.2491 29.9798C32.2491 29.6747 32.2378 29.4109 32.2509 29.148C32.2932 28.3415 32.2294 27.5059 32.4171 26.7342C32.8527 24.9438 34.6484 23.7861 36.4301 24.0227C38.3151 24.2734 39.7016 25.7963 39.7401 27.6768C39.756 28.4363 39.7429 29.1968 39.7429 29.9704C40.2667 29.9704 40.7389 29.9704 41.2402 29.9704C41.2402 29.164 41.2561 28.3856 41.2373 27.6092C41.182 25.3062 39.5852 23.2745 37.3914 22.6924C35.1 22.0849 32.7503 23.0304 31.5131 25.0161C30.5462 26.5689 30.7659 28.273 30.7603 29.9798C31.2634 29.9798 31.7253 29.9798 32.2491 29.9798ZM38.2466 29.977C38.2466 29.7883 38.2475 29.6212 38.2466 29.4541C38.2409 28.7847 38.286 28.1096 38.2175 27.4458C38.1095 26.3999 37.2196 25.5888 36.188 25.5061C35.1629 25.4235 34.0899 26.0413 33.8947 27.0355C33.706 27.9923 33.7557 28.9959 33.7013 29.977C35.2821 29.977 36.7418 29.977 38.2466 29.977ZM21.7579 2.21669C21.7372 2.61759 22.0536 2.97154 22.4563 2.99876C22.8562 3.02505 23.2148 2.71429 23.2486 2.31246C23.2833 1.89466 22.9491 1.52005 22.5295 1.50691C22.1259 1.49283 21.7785 1.81298 21.7579 2.21669ZM10.5054 6.74295C10.5017 6.34018 10.1656 6.00595 9.76288 6.00407C9.36204 6.00125 9.02129 6.33361 9.01284 6.73638C9.00439 7.15793 9.35923 7.51094 9.7779 7.49874C10.1797 7.48653 10.5092 7.14479 10.5054 6.74295ZM35.9936 6.75234C35.9946 6.34863 35.6623 6.01158 35.2596 6.00501C34.8371 5.99843 34.4889 6.35239 34.5011 6.77394C34.5133 7.17671 34.8559 7.50437 35.2577 7.4978C35.6613 7.49217 35.9936 7.15605 35.9936 6.75234ZM4.5079 12.7395C4.50227 12.3376 4.16433 12.0043 3.76162 12.0034C3.35984 12.0025 3.0219 12.3367 3.01533 12.7385C3.00876 13.1591 3.36548 13.5122 3.78415 13.4971C4.18592 13.484 4.51447 13.1404 4.5079 12.7395ZM41.9911 12.7564C41.994 12.3536 41.6645 12.0128 41.2618 12.0043C40.8393 11.995 40.4892 12.347 40.4986 12.7686C40.508 13.1714 40.8478 13.5009 41.2505 13.4971C41.6541 13.4943 41.9883 13.1601 41.9911 12.7564ZM3.00876 22.4915C3.005 22.0887 2.66894 21.7544 2.26623 21.7526C1.86539 21.7497 1.52464 22.0821 1.51619 22.4849C1.50774 22.9064 1.86258 23.2594 2.28125 23.2472C2.68396 23.235 3.01251 22.8933 3.00876 22.4915ZM3.7588 32.9955C4.16057 32.9964 4.49945 32.665 4.50884 32.2622C4.51823 31.8425 4.16151 31.4886 3.7419 31.5008C3.34013 31.5121 3.01064 31.8547 3.01627 32.2566C3.02096 32.6612 3.35609 32.9945 3.7588 32.9955ZM10.5054 38.2578C10.512 37.8569 10.1834 37.5133 9.78165 37.5001C9.38176 37.487 9.03161 37.8118 9.01284 38.2137C8.99312 38.6333 9.33951 38.9957 9.75912 38.9948C10.1618 38.9939 10.4988 38.6606 10.5054 38.2578Z" fill="black" fill-opacity="0.2"/>
<path d="M17.2622 22.1065C17.2622 21.0042 17.2622 19.902 17.2622 18.7754C17.7569 18.7754 18.2197 18.7754 18.7257 18.7754C18.7341 18.9012 18.7519 19.0345 18.7519 19.1688C18.7538 21.1986 18.7538 23.2284 18.7529 25.2582C18.7529 25.8394 18.5633 26.1577 18.1502 26.2299C17.6602 26.3154 17.4161 26.0178 17.2218 25.6197C16.7731 24.6987 16.3066 23.787 15.7621 22.8848C15.7621 23.9917 15.7621 25.0986 15.7621 26.2271C15.2458 26.2271 14.783 26.2271 14.2817 26.2271C14.2724 26.0938 14.2555 25.9596 14.2555 25.8253C14.2536 23.7955 14.2536 21.7656 14.2545 19.7358C14.2545 19.15 14.4432 18.8345 14.8534 18.7632C15.3434 18.6787 15.5894 18.9707 15.7828 19.3706C16.2305 20.2944 16.698 21.208 17.1571 22.1262C17.1937 22.1196 17.2275 22.113 17.2622 22.1065Z" fill="url(#paint1_linear_356_145)"/>
<path d="M17.2622 22.1065C17.2622 21.0042 17.2622 19.902 17.2622 18.7754C17.7569 18.7754 18.2197 18.7754 18.7257 18.7754C18.7341 18.9012 18.7519 19.0345 18.7519 19.1688C18.7538 21.1986 18.7538 23.2284 18.7529 25.2582C18.7529 25.8394 18.5633 26.1577 18.1502 26.2299C17.6602 26.3154 17.4161 26.0178 17.2218 25.6197C16.7731 24.6987 16.3066 23.787 15.7621 22.8848C15.7621 23.9917 15.7621 25.0986 15.7621 26.2271C15.2458 26.2271 14.783 26.2271 14.2817 26.2271C14.2724 26.0938 14.2555 25.9596 14.2555 25.8253C14.2536 23.7955 14.2536 21.7656 14.2545 19.7358C14.2545 19.15 14.4432 18.8345 14.8534 18.7632C15.3434 18.6787 15.5894 18.9707 15.7828 19.3706C16.2305 20.2944 16.698 21.208 17.1571 22.1262C17.1937 22.1196 17.2275 22.113 17.2622 22.1065Z" fill="black" fill-opacity="0.2"/>
<path d="M21.7635 20.2392C21.7635 20.7744 21.7635 21.2259 21.7635 21.7292C22.4938 21.7292 23.2176 21.7292 23.9723 21.7292C23.9723 22.2531 23.9723 22.7262 23.9723 23.2351C23.2514 23.2351 22.5389 23.2351 21.7748 23.2351C21.7748 24.2416 21.7748 25.2161 21.7748 26.2198C21.251 26.2198 20.7779 26.2198 20.27 26.2198C20.2644 26.1052 20.2559 26.0001 20.255 25.8959C20.2541 23.8341 20.2531 21.7733 20.255 19.7116C20.2559 19.0065 20.5094 18.7539 21.2134 18.752C22.3681 18.7492 23.5227 18.7511 24.7139 18.7511C24.7139 19.2402 24.7139 19.7134 24.7139 20.2392C23.7527 20.2392 22.7783 20.2392 21.7635 20.2392Z" fill="url(#paint2_linear_356_145)"/>
<path d="M21.7635 20.2392C21.7635 20.7744 21.7635 21.2259 21.7635 21.7292C22.4938 21.7292 23.2176 21.7292 23.9723 21.7292C23.9723 22.2531 23.9723 22.7262 23.9723 23.2351C23.2514 23.2351 22.5389 23.2351 21.7748 23.2351C21.7748 24.2416 21.7748 25.2161 21.7748 26.2198C21.251 26.2198 20.7779 26.2198 20.27 26.2198C20.2644 26.1052 20.2559 26.0001 20.255 25.8959C20.2541 23.8341 20.2531 21.7733 20.255 19.7116C20.2559 19.0065 20.5094 18.7539 21.2134 18.752C22.3681 18.7492 23.5227 18.7511 24.7139 18.7511C24.7139 19.2402 24.7139 19.7134 24.7139 20.2392C23.7527 20.2392 22.7783 20.2392 21.7635 20.2392Z" fill="black" fill-opacity="0.2"/>
<path d="M27.7582 20.2497C27.2268 20.2497 26.7753 20.2497 26.2891 20.2497C26.2891 19.7605 26.2891 19.2873 26.2891 18.7822C27.7516 18.7822 29.2226 18.7822 30.7227 18.7822C30.7227 19.2582 30.7227 19.7314 30.7227 20.2384C30.2448 20.2384 29.7821 20.2384 29.2723 20.2384C29.2723 22.2429 29.2723 24.2145 29.2723 26.2171C28.7523 26.2171 28.2801 26.2171 27.7582 26.2171C27.7582 24.2427 27.7582 22.272 27.7582 20.2497Z" fill="url(#paint3_linear_356_145)"/>
<path d="M27.7582 20.2497C27.2268 20.2497 26.7753 20.2497 26.2891 20.2497C26.2891 19.7605 26.2891 19.2873 26.2891 18.7822C27.7516 18.7822 29.2226 18.7822 30.7227 18.7822C30.7227 19.2582 30.7227 19.7314 30.7227 20.2384C30.2448 20.2384 29.7821 20.2384 29.2723 20.2384C29.2723 22.2429 29.2723 24.2145 29.2723 26.2171C28.7523 26.2171 28.2801 26.2171 27.7582 26.2171C27.7582 24.2427 27.7582 22.272 27.7582 20.2497Z" fill="black" fill-opacity="0.2"/>
<path d="M35.9711 41.9984C35.2849 41.9984 34.5978 42.0031 33.9116 41.9974C33.2169 41.9918 32.925 41.6369 33.0273 40.945C33.1165 40.3432 33.1841 39.7376 33.2911 39.1395C33.4347 38.3396 33.4582 37.5989 33.1446 36.7849C32.6668 35.5446 33.276 34.1654 34.4025 33.4603C35.5271 32.7562 36.9615 32.8679 37.9697 33.7401C38.9666 34.6011 39.2501 36.0122 38.7272 37.244C38.5977 37.55 38.5573 37.9293 38.592 38.2626C38.6887 39.193 38.8539 40.115 38.9779 41.0426C39.0586 41.6407 38.7441 41.9899 38.1255 41.9974C37.4064 42.0049 36.6892 41.9974 35.9711 41.9984ZM37.3736 40.4727C37.2403 39.5254 37.0929 38.6335 37.0028 37.735C36.9756 37.4665 37.0478 37.1435 37.1858 36.9116C37.6355 36.1539 37.5848 35.4151 36.9849 34.8799C36.4208 34.3767 35.5891 34.3701 35.0193 34.8639C34.4147 35.3878 34.3546 36.1502 34.793 36.8947C34.9366 37.1388 35.0108 37.4768 34.9836 37.7594C34.8972 38.6579 34.7489 39.5498 34.6203 40.4718C35.5384 40.4727 36.4367 40.4727 37.3736 40.4727Z" fill="url(#paint4_linear_356_145)"/>
<path d="M35.9711 41.9984C35.2849 41.9984 34.5978 42.0031 33.9116 41.9974C33.2169 41.9918 32.925 41.6369 33.0273 40.945C33.1165 40.3432 33.1841 39.7376 33.2911 39.1395C33.4347 38.3396 33.4582 37.5989 33.1446 36.7849C32.6668 35.5446 33.276 34.1654 34.4025 33.4603C35.5271 32.7562 36.9615 32.8679 37.9697 33.7401C38.9666 34.6011 39.2501 36.0122 38.7272 37.244C38.5977 37.55 38.5573 37.9293 38.592 38.2626C38.6887 39.193 38.8539 40.115 38.9779 41.0426C39.0586 41.6407 38.7441 41.9899 38.1255 41.9974C37.4064 42.0049 36.6892 41.9974 35.9711 41.9984ZM37.3736 40.4727C37.2403 39.5254 37.0929 38.6335 37.0028 37.735C36.9756 37.4665 37.0478 37.1435 37.1858 36.9116C37.6355 36.1539 37.5848 35.4151 36.9849 34.8799C36.4208 34.3767 35.5891 34.3701 35.0193 34.8639C34.4147 35.3878 34.3546 36.1502 34.793 36.8947C34.9366 37.1388 35.0108 37.4768 34.9836 37.7594C34.8972 38.6579 34.7489 39.5498 34.6203 40.4718C35.5384 40.4727 36.4367 40.4727 37.3736 40.4727Z" fill="black" fill-opacity="0.2"/>
<defs>
<linearGradient id="paint0_linear_356_145" x1="0" y1="0" x2="46.2724" y2="43.6512" gradientUnits="userSpaceOnUse">
<stop stop-color="#2842EF"/>
<stop offset="1" stop-color="#A25FFD"/>
</linearGradient>
<linearGradient id="paint1_linear_356_145" x1="14.2539" y1="18.7485" x2="20.8752" y2="22.4978" gradientUnits="userSpaceOnUse">
<stop stop-color="#2842EF"/>
<stop offset="1" stop-color="#A25FFD"/>
</linearGradient>
<linearGradient id="paint2_linear_356_145" x1="20.2539" y1="18.7505" x2="26.8336" y2="22.4568" gradientUnits="userSpaceOnUse">
<stop stop-color="#2842EF"/>
<stop offset="1" stop-color="#A25FFD"/>
</linearGradient>
<linearGradient id="paint3_linear_356_145" x1="26.2891" y1="18.7822" x2="32.8339" y2="22.464" gradientUnits="userSpaceOnUse">
<stop stop-color="#2842EF"/>
<stop offset="1" stop-color="#A25FFD"/>
</linearGradient>
<linearGradient id="paint4_linear_356_145" x1="32.9805" y1="33" x2="41.3422" y2="38.2669" gradientUnits="userSpaceOnUse">
<stop stop-color="#2842EF"/>
<stop offset="1" stop-color="#A25FFD"/>
</linearGradient>
</defs>
</svg>
