<svg width="60" height="60" viewBox="0 0 60 60" fill="none" xmlns="http://www.w3.org/2000/svg">
<path d="M47.996 28.9986C50.0082 28.9986 51.9416 29.0099 53.8749 28.9798C54.0464 28.9773 54.2668 28.7394 54.3745 28.5579C55.0982 27.3245 56.4405 26.7448 57.7866 27.1129C59.0988 27.4723 60.0054 28.6693 59.9941 30.0279C59.9828 31.404 59.0362 32.5785 57.6689 32.9116C56.4092 33.2184 55.0581 32.6587 54.4321 31.4816C54.2155 31.0747 53.9763 30.987 53.5668 30.9908C51.7375 31.0071 49.9081 30.9983 47.9985 30.9983C47.9985 31.5505 47.9998 32.0639 47.9985 32.5773C47.9973 33.6942 47.7005 33.9959 46.6074 33.9997C46.1491 34.001 45.6908 33.9859 45.2326 34.0047C44.0555 34.0535 43.2116 34.632 42.7646 35.7101C42.3276 36.7644 42.5054 37.7561 43.2792 38.6089C43.6711 39.0408 44.1094 39.429 44.5051 39.856C44.9709 40.3606 44.9846 40.8602 44.5051 41.3486C43.134 42.746 41.7491 44.1308 40.3517 45.5032C39.8446 46.0015 39.345 45.9715 38.814 45.4694C38.4058 45.0825 38.0264 44.6642 37.612 44.2861C36.7392 43.491 35.725 43.3244 34.6569 43.7865C33.6126 44.2385 33.0479 45.0762 33.0041 46.2282C32.984 46.7691 33.0078 47.3113 32.9966 47.8535C32.9815 48.626 32.6147 48.9942 31.8333 48.9979C30.0002 49.0067 28.167 49.0067 26.3339 48.9954C25.9933 48.9929 25.7917 49.0618 25.6089 49.4049C25.0442 50.4692 24.1163 50.9989 22.9093 50.9989C16.3067 51.0026 9.70289 51.0051 3.10032 50.9976C1.27844 50.9951 0.00375644 49.7079 0.00375644 47.8735C-0.00125215 35.9568 -0.00125215 24.0401 0.00375644 12.1234C0.00250429 10.2891 1.27594 9.0031 3.09781 9.00059C9.70038 8.99308 16.3042 8.99558 22.9068 8.99934C24.1401 9.00059 25.0392 9.56781 25.6628 10.6309C25.7679 10.8099 26.0597 10.979 26.2675 10.9815C28.0794 11.009 29.8913 10.9953 31.7044 10.9978C32.6497 10.999 32.9891 11.3358 32.9966 12.2662C33.0003 12.7658 32.9815 13.2667 33.0028 13.7663C33.0517 14.9433 33.6327 15.7872 34.7108 16.233C35.7651 16.6687 36.7568 16.4884 37.6095 15.7134C38.0402 15.3214 38.4296 14.8832 38.8579 14.4875C39.36 14.023 39.8596 14.0117 40.3504 14.4925C41.7466 15.8649 43.1314 17.2497 44.5038 18.6459C44.9834 19.1342 44.9721 19.6338 44.5076 20.1384C44.1269 20.5516 43.7074 20.9298 43.323 21.3392C42.5166 22.1995 42.3188 23.2049 42.7646 24.2843C43.2204 25.3887 44.0893 25.9622 45.2927 25.9935C45.771 26.006 46.2505 25.9935 46.7301 25.9972C47.658 26.0047 47.9923 26.3453 47.9973 27.292C47.9985 27.8329 47.996 28.3726 47.996 28.9986ZM23.9986 30.0266C23.9986 24.1102 23.9999 18.1939 23.9974 12.2787C23.9974 11.3409 23.6556 11.0028 22.7152 10.999C21.5494 10.9953 20.3824 10.9928 19.2167 11.0003C18.3853 11.0053 18.0635 11.3171 17.9946 12.156C17.8594 13.7938 16.6248 14.9733 14.9894 14.9946C13.6772 15.0121 12.3649 15.0096 11.0527 14.9959C9.37482 14.9783 8.13895 13.8126 8.00247 12.1385C7.93485 11.3133 7.60554 11.004 6.76285 11.0003C5.63842 10.994 4.51399 10.9978 3.38831 10.999C2.29519 11.0003 1.99843 11.3033 1.99843 12.4215C1.99843 24.1491 1.99843 35.8779 1.99843 47.6055C1.99843 48.7037 2.30145 49.0017 3.4146 49.0017C9.80932 49.0029 16.2028 49.0029 22.5975 49.0017C23.6969 49.0017 23.9974 48.6987 23.9974 47.588C23.9986 41.7342 23.9986 35.8804 23.9986 30.0266ZM42.3564 40.5447C40.6923 39.0083 40.0073 37.1438 40.9151 34.9438C41.8317 32.725 43.6586 31.8936 45.9475 31.9837C45.9475 30.6164 45.9475 29.3179 45.9475 28.0032C43.7049 28.0946 41.9557 27.3182 41.0078 25.2572C39.966 22.9908 40.6309 21.05 42.3326 19.4723C41.3797 18.5219 40.4581 17.6028 39.5178 16.665C38.0052 18.3053 36.1395 18.9877 33.9407 18.0799C31.7244 17.1646 30.8905 15.3365 30.9819 13.0488C29.2802 13.0488 27.6499 13.0488 26.0472 13.0488C26.0472 15.1874 26.0472 17.276 26.0472 19.3759C32.6923 17.5402 39.37 22.2145 39.956 29.0775C40.2164 32.124 39.3487 34.8725 37.3165 37.1601C34.2825 40.5785 30.4572 41.634 26.0409 40.6236C26.0409 42.781 26.0409 44.8733 26.0409 46.9519C27.7163 46.9519 29.3478 46.9519 30.9956 46.9519C30.8992 44.7068 31.6793 42.9601 33.7391 42.0122C36.0055 40.9692 37.9451 41.6366 39.5453 43.357C40.4844 42.4166 41.3922 41.5076 42.3564 40.5447ZM26.0159 21.5484C26.0159 27.1955 26.0159 32.8139 26.0159 38.4235C29.1475 39.8535 33.5225 38.6564 35.9379 35.7214C38.5361 32.566 38.6901 28.0633 36.311 24.7651C33.9532 21.4933 29.6934 20.1485 26.0159 21.5484ZM9.87944 11.0203C9.92702 11.4222 9.95707 11.7516 10.0072 12.0784C10.0948 12.6506 10.4379 12.9824 11.0139 12.9899C12.3424 13.0075 13.6722 13.005 15.002 12.9899C15.5216 12.9837 15.8634 12.6844 15.9699 12.181C16.05 11.8079 16.0613 11.4197 16.1064 11.0203C14.0153 11.0203 11.9643 11.0203 9.87944 11.0203ZM56.9476 30.9946C57.4848 31.0221 57.9631 30.5864 57.9907 30.0467C58.0182 29.5083 57.5837 29.0312 57.044 29.0036C56.5056 28.9761 56.0286 29.4093 56.0023 29.9503C55.9735 30.4887 56.408 30.967 56.9476 30.9946Z" fill="white"/>
<path d="M35.9963 4.02583C35.9963 5.35812 35.9963 6.64157 35.9963 7.96008C35.3201 7.96008 34.689 7.96008 34.0066 7.96008C34.0066 6.25466 33.9853 4.57427 34.0191 2.89389C34.0292 2.38051 34.396 2.07499 34.9119 2.00737C35.1173 1.98108 35.3276 1.9961 35.5355 1.9961C41.5295 1.9961 47.5248 1.9911 53.5188 2.00487C53.9533 2.00612 54.2088 1.92223 54.4379 1.499C55.0953 0.285671 56.4839 -0.252752 57.7999 0.112875C59.1046 0.474745 60.0087 1.67931 59.9937 3.03539C59.9786 4.36141 59.0721 5.52841 57.7824 5.88152C56.4714 6.23963 55.1003 5.67742 54.4166 4.48162C54.2601 4.20739 54.1637 3.98076 53.7492 3.98326C47.9418 4.00204 42.1356 3.99703 36.3281 3.99829C36.248 3.99829 36.1666 4.01081 35.9963 4.02583ZM56.9785 2.00111C56.4351 2.01113 55.9918 2.47192 56.0018 3.0141C56.0118 3.55628 56.4739 4.00204 57.0136 3.99203C57.5545 3.98201 58.0015 3.51871 57.9902 2.97904C57.9815 2.43686 57.5194 1.9911 56.9785 2.00111Z" fill="white"/>
<path d="M33.9961 52.0294C34.696 52.0294 35.3121 52.0294 35.9745 52.0294C35.9745 53.3379 35.9745 54.6214 35.9745 56.0025C36.2162 56.0025 36.414 56.0025 36.6106 56.0025C42.2715 56.0025 47.9325 55.9987 53.5947 56.01C53.9841 56.0112 54.2083 55.9299 54.4124 55.5467C55.0672 54.3183 56.4371 53.7611 57.7531 54.1092C59.0728 54.4586 59.9894 55.6394 59.9932 56.9942C59.9957 58.3478 59.0829 59.5373 57.7681 59.8916C56.4534 60.246 55.0672 59.6951 54.4236 58.4692C54.202 58.046 53.9466 57.9972 53.5471 57.9972C47.5118 58.0059 41.4752 58.0034 35.4398 58.0022C34.2891 58.0022 33.9986 57.7142 33.9973 56.571C33.9961 55.0759 33.9961 53.5796 33.9961 52.0294ZM57.9897 56.9779C57.976 56.4357 57.5114 55.9937 56.9705 56.0075C56.4283 56.0213 55.9863 56.4846 56.0001 57.0267C56.0138 57.5689 56.4784 58.0122 57.0193 57.9984C57.559 57.9834 58.0035 57.5176 57.9897 56.9779Z" fill="white"/>
<path d="M45.2031 42.6045C45.7503 42.1925 46.2574 41.8094 46.7946 41.4049C47.6173 42.5005 48.3861 43.5636 49.205 44.5841C49.3778 44.8007 49.7346 44.9723 50.0139 44.9823C51.1997 45.0261 52.3879 44.9835 53.575 45.0098C53.9957 45.0186 54.2186 44.8971 54.434 44.5077C55.1564 43.1942 56.7141 42.6733 58.0927 43.218C59.4238 43.7439 60.2214 45.1751 59.9447 46.54C59.6416 48.0363 58.3432 49.0843 56.8506 48.9917C55.7274 48.9215 54.9073 48.3518 54.3363 47.3789C54.2299 47.1986 53.9444 47.022 53.739 47.017C52.2602 46.9857 50.7814 46.9857 49.3027 47.0083C48.753 47.0158 48.3548 46.8367 48.028 46.3872C47.1101 45.1288 46.166 43.8904 45.2031 42.6045ZM56.9696 46.9957C57.5092 47.0108 57.975 46.5663 57.9901 46.0253C58.0038 45.4844 57.5618 45.0199 57.0209 45.0048C56.48 44.9911 56.0154 45.4318 56.0016 45.974C55.9866 46.5162 56.4274 46.982 56.9696 46.9957Z" fill="white"/>
<path d="M46.797 18.587C46.256 18.1851 45.7589 17.8145 45.1992 17.4C45.8829 16.4859 46.544 15.5869 47.2227 14.7004C48.7703 12.6782 48.0904 13.0313 50.6335 13C51.6127 12.9887 52.5919 12.9812 53.5698 13.0062C53.9868 13.0175 54.2147 12.9035 54.4313 12.5079C55.15 11.1931 56.709 10.6697 58.0876 11.2119C59.4186 11.7353 60.2187 13.164 59.9445 14.5301C59.644 16.0252 58.348 17.077 56.8555 16.9881C55.7323 16.9217 54.9109 16.3532 54.3374 15.3815C54.2297 15.2 53.9492 15.0209 53.7426 15.0147C52.4729 14.9809 51.202 14.9784 49.9323 15.0147C49.6907 15.0209 49.3801 15.185 49.2286 15.3765C48.406 16.4171 47.6221 17.4889 46.797 18.587ZM57.9886 14.0117C57.9974 13.4708 57.5504 13.01 57.0082 13.0025C56.466 12.995 56.0078 13.4395 55.999 13.9829C55.9902 14.5238 56.4372 14.9846 56.9794 14.9921C57.5191 15.0009 57.9799 14.5526 57.9886 14.0117Z" fill="white"/>
<path d="M21.9984 31.4992C21.9984 35.8541 21.9984 40.2078 21.9984 44.5628C21.9984 45.7098 21.7079 46.0003 20.5596 46.0003C15.5185 46.0003 10.4774 46.0003 5.43621 46.0003C4.28925 46.0003 4 45.711 4 44.5616C4 35.8529 4 27.1429 4 18.4343C4 17.2848 4.28674 16.998 5.43746 16.998C10.4786 16.998 15.5198 16.998 20.5609 16.998C21.7091 16.998 21.9984 17.2873 21.9984 18.4355C21.9996 22.7905 21.9984 27.1454 21.9984 31.4992ZM6.02723 43.9568C10.7078 43.9568 15.3369 43.9568 19.9498 43.9568C19.9498 36.9485 19.9498 29.9853 19.9498 23.0334C15.2843 23.0334 10.6702 23.0334 6.02723 23.0334C6.02723 30.0154 6.02723 36.9635 6.02723 43.9568ZM6.02723 20.9536C10.7103 20.9536 15.3382 20.9536 19.9686 20.9536C19.9686 20.2924 19.9686 19.6751 19.9686 19.0315C15.3106 19.0315 10.6827 19.0315 6.02723 19.0315C6.02723 19.6814 6.02723 20.2975 6.02723 20.9536Z" fill="white"/>
<path d="M14.0234 40.9529C14.0234 40.3068 14.0234 39.692 14.0234 39.0384C15.3419 39.0384 16.6379 39.0384 17.9664 39.0384C17.9664 39.672 17.9664 40.288 17.9664 40.9529C16.6805 40.9529 15.3833 40.9529 14.0234 40.9529Z" fill="white"/>
<path d="M9.95345 26.9739C9.30108 26.9739 8.68627 26.9739 8.03516 26.9739C8.03516 26.3191 8.03516 25.6892 8.03516 25.0294C8.67626 25.0294 9.29106 25.0294 9.95345 25.0294C9.95345 25.6567 9.95345 26.2865 9.95345 26.9739Z" fill="white"/>
<path d="M12.0117 26.9589C12.0117 26.3016 12.0117 25.7018 12.0117 25.0507C12.6453 25.0507 13.2764 25.0507 13.9538 25.0507C13.9538 25.658 13.9538 26.289 13.9538 26.9589C13.3277 26.9589 12.6979 26.9589 12.0117 26.9589Z" fill="white"/>
</svg>
