<svg width="60" height="60" viewBox="0 0 60 60" fill="none" xmlns="http://www.w3.org/2000/svg">
<path d="M25.9868 38.0286C23.8671 40.5676 20.3139 40.7329 17.9914 38.0173C16.9535 39.2555 15.6477 39.9967 14.0075 39.9967C12.3849 39.9967 11.0816 39.2943 9.9247 37.9009C9.81703 38.0862 9.75193 38.2702 9.62923 38.4004C8.20569 39.9191 6.11483 40.3961 4.19424 39.6537C2.29243 38.9187 1.03667 37.1246 1.00286 35.0688C0.986586 34.111 0.99535 33.152 0.999106 32.1942C1.00787 29.8942 2.43642 28.2867 4.71007 28.0112C4.78895 28.0012 4.86657 27.9874 4.99803 27.9661C4.99803 26.4374 4.99678 24.9212 4.99803 23.4038C4.99929 22.3008 5.29726 22.0053 6.40905 22.0053C8.45108 22.0041 10.4919 21.9978 12.5339 22.0116C12.9057 22.0141 13.076 21.9402 13.1374 21.5233C13.354 20.0547 13.9649 18.7463 14.8439 17.5506C15.0292 17.2977 15.0855 16.9497 15.2007 16.6442C15.1481 16.6029 15.0943 16.5616 15.0417 16.5215C14.7249 16.6492 14.4044 16.7731 14.0901 16.9071C13.1724 17.3002 12.2196 17.6308 11.3495 18.1103C9.78573 18.9704 8.1218 19.1207 6.39904 19.0017C6.00841 18.9742 5.7843 19.0756 5.58022 19.4612C4.92917 20.6857 3.55071 21.2466 2.23484 20.896C0.915221 20.548 0 19.3636 0 18.0064C0 16.6492 0.913969 15.4673 2.23484 15.1155C3.55321 14.7649 4.92542 15.3221 5.57897 16.5503C5.78305 16.9334 6.01342 16.9897 6.39653 17.0198C8.01413 17.1475 9.51279 16.8408 10.9651 16.0971C12.1282 15.5011 13.3715 15.0616 14.5647 14.5195C14.7687 14.4269 15.0254 14.1777 15.0404 13.9837C15.2445 11.3544 16.0671 8.94181 17.4881 6.727C17.5081 6.6957 17.4981 6.64687 17.5094 6.54921C16.3037 5.74667 15.078 4.92786 13.846 4.11655C13.7483 4.0527 13.6144 4.01514 13.4967 4.01389C12.3724 4.00638 11.2456 3.98634 10.1225 4.03016C9.93722 4.03768 9.71186 4.30185 9.59167 4.50092C8.91433 5.62022 7.61724 6.21618 6.39027 5.94073C5.06063 5.6415 4.09533 4.54599 4.00519 3.23138C3.91379 1.91677 4.67877 0.706071 5.90574 0.224046C7.3105 -0.329343 8.863 0.216534 9.59542 1.57622C9.78698 1.93179 9.99106 2.02569 10.3642 2.01818C11.4684 1.99564 12.574 1.97937 13.6757 2.02694C14.0664 2.04322 14.4971 2.17343 14.8276 2.38252C16.1647 3.22637 17.4693 4.12156 18.7677 4.9842C19.5377 4.31562 20.2438 3.60072 21.0476 3.02104C25.4371 -0.149054 30.1998 -0.826392 35.3067 0.999042C36.0204 1.25445 36.2808 1.66887 36.1468 2.2498C36.0029 2.8708 35.4119 3.15626 34.7183 2.89834C33.1007 2.29613 31.438 1.98563 29.7078 2.01192C22.1331 2.1271 16.1773 8.95683 17.0937 16.4827C17.9388 23.4113 23.9861 28.4657 30.8546 27.9849C36.1406 27.6143 40.6892 24.0887 42.3468 19.0768C44.0045 14.0675 42.472 8.60877 38.4355 5.13945C38.3091 5.03052 38.1751 4.93036 38.0537 4.81643C37.5779 4.36946 37.5216 3.81983 37.9022 3.37661C38.2803 2.9359 38.8399 2.88457 39.3457 3.30775C39.8716 3.74846 40.3561 4.238 40.8582 4.70625C40.9633 4.80391 41.066 4.90407 41.1837 5.0155C42.5146 4.12907 43.8179 3.23263 45.1563 2.39128C45.5031 2.17343 45.9564 2.04572 46.3683 2.02569C47.4488 1.97561 48.5343 1.99064 49.6172 2.01818C50.0216 2.0282 50.2232 1.90675 50.4248 1.53616C51.1397 0.217786 52.6947 -0.316823 54.0757 0.217786C55.4116 0.734867 56.2216 2.15715 55.9562 3.52435C55.667 5.01925 54.3724 6.07971 52.88 6.00083C51.7557 5.94073 50.8968 5.39486 50.3772 4.39575C50.2145 4.08275 50.0329 3.97007 49.7049 4.00638C49.5409 4.02516 49.3694 4.02891 49.2053 4.00638C47.2046 3.73719 45.4418 4.21922 43.9218 5.58642C43.4949 5.97078 42.9628 6.23997 42.4244 6.59804C42.6248 6.93608 42.8163 7.24784 42.9966 7.5671C44.0758 9.47767 44.7507 11.5172 44.8947 13.7145C44.9247 14.164 45.0812 14.4043 45.5182 14.5784C46.8503 15.1105 48.1837 15.6501 49.4708 16.2811C50.6239 16.847 51.797 17.0836 53.0778 17.0286C53.7501 16.9998 54.2196 16.9534 54.6228 16.2648C55.2876 15.1318 56.7425 14.7436 57.9819 15.1706C59.2289 15.6 60.0615 16.8408 59.9964 18.1691C59.9326 19.465 59.0111 20.5755 57.7253 20.9048C56.452 21.2316 55.1048 20.707 54.4701 19.5301C54.2259 19.0781 53.9517 18.9529 53.4997 19.0042C51.6655 19.2121 49.9703 18.7989 48.3314 17.9651C47.2447 17.4129 46.0916 16.9922 44.8383 16.4589C44.8997 16.8395 44.8558 17.1575 44.9936 17.334C46.0528 18.6962 46.7126 20.2187 46.9505 22.0053C47.1896 22.0053 47.4112 22.0053 47.6316 22.0053C49.6736 22.0053 51.7144 22.0015 53.7564 22.0066C54.6503 22.0091 54.9984 22.3596 55.0009 23.2598C55.0059 24.8186 55.0022 26.3786 55.0022 27.9398C55.4253 28.0275 55.8197 28.0688 56.1853 28.1927C57.7704 28.7286 58.7782 29.8391 58.9422 31.4918C59.08 32.8715 59.0962 34.2938 58.926 35.6685C58.6455 37.9284 57.2195 39.2918 55.0022 39.9291C55.0022 40.1595 55.0022 40.4049 55.0022 40.6503C55.0022 46.6073 55.0022 52.5644 55.0022 58.5215C55.0022 59.7172 54.7242 59.9989 53.5411 59.9989C37.8533 59.9989 22.1669 59.9989 6.47916 59.9989C5.28099 59.9989 5.00054 59.7222 5.00054 58.539C5.00054 53.4984 5.00054 48.4578 5.00054 43.4172C5.00054 43.2294 4.98176 43.0366 5.01932 42.8563C5.13075 42.3205 5.46879 42.005 6.02218 42.0137C6.54552 42.0212 6.86979 42.333 6.97747 42.8388C7.02003 43.0391 7 43.2532 7 43.461C7.00125 48.0647 7.00125 52.6671 7.00125 57.2707C7.00125 57.4936 7.00125 57.7165 7.00125 57.9694C8.01288 57.9694 8.96316 57.9694 10.0011 57.9694C10.0011 57.7465 10.0011 57.5261 10.0011 57.307C10.0011 52.6834 10.0011 48.0584 10.0011 43.4348C10.0011 42.2904 10.2915 42.0024 11.4421 42.0024C15.1706 42.0024 18.9004 42.0012 22.6289 42.0024C23.6893 42.0024 23.9998 42.3154 23.9998 43.3809C24.0011 48.0046 23.9998 52.6295 23.9998 57.2532C23.9998 57.4786 23.9998 57.7027 23.9998 57.9631C33.6666 57.9631 43.2833 57.9631 52.9501 57.9631C52.9501 51.9722 52.9501 45.9663 52.9501 40.1107C51.9122 39.4559 50.9281 38.8336 49.8677 38.165C48.9574 39.2518 47.6528 39.9942 46.014 39.9955C44.3914 39.9967 43.088 39.2956 42.0125 38.0035C40.9633 39.2368 39.6663 39.9905 38.0286 39.9967C36.3847 40.003 35.0726 39.2793 34.0297 38.0373C31.448 40.8994 27.99 40.3999 25.9868 38.0286ZM44.2361 19.8781C43.8355 20.7245 43.5137 21.5183 43.0993 22.2582C41.3552 25.3645 38.8237 27.588 35.5183 28.9277C35.2604 29.0329 34.9837 29.0767 34.99 29.4948C35.0163 31.3891 34.97 33.2847 35.0163 35.1777C35.0551 36.7377 36.4035 37.9847 37.961 38.0023C39.5486 38.0198 40.9345 36.7765 40.9821 35.1928C41.0335 33.4875 40.9934 31.781 40.9934 30.0683C40.8457 30.0082 40.7092 29.9631 40.5827 29.898C40.1145 29.6589 39.9066 29.2632 40.0406 28.7624C40.1908 28.2015 40.619 28.0012 41.1849 28.0024C44.8922 28.0087 48.5981 28.0062 52.3053 28.0062C52.5257 28.0062 52.7448 28.0062 52.9501 28.0062C52.9501 26.6227 52.9501 25.3244 52.9501 24.0073C50.714 24.0073 48.528 24.0085 46.342 24.006C45.3454 24.0048 45.0411 23.7043 44.9923 22.724C44.9447 21.7411 44.7319 20.7996 44.2361 19.8781ZM15.8204 19.8982C15.3422 20.5667 15.0467 21.6234 15.0016 22.764C14.9666 23.6717 14.6373 24.0023 13.7408 24.0048C11.7226 24.0098 9.7056 24.006 7.68736 24.006C7.46825 24.006 7.24915 24.006 7.04758 24.006C7.04758 25.392 7.04758 26.6891 7.04758 27.9611C12.1758 27.9611 17.254 27.9611 22.4548 27.9611C19.2484 25.998 17.0712 23.3349 15.8204 19.8982ZM10.9989 30.0307C10.9989 30.2448 10.9989 30.39 10.9989 30.534C11.0002 32.0752 10.9689 33.6177 11.0127 35.1577C11.0565 36.7452 12.4187 38.0048 14.005 38.001C15.5913 37.9985 16.9247 36.7365 16.9898 35.1439C17.0211 34.3952 16.9986 33.644 16.9986 32.8941C16.9998 31.9438 16.9986 30.9935 16.9986 30.0295C14.9691 30.0307 13.0184 30.0307 10.9989 30.0307ZM19.0156 30.0332C19.0081 30.2085 18.9993 30.3124 18.9993 30.4163C18.9993 31.9576 18.9818 33.4988 19.0043 35.04C19.0293 36.7027 20.3727 38.0085 22.0104 38.0023C23.6455 37.996 24.9689 36.6864 24.9927 35.015C25.014 33.5363 24.9989 32.0577 24.9964 30.5778C24.9964 30.3988 24.9739 30.2185 24.9614 30.0332C22.9644 30.0332 21.015 30.0332 19.0156 30.0332ZM27.0698 30.037C27.041 30.1033 27.0122 30.1396 27.0109 30.1759C27.0059 31.7585 26.9921 33.3423 27.0022 34.9248C27.0134 36.6751 28.3355 38.0135 30.0208 38.0023C31.6784 37.9923 32.9805 36.6639 32.9955 34.9423C33.0093 33.4424 33.0005 31.9425 32.9968 30.4426C32.9968 30.3049 32.9642 30.1684 32.948 30.0357C30.9585 30.037 29.0079 30.037 27.0698 30.037ZM43.0091 30.032C43.0091 31.8186 42.9591 33.5464 43.0242 35.2704C43.0805 36.7528 44.3888 37.9422 45.8662 38.001C47.3862 38.0611 48.8222 36.9944 48.9349 35.4682C49.0664 33.6741 48.9662 31.8611 48.9662 30.032C46.9793 30.032 45.0299 30.032 43.0091 30.032ZM8.98069 30.0069C7.5897 30.0069 6.27884 29.9881 4.96924 30.0119C3.84743 30.032 3.02236 30.8821 3.00358 32.0176C2.98605 33.0368 2.98104 34.0572 3.00608 35.0763C3.04364 36.6513 4.30692 37.9334 5.85566 37.9998C7.41943 38.0674 8.87051 36.9205 8.95815 35.3605C9.05706 33.6027 8.98069 31.8361 8.98069 30.0069ZM51.0095 30.0132C51.0095 31.8198 50.9557 33.5464 51.0258 35.2691C51.0884 36.8216 52.4894 38.0248 54.0494 38.0023C55.6056 37.9797 56.9278 36.7302 56.9866 35.169C57.0279 34.0885 57.0191 33.0042 56.9891 31.9237C56.9616 30.9159 56.1753 30.0608 55.1837 30.0257C53.8165 29.9769 52.4455 30.0132 51.0095 30.0132ZM12.0431 44.0307C12.0431 45.3779 12.0431 46.675 12.0431 47.9533C15.3835 47.9533 18.68 47.9533 21.9653 47.9533C21.9653 46.6211 21.9653 45.3391 21.9653 44.0307C18.65 44.0307 15.3697 44.0307 12.0431 44.0307ZM15.9644 57.9719C15.9644 55.3138 15.9644 52.6846 15.9644 50.0441C14.6323 50.0441 13.3352 50.0441 12.0444 50.0441C12.0444 52.7134 12.0444 55.3426 12.0444 57.9719C13.3715 57.9719 14.6536 57.9719 15.9644 57.9719ZM21.9728 50.0491C20.6206 50.0491 19.3236 50.0491 18.049 50.0491C18.049 52.7247 18.049 55.3539 18.049 57.9669C19.3824 57.9669 20.6657 57.9669 21.9728 57.9669C21.9728 55.3163 21.9728 52.7034 21.9728 50.0491ZM6.98748 4.00387C7.5271 4.01013 7.98659 3.55941 7.99285 3.01854C7.99911 2.47767 7.54963 2.01943 7.00751 2.01317C6.46664 2.00691 6.00841 2.45638 6.0034 2.99725C5.99714 3.53937 6.44661 3.99886 6.98748 4.00387ZM53.9943 2.99225C53.9843 2.45138 53.5223 2.00441 52.9814 2.01442C52.4393 2.02444 51.9948 2.48643 52.0036 3.02605C52.0136 3.56692 52.4756 4.01389 53.0152 4.00387C53.5573 3.99386 54.0043 3.53061 53.9943 2.99225ZM3.99267 18.0364C4.0102 17.4968 3.56824 17.0286 3.02737 17.0123C2.48775 16.996 2.0195 17.4367 2.00322 17.9776C1.98569 18.5172 2.42765 18.9855 2.96852 19.0017C3.50563 19.0193 3.97514 18.576 3.99267 18.0364ZM56.9515 19.0017C57.4874 19.0293 57.9669 18.5936 57.9945 18.0552C58.022 17.5181 57.5876 17.0398 57.0479 17.0123C56.5108 16.9847 56.0326 17.4192 56.005 17.9588C55.9775 18.4959 56.4119 18.9742 56.9515 19.0017Z" fill="black"/>
<path d="M29.0422 53.9817C29.8723 53.9817 30.6585 53.9817 31.5049 53.9817C31.0905 53.0427 30.8651 52.1187 31.0993 51.1146C31.6602 48.712 34.2205 47.3636 36.4954 48.3226C36.8522 48.4728 37.1239 48.4966 37.4845 48.3326C38.5037 47.8681 39.5353 47.9145 40.5745 48.3326C40.8099 48.4278 41.1441 48.4466 41.3733 48.3539C42.9708 47.7091 44.6448 48.0008 45.8192 49.1715C46.9773 50.3258 47.2953 51.9835 46.6605 53.5535C46.6079 53.6837 46.5641 53.8164 46.5028 53.9804C47.3341 53.9804 48.1204 53.9804 48.9968 53.9804C48.9968 53.7526 48.9968 53.5335 48.9968 53.3144C48.9968 51.2949 48.9943 49.2741 48.998 47.2546C48.9993 46.4659 49.3711 46.0089 49.9946 46.0076C50.6169 46.0064 50.995 46.4646 50.9962 47.2509C51 49.7499 51 52.2489 50.9962 54.7479C50.995 55.6456 50.6444 55.9999 49.7505 55.9999C42.5852 56.0024 35.4212 56.0024 28.2559 55.9999C27.3532 55.9999 27.0002 55.6506 26.9989 54.7605C26.9952 50.9293 26.9952 47.0969 26.9989 43.2657C27.0002 42.3618 27.3457 42.0062 28.2359 42.0062C35.4012 42.0037 42.5652 42.0037 49.7304 42.0062C50.5255 42.0062 50.9825 42.368 50.9937 42.9878C51.005 43.6276 50.5342 44.0044 49.7029 44.0044C43.0798 44.0057 36.4566 44.0057 29.8335 44.0057C29.5856 44.0057 29.3377 44.0057 29.0447 44.0057C29.0422 47.331 29.0422 50.6288 29.0422 53.9817ZM42.9808 53.9992C44.0651 54.008 44.9791 53.1153 44.9941 52.0323C45.0104 50.9468 44.1264 50.0278 43.0434 50.0041C41.9317 49.979 40.9989 50.8905 40.9989 52.001C41.0002 53.0865 41.8979 53.9917 42.9808 53.9992ZM35.4913 50.0992C34.4997 49.9077 33.7047 50.252 33.274 50.9994C32.8333 51.7631 32.9222 52.6596 33.5031 53.3169C34.034 53.9178 34.7727 54.1257 35.4625 53.8427C34.8378 52.617 34.849 51.3763 35.4913 50.0992ZM39.4802 50.128C38.5738 49.8764 37.7437 50.2144 37.2917 50.9694C36.8159 51.7644 36.9236 52.7197 37.5621 53.3832C38.1068 53.9504 38.8655 54.1307 39.4539 53.8227C38.848 52.6095 38.848 51.3875 39.4802 50.128Z" fill="black"/>
<path d="M30.0296 3.96005C35.8039 4.02265 40.6442 8.57998 40.9822 14.3142C41.3228 20.1048 37.1298 25.1979 31.4156 25.8991C27.7096 26.3535 24.5658 25.1679 21.9842 22.4986C21.74 22.2457 21.5385 21.7937 21.5798 21.4682C21.6161 21.1777 21.9904 20.757 22.2646 20.7145C22.6052 20.6619 23.101 20.8359 23.3501 21.0901C24.6848 22.4523 26.241 23.3825 28.1078 23.7982C32.9931 24.8887 37.916 21.6272 38.8463 16.678C39.7878 11.6724 36.3272 6.81589 31.3204 6.11602C24.7937 5.20455 19.5778 11.1616 21.3619 17.488C21.3907 17.5882 21.422 17.6871 21.4471 17.7885C21.6023 18.417 21.3582 18.9441 20.8336 19.1132C20.2689 19.2947 19.7318 18.9992 19.5315 18.3645C19.0883 16.9597 18.8867 15.5199 19.0382 14.0513C19.5565 9.02695 23.0521 5.18076 27.9888 4.20294C28.6587 4.07023 29.3485 4.03893 30.0296 3.96005Z" fill="black"/>
<path d="M35.9991 15.0128C35.9991 15.9493 35.9891 16.8858 36.0028 17.8223C36.0103 18.3319 35.8075 18.6937 35.3718 18.9529C33.7993 19.8882 32.228 20.8272 30.6643 21.7774C30.2035 22.0579 29.7853 22.0529 29.3233 21.7712C27.7796 20.8297 26.2284 19.8982 24.6696 18.9804C24.1851 18.695 23.9873 18.3081 23.9923 17.751C24.0086 15.9193 24.0098 14.0876 23.9923 12.2571C23.9873 11.6975 24.1951 11.3169 24.6784 11.0327C26.2371 10.1149 27.7884 9.18345 29.3334 8.24193C29.7966 7.96023 30.2135 7.96524 30.6743 8.24569C32.2193 9.18595 33.7717 10.1162 35.3293 11.0352C35.8125 11.3206 36.0191 11.71 36.0053 12.2672C35.9828 13.1811 35.9991 14.0976 35.9991 15.0128ZM33.0568 12.0117C32.0565 11.4095 31.1563 10.8599 30.2461 10.3278C30.1372 10.2639 29.9406 10.2289 29.8454 10.284C28.9014 10.8298 27.9699 11.3983 26.9533 12.008C27.9549 12.6115 28.8513 13.1686 29.7691 13.6869C29.9055 13.7646 30.176 13.7207 30.3275 13.6344C31.2114 13.131 32.0778 12.5977 33.0568 12.0117ZM28.9991 19.2384C28.9991 18.0352 29.0066 16.9559 28.9903 15.8767C28.9878 15.7365 28.9114 15.5349 28.8025 15.4673C27.9098 14.9089 27.0034 14.3743 26.0005 13.7733C26.0005 15.0041 25.9942 16.1171 26.0105 17.2314C26.0118 17.3441 26.1232 17.4943 26.2259 17.5594C27.106 18.1028 27.995 18.6336 28.9991 19.2384ZM33.9996 13.7833C32.998 14.3856 32.0928 14.9252 31.1939 15.4736C31.1162 15.5211 31.0161 15.62 31.0161 15.6964C31.0048 16.8433 31.0086 17.9914 31.0086 19.2334C31.9926 18.6462 32.8716 18.1378 33.7292 17.5945C33.8682 17.5068 33.9858 17.2714 33.9896 17.1024C34.0109 16.0432 33.9996 14.984 33.9996 13.7833Z" fill="black"/>
</svg>
