<svg width="60" height="42" viewBox="0 0 60 42" fill="none" xmlns="http://www.w3.org/2000/svg">
<path d="M60 25.3416C59.535 26.6367 58.6122 27.1968 57.2467 27.1063C56.6279 27.0653 56.0044 27.0993 55.3105 27.0993C55.3105 27.3482 55.3105 27.556 55.3105 27.7627C55.3105 30.907 55.314 34.0513 55.3093 37.1957C55.3058 39.8116 53.5939 41.54 50.9909 41.5411C35.4254 41.5447 19.8611 41.5447 4.29557 41.5411C1.73009 41.54 0.0017612 39.8023 0.0017612 37.2332C-0.000587067 26.2574 -0.000587067 15.2816 0.0017612 4.30702C0.00293533 1.73331 1.72656 0.00381593 4.29909 0.0026418C19.8646 -0.0008806 35.4289 -0.0008806 50.9944 0.0026418C53.5974 0.0026418 55.307 1.72979 55.3105 4.34811C55.314 7.47248 55.3117 10.598 55.3117 13.7224C55.3117 13.9349 55.3117 14.1486 55.3117 14.4433C55.9762 14.4433 56.615 14.4785 57.2478 14.4363C58.6145 14.3447 59.5362 14.9059 60 16.201C60 19.249 60 22.2959 60 25.3416ZM53.6702 14.4445C53.6702 14.165 53.6702 13.9725 53.6702 13.7788C53.6702 10.6743 53.6714 7.56876 53.6702 4.46435C53.6691 2.5963 52.7262 1.64173 50.8746 1.64173C35.3902 1.64056 19.9057 1.64056 4.4212 1.64173C2.59777 1.64173 1.6432 2.59748 1.6432 4.41856C1.64203 15.3145 1.64203 26.2105 1.6432 37.1064C1.6432 38.9369 2.59425 39.9009 4.40476 39.9009C19.9092 39.9021 35.4136 39.9021 50.9169 39.9009C52.6981 39.9009 53.6679 38.9299 53.6691 37.1522C53.6714 34.0079 53.6702 30.8647 53.6702 27.7204C53.6702 27.5314 53.6702 27.3412 53.6702 27.0981C53.4014 27.0981 53.1912 27.0981 52.981 27.0981C49.7205 27.0981 46.4587 27.1005 43.1981 27.097C40.8604 27.0946 39.3446 25.6035 39.3212 23.2658C39.3035 21.5867 39.3 19.9066 39.3223 18.2275C39.3529 15.9262 40.8757 14.4445 43.1841 14.4421C46.4446 14.4386 49.7064 14.441 52.9669 14.441C53.1771 14.4445 53.3873 14.4445 53.6702 14.4445ZM50.2441 25.459C52.6264 25.459 55.0076 25.4602 57.3899 25.459C58.2141 25.459 58.3586 25.3205 58.3597 24.5233C58.3609 22.0247 58.3609 19.525 58.3597 17.0264C58.3597 16.2233 58.2165 16.0848 57.3969 16.0848C52.6722 16.0836 47.9475 16.0836 43.224 16.0848C41.754 16.0848 40.9708 16.8491 40.9614 18.3074C40.952 19.9477 40.952 21.5867 40.9614 23.227C40.9696 24.6865 41.754 25.4567 43.2169 25.4579C45.5582 25.4614 47.9017 25.459 50.2441 25.459Z" fill="white"/>
<path d="M20.6106 6.1222C28.7204 6.1316 35.2767 12.6985 35.2744 20.8118C35.272 28.8969 28.6757 35.4356 20.5378 35.4204C12.4809 35.4051 5.95742 28.8135 5.97268 20.7049C5.98912 12.661 12.5607 6.11281 20.6106 6.1222ZM20.5906 33.7813C27.7975 33.7801 33.6247 27.9599 33.6341 20.7543C33.6423 13.6531 27.7951 7.76364 20.7362 7.76482C13.3627 7.76482 7.61295 13.5357 7.61647 20.9339C7.61882 27.9505 13.5071 33.7824 20.5906 33.7813Z" fill="white"/>
<path d="M46.3469 23.3503C45.5872 23.3503 44.8264 23.3562 44.0667 23.3492C43.3822 23.3421 43.0828 23.0744 43.0722 22.4099C43.0535 21.3191 43.0546 20.2271 43.0722 19.1352C43.0828 18.4906 43.3763 18.2029 44.0092 18.1982C45.5685 18.1888 47.1277 18.1888 48.687 18.1971C49.3503 18.2006 49.6533 18.4965 49.6627 19.1634C49.6779 20.2354 49.6779 21.3073 49.6627 22.3793C49.6533 23.0462 49.3503 23.3386 48.687 23.3468C47.9062 23.3574 47.1265 23.3503 46.3469 23.3503ZM47.9836 21.6784C47.9836 21.0549 47.9836 20.4643 47.9836 19.8737C46.8764 19.8737 45.8115 19.8737 44.7395 19.8737C44.7395 20.4925 44.7395 21.0702 44.7395 21.6784C45.8362 21.6784 46.8987 21.6784 47.9836 21.6784Z" fill="white"/>
<path d="M16.1023 25.0587C16.1023 22.1879 16.1023 19.3465 16.1023 16.4852C15.9344 16.4711 15.8017 16.4593 15.6691 16.4499C15.109 16.4112 14.7779 16.1188 14.7697 15.6515C14.7614 15.1713 15.1243 14.8273 15.6984 14.8144C16.3994 14.7979 17.1015 14.8108 17.8964 14.8108C17.8964 14.0794 17.8999 13.3843 17.8952 12.6904C17.8917 12.2818 18.0279 11.9624 18.4294 11.8062C18.9731 11.5949 19.5003 11.9812 19.5261 12.6469C19.5543 13.3444 19.532 14.043 19.532 14.7756C20.0908 14.7756 20.5898 14.7756 21.1663 14.7756C21.1663 14.1064 21.1605 13.4477 21.1675 12.789C21.1757 12.128 21.4493 11.7734 21.9471 11.7534C22.4661 11.7323 22.7843 12.1115 22.8043 12.7819C22.8101 12.9581 22.8172 13.1342 22.8031 13.3091C22.7315 14.2379 22.7937 14.9271 23.8786 15.4508C25.4015 16.1846 25.8124 18.2264 25.0269 19.7469C24.9294 19.9348 24.8167 20.1156 24.697 20.3246C26.1259 21.2944 26.8139 22.6012 26.3102 24.2955C25.8159 25.9593 24.5502 26.6943 22.8019 26.7577C22.8019 27.4903 22.8231 28.1889 22.796 28.8852C22.769 29.5838 22.1867 30.0182 21.6712 29.6942C21.4258 29.5392 21.2204 29.1588 21.1887 28.8594C21.117 28.1866 21.1663 27.5009 21.1663 26.7764C20.6204 26.7764 20.1249 26.7764 19.5331 26.7764C19.5331 27.4398 19.5331 28.1138 19.5331 28.7877C19.5331 29.2069 19.4157 29.5627 18.9872 29.7329C18.46 29.9419 17.9269 29.5779 17.9046 28.958C17.8776 28.2406 17.8987 27.522 17.8987 26.7295C17.098 26.7295 16.363 26.7459 15.628 26.7236C15.1372 26.7095 14.8084 26.4465 14.7767 25.9358C14.7509 25.5143 14.9845 25.2266 15.3896 25.1209C15.6092 25.0657 15.8463 25.0787 16.1023 25.0587ZM17.8295 21.6126C17.8295 22.8114 17.8295 23.9327 17.8295 25.081C19.6529 25.081 21.4258 25.0822 23.1999 25.0787C23.2951 25.0787 23.3913 25.0458 23.4864 25.0223C24.3072 24.8145 24.8696 24.0724 24.8261 23.2611C24.7815 22.438 24.1616 21.6584 23.3361 21.6326C21.508 21.5727 19.6764 21.6126 17.8295 21.6126ZM17.8095 16.4558C17.8095 17.6464 17.8095 18.7677 17.8095 19.9348C19.3171 19.9348 20.7965 19.9829 22.2712 19.916C23.1377 19.8761 23.7917 19.0225 23.7729 18.1747C23.753 17.2754 23.0332 16.4934 22.0939 16.4664C20.692 16.4265 19.2889 16.4558 17.8095 16.4558Z" fill="white"/>
</svg>
