<svg width="1920" height="1187" viewBox="0 0 1920 1187" fill="none" xmlns="http://www.w3.org/2000/svg">
<mask id="mask0_349_12" style="mask-type:alpha" maskUnits="userSpaceOnUse" x="0" y="0" width="1920" height="1187">
<rect width="1920" height="1187" fill="#C4C4C4"/>
</mask>
<g mask="url(#mask0_349_12)">
<g filter="url(#filter0_f_349_12)">
<path d="M1996.63 731.06C2021.21 688.5 2006.62 634.068 1964.06 609.496C1921.5 584.924 1867.07 599.509 1842.5 642.069C1817.92 684.628 1832.51 739.061 1875.07 763.633C1917.65 788.214 1972.05 773.636 1996.63 731.06ZM1870.35 658.15C1886.05 630.962 1920.82 621.645 1948 637.343C1975.19 653.04 1984.51 687.809 1968.81 714.997C1953.11 742.186 1918.35 751.502 1891.16 735.805C1863.97 720.108 1854.65 685.338 1870.35 658.15Z" fill="url(#paint0_linear_349_12)"/>
<path d="M1996.63 731.06C2021.21 688.5 2006.62 634.068 1964.06 609.496C1921.5 584.924 1867.07 599.509 1842.5 642.069C1817.92 684.628 1832.51 739.061 1875.07 763.633C1917.65 788.214 1972.05 773.636 1996.63 731.06ZM1870.35 658.15C1886.05 630.962 1920.82 621.645 1948 637.343C1975.19 653.04 1984.51 687.809 1968.81 714.997C1953.11 742.186 1918.35 751.502 1891.16 735.805C1863.97 720.108 1854.65 685.338 1870.35 658.15Z" fill="black" fill-opacity="0.2"/>
</g>
<g filter="url(#filter1_f_349_12)">
<path d="M-212.673 513.83L-74.5588 518.99L-79.7358 657.081L-14.1603 659.531L-8.98326 521.441L129.087 526.613L131.532 461.041L-6.53809 455.868L-1.37718 317.806L-66.9527 315.355L-72.1136 453.418L-210.2 448.274L-212.673 513.83Z" fill="#2842EF"/>
</g>
<path d="M1680.87 576.217C1584.63 742.902 1641.93 956.153 1808.86 1052.53C1975.78 1148.9 2189.12 1091.9 2285.35 925.217C2381.59 758.532 2324.28 545.281 2157.36 448.907C1990.43 352.534 1777.1 409.532 1680.87 576.217Z" stroke="#2842EF" stroke-opacity="0.5" stroke-width="0.5" stroke-miterlimit="10"/>
</g>
<defs>
<filter id="filter0_f_349_12" x="1630.56" y="397.56" width="578.012" height="578.016" filterUnits="userSpaceOnUse" color-interpolation-filters="sRGB">
<feFlood flood-opacity="0" result="BackgroundImageFix"/>
<feBlend mode="normal" in="SourceGraphic" in2="BackgroundImageFix" result="shape"/>
<feGaussianBlur stdDeviation="100" result="effect1_foregroundBlur_349_12"/>
</filter>
<filter id="filter1_f_349_12" x="-612.672" y="-84.6448" width="1144.2" height="1144.18" filterUnits="userSpaceOnUse" color-interpolation-filters="sRGB">
<feFlood flood-opacity="0" result="BackgroundImageFix"/>
<feBlend mode="normal" in="SourceGraphic" in2="BackgroundImageFix" result="shape"/>
<feGaussianBlur stdDeviation="200" result="effect1_foregroundBlur_349_12"/>
</filter>
<linearGradient id="paint0_linear_349_12" x1="2041.13" y1="653.991" x2="1800.1" y2="726.163" gradientUnits="userSpaceOnUse">
<stop stop-color="#2842EF"/>
<stop offset="1" stop-color="#A25FFD"/>
</linearGradient>
</defs>
</svg>
