<svg width="321" height="705" viewBox="0 0 321 705" fill="none" xmlns="http://www.w3.org/2000/svg">
<mask id="mask0_262_6" style="mask-type:alpha" maskUnits="userSpaceOnUse" x="0" y="0" width="321" height="705">
<rect width="321" height="705" fill="white"/>
</mask>
<g mask="url(#mask0_262_6)">
<path d="M307.78 434.244C360.439 237.799 243.869 35.8925 47.4122 -16.7259C-149.044 -69.3444 -350.993 47.2505 -403.652 243.696C-456.311 440.142 -339.741 642.048 -143.284 694.666C53.1724 747.285 255.121 630.69 307.78 434.244Z" stroke="#2842EF" stroke-opacity="0.5" stroke-width="0.5" stroke-miterlimit="10"/>
<path d="M121.843 -57.5474C84.6174 -36.055 71.8533 11.5615 93.3412 48.7797C114.829 85.9979 162.448 98.752 199.674 77.2597C236.9 55.7673 249.664 8.15084 228.176 -29.0673C206.688 -66.2855 159.069 -79.0398 121.843 -57.5474ZM185.612 52.904C161.833 66.6332 131.428 58.4898 117.702 34.715C103.976 10.9401 112.125 -19.4624 135.905 -33.1917C159.685 -46.9209 190.089 -38.7775 203.816 -15.0027C217.542 8.77217 209.392 39.1747 185.612 52.904Z" fill="#414141"/>
</g>
</svg>
