<svg width="273" height="754" viewBox="0 0 273 754" fill="none" xmlns="http://www.w3.org/2000/svg">
<mask id="mask0_262_122" style="mask-type:alpha" maskUnits="userSpaceOnUse" x="0" y="0" width="273" height="754">
<rect width="273" height="754" fill="#C4C4C4"/>
</mask>
<g mask="url(#mask0_262_122)">
<mask id="mask1_262_122" style="mask-type:alpha" maskUnits="userSpaceOnUse" x="-1151" y="-203" width="1598" height="1431">
<path d="M-956.948 1227.13L445.539 1002.43L252.648 -201.534L-1149.84 23.1628L-956.948 1227.13Z" fill="url(#paint0_linear_262_122)" fill-opacity="0.3" stroke="white" stroke-miterlimit="10"/>
</mask>
<g mask="url(#mask1_262_122)">
<path d="M-165.116 823.244C-441.425 949.85 -635.047 1118.79 -761.654 842.485C-888.261 566.178 -766.89 239.543 -490.581 112.937C-214.255 -13.6689 112.382 107.684 238.99 384.008C365.597 660.314 111.21 696.638 -165.116 823.244Z" stroke="#A25FFD" stroke-miterlimit="10"/>
<path d="M-167.25 808.604C-436.774 932.097 -618.706 1111.99 -742.2 842.47C-865.695 572.949 -747.312 254.346 -477.788 130.852C-208.265 7.35907 110.341 125.741 233.836 395.262C357.33 664.783 102.273 685.11 -167.25 808.604Z" stroke="#A25FFD" stroke-width="0.9583" stroke-miterlimit="10"/>
<path d="M-169.381 793.98C-432.119 914.361 -602.379 1105.21 -722.761 842.474C-843.142 579.738 -727.748 269.165 -465.01 148.785C-202.272 28.4041 108.303 143.797 228.702 406.533C349.084 669.269 93.3573 673.6 -169.381 793.98Z" stroke="#A25FFD" stroke-width="0.9167" stroke-miterlimit="10"/>
<path d="M-171.514 779.34C-427.467 896.608 -586.038 1098.41 -703.324 842.477C-820.593 586.526 -708.187 283.986 -452.234 166.7C-196.281 49.432 106.262 161.837 223.549 417.787C340.818 673.738 84.4386 662.072 -171.514 779.34Z" stroke="#A25FFD" stroke-width="0.875" stroke-miterlimit="10"/>
<path d="M-173.647 764.716C-422.797 878.872 -569.713 1091.63 -683.868 842.48C-798.024 593.332 -688.59 298.805 -439.44 184.632C-190.29 70.4774 104.24 179.911 218.413 429.058C332.569 678.206 75.5028 650.544 -173.647 764.716Z" stroke="#A25FFD" stroke-width="0.8333" stroke-miterlimit="10"/>
<path d="M-175.781 750.076C-418.145 861.118 -553.371 1084.83 -664.432 842.466C-775.475 600.103 -669.029 313.607 -426.665 202.547C-184.3 91.5049 102.199 197.95 213.26 440.312C324.303 682.692 66.5842 639.033 -175.781 750.076Z" stroke="#A25FFD" stroke-width="0.7917" stroke-miterlimit="10"/>
<path d="M-177.911 735.453C-413.49 843.4 -537.043 1078.05 -644.974 842.47C-752.904 606.892 -649.447 328.427 -413.868 220.48C-178.289 112.533 100.179 216.006 208.127 451.583C316.058 687.161 57.651 627.506 -177.911 735.453Z" stroke="#A25FFD" stroke-width="0.75" stroke-miterlimit="10"/>
<path d="M-180.063 720.812C-408.856 825.646 -520.72 1071.25 -625.555 842.473C-730.39 613.698 -629.887 343.247 -401.11 238.412C-172.299 133.578 98.1376 234.063 202.973 462.854C307.808 691.629 48.7313 615.977 -180.063 720.812Z" stroke="#A25FFD" stroke-width="0.7083" stroke-miterlimit="10"/>
<path d="M-182.197 706.172C-404.188 807.893 -504.379 1064.45 -606.101 842.459C-707.824 620.47 -610.309 358.049 -388.318 256.327C-166.327 154.606 96.0961 252.12 197.818 474.109C299.541 696.115 39.812 604.467 -182.197 706.172Z" stroke="#A25FFD" stroke-width="0.6667" stroke-miterlimit="10"/>
<path d="M-184.33 691.548C-399.536 790.157 -488.054 1057.67 -586.664 842.462C-685.274 627.258 -590.748 372.869 -375.542 274.26C-160.319 175.651 94.0732 270.176 192.683 485.38C291.292 700.584 30.8758 592.939 -184.33 691.548Z" stroke="#A25FFD" stroke-width="0.625" stroke-miterlimit="10"/>
<path d="M-186.463 676.908C-394.883 772.404 -471.712 1050.87 -567.209 842.448C-662.706 634.029 -571.168 387.671 -362.748 292.175C-154.327 196.679 92.033 288.215 187.53 496.634C283.027 705.052 21.9577 581.411 -186.463 676.908Z" stroke="#A25FFD" stroke-width="0.5833" stroke-miterlimit="10"/>
<path d="M-188.596 662.284C-390.231 754.668 -455.387 1044.08 -547.771 842.469C-640.155 640.853 -551.589 402.508 -349.972 310.107C-148.337 217.723 90.01 306.271 182.394 507.905C274.779 709.538 13.0218 569.901 -188.596 662.284Z" stroke="#A25FFD" stroke-width="0.5417" stroke-miterlimit="10"/>
<path d="M-190.727 647.644C-385.559 736.914 -439.043 1037.29 -528.315 842.455C-617.586 647.624 -532.009 417.293 -337.176 328.022C-142.344 238.752 87.9894 324.328 177.261 519.159C266.532 714.007 4.10549 558.373 -190.727 647.644Z" stroke="#A25FFD" stroke-width="0.5" stroke-miterlimit="10"/>
<path d="M-192.862 633.02C-380.909 719.178 -422.704 1030.5 -508.88 842.458C-595.056 654.413 -512.45 432.112 -324.403 345.954C-136.356 259.797 85.9465 342.384 172.105 530.43C258.264 718.475 -4.81568 546.845 -192.862 633.02Z" stroke="#A25FFD" stroke-width="0.4583" stroke-miterlimit="10"/>
<path d="M-195.011 618.38C-376.255 701.425 -406.377 1023.7 -489.44 842.461C-572.503 661.219 -492.886 446.932 -311.624 363.887C-130.362 280.842 83.9087 360.441 166.955 541.701C250.018 722.961 -13.7489 535.335 -195.011 618.38Z" stroke="#A25FFD" stroke-width="0.4167" stroke-miterlimit="10"/>
<path d="M-197.143 603.757C-371.602 683.689 -390.052 1016.92 -469.985 842.447C-549.918 667.972 -473.289 461.734 -298.83 381.802C-124.354 301.869 81.886 378.498 161.819 552.955C241.752 727.43 -22.6672 523.807 -197.143 603.757Z" stroke="#A25FFD" stroke-width="0.375" stroke-miterlimit="10"/>
<path d="M-199.277 589.116C-366.95 665.953 -373.727 1010.12 -450.548 842.45C-527.385 674.779 -453.728 476.554 -286.054 399.734C-118.381 322.897 79.8455 396.554 156.666 564.227C233.503 731.898 -31.6035 512.279 -199.277 589.116Z" stroke="#A25FFD" stroke-width="0.3333" stroke-miterlimit="10"/>
<path d="M-201.41 574.476C-362.298 648.2 -357.386 1003.32 -431.111 842.437C-504.836 681.55 -434.167 491.357 -273.278 417.65C-112.39 343.925 77.8047 414.594 151.512 575.481C225.237 736.385 -40.5219 500.769 -201.41 574.476Z" stroke="#A25FFD" stroke-width="0.2917" stroke-miterlimit="10"/>
<path d="M-203.542 559.852C-357.645 630.464 -341.043 996.541 -411.655 842.44C-482.267 688.338 -414.587 506.176 -260.484 435.582C-106.381 364.97 75.7826 432.65 146.377 586.752C216.99 740.853 -49.4397 489.24 -203.542 559.852Z" stroke="#A25FFD" stroke-width="0.25" stroke-miterlimit="10"/>
</g>
<mask id="mask2_262_122" style="mask-type:alpha" maskUnits="userSpaceOnUse" x="-334" y="-47" width="427" height="427">
<path d="M-154.378 -43.7579C-270.478 -25.1572 -349.517 84.0401 -330.916 200.141C-312.315 316.242 -203.118 395.282 -87.0184 376.681C29.0816 358.08 108.12 248.883 89.5193 132.782C70.9184 16.6809 -38.2782 -62.3587 -154.378 -43.7579Z" fill="url(#paint1_radial_262_122)"/>
</mask>
<g mask="url(#mask2_262_122)">
<path d="M-286.765 46.2588C-353.152 137.978 -332.618 266.149 -240.899 332.537C-149.181 398.926 -21.0108 378.391 45.3768 286.672C111.764 194.953 91.2296 66.7821 -0.488793 0.39372C-92.2072 -65.9946 -220.377 -45.4601 -286.765 46.2588Z" fill="url(#paint2_linear_262_122)"/>
</g>
</g>
<defs>
<linearGradient id="paint0_linear_262_122" x1="349.096" y1="400.453" x2="-1053.39" y2="625.15" gradientUnits="userSpaceOnUse">
<stop/>
<stop offset="1" stop-color="white"/>
</linearGradient>
<radialGradient id="paint1_radial_262_122" cx="0" cy="0" r="1" gradientUnits="userSpaceOnUse" gradientTransform="translate(-120.694 166.465) rotate(170.898) scale(212.894 212.896)">
<stop/>
<stop offset="0.0987" stop-color="#050505"/>
<stop offset="0.2226" stop-color="#151515"/>
<stop offset="0.36" stop-color="#2F2F2F"/>
<stop offset="0.5072" stop-color="#525252"/>
<stop offset="0.6622" stop-color="#808080"/>
<stop offset="0.8238" stop-color="#B9B9B9"/>
<stop offset="0.9879" stop-color="#FAFAFA"/>
<stop offset="1" stop-color="white"/>
</radialGradient>
<linearGradient id="paint2_linear_262_122" x1="45.3768" y1="286.672" x2="-286.767" y2="46.2618" gradientUnits="userSpaceOnUse">
<stop stop-color="#A25FFD"/>
<stop offset="1" stop-color="#2842EF"/>
</linearGradient>
</defs>
</svg>
