<svg width="281" height="562" viewBox="0 0 281 562" fill="none" xmlns="http://www.w3.org/2000/svg">
<mask id="mask0_262_124" style="mask-type:alpha" maskUnits="userSpaceOnUse" x="0" y="0" width="281" height="562">
<rect width="281" height="562" fill="#C4C4C4"/>
</mask>
<g mask="url(#mask0_262_124)">
<mask id="mask1_262_124" style="mask-type:alpha" maskUnits="userSpaceOnUse" x="-47" y="-32" width="473" height="635">
<path d="M425.391 602.404L425.391 -31L-45.9988 -31L-45.9988 602.404L425.391 602.404Z" fill="url(#paint0_linear_262_124)" stroke="white" stroke-miterlimit="10"/>
</mask>
<g mask="url(#mask1_262_124)">
<path d="M394.057 462.407C223.63 536.853 103.329 638.101 28.8829 467.674C-45.5628 297.246 32.2546 98.7313 202.682 24.2857C373.121 -50.1707 571.635 27.6467 646.081 198.074C720.527 368.513 564.496 387.962 394.057 462.407Z" stroke="#2842EF" stroke-miterlimit="10"/>
<path d="M392.911 453.427C226.668 526.042 113.399 634.119 40.7841 467.877C-31.8312 301.635 44.0702 108.001 210.313 35.3857C376.555 -37.2296 570.189 38.6718 642.804 204.914C715.419 371.157 559.153 380.811 392.911 453.427Z" stroke="#2842EF" stroke-width="0.9583" stroke-miterlimit="10"/>
<path d="M391.765 444.457C229.708 515.242 123.461 630.148 52.6763 468.091C-18.1086 306.034 55.8769 117.281 217.934 46.4855C379.991 -24.2994 568.744 49.6967 639.539 211.754C710.324 373.8 553.823 373.661 391.765 444.457Z" stroke="#2842EF" stroke-width="0.9167" stroke-miterlimit="10"/>
<path d="M390.623 435.476C232.751 504.431 133.536 626.166 64.5707 468.305C-4.38383 310.433 67.6856 126.562 225.558 57.5963C383.43 -11.3583 567.312 60.7111 636.267 218.583C705.221 376.455 548.494 366.522 390.623 435.476Z" stroke="#2842EF" stroke-width="0.875" stroke-miterlimit="10"/>
<path d="M389.474 426.496C235.798 493.62 143.595 622.185 76.4706 468.509C9.34638 314.833 79.5105 135.831 233.187 68.6962C386.863 1.57201 565.864 71.7361 632.999 225.423C700.123 379.099 543.15 359.372 389.474 426.496Z" stroke="#2842EF" stroke-width="0.8333" stroke-miterlimit="10"/>
<path d="M388.331 417.526C238.84 482.82 153.669 618.213 88.3644 468.723C23.0599 319.232 91.3187 145.111 240.809 79.8069C390.3 14.5131 564.421 82.7612 629.725 232.252C695.019 381.743 537.822 352.221 388.331 417.526Z" stroke="#2842EF" stroke-width="0.7917" stroke-miterlimit="10"/>
<path d="M387.185 408.545C241.879 472.019 163.73 614.231 100.267 468.926C36.7926 323.62 103.135 154.381 248.441 90.9067C393.746 27.4432 562.986 93.7861 626.46 239.092C689.924 384.397 532.48 345.082 387.185 408.545Z" stroke="#2842EF" stroke-width="0.75" stroke-miterlimit="10"/>
<path d="M386.029 399.575C244.909 461.219 173.792 610.26 112.148 469.151C50.5045 328.041 114.942 163.661 256.062 102.017C397.183 40.3844 561.541 104.811 623.185 245.921C684.829 387.041 527.149 337.932 386.029 399.575Z" stroke="#2842EF" stroke-width="0.7083" stroke-miterlimit="10"/>
<path d="M384.882 390.595C247.958 450.408 183.863 606.278 124.049 469.354C64.2359 332.43 126.757 172.941 263.682 113.128C400.606 53.3146 560.094 115.836 619.908 252.76C679.721 389.685 521.817 330.781 384.882 390.595Z" stroke="#2842EF" stroke-width="0.6667" stroke-miterlimit="10"/>
<path d="M383.738 381.625C250.999 439.608 193.926 602.307 135.943 469.568C77.9597 336.829 138.565 182.222 271.304 124.239C404.044 66.2557 558.651 126.861 616.634 259.6C674.628 392.34 516.477 323.642 383.738 381.625Z" stroke="#2842EF" stroke-width="0.625" stroke-miterlimit="10"/>
<path d="M382.592 372.644C254.038 428.797 203.997 598.326 147.845 469.772C91.6918 341.218 150.381 191.491 278.935 135.339C407.489 79.186 557.215 137.876 613.368 266.429C669.521 394.983 511.146 316.492 382.592 372.644Z" stroke="#2842EF" stroke-width="0.5833" stroke-miterlimit="10"/>
<path d="M381.448 363.674C257.079 417.997 214.06 594.354 159.738 469.996C105.415 345.638 162.2 200.782 286.558 146.449C410.916 92.1162 555.772 148.911 610.105 273.269C664.427 397.627 505.806 309.341 381.448 363.674Z" stroke="#2842EF" stroke-width="0.5417" stroke-miterlimit="10"/>
<path d="M380.304 354.694C260.131 407.186 224.134 590.373 171.642 470.2C119.15 350.027 174.018 210.041 294.191 157.549C414.364 105.057 554.349 159.926 606.841 280.098C659.333 400.282 500.477 302.202 380.304 354.694Z" stroke="#2842EF" stroke-width="0.5" stroke-miterlimit="10"/>
<path d="M379.155 345.713C263.167 396.375 234.202 586.39 183.53 470.403C132.858 354.415 185.821 219.311 301.808 168.649C417.796 117.987 552.9 170.94 603.562 286.927C654.224 402.926 495.142 295.052 379.155 345.713Z" stroke="#2842EF" stroke-width="0.4583" stroke-miterlimit="10"/>
<path d="M378 336.743C266.208 385.575 244.265 582.419 195.423 470.617C146.581 358.815 197.628 228.591 309.43 179.76C421.233 130.929 551.457 181.965 600.288 293.767C649.13 405.569 489.802 287.901 378 336.743Z" stroke="#2842EF" stroke-width="0.4167" stroke-miterlimit="10"/>
<path d="M376.854 327.763C269.237 374.764 254.326 578.438 207.315 470.831C160.303 363.225 209.445 237.871 317.051 190.871C424.668 143.87 550.011 193.001 597.012 300.607C644.023 408.224 484.471 280.762 376.854 327.763Z" stroke="#2842EF" stroke-width="0.375" stroke-miterlimit="10"/>
<path d="M375.709 318.793C272.288 363.974 264.388 574.467 219.218 471.045C174.036 367.624 221.262 247.152 324.683 201.981C428.104 156.8 548.577 204.026 593.747 307.447C638.929 410.868 479.13 273.612 375.709 318.793Z" stroke="#2842EF" stroke-width="0.3333" stroke-miterlimit="10"/>
<path d="M374.564 309.812C275.328 353.163 274.461 570.484 231.111 471.249C187.76 372.013 233.069 256.421 332.305 213.081C431.541 169.73 547.133 215.04 590.473 314.276C633.824 413.512 473.8 266.472 374.564 309.812Z" stroke="#2842EF" stroke-width="0.2917" stroke-miterlimit="10"/>
<path d="M373.419 300.843C278.368 342.363 284.534 566.514 243.013 471.463C201.493 376.412 244.887 265.702 339.937 224.192C434.988 182.671 545.699 226.065 587.208 321.116C628.729 416.167 468.47 259.322 373.419 300.843Z" stroke="#2842EF" stroke-width="0.25" stroke-miterlimit="10"/>
</g>
<path d="M146.709 350.878C177.241 355.672 205.878 334.806 210.672 304.275C215.465 273.743 194.6 245.106 164.068 240.312C133.536 235.519 104.899 256.384 100.106 286.916C95.3123 317.448 116.177 346.085 146.709 350.878Z" fill="url(#paint1_linear_262_124)"/>
<path d="M146.709 350.878C177.241 355.672 205.878 334.806 210.672 304.275C215.465 273.743 194.6 245.106 164.068 240.312C133.536 235.519 104.899 256.384 100.106 286.916C95.3123 317.448 116.177 346.085 146.709 350.878Z" fill="black" fill-opacity="0.2"/>
<path d="M285.011 326.017L285.011 320.496L290.531 320.496L290.531 318.74L285.011 318.74L285.011 313.22L283.266 313.22L283.266 318.74L277.735 318.74L277.735 320.496L283.266 320.496L283.266 326.017L285.011 326.017Z" fill="white"/>
</g>
<defs>
<linearGradient id="paint0_linear_262_124" x1="189.698" y1="-30.9987" x2="189.698" y2="602.409" gradientUnits="userSpaceOnUse">
<stop stop-color="white" stop-opacity="0.2"/>
<stop offset="1" stop-opacity="0.4"/>
</linearGradient>
<linearGradient id="paint1_linear_262_124" x1="108.785" y1="231.633" x2="205.639" y2="356.734" gradientUnits="userSpaceOnUse">
<stop stop-color="#2842EF"/>
<stop offset="1" stop-color="#A25FFD"/>
</linearGradient>
</defs>
</svg>
