<svg width="153" height="22" viewBox="0 0 153 22" fill="none" xmlns="http://www.w3.org/2000/svg">
<path d="M22.6029 9.1455L17.5953 14.0756L18.7769 21.0444C18.8251 21.353 18.7045 21.6536 18.4553 21.8404C18.3187 21.946 18.1499 21.9947 17.9811 21.9947C17.8525 21.9947 17.7239 21.9622 17.6033 21.9053L11.4141 18.6159L5.22481 21.9053C4.95152 22.0515 4.63 22.0272 4.38083 21.8404C4.13165 21.6617 4.01108 21.353 4.05931 21.0444L5.24089 14.0756L0.241264 9.1455C0.0242389 8.9262 -0.0561409 8.60944 0.0403149 8.31705C0.136771 8.02465 0.385948 7.80535 0.691392 7.76474L7.61209 6.74948L10.7067 0.414228C10.98 -0.138076 11.8803 -0.138076 12.1455 0.414228L15.2401 6.74948L22.1608 7.76474C22.4663 7.81347 22.7155 8.02465 22.8119 8.31705C22.9084 8.60944 22.828 8.9262 22.6029 9.1455Z" fill="#FAAF38"/>
<path d="M55.1381 9.1455L50.1304 14.0756L51.312 21.0444C51.3602 21.353 51.2397 21.6536 50.9905 21.8404C50.8538 21.946 50.685 21.9947 50.5163 21.9947C50.3876 21.9947 50.259 21.9622 50.1385 21.9053L43.9492 18.6159L37.76 21.9053C37.4867 22.0515 37.1652 22.0272 36.916 21.8404C36.6668 21.6617 36.5462 21.353 36.5945 21.0444L37.776 14.0756L32.7764 9.1455C32.5594 8.9262 32.479 8.60944 32.5755 8.31705C32.6719 8.02465 32.9211 7.80535 33.2265 7.76474L40.1473 6.74948L43.2419 0.414228C43.5152 -0.138076 44.4154 -0.138076 44.6807 0.414228L47.7753 6.74948L54.696 7.76474C55.0014 7.81347 55.2506 8.02465 55.3471 8.31705C55.4435 8.60944 55.3632 8.9262 55.1381 9.1455Z" fill="#FAAF38"/>
<path d="M87.6772 9.1455L82.6695 14.0756L83.8511 21.0444C83.8993 21.353 83.7787 21.6536 83.5296 21.8404C83.3929 21.946 83.2241 21.9947 83.0553 21.9947C82.9267 21.9947 82.7981 21.9622 82.6775 21.9053L76.4883 18.6159L70.299 21.9053C70.0257 22.0515 69.7042 22.0272 69.455 21.8404C69.2059 21.6617 69.0853 21.353 69.1335 21.0444L70.3151 14.0756L65.3155 9.1455C65.0985 8.9262 65.0181 8.60944 65.1145 8.31705C65.211 8.02465 65.4602 7.80535 65.7656 7.76474L72.6863 6.74948L75.7809 0.414228C76.0542 -0.138076 76.9545 -0.138076 77.2197 0.414228L80.3144 6.74948L87.2351 7.76474C87.5405 7.81347 87.7897 8.02465 87.8861 8.31705C87.9826 8.60944 87.9022 8.9262 87.6772 9.1455Z" fill="#FAAF38"/>
<path d="M120.208 9.1455L115.201 14.0756L116.382 21.0444C116.431 21.353 116.31 21.6536 116.061 21.8404C115.924 21.946 115.755 21.9947 115.587 21.9947C115.458 21.9947 115.329 21.9622 115.209 21.9053L109.02 18.6159L102.83 21.9053C102.557 22.0515 102.235 22.0272 101.986 21.8404C101.737 21.6617 101.617 21.353 101.665 21.0444L102.846 14.0756L97.8467 9.1455C97.6297 8.9262 97.5493 8.60944 97.6458 8.31705C97.7422 8.02465 97.9914 7.80535 98.2969 7.76474L105.218 6.74948L108.312 0.414228C108.585 -0.138076 109.486 -0.138076 109.751 0.414228L112.846 6.74948L119.766 7.76474C120.072 7.81347 120.321 8.02465 120.417 8.31705C120.514 8.60944 120.433 8.9262 120.208 9.1455Z" fill="#FAAF38"/>
<path opacity="0.9" d="M152.751 9.1455L147.744 14.0756L148.925 21.0444C148.974 21.353 148.853 21.6536 148.604 21.8404C148.467 21.946 148.298 21.9947 148.13 21.9947C148.001 21.9947 147.872 21.9622 147.752 21.9053L141.562 18.6159L135.373 21.9053C135.1 22.0515 134.778 22.0272 134.529 21.8404C134.28 21.6617 134.16 21.353 134.208 21.0444L135.389 14.0756L130.39 9.1455C130.173 8.9262 130.092 8.60944 130.189 8.31705C130.285 8.02465 130.534 7.80535 130.84 7.76474L137.761 6.74948L140.855 0.414228C141.128 -0.138076 142.029 -0.138076 142.294 0.414228L145.389 6.74948L152.309 7.76474C152.615 7.81347 152.864 8.02465 152.96 8.31705C153.057 8.60944 152.976 8.9262 152.751 9.1455Z" fill="#70758F" fill-opacity="0.3"/>
</svg>
