<svg width="325" height="394" viewBox="0 0 325 394" fill="none" xmlns="http://www.w3.org/2000/svg">
<mask id="mask0_196_330" style="mask-type:alpha" maskUnits="userSpaceOnUse" x="0" y="0" width="325" height="394">
<rect width="325" height="394" fill="#FCFCFC"/>
</mask>
<g mask="url(#mask0_196_330)">
<g opacity="0.5">
<g opacity="0.5">
<path d="M200.796 762.119C192.19 771.559 179.984 783.59 170.193 791.757C154.342 804.973 132.959 822.537 115.395 833.382C97.1296 844.622 72.102 858.541 52.6069 867.542C36.0536 875.182 13.2653 883.876 -4.29795 888.662C-19.6658 892.833 -40.2147 898.542 -55.9777 900.869C-65.9009 902.362 -79.1172 904.601 -89.1282 905.479C-102.608 906.708 -120.654 907.894 -134.222 907.894C-168.47 907.982 -191.917 904.645 -204.518 902.888C-213.564 901.615 -225.55 899.42 -234.464 897.444C-244.343 895.292 -257.515 892.263 -267.131 889.145C-275.298 886.511 -286.275 883.174 -294.398 880.276C-302.653 877.29 -313.63 873.163 -321.621 869.518C-328.778 866.225 -338.482 862.142 -345.419 858.41C-352.181 854.809 -361.27 850.111 -367.944 846.335C-374.486 842.603 -383.049 837.422 -389.327 833.294C-401.797 825.127 -421.161 812.13 -445.749 790.22C-456.155 780.956 -469.108 767.696 -478.768 757.685C-483.686 752.591 -489.701 745.259 -494.311 739.858C-499.097 734.282 -505.025 726.51 -509.416 720.67C-513.763 714.83 -519.207 706.751 -523.422 700.78C-527.682 694.72 -532.687 686.114 -536.595 679.836C-540.986 672.722 -546.211 662.887 -550.031 655.467C-553.675 648.397 -558.242 638.826 -561.447 631.581C-565.311 622.711 -570.228 610.724 -573.478 601.592C-577.21 591.054 -581.688 576.783 -584.718 566.026C-589.768 548.024 -593.939 523.347 -597.056 504.906C-604.477 449.055 -583.313 388.901 -530.14 332.523C-396.792 191.008 -112.048 125.892 104.638 187.407C-112.004 125.936 -396.792 191.008 -530.14 332.523C-583.137 388.901 -604.345 449.055 -596.881 504.862C-601.14 471.448 -601.008 452.919 -600.876 433.292C-600.745 415.861 -598.681 392.589 -596.002 375.333C-592.797 354.697 -586.738 327.386 -580.635 307.408C-574.795 288.22 -565.486 262.929 -556.397 245.058C-546.738 226.046 -533.082 200.975 -521.008 183.324C-508.538 165.058 -490.052 141.918 -474.86 125.892C-449.13 98.7129 -429.108 83.3012 -415.892 73.0706C-399.69 60.6007 -376.418 46.2428 -358.592 36.1879C-342.521 27.1428 -320.041 16.9123 -302.741 10.4578C-283.29 3.21296 -256.769 -4.86612 -236.484 -9.34474C-221.204 -12.7257 -200.567 -16.4139 -184.979 -17.5994C-175.1 -18.3459 -161.928 -19.6192 -152.048 -19.7948C-138.832 -20.0583 -121.137 -20.2778 -107.965 -19.0484C-98.5684 -18.2142 -85.9668 -17.2482 -76.6144 -15.9748C-65.4618 -14.4381 -50.7087 -11.8475 -39.6878 -9.56428C-16.0214 -4.64658 11.4651 4.17894 20.2467 7.60376C28.4136 10.7651 39.4784 14.673 47.4696 18.3612C61.5641 24.8596 80.225 33.9486 93.7926 41.5447C100.335 45.2329 108.985 50.3702 115.176 54.5853C121.147 58.6688 129.182 63.9817 135.066 68.1968C140.818 72.3681 148.326 78.12 153.815 82.5548C217.833 134.147 255.506 192.5 275.835 232.413C280.007 240.624 285.276 251.776 288.964 260.251C292.301 267.978 296.252 278.472 299.282 286.332C303.322 296.782 307.625 311.096 310.523 321.897C315.353 339.987 319.919 364.532 322.861 383.017C324.661 394.39 325.583 409.713 326.373 421.217C327.866 442.732 326.813 482.03 321.983 512.546C315.265 555.005 308.064 578.496 296.472 609.934C292.784 619.989 287.383 633.293 282.378 642.821C272.498 661.746 258.36 686.466 246.988 704.556C235.176 723.348 215.681 745.742 200.796 762.119Z" stroke="url(#paint0_linear_196_330)" stroke-width="0.5" stroke-miterlimit="10"/>
<path d="M200.796 762.119C192.19 771.559 179.984 783.59 170.193 791.757C154.342 804.973 132.959 822.537 115.395 833.382C97.1296 844.622 72.102 858.541 52.6069 867.542C36.0536 875.182 13.2653 883.876 -4.29795 888.662C-19.6658 892.833 -40.2147 898.542 -55.9777 900.869C-65.9009 902.362 -79.1172 904.601 -89.1282 905.479C-102.608 906.708 -120.654 907.894 -134.222 907.894C-168.47 907.982 -191.917 904.645 -204.518 902.888C-213.564 901.615 -225.55 899.42 -234.464 897.444C-244.343 895.292 -257.515 892.263 -267.131 889.145C-275.298 886.511 -286.275 883.174 -294.398 880.276C-302.653 877.29 -313.63 873.163 -321.621 869.518C-328.778 866.225 -338.482 862.142 -345.419 858.41C-352.181 854.809 -361.27 850.111 -367.944 846.335C-374.486 842.603 -383.049 837.422 -389.327 833.294C-401.797 825.127 -421.161 812.13 -445.749 790.22C-456.155 780.956 -469.108 767.696 -478.768 757.685C-483.686 752.591 -489.701 745.259 -494.311 739.858C-499.097 734.282 -505.025 726.51 -509.416 720.67C-513.763 714.83 -519.207 706.751 -523.422 700.78C-527.682 694.72 -532.687 686.114 -536.595 679.836C-540.986 672.722 -546.211 662.887 -550.031 655.467C-553.675 648.397 -558.242 638.826 -561.447 631.581C-565.311 622.711 -570.228 610.724 -573.478 601.592C-577.21 591.054 -581.688 576.783 -584.718 566.026C-589.768 548.024 -593.939 523.347 -597.056 504.906C-604.477 449.055 -583.313 388.901 -530.14 332.523C-396.792 191.008 -112.048 125.892 104.638 187.407C-112.004 125.936 -396.792 191.008 -530.14 332.523C-583.137 388.901 -604.345 449.055 -596.881 504.862C-601.14 471.448 -601.008 452.919 -600.876 433.292C-600.745 415.861 -598.681 392.589 -596.002 375.333C-592.797 354.697 -586.738 327.386 -580.635 307.408C-574.795 288.22 -565.486 262.929 -556.397 245.058C-546.738 226.046 -533.082 200.975 -521.008 183.324C-508.538 165.058 -490.052 141.918 -474.86 125.892C-449.13 98.7129 -429.108 83.3012 -415.892 73.0706C-399.69 60.6007 -376.418 46.2428 -358.592 36.1879C-342.521 27.1428 -320.041 16.9123 -302.741 10.4578C-283.29 3.21296 -256.769 -4.86612 -236.484 -9.34474C-221.204 -12.7257 -200.567 -16.4139 -184.979 -17.5994C-175.1 -18.3459 -161.928 -19.6192 -152.048 -19.7948C-138.832 -20.0583 -121.137 -20.2778 -107.965 -19.0484C-98.5684 -18.2142 -85.9668 -17.2482 -76.6144 -15.9748C-65.4618 -14.4381 -50.7087 -11.8475 -39.6878 -9.56428C-16.0214 -4.64658 11.4651 4.17894 20.2467 7.60376C28.4136 10.7651 39.4784 14.673 47.4696 18.3612C61.5641 24.8596 80.225 33.9486 93.7926 41.5447C100.335 45.2329 108.985 50.3702 115.176 54.5853C121.147 58.6688 129.182 63.9817 135.066 68.1968C140.818 72.3681 148.326 78.12 153.815 82.5548C217.833 134.147 255.506 192.5 275.835 232.413C280.007 240.624 285.276 251.776 288.964 260.251C292.301 267.978 296.252 278.472 299.282 286.332C303.322 296.782 307.625 311.096 310.523 321.897C315.353 339.987 319.919 364.532 322.861 383.017C324.661 394.39 325.583 409.713 326.373 421.217C327.866 442.732 326.813 482.03 321.983 512.546C315.265 555.005 308.064 578.496 296.472 609.934C292.784 619.989 287.383 633.293 282.378 642.821C272.498 661.746 258.36 686.466 246.988 704.556C235.176 723.348 215.681 745.742 200.796 762.119Z" stroke="black" stroke-opacity="0.2" stroke-width="0.5" stroke-miterlimit="10"/>
<path d="M104.77 187.362C-111.872 125.891 -396.659 190.963 -530.008 332.478C-502.785 536.914 -304.804 752.546 -87.7662 814.149C45.5824 672.634 131.95 391.447 104.77 187.362Z" stroke="url(#paint1_linear_196_330)" stroke-width="0.5" stroke-miterlimit="10"/>
<path d="M104.77 187.362C-111.872 125.891 -396.659 190.963 -530.008 332.478C-502.785 536.914 -304.804 752.546 -87.7662 814.149C45.5824 672.634 131.95 391.447 104.77 187.362Z" stroke="black" stroke-opacity="0.2" stroke-width="0.5" stroke-miterlimit="10"/>
<path d="M-126.449 166.199C-112.706 269.295 -12.8592 378.055 96.5596 409.098" stroke="url(#paint2_linear_196_330)" stroke-width="0.5" stroke-miterlimit="10"/>
<path d="M-126.449 166.199C-112.706 269.295 -12.8592 378.055 96.5596 409.098" stroke="black" stroke-opacity="0.2" stroke-width="0.5" stroke-miterlimit="10"/>
<path d="M-354.289 218.318C-330.798 394.784 -159.864 580.954 27.4912 634.126" stroke="url(#paint3_linear_196_330)" stroke-width="0.5" stroke-miterlimit="10"/>
<path d="M-354.289 218.318C-330.798 394.784 -159.864 580.954 27.4912 634.126" stroke="black" stroke-opacity="0.2" stroke-width="0.5" stroke-miterlimit="10"/>
<path d="M104.77 187.362C-68.579 237.285 -318.108 393.027 -451.457 534.543" stroke="url(#paint4_linear_196_330)" stroke-width="0.5" stroke-miterlimit="10"/>
<path d="M104.77 187.362C-68.579 237.285 -318.108 393.027 -451.457 534.543" stroke="black" stroke-opacity="0.2" stroke-width="0.5" stroke-miterlimit="10"/>
<path d="M104.767 187.362C18.8828 332.566 -159.472 565.805 -292.82 707.321" stroke="url(#paint5_linear_196_330)" stroke-width="0.5" stroke-miterlimit="10"/>
<path d="M104.767 187.362C18.8828 332.566 -159.472 565.805 -292.82 707.321" stroke="black" stroke-opacity="0.2" stroke-width="0.5" stroke-miterlimit="10"/>
<path d="M104.767 187.363C131.946 391.448 45.5791 672.634 -87.7695 814.15C129.224 875.753 283.078 759.924 255.855 555.532C389.203 414.016 321.409 248.834 104.767 187.363Z" stroke="url(#paint6_linear_196_330)" stroke-width="0.5" stroke-miterlimit="10"/>
<path d="M104.767 187.363C131.946 391.448 45.5791 672.634 -87.7695 814.15C129.224 875.753 283.078 759.924 255.855 555.532C389.203 414.016 321.409 248.834 104.767 187.363Z" stroke="black" stroke-opacity="0.2" stroke-width="0.5" stroke-miterlimit="10"/>
<path d="M96.5586 409.143C206.021 440.186 283.607 381.788 269.864 278.692" stroke="url(#paint7_linear_196_330)" stroke-width="0.5" stroke-miterlimit="10"/>
<path d="M96.5586 409.143C206.021 440.186 283.607 381.788 269.864 278.692" stroke="black" stroke-opacity="0.2" stroke-width="0.5" stroke-miterlimit="10"/>
<path d="M104.767 187.363C237.589 394.609 237.149 678.386 103.801 819.902" stroke="url(#paint8_linear_196_330)" stroke-width="0.5" stroke-miterlimit="10"/>
<path d="M104.767 187.363C237.589 394.609 237.149 678.386 103.801 819.902" stroke="black" stroke-opacity="0.2" stroke-width="0.5" stroke-miterlimit="10"/>
<path d="M104.766 187.363C305.557 343.456 360.442 585.609 227.093 727.124" stroke="url(#paint9_linear_196_330)" stroke-width="0.5" stroke-miterlimit="10"/>
<path d="M104.766 187.363C305.557 343.456 360.442 585.609 227.093 727.124" stroke="black" stroke-opacity="0.2" stroke-width="0.5" stroke-miterlimit="10"/>
<path d="M104.767 187.364C321.41 248.835 389.204 414.017 255.855 555.532C228.632 351.097 30.6506 135.464 -186.387 73.8614C-53.038 -67.6542 77.5883 -16.7209 104.767 187.364Z" stroke="url(#paint10_linear_196_330)" stroke-width="0.5" stroke-miterlimit="10"/>
<path d="M104.767 187.364C321.41 248.835 389.204 414.017 255.855 555.532C228.632 351.097 30.6506 135.464 -186.387 73.8614C-53.038 -67.6542 77.5883 -16.7209 104.767 187.364Z" stroke="black" stroke-opacity="0.2" stroke-width="0.5" stroke-miterlimit="10"/>
<path d="M269.864 278.692C256.121 175.596 156.274 66.836 46.8555 35.793" stroke="url(#paint11_linear_196_330)" stroke-width="0.5" stroke-miterlimit="10"/>
<path d="M269.864 278.692C256.121 175.596 156.274 66.836 46.8555 35.793" stroke="black" stroke-opacity="0.2" stroke-width="0.5" stroke-miterlimit="10"/>
<path d="M324.089 410.855C300.598 234.389 129.664 48.2188 -57.6914 -4.9538" stroke="url(#paint12_linear_196_330)" stroke-width="0.5" stroke-miterlimit="10"/>
<path d="M324.089 410.855C300.598 234.389 129.664 48.2188 -57.6914 -4.9538" stroke="black" stroke-opacity="0.2" stroke-width="0.5" stroke-miterlimit="10"/>
<path d="M104.766 187.364C278.115 137.44 310.65 211.952 177.346 353.468" stroke="url(#paint13_linear_196_330)" stroke-width="0.5" stroke-miterlimit="10"/>
<path d="M104.766 187.364C278.115 137.44 310.65 211.952 177.346 353.468" stroke="black" stroke-opacity="0.2" stroke-width="0.5" stroke-miterlimit="10"/>
<path d="M104.768 187.364C190.652 42.1601 152.013 39.1743 18.6641 180.69" stroke="url(#paint14_linear_196_330)" stroke-width="0.5" stroke-miterlimit="10"/>
<path d="M104.768 187.364C190.652 42.1601 152.013 39.1743 18.6641 180.69" stroke="black" stroke-opacity="0.2" stroke-width="0.5" stroke-miterlimit="10"/>
<path d="M104.771 187.363C77.5918 -16.7215 -53.0346 -67.6548 -186.383 73.8608C-403.377 12.2578 -557.23 128.043 -530.007 332.479C-396.659 190.963 -111.871 125.892 104.771 187.363Z" stroke="url(#paint15_linear_196_330)" stroke-width="0.5" stroke-miterlimit="10"/>
<path d="M104.771 187.363C77.5918 -16.7215 -53.0346 -67.6548 -186.383 73.8608C-403.377 12.2578 -557.23 128.043 -530.007 332.479C-396.659 190.963 -111.871 125.892 104.771 187.363Z" stroke="black" stroke-opacity="0.2" stroke-width="0.5" stroke-miterlimit="10"/>
<path d="M46.855 35.792C-62.6077 4.74903 -140.193 63.1467 -126.45 166.243" stroke="url(#paint16_linear_196_330)" stroke-width="0.5" stroke-miterlimit="10"/>
<path d="M46.855 35.792C-62.6077 4.74903 -140.193 63.1467 -126.45 166.243" stroke="black" stroke-opacity="0.2" stroke-width="0.5" stroke-miterlimit="10"/>
<path d="M104.772 187.363C-28.0501 -19.8826 -244.604 -73.4065 -377.953 68.1091" stroke="url(#paint17_linear_196_330)" stroke-width="0.5" stroke-miterlimit="10"/>
<path d="M104.772 187.363C-28.0501 -19.8826 -244.604 -73.4065 -377.953 68.1091" stroke="black" stroke-opacity="0.2" stroke-width="0.5" stroke-miterlimit="10"/>
<path d="M104.772 187.363C-96.0198 31.2697 -367.854 19.3706 -501.203 160.886" stroke="url(#paint18_linear_196_330)" stroke-width="0.5" stroke-miterlimit="10"/>
<path d="M104.772 187.363C-96.0198 31.2697 -367.854 19.3706 -501.203 160.886" stroke="black" stroke-opacity="0.2" stroke-width="0.5" stroke-miterlimit="10"/>
<path d="M255.858 555.532C122.51 697.047 -162.234 762.163 -378.92 700.648C-406.099 496.563 -319.688 215.376 -186.339 73.8606C30.6541 135.464 228.635 351.096 255.858 555.532Z" stroke="url(#paint19_linear_196_330)" stroke-width="0.5" stroke-miterlimit="10"/>
<path d="M255.858 555.532C122.51 697.047 -162.234 762.163 -378.92 700.648C-406.099 496.563 -319.688 215.376 -186.339 73.8606C30.6541 135.464 228.635 351.096 255.858 555.532Z" stroke="black" stroke-opacity="0.2" stroke-width="0.5" stroke-miterlimit="10"/>
<path d="M80.1826 669.692C56.6918 493.226 -114.242 307.056 -301.598 253.884" stroke="url(#paint20_linear_196_330)" stroke-width="0.5" stroke-miterlimit="10"/>
<path d="M80.1826 669.692C56.6918 493.226 -114.242 307.056 -301.598 253.884" stroke="black" stroke-opacity="0.2" stroke-width="0.5" stroke-miterlimit="10"/>
<path d="M177.352 353.466C44.0032 494.982 -205.526 650.724 -378.875 700.647" stroke="url(#paint21_linear_196_330)" stroke-width="0.5" stroke-miterlimit="10"/>
<path d="M177.352 353.466C44.0032 494.982 -205.526 650.724 -378.875 700.647" stroke="black" stroke-opacity="0.2" stroke-width="0.5" stroke-miterlimit="10"/>
<path d="M18.6692 180.689C-114.679 322.205 -293.034 555.444 -378.918 700.648" stroke="url(#paint22_linear_196_330)" stroke-width="0.5" stroke-miterlimit="10"/>
<path d="M18.6692 180.689C-114.679 322.205 -293.034 555.444 -378.918 700.648" stroke="black" stroke-opacity="0.2" stroke-width="0.5" stroke-miterlimit="10"/>
<path d="M200.796 762.119C192.19 771.559 179.984 783.59 170.193 791.757C154.342 804.973 132.959 822.537 115.395 833.382C97.1296 844.622 72.102 858.541 52.6069 867.542C36.0536 875.182 13.2653 883.876 -4.29795 888.662C-19.6658 892.833 -40.2147 898.542 -55.9777 900.869C-65.9009 902.362 -79.1172 904.601 -89.1282 905.479C-102.608 906.708 -120.654 907.894 -134.222 907.894C-168.47 907.982 -191.917 904.645 -204.518 902.888C-213.564 901.615 -225.55 899.42 -234.464 897.444C-244.343 895.292 -257.515 892.263 -267.131 889.145C-275.298 886.511 -286.275 883.174 -294.398 880.276C-302.653 877.29 -313.63 873.163 -321.621 869.518C-328.778 866.225 -338.482 862.142 -345.419 858.41C-352.181 854.809 -361.27 850.111 -367.944 846.335C-374.486 842.603 -383.049 837.422 -389.327 833.294C-401.797 825.127 -421.161 812.13 -445.749 790.22C-456.155 780.956 -469.108 767.696 -478.768 757.685C-483.686 752.591 -489.701 745.259 -494.311 739.858C-499.097 734.282 -505.025 726.51 -509.416 720.67C-513.763 714.83 -519.207 706.751 -523.422 700.78C-527.682 694.72 -532.687 686.114 -536.595 679.836C-540.986 672.722 -546.211 662.887 -550.031 655.467C-553.675 648.397 -558.242 638.826 -561.447 631.581C-565.311 622.711 -570.228 610.724 -573.478 601.592C-577.21 591.054 -581.688 576.783 -584.718 566.026C-589.768 548.024 -593.939 523.347 -597.056 504.906C-604.477 449.055 -583.313 388.901 -530.14 332.523C-396.792 191.008 -112.048 125.892 104.638 187.407C-112.004 125.936 -396.792 191.008 -530.14 332.523C-583.137 388.901 -604.345 449.055 -596.881 504.862C-601.14 471.448 -601.008 452.919 -600.876 433.292C-600.745 415.861 -598.681 392.589 -596.002 375.333C-592.797 354.697 -586.738 327.386 -580.635 307.408C-574.795 288.22 -565.486 262.929 -556.397 245.058C-546.738 226.046 -533.082 200.975 -521.008 183.324C-508.538 165.058 -490.052 141.918 -474.86 125.892C-449.13 98.7129 -429.108 83.3012 -415.892 73.0706C-399.69 60.6007 -376.418 46.2428 -358.592 36.1879C-342.521 27.1428 -320.041 16.9123 -302.741 10.4578C-283.29 3.21296 -256.769 -4.86612 -236.484 -9.34474C-221.204 -12.7257 -200.567 -16.4139 -184.979 -17.5994C-175.1 -18.3459 -161.928 -19.6192 -152.048 -19.7948C-138.832 -20.0583 -121.137 -20.2778 -107.965 -19.0484C-98.5684 -18.2142 -85.9668 -17.2482 -76.6144 -15.9748C-65.4618 -14.4381 -50.7087 -11.8475 -39.6878 -9.56428C-16.0214 -4.64658 11.4651 4.17894 20.2467 7.60376C28.4136 10.7651 39.4784 14.673 47.4696 18.3612C61.5641 24.8596 80.225 33.9486 93.7926 41.5447C100.335 45.2329 108.985 50.3702 115.176 54.5853C121.147 58.6688 129.182 63.9817 135.066 68.1968C140.818 72.3681 148.326 78.12 153.815 82.5548C217.833 134.147 255.506 192.5 275.835 232.413C280.007 240.624 285.276 251.776 288.964 260.251C292.301 267.978 296.252 278.472 299.282 286.332C303.322 296.782 307.625 311.096 310.523 321.897C315.353 339.987 319.919 364.532 322.861 383.017C324.661 394.39 325.583 409.713 326.373 421.217C327.866 442.732 326.813 482.03 321.983 512.546C315.265 555.005 308.064 578.496 296.472 609.934C292.784 619.989 287.383 633.293 282.378 642.821C272.498 661.746 258.36 686.466 246.988 704.556C235.176 723.348 215.681 745.742 200.796 762.119Z" stroke="url(#paint23_linear_196_330)" stroke-width="0.5" stroke-miterlimit="10"/>
<path d="M200.796 762.119C192.19 771.559 179.984 783.59 170.193 791.757C154.342 804.973 132.959 822.537 115.395 833.382C97.1296 844.622 72.102 858.541 52.6069 867.542C36.0536 875.182 13.2653 883.876 -4.29795 888.662C-19.6658 892.833 -40.2147 898.542 -55.9777 900.869C-65.9009 902.362 -79.1172 904.601 -89.1282 905.479C-102.608 906.708 -120.654 907.894 -134.222 907.894C-168.47 907.982 -191.917 904.645 -204.518 902.888C-213.564 901.615 -225.55 899.42 -234.464 897.444C-244.343 895.292 -257.515 892.263 -267.131 889.145C-275.298 886.511 -286.275 883.174 -294.398 880.276C-302.653 877.29 -313.63 873.163 -321.621 869.518C-328.778 866.225 -338.482 862.142 -345.419 858.41C-352.181 854.809 -361.27 850.111 -367.944 846.335C-374.486 842.603 -383.049 837.422 -389.327 833.294C-401.797 825.127 -421.161 812.13 -445.749 790.22C-456.155 780.956 -469.108 767.696 -478.768 757.685C-483.686 752.591 -489.701 745.259 -494.311 739.858C-499.097 734.282 -505.025 726.51 -509.416 720.67C-513.763 714.83 -519.207 706.751 -523.422 700.78C-527.682 694.72 -532.687 686.114 -536.595 679.836C-540.986 672.722 -546.211 662.887 -550.031 655.467C-553.675 648.397 -558.242 638.826 -561.447 631.581C-565.311 622.711 -570.228 610.724 -573.478 601.592C-577.21 591.054 -581.688 576.783 -584.718 566.026C-589.768 548.024 -593.939 523.347 -597.056 504.906C-604.477 449.055 -583.313 388.901 -530.14 332.523C-396.792 191.008 -112.048 125.892 104.638 187.407C-112.004 125.936 -396.792 191.008 -530.14 332.523C-583.137 388.901 -604.345 449.055 -596.881 504.862C-601.14 471.448 -601.008 452.919 -600.876 433.292C-600.745 415.861 -598.681 392.589 -596.002 375.333C-592.797 354.697 -586.738 327.386 -580.635 307.408C-574.795 288.22 -565.486 262.929 -556.397 245.058C-546.738 226.046 -533.082 200.975 -521.008 183.324C-508.538 165.058 -490.052 141.918 -474.86 125.892C-449.13 98.7129 -429.108 83.3012 -415.892 73.0706C-399.69 60.6007 -376.418 46.2428 -358.592 36.1879C-342.521 27.1428 -320.041 16.9123 -302.741 10.4578C-283.29 3.21296 -256.769 -4.86612 -236.484 -9.34474C-221.204 -12.7257 -200.567 -16.4139 -184.979 -17.5994C-175.1 -18.3459 -161.928 -19.6192 -152.048 -19.7948C-138.832 -20.0583 -121.137 -20.2778 -107.965 -19.0484C-98.5684 -18.2142 -85.9668 -17.2482 -76.6144 -15.9748C-65.4618 -14.4381 -50.7087 -11.8475 -39.6878 -9.56428C-16.0214 -4.64658 11.4651 4.17894 20.2467 7.60376C28.4136 10.7651 39.4784 14.673 47.4696 18.3612C61.5641 24.8596 80.225 33.9486 93.7926 41.5447C100.335 45.2329 108.985 50.3702 115.176 54.5853C121.147 58.6688 129.182 63.9817 135.066 68.1968C140.818 72.3681 148.326 78.12 153.815 82.5548C217.833 134.147 255.506 192.5 275.835 232.413C280.007 240.624 285.276 251.776 288.964 260.251C292.301 267.978 296.252 278.472 299.282 286.332C303.322 296.782 307.625 311.096 310.523 321.897C315.353 339.987 319.919 364.532 322.861 383.017C324.661 394.39 325.583 409.713 326.373 421.217C327.866 442.732 326.813 482.03 321.983 512.546C315.265 555.005 308.064 578.496 296.472 609.934C292.784 619.989 287.383 633.293 282.378 642.821C272.498 661.746 258.36 686.466 246.988 704.556C235.176 723.348 215.681 745.742 200.796 762.119Z" stroke="black" stroke-opacity="0.2" stroke-width="0.5" stroke-miterlimit="10"/>
<path d="M322.77 383.105C325.141 402.819 327.205 429.34 326.854 449.186C326.371 476.673 324.746 494.982 320.355 522.425C317.501 540.12 312.013 563.479 306.568 580.559C300.026 600.888 290.234 627.804 280.443 646.816C271.09 664.994 257.83 688.924 246.195 705.741C233.856 723.611 215.854 746.443 200.794 762.075C185.47 777.969 163.779 798.079 146.26 811.515C119.388 832.064 104.108 840.67 81.0126 853.623C63.5811 863.414 38.8609 873.733 20.0683 880.626C3.16368 886.861 -19.9319 893.799 -37.6269 897.224C-57.3416 901.044 -83.8181 905.654 -103.84 906.752C-118.901 907.586 -139.054 907.849 -154.159 907.542C-163.643 907.366 -176.288 906.137 -185.773 905.259C-198.418 904.073 -215.103 901.175 -227.573 898.848C-236.486 897.18 -248.166 894.238 -256.947 891.999C-267.31 889.32 -280.921 884.929 -291.02 881.461C-298.923 878.738 -309.286 874.655 -317.014 871.45C-336.553 863.37 -358.507 851.91 -367.859 846.29C-374.182 842.514 -382.744 837.684 -388.847 833.513C-394.819 829.43 -402.898 824.117 -408.737 819.902C-414.577 815.686 -422.217 809.847 -427.837 805.324C-444.083 792.239 -455.456 781.35 -462.613 774.325C-474.819 762.25 -475.917 761.021 -494.139 739.989C-506.038 726.202 -526.63 697.354 -536.51 679.791C-544.194 666.136 -553.766 647.563 -560.484 633.424C-564.347 625.301 -568.87 614.192 -571.812 605.718C-575.061 596.278 -579.452 583.72 -582.262 574.148C-584.852 565.367 -587.619 553.512 -589.814 544.642C-592.756 532.875 -595.171 516.848 -596.883 504.861C-585.643 589.165 -509.199 663.633 -378.88 700.603C-509.199 663.633 -585.643 589.121 -596.883 504.861C-598.815 485.103 -601.318 458.626 -600.967 438.78C-600.484 411.381 -598.859 393.028 -594.468 365.541C-591.614 347.846 -586.126 324.487 -580.681 307.407C-574.139 287.078 -564.347 260.162 -554.556 241.15C-545.204 222.972 -531.943 199.042 -520.308 182.225C-507.97 164.355 -489.967 141.523 -474.907 125.891C-459.583 109.997 -437.892 89.8868 -420.373 76.451C-393.501 55.902 -378.221 47.296 -355.126 34.3432C-337.694 24.5517 -312.974 14.2333 -294.181 7.33973C-277.277 1.10479 -254.181 -5.83268 -236.486 -9.2575C-216.772 -13.0775 -190.295 -17.6878 -170.273 -18.7855C-155.213 -19.6198 -135.059 -19.8832 -119.954 -19.5759C-110.47 -19.4003 -97.8247 -18.1708 -88.3406 -17.2927C-75.6951 -16.1072 -59.0101 -13.2092 -46.5402 -10.8821C-37.6269 -9.2136 -25.9473 -6.27176 -17.1657 -4.03245C-6.80343 -1.35406 6.80804 3.03674 16.9069 6.50548C24.8103 9.22777 35.1726 13.3112 42.9004 16.5165C62.4395 24.5956 84.3935 36.0556 93.7459 41.6758C100.069 45.4519 108.631 50.2818 114.734 54.453C120.705 58.5365 128.785 63.8494 134.624 68.0645C140.464 72.2797 148.104 78.1195 153.724 82.642C169.97 95.7266 181.342 106.616 188.499 113.641C200.706 125.716 201.804 126.945 220.025 147.977C231.968 161.764 252.517 190.656 262.397 208.175C270.081 221.83 279.653 240.403 286.37 254.542C290.234 262.665 294.757 273.774 297.699 282.248C300.948 291.688 305.339 304.246 308.149 313.818C310.739 322.599 313.506 334.455 315.701 343.324C318.643 355.091 321.321 371.074 322.77 383.105Z" stroke="url(#paint24_linear_196_330)" stroke-width="0.5" stroke-miterlimit="10"/>
<path d="M322.77 383.105C325.141 402.819 327.205 429.34 326.854 449.186C326.371 476.673 324.746 494.982 320.355 522.425C317.501 540.12 312.013 563.479 306.568 580.559C300.026 600.888 290.234 627.804 280.443 646.816C271.09 664.994 257.83 688.924 246.195 705.741C233.856 723.611 215.854 746.443 200.794 762.075C185.47 777.969 163.779 798.079 146.26 811.515C119.388 832.064 104.108 840.67 81.0126 853.623C63.5811 863.414 38.8609 873.733 20.0683 880.626C3.16368 886.861 -19.9319 893.799 -37.6269 897.224C-57.3416 901.044 -83.8181 905.654 -103.84 906.752C-118.901 907.586 -139.054 907.849 -154.159 907.542C-163.643 907.366 -176.288 906.137 -185.773 905.259C-198.418 904.073 -215.103 901.175 -227.573 898.848C-236.486 897.18 -248.166 894.238 -256.947 891.999C-267.31 889.32 -280.921 884.929 -291.02 881.461C-298.923 878.738 -309.286 874.655 -317.014 871.45C-336.553 863.37 -358.507 851.91 -367.859 846.29C-374.182 842.514 -382.744 837.684 -388.847 833.513C-394.819 829.43 -402.898 824.117 -408.737 819.902C-414.577 815.686 -422.217 809.847 -427.837 805.324C-444.083 792.239 -455.456 781.35 -462.613 774.325C-474.819 762.25 -475.917 761.021 -494.139 739.989C-506.038 726.202 -526.63 697.354 -536.51 679.791C-544.194 666.136 -553.766 647.563 -560.484 633.424C-564.347 625.301 -568.87 614.192 -571.812 605.718C-575.061 596.278 -579.452 583.72 -582.262 574.148C-584.852 565.367 -587.619 553.512 -589.814 544.642C-592.756 532.875 -595.171 516.848 -596.883 504.861C-585.643 589.165 -509.199 663.633 -378.88 700.603C-509.199 663.633 -585.643 589.121 -596.883 504.861C-598.815 485.103 -601.318 458.626 -600.967 438.78C-600.484 411.381 -598.859 393.028 -594.468 365.541C-591.614 347.846 -586.126 324.487 -580.681 307.407C-574.139 287.078 -564.347 260.162 -554.556 241.15C-545.204 222.972 -531.943 199.042 -520.308 182.225C-507.97 164.355 -489.967 141.523 -474.907 125.891C-459.583 109.997 -437.892 89.8868 -420.373 76.451C-393.501 55.902 -378.221 47.296 -355.126 34.3432C-337.694 24.5517 -312.974 14.2333 -294.181 7.33973C-277.277 1.10479 -254.181 -5.83268 -236.486 -9.2575C-216.772 -13.0775 -190.295 -17.6878 -170.273 -18.7855C-155.213 -19.6198 -135.059 -19.8832 -119.954 -19.5759C-110.47 -19.4003 -97.8247 -18.1708 -88.3406 -17.2927C-75.6951 -16.1072 -59.0101 -13.2092 -46.5402 -10.8821C-37.6269 -9.2136 -25.9473 -6.27176 -17.1657 -4.03245C-6.80343 -1.35406 6.80804 3.03674 16.9069 6.50548C24.8103 9.22777 35.1726 13.3112 42.9004 16.5165C62.4395 24.5956 84.3935 36.0556 93.7459 41.6758C100.069 45.4519 108.631 50.2818 114.734 54.453C120.705 58.5365 128.785 63.8494 134.624 68.0645C140.464 72.2797 148.104 78.1195 153.724 82.642C169.97 95.7266 181.342 106.616 188.499 113.641C200.706 125.716 201.804 126.945 220.025 147.977C231.968 161.764 252.517 190.656 262.397 208.175C270.081 221.83 279.653 240.403 286.37 254.542C290.234 262.665 294.757 273.774 297.699 282.248C300.948 291.688 305.339 304.246 308.149 313.818C310.739 322.599 313.506 334.455 315.701 343.324C318.643 355.091 321.321 371.074 322.77 383.105Z" stroke="black" stroke-opacity="0.2" stroke-width="0.5" stroke-miterlimit="10"/>
<path d="M104.77 187.362C-111.872 125.891 -396.659 190.963 -530.008 332.478C-502.785 536.914 -304.804 752.546 -87.7662 814.149C45.5824 672.634 131.95 391.447 104.77 187.362Z" stroke="url(#paint25_linear_196_330)" stroke-width="0.5" stroke-miterlimit="10"/>
<path d="M104.77 187.362C-111.872 125.891 -396.659 190.963 -530.008 332.478C-502.785 536.914 -304.804 752.546 -87.7662 814.149C45.5824 672.634 131.95 391.447 104.77 187.362Z" stroke="black" stroke-opacity="0.2" stroke-width="0.5" stroke-miterlimit="10"/>
<path d="M-354.289 218.318C-330.798 394.784 -159.864 580.954 27.4912 634.126" stroke="url(#paint26_linear_196_330)" stroke-width="0.5" stroke-miterlimit="10"/>
<path d="M-354.289 218.318C-330.798 394.784 -159.864 580.954 27.4912 634.126" stroke="black" stroke-opacity="0.2" stroke-width="0.5" stroke-miterlimit="10"/>
<path d="M104.77 187.362C-68.579 237.285 -318.108 393.027 -451.457 534.543" stroke="url(#paint27_linear_196_330)" stroke-width="0.5" stroke-miterlimit="10"/>
<path d="M104.77 187.362C-68.579 237.285 -318.108 393.027 -451.457 534.543" stroke="black" stroke-opacity="0.2" stroke-width="0.5" stroke-miterlimit="10"/>
<path d="M104.767 187.362C18.8828 332.566 -159.472 565.805 -292.82 707.321" stroke="url(#paint28_linear_196_330)" stroke-width="0.5" stroke-miterlimit="10"/>
<path d="M104.767 187.362C18.8828 332.566 -159.472 565.805 -292.82 707.321" stroke="black" stroke-opacity="0.2" stroke-width="0.5" stroke-miterlimit="10"/>
<path d="M104.767 187.363C131.946 391.448 45.5791 672.634 -87.7695 814.15C129.224 875.753 283.078 759.924 255.855 555.532C389.203 414.016 321.409 248.834 104.767 187.363Z" stroke="url(#paint29_linear_196_330)" stroke-width="0.5" stroke-miterlimit="10"/>
<path d="M104.767 187.363C131.946 391.448 45.5791 672.634 -87.7695 814.15C129.224 875.753 283.078 759.924 255.855 555.532C389.203 414.016 321.409 248.834 104.767 187.363Z" stroke="black" stroke-opacity="0.2" stroke-width="0.5" stroke-miterlimit="10"/>
<path d="M104.767 187.363C237.589 394.609 237.149 678.386 103.801 819.902" stroke="url(#paint30_linear_196_330)" stroke-width="0.5" stroke-miterlimit="10"/>
<path d="M104.767 187.363C237.589 394.609 237.149 678.386 103.801 819.902" stroke="black" stroke-opacity="0.2" stroke-width="0.5" stroke-miterlimit="10"/>
<path d="M104.766 187.363C305.557 343.456 360.442 585.609 227.093 727.124" stroke="url(#paint31_linear_196_330)" stroke-width="0.5" stroke-miterlimit="10"/>
<path d="M104.766 187.363C305.557 343.456 360.442 585.609 227.093 727.124" stroke="black" stroke-opacity="0.2" stroke-width="0.5" stroke-miterlimit="10"/>
<path d="M104.767 187.364C321.41 248.835 389.204 414.017 255.855 555.532C228.632 351.097 30.6506 135.464 -186.387 73.8614C-53.038 -67.6542 77.5883 -16.7209 104.767 187.364Z" stroke="url(#paint32_linear_196_330)" stroke-width="0.5" stroke-miterlimit="10"/>
<path d="M104.767 187.364C321.41 248.835 389.204 414.017 255.855 555.532C228.632 351.097 30.6506 135.464 -186.387 73.8614C-53.038 -67.6542 77.5883 -16.7209 104.767 187.364Z" stroke="black" stroke-opacity="0.2" stroke-width="0.5" stroke-miterlimit="10"/>
<path d="M324.089 410.855C300.598 234.389 129.664 48.2188 -57.6914 -4.9538" stroke="url(#paint33_linear_196_330)" stroke-width="0.5" stroke-miterlimit="10"/>
<path d="M324.089 410.855C300.598 234.389 129.664 48.2188 -57.6914 -4.9538" stroke="black" stroke-opacity="0.2" stroke-width="0.5" stroke-miterlimit="10"/>
<path d="M104.766 187.364C278.115 137.44 310.65 211.952 177.346 353.468" stroke="url(#paint34_linear_196_330)" stroke-width="0.5" stroke-miterlimit="10"/>
<path d="M104.766 187.364C278.115 137.44 310.65 211.952 177.346 353.468" stroke="black" stroke-opacity="0.2" stroke-width="0.5" stroke-miterlimit="10"/>
<path d="M104.768 187.364C190.652 42.1601 152.013 39.1743 18.6641 180.69" stroke="url(#paint35_linear_196_330)" stroke-width="0.5" stroke-miterlimit="10"/>
<path d="M104.768 187.364C190.652 42.1601 152.013 39.1743 18.6641 180.69" stroke="black" stroke-opacity="0.2" stroke-width="0.5" stroke-miterlimit="10"/>
<path d="M104.771 187.363C77.5918 -16.7215 -53.0346 -67.6548 -186.383 73.8608C-403.377 12.2578 -557.23 128.043 -530.007 332.479C-396.659 190.963 -111.871 125.892 104.771 187.363Z" stroke="url(#paint36_linear_196_330)" stroke-width="0.5" stroke-miterlimit="10"/>
<path d="M104.771 187.363C77.5918 -16.7215 -53.0346 -67.6548 -186.383 73.8608C-403.377 12.2578 -557.23 128.043 -530.007 332.479C-396.659 190.963 -111.871 125.892 104.771 187.363Z" stroke="black" stroke-opacity="0.2" stroke-width="0.5" stroke-miterlimit="10"/>
<path d="M104.772 187.363C-28.0501 -19.8826 -244.604 -73.4065 -377.953 68.1091" stroke="url(#paint37_linear_196_330)" stroke-width="0.5" stroke-miterlimit="10"/>
<path d="M104.772 187.363C-28.0501 -19.8826 -244.604 -73.4065 -377.953 68.1091" stroke="black" stroke-opacity="0.2" stroke-width="0.5" stroke-miterlimit="10"/>
<path d="M104.772 187.363C-96.0198 31.2697 -367.854 19.3706 -501.203 160.886" stroke="url(#paint38_linear_196_330)" stroke-width="0.5" stroke-miterlimit="10"/>
<path d="M104.772 187.363C-96.0198 31.2697 -367.854 19.3706 -501.203 160.886" stroke="black" stroke-opacity="0.2" stroke-width="0.5" stroke-miterlimit="10"/>
<path d="M255.858 555.532C122.51 697.047 -162.234 762.163 -378.92 700.648C-406.099 496.563 -319.688 215.376 -186.339 73.8606C30.6541 135.464 228.635 351.096 255.858 555.532Z" stroke="url(#paint39_linear_196_330)" stroke-width="0.5" stroke-miterlimit="10"/>
<path d="M255.858 555.532C122.51 697.047 -162.234 762.163 -378.92 700.648C-406.099 496.563 -319.688 215.376 -186.339 73.8606C30.6541 135.464 228.635 351.096 255.858 555.532Z" stroke="black" stroke-opacity="0.2" stroke-width="0.5" stroke-miterlimit="10"/>
<path d="M80.1826 669.692C56.6918 493.226 -114.242 307.056 -301.598 253.884" stroke="url(#paint40_linear_196_330)" stroke-width="0.5" stroke-miterlimit="10"/>
<path d="M80.1826 669.692C56.6918 493.226 -114.242 307.056 -301.598 253.884" stroke="black" stroke-opacity="0.2" stroke-width="0.5" stroke-miterlimit="10"/>
<path d="M177.352 353.466C44.0032 494.982 -205.526 650.724 -378.875 700.647" stroke="url(#paint41_linear_196_330)" stroke-width="0.5" stroke-miterlimit="10"/>
<path d="M177.352 353.466C44.0032 494.982 -205.526 650.724 -378.875 700.647" stroke="black" stroke-opacity="0.2" stroke-width="0.5" stroke-miterlimit="10"/>
<path d="M18.6692 180.689C-114.679 322.205 -293.034 555.444 -378.918 700.648" stroke="url(#paint42_linear_196_330)" stroke-width="0.5" stroke-miterlimit="10"/>
<path d="M18.6692 180.689C-114.679 322.205 -293.034 555.444 -378.918 700.648" stroke="black" stroke-opacity="0.2" stroke-width="0.5" stroke-miterlimit="10"/>
<path d="M81.538 671.099C57.8716 493.491 -114.116 306.179 -302.613 252.655" stroke="url(#paint43_linear_196_330)" stroke-width="0.5" stroke-miterlimit="10"/>
<path d="M81.538 671.099C57.8716 493.491 -114.116 306.179 -302.613 252.655" stroke="black" stroke-opacity="0.2" stroke-width="0.5" stroke-miterlimit="10"/>
<path d="M-380.418 702.273C-294.007 556.147 -114.511 321.415 19.6719 179.021" stroke="url(#paint44_linear_196_330)" stroke-width="0.5" stroke-miterlimit="10"/>
<path d="M-380.418 702.273C-294.007 556.147 -114.511 321.415 19.6719 179.021" stroke="black" stroke-opacity="0.2" stroke-width="0.5" stroke-miterlimit="10"/>
<path d="M-355.656 216.869C-331.99 394.477 -160.002 581.789 28.495 635.313" stroke="url(#paint45_linear_196_330)" stroke-width="0.5" stroke-miterlimit="10"/>
<path d="M-355.656 216.869C-331.99 394.477 -160.002 581.789 28.495 635.313" stroke="black" stroke-opacity="0.2" stroke-width="0.5" stroke-miterlimit="10"/>
<path d="M-293.793 708.99C-159.61 566.596 19.8859 331.864 106.297 185.738" stroke="url(#paint46_linear_196_330)" stroke-width="0.5" stroke-miterlimit="10"/>
<path d="M-293.793 708.99C-159.61 566.596 19.8859 331.864 106.297 185.738" stroke="black" stroke-opacity="0.2" stroke-width="0.5" stroke-miterlimit="10"/>
<path d="M19.6719 179.021C153.855 36.6272 192.713 39.6569 106.302 185.739" stroke="url(#paint47_linear_196_330)" stroke-width="0.5" stroke-miterlimit="10"/>
<path d="M19.6719 179.021C153.855 36.6272 192.713 39.6569 106.302 185.739" stroke="black" stroke-opacity="0.2" stroke-width="0.5" stroke-miterlimit="10"/>
<path d="M81.538 671.099C57.8716 493.491 -114.116 306.179 -302.613 252.655" stroke="url(#paint48_linear_196_330)" stroke-width="0.5" stroke-miterlimit="10"/>
<path d="M81.538 671.099C57.8716 493.491 -114.116 306.179 -302.613 252.655" stroke="black" stroke-opacity="0.2" stroke-width="0.5" stroke-miterlimit="10"/>
<path d="M-380.418 702.273C-294.007 556.147 -114.511 321.415 19.6719 179.021" stroke="url(#paint49_linear_196_330)" stroke-width="0.5" stroke-miterlimit="10"/>
<path d="M-380.418 702.273C-294.007 556.147 -114.511 321.415 19.6719 179.021" stroke="black" stroke-opacity="0.2" stroke-width="0.5" stroke-miterlimit="10"/>
<path d="M-293.785 708.991C-159.602 566.597 19.8937 331.865 106.305 185.739" stroke="url(#paint50_linear_196_330)" stroke-width="0.5" stroke-miterlimit="10"/>
<path d="M-293.785 708.991C-159.602 566.597 19.8937 331.865 106.305 185.739" stroke="black" stroke-opacity="0.2" stroke-width="0.5" stroke-miterlimit="10"/>
<path d="M19.6719 179.021C153.855 36.6272 192.713 39.6569 106.302 185.739" stroke="url(#paint51_linear_196_330)" stroke-width="0.5" stroke-miterlimit="10"/>
<path d="M19.6719 179.021C153.855 36.6272 192.713 39.6569 106.302 185.739" stroke="black" stroke-opacity="0.2" stroke-width="0.5" stroke-miterlimit="10"/>
</g>
</g>
</g>
<defs>
<linearGradient id="paint0_linear_196_330" x1="-600.922" y1="-20" x2="353.211" y2="880.113" gradientUnits="userSpaceOnUse">
<stop stop-color="#2842EF"/>
<stop offset="1" stop-color="#A25FFD"/>
</linearGradient>
<linearGradient id="paint1_linear_196_330" x1="-530.008" y1="164.191" x2="137.63" y2="784.146" gradientUnits="userSpaceOnUse">
<stop stop-color="#2842EF"/>
<stop offset="1" stop-color="#A25FFD"/>
</linearGradient>
<linearGradient id="paint2_linear_196_330" x1="-126.449" y1="166.199" x2="121.18" y2="380.672" gradientUnits="userSpaceOnUse">
<stop stop-color="#2842EF"/>
<stop offset="1" stop-color="#A25FFD"/>
</linearGradient>
<linearGradient id="paint3_linear_196_330" x1="-354.289" y1="218.318" x2="69.62" y2="585.487" gradientUnits="userSpaceOnUse">
<stop stop-color="#2842EF"/>
<stop offset="1" stop-color="#A25FFD"/>
</linearGradient>
<linearGradient id="paint4_linear_196_330" x1="-451.457" y1="187.362" x2="-122.326" y2="684.801" gradientUnits="userSpaceOnUse">
<stop stop-color="#2842EF"/>
<stop offset="1" stop-color="#A25FFD"/>
</linearGradient>
<linearGradient id="paint5_linear_196_330" x1="-292.82" y1="187.362" x2="215.394" y2="553.956" gradientUnits="userSpaceOnUse">
<stop stop-color="#2842EF"/>
<stop offset="1" stop-color="#A25FFD"/>
</linearGradient>
<linearGradient id="paint6_linear_196_330" x1="-87.7695" y1="187.363" x2="498.778" y2="541.694" gradientUnits="userSpaceOnUse">
<stop stop-color="#2842EF"/>
<stop offset="1" stop-color="#A25FFD"/>
</linearGradient>
<linearGradient id="paint7_linear_196_330" x1="96.5586" y1="278.692" x2="237.397" y2="446.113" gradientUnits="userSpaceOnUse">
<stop stop-color="#2842EF"/>
<stop offset="1" stop-color="#A25FFD"/>
</linearGradient>
<linearGradient id="paint8_linear_196_330" x1="103.801" y1="187.363" x2="294.449" y2="215.88" gradientUnits="userSpaceOnUse">
<stop stop-color="#2842EF"/>
<stop offset="1" stop-color="#A25FFD"/>
</linearGradient>
<linearGradient id="paint9_linear_196_330" x1="104.766" y1="187.363" x2="444.535" y2="303.266" gradientUnits="userSpaceOnUse">
<stop stop-color="#2842EF"/>
<stop offset="1" stop-color="#A25FFD"/>
</linearGradient>
<linearGradient id="paint10_linear_196_330" x1="-186.387" y1="-6.25751" x2="385.485" y2="484.049" gradientUnits="userSpaceOnUse">
<stop stop-color="#2842EF"/>
<stop offset="1" stop-color="#A25FFD"/>
</linearGradient>
<linearGradient id="paint11_linear_196_330" x1="46.8555" y1="35.793" x2="294.484" y2="250.266" gradientUnits="userSpaceOnUse">
<stop stop-color="#2842EF"/>
<stop offset="1" stop-color="#A25FFD"/>
</linearGradient>
<linearGradient id="paint12_linear_196_330" x1="-57.6914" y1="-4.9538" x2="366.218" y2="362.216" gradientUnits="userSpaceOnUse">
<stop stop-color="#2842EF"/>
<stop offset="1" stop-color="#A25FFD"/>
</linearGradient>
<linearGradient id="paint13_linear_196_330" x1="104.766" y1="171.843" x2="287.441" y2="318.574" gradientUnits="userSpaceOnUse">
<stop stop-color="#2842EF"/>
<stop offset="1" stop-color="#A25FFD"/>
</linearGradient>
<linearGradient id="paint14_linear_196_330" x1="18.6641" y1="76.4766" x2="132.133" y2="203.739" gradientUnits="userSpaceOnUse">
<stop stop-color="#2842EF"/>
<stop offset="1" stop-color="#A25FFD"/>
</linearGradient>
<linearGradient id="paint15_linear_196_330" x1="-533.129" y1="-6.25812" x2="-234.842" y2="523.649" gradientUnits="userSpaceOnUse">
<stop stop-color="#2842EF"/>
<stop offset="1" stop-color="#A25FFD"/>
</linearGradient>
<linearGradient id="paint16_linear_196_330" x1="-128.027" y1="27.4607" x2="12.8111" y2="194.881" gradientUnits="userSpaceOnUse">
<stop stop-color="#2842EF"/>
<stop offset="1" stop-color="#A25FFD"/>
</linearGradient>
<linearGradient id="paint17_linear_196_330" x1="-377.953" y1="-10.9971" x2="-228.343" y2="332.466" gradientUnits="userSpaceOnUse">
<stop stop-color="#2842EF"/>
<stop offset="1" stop-color="#A25FFD"/>
</linearGradient>
<linearGradient id="paint18_linear_196_330" x1="-501.203" y1="62.0576" x2="-447.214" y2="308.358" gradientUnits="userSpaceOnUse">
<stop stop-color="#2842EF"/>
<stop offset="1" stop-color="#A25FFD"/>
</linearGradient>
<linearGradient id="paint19_linear_196_330" x1="-383.918" y1="73.8606" x2="283.738" y2="693.812" gradientUnits="userSpaceOnUse">
<stop stop-color="#2842EF"/>
<stop offset="1" stop-color="#A25FFD"/>
</linearGradient>
<linearGradient id="paint20_linear_196_330" x1="-301.598" y1="253.884" x2="122.311" y2="621.054" gradientUnits="userSpaceOnUse">
<stop stop-color="#2842EF"/>
<stop offset="1" stop-color="#A25FFD"/>
</linearGradient>
<linearGradient id="paint21_linear_196_330" x1="-378.875" y1="353.466" x2="-49.7442" y2="850.905" gradientUnits="userSpaceOnUse">
<stop stop-color="#2842EF"/>
<stop offset="1" stop-color="#A25FFD"/>
</linearGradient>
<linearGradient id="paint22_linear_196_330" x1="-378.918" y1="180.689" x2="129.297" y2="547.283" gradientUnits="userSpaceOnUse">
<stop stop-color="#2842EF"/>
<stop offset="1" stop-color="#A25FFD"/>
</linearGradient>
<linearGradient id="paint23_linear_196_330" x1="-600.922" y1="-20" x2="353.211" y2="880.113" gradientUnits="userSpaceOnUse">
<stop stop-color="#2842EF"/>
<stop offset="1" stop-color="#A25FFD"/>
</linearGradient>
<linearGradient id="paint24_linear_196_330" x1="-601" y1="-19.7" x2="352.618" y2="880.411" gradientUnits="userSpaceOnUse">
<stop stop-color="#2842EF"/>
<stop offset="1" stop-color="#A25FFD"/>
</linearGradient>
<linearGradient id="paint25_linear_196_330" x1="-530.008" y1="164.191" x2="137.63" y2="784.146" gradientUnits="userSpaceOnUse">
<stop stop-color="#2842EF"/>
<stop offset="1" stop-color="#A25FFD"/>
</linearGradient>
<linearGradient id="paint26_linear_196_330" x1="-354.289" y1="218.318" x2="69.62" y2="585.487" gradientUnits="userSpaceOnUse">
<stop stop-color="#2842EF"/>
<stop offset="1" stop-color="#A25FFD"/>
</linearGradient>
<linearGradient id="paint27_linear_196_330" x1="-451.457" y1="187.362" x2="-122.326" y2="684.801" gradientUnits="userSpaceOnUse">
<stop stop-color="#2842EF"/>
<stop offset="1" stop-color="#A25FFD"/>
</linearGradient>
<linearGradient id="paint28_linear_196_330" x1="-292.82" y1="187.362" x2="215.394" y2="553.956" gradientUnits="userSpaceOnUse">
<stop stop-color="#2842EF"/>
<stop offset="1" stop-color="#A25FFD"/>
</linearGradient>
<linearGradient id="paint29_linear_196_330" x1="-87.7695" y1="187.363" x2="498.778" y2="541.694" gradientUnits="userSpaceOnUse">
<stop stop-color="#2842EF"/>
<stop offset="1" stop-color="#A25FFD"/>
</linearGradient>
<linearGradient id="paint30_linear_196_330" x1="103.801" y1="187.363" x2="294.449" y2="215.88" gradientUnits="userSpaceOnUse">
<stop stop-color="#2842EF"/>
<stop offset="1" stop-color="#A25FFD"/>
</linearGradient>
<linearGradient id="paint31_linear_196_330" x1="104.766" y1="187.363" x2="444.535" y2="303.266" gradientUnits="userSpaceOnUse">
<stop stop-color="#2842EF"/>
<stop offset="1" stop-color="#A25FFD"/>
</linearGradient>
<linearGradient id="paint32_linear_196_330" x1="-186.387" y1="-6.25751" x2="385.485" y2="484.049" gradientUnits="userSpaceOnUse">
<stop stop-color="#2842EF"/>
<stop offset="1" stop-color="#A25FFD"/>
</linearGradient>
<linearGradient id="paint33_linear_196_330" x1="-57.6914" y1="-4.9538" x2="366.218" y2="362.216" gradientUnits="userSpaceOnUse">
<stop stop-color="#2842EF"/>
<stop offset="1" stop-color="#A25FFD"/>
</linearGradient>
<linearGradient id="paint34_linear_196_330" x1="104.766" y1="171.843" x2="287.441" y2="318.574" gradientUnits="userSpaceOnUse">
<stop stop-color="#2842EF"/>
<stop offset="1" stop-color="#A25FFD"/>
</linearGradient>
<linearGradient id="paint35_linear_196_330" x1="18.6641" y1="76.4766" x2="132.133" y2="203.739" gradientUnits="userSpaceOnUse">
<stop stop-color="#2842EF"/>
<stop offset="1" stop-color="#A25FFD"/>
</linearGradient>
<linearGradient id="paint36_linear_196_330" x1="-533.129" y1="-6.25812" x2="-234.842" y2="523.649" gradientUnits="userSpaceOnUse">
<stop stop-color="#2842EF"/>
<stop offset="1" stop-color="#A25FFD"/>
</linearGradient>
<linearGradient id="paint37_linear_196_330" x1="-377.953" y1="-10.9971" x2="-228.343" y2="332.466" gradientUnits="userSpaceOnUse">
<stop stop-color="#2842EF"/>
<stop offset="1" stop-color="#A25FFD"/>
</linearGradient>
<linearGradient id="paint38_linear_196_330" x1="-501.203" y1="62.0576" x2="-447.214" y2="308.358" gradientUnits="userSpaceOnUse">
<stop stop-color="#2842EF"/>
<stop offset="1" stop-color="#A25FFD"/>
</linearGradient>
<linearGradient id="paint39_linear_196_330" x1="-383.918" y1="73.8606" x2="283.738" y2="693.812" gradientUnits="userSpaceOnUse">
<stop stop-color="#2842EF"/>
<stop offset="1" stop-color="#A25FFD"/>
</linearGradient>
<linearGradient id="paint40_linear_196_330" x1="-301.598" y1="253.884" x2="122.311" y2="621.054" gradientUnits="userSpaceOnUse">
<stop stop-color="#2842EF"/>
<stop offset="1" stop-color="#A25FFD"/>
</linearGradient>
<linearGradient id="paint41_linear_196_330" x1="-378.875" y1="353.466" x2="-49.7442" y2="850.905" gradientUnits="userSpaceOnUse">
<stop stop-color="#2842EF"/>
<stop offset="1" stop-color="#A25FFD"/>
</linearGradient>
<linearGradient id="paint42_linear_196_330" x1="-378.918" y1="180.689" x2="129.297" y2="547.283" gradientUnits="userSpaceOnUse">
<stop stop-color="#2842EF"/>
<stop offset="1" stop-color="#A25FFD"/>
</linearGradient>
<linearGradient id="paint43_linear_196_330" x1="-302.613" y1="252.655" x2="123.974" y2="622.099" gradientUnits="userSpaceOnUse">
<stop stop-color="#2842EF"/>
<stop offset="1" stop-color="#A25FFD"/>
</linearGradient>
<linearGradient id="paint44_linear_196_330" x1="-380.418" y1="179.021" x2="131.009" y2="547.919" gradientUnits="userSpaceOnUse">
<stop stop-color="#2842EF"/>
<stop offset="1" stop-color="#A25FFD"/>
</linearGradient>
<linearGradient id="paint45_linear_196_330" x1="-355.656" y1="216.869" x2="70.931" y2="586.313" gradientUnits="userSpaceOnUse">
<stop stop-color="#2842EF"/>
<stop offset="1" stop-color="#A25FFD"/>
</linearGradient>
<linearGradient id="paint46_linear_196_330" x1="-293.793" y1="185.738" x2="217.634" y2="554.636" gradientUnits="userSpaceOnUse">
<stop stop-color="#2842EF"/>
<stop offset="1" stop-color="#A25FFD"/>
</linearGradient>
<linearGradient id="paint47_linear_196_330" x1="19.6719" y1="74.1707" x2="133.837" y2="202.217" gradientUnits="userSpaceOnUse">
<stop stop-color="#2842EF"/>
<stop offset="1" stop-color="#A25FFD"/>
</linearGradient>
<linearGradient id="paint48_linear_196_330" x1="-302.613" y1="252.655" x2="123.974" y2="622.099" gradientUnits="userSpaceOnUse">
<stop stop-color="#2842EF"/>
<stop offset="1" stop-color="#A25FFD"/>
</linearGradient>
<linearGradient id="paint49_linear_196_330" x1="-380.418" y1="179.021" x2="131.009" y2="547.919" gradientUnits="userSpaceOnUse">
<stop stop-color="#2842EF"/>
<stop offset="1" stop-color="#A25FFD"/>
</linearGradient>
<linearGradient id="paint50_linear_196_330" x1="-293.785" y1="185.739" x2="217.642" y2="554.636" gradientUnits="userSpaceOnUse">
<stop stop-color="#2842EF"/>
<stop offset="1" stop-color="#A25FFD"/>
</linearGradient>
<linearGradient id="paint51_linear_196_330" x1="19.6719" y1="74.1707" x2="133.837" y2="202.217" gradientUnits="userSpaceOnUse">
<stop stop-color="#2842EF"/>
<stop offset="1" stop-color="#A25FFD"/>
</linearGradient>
</defs>
</svg>
