<svg width="117" height="93" viewBox="0 0 117 93" fill="none" xmlns="http://www.w3.org/2000/svg">
<path d="M107.069 79.6777C118.099 67.7738 116.989 52.4869 116.954 52.3125V34.875V5.8125C116.954 2.604 114.341 0 111.108 0H76.0341C69.5864 0 64.3429 5.21381 64.3429 11.625V52.3125C64.3429 55.521 66.9559 58.125 70.1885 58.125H76.0341H88.1814C88.0586 60.4616 87.4624 63.426 85.6736 66.2393C82.704 70.8951 77.1097 74.0745 69.0369 75.6787L64.3429 76.6087V93H70.1885C86.4569 93 98.8672 88.5186 107.069 79.6777ZM42.7257 79.6777C53.7623 67.7738 52.6458 52.4869 52.6107 52.3125V34.875V5.8125C52.6107 2.604 49.9977 0 46.7651 0H11.6913C5.24353 0 0 5.21381 0 11.625V52.3125C0 55.521 2.613 58.125 5.84563 58.125H11.6913H23.8385C23.7157 60.4616 23.1195 63.426 21.3307 66.2393C18.3611 70.8951 12.7669 74.0745 4.69404 75.6787L0 76.6087V93H5.84563C22.114 93 34.5243 88.5186 42.7257 79.6777Z" fill="url(#paint0_linear_224_90)" fill-opacity="0.5"/>
<defs>
<linearGradient id="paint0_linear_224_90" x1="0" y1="0" x2="94.4043" y2="112.039" gradientUnits="userSpaceOnUse">
<stop stop-color="#2842EF"/>
<stop offset="1" stop-color="#A25FFD"/>
</linearGradient>
</defs>
</svg>
