<svg width="1920" height="2798" viewBox="0 0 1920 2798" fill="none" xmlns="http://www.w3.org/2000/svg">
<mask id="mask0_349_14" style="mask-type:alpha" maskUnits="userSpaceOnUse" x="0" y="0" width="1920" height="2798">
<rect width="1920" height="2798" fill="#C4C4C4"/>
</mask>
<g mask="url(#mask0_349_14)">
<mask id="mask1_349_14" style="mask-type:alpha" maskUnits="userSpaceOnUse" x="-1126" y="91" width="1598" height="1431">
<path d="M-931.948 1521.13L470.539 1296.43L277.648 92.4662L-1124.84 317.163L-931.948 1521.13Z" fill="url(#paint0_linear_349_14)" fill-opacity="0.3" stroke="white" stroke-miterlimit="10"/>
</mask>
<g mask="url(#mask1_349_14)">
<path d="M-140.116 1117.24C-416.425 1243.85 -610.047 1412.79 -736.654 1136.48C-863.261 860.178 -741.89 533.543 -465.581 406.937C-189.255 280.331 137.382 401.684 263.99 678.008C390.597 954.314 136.21 990.638 -140.116 1117.24Z" stroke="#A25FFD" stroke-miterlimit="10"/>
<path d="M-142.25 1102.6C-411.774 1226.1 -593.706 1405.99 -717.2 1136.47C-840.695 866.949 -722.312 548.346 -452.788 424.852C-183.265 301.359 135.341 419.741 258.836 689.262C382.33 958.783 127.273 979.11 -142.25 1102.6Z" stroke="#A25FFD" stroke-width="0.9583" stroke-miterlimit="10"/>
<path d="M-144.381 1087.98C-407.119 1208.36 -577.379 1399.21 -697.761 1136.47C-818.142 873.738 -702.748 563.165 -440.01 442.785C-177.272 322.404 133.303 437.797 253.702 700.533C374.084 963.269 118.357 967.6 -144.381 1087.98Z" stroke="#A25FFD" stroke-width="0.9167" stroke-miterlimit="10"/>
<path d="M-146.514 1073.34C-402.467 1190.61 -561.038 1392.41 -678.324 1136.48C-795.593 880.526 -683.187 577.985 -427.234 460.7C-171.281 343.432 131.262 455.836 248.549 711.787C365.818 967.738 109.439 956.072 -146.514 1073.34Z" stroke="#A25FFD" stroke-width="0.875" stroke-miterlimit="10"/>
<path d="M-148.647 1058.72C-397.797 1172.87 -544.713 1385.63 -658.868 1136.48C-773.024 887.333 -663.59 592.805 -414.44 478.633C-165.29 364.478 129.24 473.911 243.413 723.058C357.569 972.206 100.503 944.544 -148.647 1058.72Z" stroke="#A25FFD" stroke-width="0.8333" stroke-miterlimit="10"/>
<path d="M-150.781 1044.08C-393.145 1155.12 -528.371 1378.83 -639.432 1136.47C-750.475 894.104 -644.029 607.607 -401.665 496.547C-159.3 385.505 127.199 491.95 238.26 734.312C349.303 976.692 91.5842 933.033 -150.781 1044.08Z" stroke="#A25FFD" stroke-width="0.7917" stroke-miterlimit="10"/>
<path d="M-152.911 1029.45C-388.49 1137.4 -512.043 1372.05 -619.974 1136.47C-727.904 900.892 -624.447 622.427 -388.868 514.48C-153.289 406.533 125.179 510.006 233.127 745.583C341.058 981.161 82.651 921.506 -152.911 1029.45Z" stroke="#A25FFD" stroke-width="0.75" stroke-miterlimit="10"/>
<path d="M-155.063 1014.81C-383.856 1119.65 -495.72 1365.25 -600.555 1136.47C-705.39 907.698 -604.887 637.247 -376.11 532.412C-147.299 427.578 123.138 528.063 227.973 756.854C332.808 985.629 73.7313 909.977 -155.063 1014.81Z" stroke="#A25FFD" stroke-width="0.7083" stroke-miterlimit="10"/>
<path d="M-157.197 1000.17C-379.188 1101.89 -479.379 1358.45 -581.101 1136.46C-682.824 914.47 -585.309 652.049 -363.318 550.327C-141.327 448.606 121.096 546.12 222.818 768.109C324.541 990.115 64.812 898.467 -157.197 1000.17Z" stroke="#A25FFD" stroke-width="0.6667" stroke-miterlimit="10"/>
<path d="M-159.33 985.548C-374.536 1084.16 -463.054 1351.67 -561.664 1136.46C-660.274 921.258 -565.748 666.869 -350.542 568.26C-135.319 469.651 119.073 564.176 217.683 779.38C316.292 994.584 55.8758 886.939 -159.33 985.548Z" stroke="#A25FFD" stroke-width="0.625" stroke-miterlimit="10"/>
<path d="M-161.463 970.908C-369.883 1066.4 -446.712 1344.87 -542.209 1136.45C-637.706 928.029 -546.168 681.671 -337.748 586.175C-129.327 490.679 117.033 582.215 212.53 790.634C308.027 999.053 46.9577 875.411 -161.463 970.908Z" stroke="#A25FFD" stroke-width="0.5833" stroke-miterlimit="10"/>
<path d="M-163.596 956.284C-365.231 1048.67 -430.387 1338.08 -522.771 1136.47C-615.155 934.853 -526.589 696.508 -324.972 604.107C-123.337 511.723 115.01 600.271 207.394 801.905C299.779 1003.54 38.0218 863.901 -163.596 956.284Z" stroke="#A25FFD" stroke-width="0.5417" stroke-miterlimit="10"/>
<path d="M-165.727 941.644C-360.559 1030.91 -414.043 1331.29 -503.315 1136.45C-592.586 941.624 -507.009 711.293 -312.176 622.022C-117.344 532.752 112.989 618.328 202.261 813.159C291.532 1008.01 29.1055 852.373 -165.727 941.644Z" stroke="#A25FFD" stroke-width="0.5" stroke-miterlimit="10"/>
<path d="M-167.862 927.02C-355.909 1013.18 -397.704 1324.5 -483.88 1136.46C-570.056 948.413 -487.45 726.112 -299.403 639.954C-111.356 553.797 110.946 636.384 197.105 824.43C283.264 1012.48 20.1843 840.845 -167.862 927.02Z" stroke="#A25FFD" stroke-width="0.4583" stroke-miterlimit="10"/>
<path d="M-170.011 912.38C-351.255 995.425 -381.377 1317.7 -464.44 1136.46C-547.503 955.219 -467.886 740.932 -286.624 657.887C-105.362 574.842 108.909 654.441 191.955 835.701C275.018 1016.96 11.2511 829.335 -170.011 912.38Z" stroke="#A25FFD" stroke-width="0.4167" stroke-miterlimit="10"/>
<path d="M-172.143 897.757C-346.602 977.689 -365.052 1310.92 -444.985 1136.45C-524.918 961.972 -448.289 755.734 -273.83 675.802C-99.3537 595.869 106.886 672.498 186.819 846.955C266.752 1021.43 2.33278 817.807 -172.143 897.757Z" stroke="#A25FFD" stroke-width="0.375" stroke-miterlimit="10"/>
<path d="M-174.277 883.116C-341.95 959.953 -348.727 1304.12 -425.548 1136.45C-502.385 968.779 -428.728 770.554 -261.054 693.734C-93.3807 616.897 104.846 690.554 181.666 858.227C258.503 1025.9 -6.60348 806.279 -174.277 883.116Z" stroke="#A25FFD" stroke-width="0.3333" stroke-miterlimit="10"/>
<path d="M-176.41 868.476C-337.298 942.2 -332.386 1297.32 -406.111 1136.44C-479.836 975.55 -409.167 785.357 -248.278 711.65C-87.3903 637.925 102.805 708.594 176.512 869.481C250.237 1030.38 -15.5219 794.769 -176.41 868.476Z" stroke="#A25FFD" stroke-width="0.2917" stroke-miterlimit="10"/>
<path d="M-178.542 853.852C-332.645 924.464 -316.043 1290.54 -386.655 1136.44C-457.267 982.338 -389.587 800.176 -235.484 729.582C-81.3811 658.97 100.783 726.65 171.377 880.752C241.99 1034.85 -24.4397 783.24 -178.542 853.852Z" stroke="#A25FFD" stroke-width="0.25" stroke-miterlimit="10"/>
</g>
<mask id="mask2_349_14" style="mask-type:alpha" maskUnits="userSpaceOnUse" x="-309" y="247" width="427" height="427">
<path d="M-129.378 250.242C-245.478 268.843 -324.517 378.04 -305.916 494.141C-287.315 610.242 -178.118 689.282 -62.0184 670.681C54.0816 652.08 133.12 542.883 114.519 426.782C95.9184 310.681 -13.2782 231.641 -129.378 250.242Z" fill="url(#paint1_radial_349_14)"/>
</mask>
<g mask="url(#mask2_349_14)">
<path d="M-261.765 340.259C-328.152 431.978 -307.618 560.149 -215.899 626.538C-124.181 692.926 3.98925 672.391 70.3768 580.672C136.764 488.953 116.23 360.782 24.5112 294.394C-67.2072 228.005 -195.377 248.54 -261.765 340.259Z" fill="url(#paint2_linear_349_14)"/>
</g>
</g>
<defs>
<linearGradient id="paint0_linear_349_14" x1="374.096" y1="694.453" x2="-1028.39" y2="919.15" gradientUnits="userSpaceOnUse">
<stop/>
<stop offset="1" stop-color="white"/>
</linearGradient>
<radialGradient id="paint1_radial_349_14" cx="0" cy="0" r="1" gradientUnits="userSpaceOnUse" gradientTransform="translate(-95.6941 460.465) rotate(170.898) scale(212.894 212.896)">
<stop/>
<stop offset="0.0987" stop-color="#050505"/>
<stop offset="0.2226" stop-color="#151515"/>
<stop offset="0.36" stop-color="#2F2F2F"/>
<stop offset="0.5072" stop-color="#525252"/>
<stop offset="0.6622" stop-color="#808080"/>
<stop offset="0.8238" stop-color="#B9B9B9"/>
<stop offset="0.9879" stop-color="#FAFAFA"/>
<stop offset="1" stop-color="white"/>
</radialGradient>
<linearGradient id="paint2_linear_349_14" x1="70.3768" y1="580.672" x2="-261.767" y2="340.262" gradientUnits="userSpaceOnUse">
<stop stop-color="#A25FFD"/>
<stop offset="1" stop-color="#2842EF"/>
</linearGradient>
</defs>
</svg>
