<svg width="60" height="60" viewBox="0 0 60 60" fill="none" xmlns="http://www.w3.org/2000/svg">
<path d="M26.9589 13.0453L32.2564 23.9459C32.8597 23.9459 33.4631 23.9459 34.0665 23.9459C35.6209 23.9459 37.1345 23.9459 38.6583 24.0604L26.9589 0L14.0938 26.4237C16.4257 25.797 18.7877 25.2932 21.1706 24.9141L26.9589 13.0453ZM17.3867 23.5711L26.9589 4.00833L35.6721 21.9261H33.2279L28.4213 12.0458L26.9589 9.02655L25.4863 12.0354L20.1275 23.0609C19.2173 23.2171 18.3174 23.3941 17.3867 23.5711Z" fill="black"/>
<path d="M19.0626 60.0001C12.4357 56.5436 8.38589 51.9106 8.38589 46.8507C8.39687 45.1342 8.84055 43.4493 9.67445 41.9574H47.3598L40.4977 27.8294C43.1055 27.5691 45.8156 27.4338 48.587 27.4338C52.1736 27.4227 55.757 27.6487 59.3148 28.1105L58.7114 27.8919L59.3148 28.1105L60 28.2042C59.3966 28.0168 58.783 27.8502 58.1592 27.6836C51.98 26.1043 45.6312 25.3174 39.2603 25.3411H39.1376C37.5831 25.3411 36.0695 25.3411 34.5253 25.4764C34.0276 25.4764 33.5265 25.5077 33.022 25.5701C28.5325 25.8883 24.0818 26.6307 19.7273 27.7877L18.7046 28.0793C16.4384 28.7303 14.2204 29.5444 12.0675 30.5155C4.63269 33.9408 0 38.7195 0 44.0085C0 50.7966 7.63934 56.7414 19.0626 60.0001ZM34.5458 28.6519L37.8388 35.3984H16.0866C20.6886 32.3687 27.1007 29.9845 34.5458 28.6519Z" fill="#2842EF"/>
</svg>
