<svg width="368" height="270" viewBox="0 0 368 270" fill="none" xmlns="http://www.w3.org/2000/svg">
<rect x="10" y="10" width="348" height="260" rx="10" fill="url(#paint0_linear_797_310)"/>
<g filter="url(#filter0_d_797_310)">
<rect x="10" y="10" width="348" height="160" rx="10" fill="white"/>
</g>
<path d="M49.24 228.288C47.544 228.288 46.088 227.928 44.872 227.208C43.656 226.472 42.72 225.456 42.064 224.16C41.408 222.848 41.08 221.336 41.08 219.624C41.08 217.912 41.408 216.4 42.064 215.088C42.72 213.776 43.656 212.752 44.872 212.016C46.088 211.28 47.544 210.912 49.24 210.912C51.256 210.912 52.904 211.416 54.184 212.424C55.48 213.416 56.288 214.816 56.608 216.624H53.224C53.016 215.712 52.568 215 51.88 214.488C51.208 213.96 50.312 213.696 49.192 213.696C47.64 213.696 46.424 214.224 45.544 215.28C44.664 216.336 44.224 217.784 44.224 219.624C44.224 221.464 44.664 222.912 45.544 223.968C46.424 225.008 47.64 225.528 49.192 225.528C50.312 225.528 51.208 225.288 51.88 224.808C52.568 224.312 53.016 223.632 53.224 222.768H56.608C56.288 224.496 55.48 225.848 54.184 226.824C52.904 227.8 51.256 228.288 49.24 228.288ZM59.2553 228V210.72H62.3273V217.92C62.7273 217.264 63.2633 216.752 63.9353 216.384C64.6233 216 65.4073 215.808 66.2873 215.808C67.7593 215.808 68.8953 216.272 69.6953 217.2C70.5113 218.128 70.9193 219.488 70.9193 221.28V228H67.8713V221.568C67.8713 220.544 67.6633 219.76 67.2473 219.216C66.8473 218.672 66.2073 218.4 65.3273 218.4C64.4633 218.4 63.7433 218.704 63.1673 219.312C62.6073 219.92 62.3273 220.768 62.3273 221.856V228H59.2553ZM77.9609 228.288C76.9369 228.288 76.0969 228.128 75.4409 227.808C74.7849 227.472 74.2969 227.032 73.9769 226.488C73.6569 225.944 73.4969 225.344 73.4969 224.688C73.4969 223.584 73.9289 222.688 74.7929 222C75.6569 221.312 76.9529 220.968 78.6809 220.968H81.7049V220.68C81.7049 219.864 81.4729 219.264 81.0089 218.88C80.5449 218.496 79.9689 218.304 79.2809 218.304C78.6569 218.304 78.1129 218.456 77.6489 218.76C77.1849 219.048 76.8969 219.48 76.7849 220.056H73.7849C73.8649 219.192 74.1529 218.44 74.6489 217.8C75.1609 217.16 75.8169 216.672 76.6169 216.336C77.4169 215.984 78.3129 215.808 79.3049 215.808C81.0009 215.808 82.3369 216.232 83.3129 217.08C84.2889 217.928 84.7769 219.128 84.7769 220.68V228H82.1609L81.8729 226.08C81.5209 226.72 81.0249 227.248 80.3849 227.664C79.7609 228.08 78.9529 228.288 77.9609 228.288ZM78.6569 225.888C79.5369 225.888 80.2169 225.6 80.6969 225.024C81.1929 224.448 81.5049 223.736 81.6329 222.888H79.0169C78.2009 222.888 77.6169 223.04 77.2649 223.344C76.9129 223.632 76.7369 223.992 76.7369 224.424C76.7369 224.888 76.9129 225.248 77.2649 225.504C77.6169 225.76 78.0809 225.888 78.6569 225.888ZM87.7084 228V216.096H90.4444L90.7324 218.328C91.1644 217.56 91.7484 216.952 92.4844 216.504C93.2364 216.04 94.1164 215.808 95.1244 215.808V219.048H94.2604C93.5884 219.048 92.9884 219.152 92.4604 219.36C91.9324 219.568 91.5164 219.928 91.2124 220.44C90.9244 220.952 90.7804 221.664 90.7804 222.576V228H87.7084ZM98.8801 214.248C98.3201 214.248 97.8561 214.08 97.4881 213.744C97.1361 213.408 96.9601 212.984 96.9601 212.472C96.9601 211.96 97.1361 211.544 97.4881 211.224C97.8561 210.888 98.3201 210.72 98.8801 210.72C99.4401 210.72 99.8961 210.888 100.248 211.224C100.616 211.544 100.8 211.96 100.8 212.472C100.8 212.984 100.616 213.408 100.248 213.744C99.8961 214.08 99.4401 214.248 98.8801 214.248ZM97.3441 228V216.096H100.416V228H97.3441ZM108.927 228C107.679 228 106.679 227.696 105.927 227.088C105.175 226.48 104.799 225.4 104.799 223.848V218.664H102.759V216.096H104.799L105.159 212.904H107.871V216.096H111.087V218.664H107.871V223.872C107.871 224.448 107.991 224.848 108.23 225.072C108.487 225.28 108.919 225.384 109.527 225.384H111.015V228H108.927ZM115.212 233.28L117.972 227.208H117.252L112.62 216.096H115.956L119.292 224.472L122.772 216.096H126.036L118.476 233.28H115.212Z" fill="white"/>
<rect x="246" y="186" width="81" height="68" rx="19" stroke="white" stroke-opacity="0.2" stroke-width="2"/>
<path d="M269.76 234.48C267.707 234.48 265.933 234.12 264.44 233.4C262.973 232.68 261.813 231.693 260.96 230.44C260.133 229.16 259.653 227.72 259.52 226.12H264.52C264.76 227.267 265.347 228.227 266.28 229C267.213 229.747 268.373 230.12 269.76 230.12C271.253 230.12 272.467 229.573 273.4 228.48C274.36 227.387 274.84 226.027 274.84 224.4C274.84 222.72 274.36 221.387 273.4 220.4C272.467 219.413 271.28 218.92 269.84 218.92C268.64 218.92 267.6 219.213 266.72 219.8C265.84 220.387 265.213 221.12 264.84 222H259.92L262.32 206H277.84V210.48H266.16L264.88 216.96C265.467 216.32 266.267 215.8 267.28 215.4C268.293 214.973 269.427 214.76 270.68 214.76C272.68 214.76 274.347 215.213 275.68 216.12C277.013 217 278.027 218.173 278.72 219.64C279.413 221.08 279.76 222.653 279.76 224.36C279.76 226.307 279.333 228.04 278.48 229.56C277.653 231.08 276.48 232.28 274.96 233.16C273.467 234.04 271.733 234.48 269.76 234.48ZM290.285 219.76C289.005 219.76 287.845 219.48 286.805 218.92C285.765 218.333 284.938 217.507 284.325 216.44C283.711 215.373 283.405 214.107 283.405 212.64C283.405 211.173 283.711 209.907 284.325 208.84C284.938 207.773 285.765 206.96 286.805 206.4C287.845 205.813 289.018 205.52 290.325 205.52C291.605 205.52 292.751 205.813 293.765 206.4C294.805 206.96 295.631 207.773 296.245 208.84C296.858 209.907 297.165 211.173 297.165 212.64C297.165 214.107 296.858 215.373 296.245 216.44C295.631 217.507 294.805 218.333 293.765 218.92C292.725 219.48 291.565 219.76 290.285 219.76ZM288.765 234L304.565 206H309.565L293.765 234H288.765ZM290.285 216.2C291.058 216.2 291.725 215.907 292.285 215.32C292.845 214.707 293.125 213.813 293.125 212.64C293.125 211.467 292.845 210.573 292.285 209.96C291.751 209.347 291.085 209.04 290.285 209.04C289.485 209.04 288.805 209.347 288.245 209.96C287.711 210.573 287.445 211.467 287.445 212.64C287.445 213.813 287.711 214.707 288.245 215.32C288.805 215.907 289.485 216.2 290.285 216.2ZM308.205 234.48C306.925 234.48 305.765 234.2 304.725 233.64C303.685 233.053 302.858 232.227 302.245 231.16C301.631 230.093 301.325 228.827 301.325 227.36C301.325 225.893 301.631 224.64 302.245 223.6C302.858 222.533 303.685 221.72 304.725 221.16C305.765 220.573 306.938 220.28 308.245 220.28C309.525 220.28 310.671 220.573 311.685 221.16C312.725 221.72 313.551 222.533 314.165 223.6C314.778 224.64 315.085 225.893 315.085 227.36C315.085 228.827 314.778 230.093 314.165 231.16C313.551 232.227 312.725 233.053 311.685 233.64C310.671 234.2 309.511 234.48 308.205 234.48ZM308.205 230.92C309.005 230.92 309.671 230.627 310.205 230.04C310.765 229.427 311.045 228.533 311.045 227.36C311.045 226.187 310.765 225.293 310.205 224.68C309.671 224.067 309.005 223.76 308.205 223.76C307.405 223.76 306.725 224.067 306.165 224.68C305.631 225.293 305.365 226.187 305.365 227.36C305.365 228.533 305.631 229.427 306.165 230.04C306.725 230.627 307.405 230.92 308.205 230.92Z" fill="white"/>
<path d="M148.815 84.4056C149.998 84.5768 151.026 84.7087 152.05 84.8776C154.495 85.2802 156.422 86.5251 157.836 88.5475C159.382 90.7573 160.872 93.0041 162.439 95.1977C162.83 95.7461 163.377 96.2135 163.929 96.6115C167.49 99.1753 171.181 101.572 174.617 104.294C177.854 106.857 180.705 109.863 182.704 113.554C183.206 114.479 183.555 115.488 183.977 116.474C186.401 110.002 191.279 105.659 196.626 101.739C198.551 100.328 200.504 98.9393 202.544 97.7059C204.485 96.5328 205.918 94.9385 207.124 93.0758C207.984 91.7499 208.871 90.4426 209.724 89.1121C211.521 86.303 214.116 84.8892 217.402 84.6485C217.938 84.6092 218.47 84.519 219.004 84.4519C219.004 83.281 219.043 82.1333 218.997 80.9879C218.846 77.1815 219.066 73.4238 220.489 69.8418C221.58 67.1021 223.32 64.9826 226.329 64.2375C226.957 64.0825 227.62 64.0084 228.27 64.0038C229.395 63.9922 230.079 64.5985 230.208 65.7277C230.832 71.1654 231.611 76.5961 231.967 82.0523C232.147 84.8267 231.546 87.652 231.301 90.4541C230.939 94.603 230.629 98.7564 230.178 102.894C230.077 103.838 229.665 104.861 229.092 105.613C228.045 106.982 226.807 108.213 225.582 109.44C221.661 113.364 217.68 117.224 213.797 121.188C212.813 122.192 212.064 123.448 211.304 124.649C210.297 126.241 209.798 127.981 209.855 129.911C209.936 132.533 209.883 135.157 209.872 137.781C209.867 139.199 209.229 139.967 208.076 139.997C206.881 140.03 206.186 139.227 206.181 137.762C206.172 135.409 206.299 133.049 206.151 130.705C205.918 127.032 207.025 123.768 209.294 121.039C212.143 117.613 215.251 114.392 218.35 111.182C220.57 108.882 222.96 106.749 225.27 104.537C226.137 103.706 226.516 102.743 226.615 101.489C227.1 95.4175 227.775 89.3597 228.253 83.288C228.378 81.6983 228.069 80.067 227.902 78.4611C227.542 75.0134 227.144 71.568 226.751 68.0416C225.557 68.3887 224.787 69.2055 224.452 70.1935C223.791 72.1442 223.14 74.1457 222.881 76.175C222.613 78.2598 222.712 80.4094 222.837 82.5197C223.131 87.4946 221.603 92.104 220.221 96.7572C219.523 99.1105 218.308 101.033 216.469 102.699C214.072 104.87 211.88 107.262 209.606 109.569C209 110.183 208.349 110.604 207.452 110.273C206.057 109.759 205.735 108.246 206.849 107.096C209.155 104.715 211.443 102.308 213.871 100.057C215.346 98.6917 216.318 97.1413 216.829 95.23C217.442 92.9416 218.107 90.667 218.772 88.2976C216.117 88.2513 214.158 89.0612 212.769 91.1761C211.27 93.4622 209.701 95.7044 208.104 97.9234C207.688 98.5019 207.103 98.9855 206.521 99.4113C202.577 102.294 198.468 104.976 194.706 108.079C192.483 109.914 190.741 112.358 188.897 114.618C187.929 115.805 187.499 117.286 187.705 118.855C188.178 122.479 188.791 126.088 189.144 129.724C189.424 132.59 189.458 135.487 189.493 138.371C189.505 139.4 188.728 139.933 187.719 139.983C186.72 140.034 185.976 139.342 185.854 138.315C185.844 138.239 185.838 138.16 185.844 138.084C186.297 133.208 185.091 128.509 184.349 123.761C184.236 123.041 184.195 122.312 183.959 121.555C183.901 121.768 183.82 121.977 183.788 122.192C183.552 123.83 183.453 125.501 183.074 127.106C182.277 130.476 181.988 133.87 182.14 137.315C182.15 137.547 182.15 137.778 182.138 138.01C182.08 139.199 181.362 139.981 180.32 140C179.236 140.018 178.48 139.208 178.446 137.952C178.339 134.088 178.533 130.27 179.411 126.468C179.954 124.119 179.998 121.657 180.28 119.248C180.514 117.249 179.827 115.539 178.688 113.959C176.255 110.583 173.318 107.7 169.96 105.268C167.31 103.347 164.54 101.596 161.884 99.6797C160.905 98.9716 159.98 98.1016 159.257 97.1367C157.871 95.2902 156.595 93.3558 155.366 91.3982C153.979 89.1907 152.006 88.2374 149.203 88.2999C149.915 90.7989 150.622 93.2123 151.29 95.6396C151.752 97.3195 152.648 98.6639 153.931 99.8671C156.29 102.082 158.52 104.435 160.801 106.733C161.018 106.95 161.24 107.17 161.42 107.417C162.037 108.264 161.938 109.086 161.231 109.819C160.521 110.555 159.5 110.634 158.751 109.893C155.595 106.783 152.313 103.773 149.425 100.427C148.244 99.0573 147.861 96.9493 147.264 95.1282C145.702 90.3732 144.917 85.5209 145.118 80.4673C145.226 77.7623 144.84 75.0111 144.408 72.3246C144.122 70.5337 143.258 68.8931 141.266 67.9675C141.023 70.0223 140.787 71.9868 140.566 73.949C140.27 76.5545 139.845 79.153 139.743 81.7677C139.664 83.7924 139.974 85.8356 140.152 87.8672C140.573 92.7079 140.986 97.5486 141.488 102.38C141.555 103.033 141.977 103.764 142.456 104.24C144.69 106.473 146.989 108.641 149.286 110.812C152.648 113.991 156.011 117.166 158.71 120.963C160.798 123.902 162.072 127.06 161.836 130.772C161.688 133.076 161.815 135.4 161.806 137.713C161.799 139.16 161.087 140.016 159.937 140C158.788 139.986 158.116 139.139 158.111 137.67C158.104 135.124 158.042 132.574 158.13 130.031C158.203 127.935 157.593 126.091 156.517 124.348C154.469 121.032 151.74 118.311 148.972 115.627C146.012 112.758 143.006 109.935 140.053 107.059C138.541 105.587 137.804 103.856 137.659 101.635C137.264 95.5586 136.492 89.5077 136.034 83.4337C135.891 81.5363 136.231 79.595 136.432 77.6837C136.843 73.7732 137.307 69.8673 137.753 65.9614C137.922 64.4921 138.574 63.9275 140.053 64.0015C143.401 64.1635 145.645 65.9637 147.059 68.8839C148.896 72.674 149.127 76.7419 148.986 80.8583C148.937 82.013 148.873 83.163 148.815 84.4056Z" fill="url(#paint1_linear_797_310)"/>
<path d="M184.001 54.5539C185.727 51.1408 187.677 48.1513 190.258 45.6198C193.488 42.4521 197.199 40.2076 201.835 40.0294C209.962 39.7194 216.954 45.4718 218.655 53.6653C219.764 59.0105 218.715 63.9969 216.383 68.8029C213.083 75.6058 208.238 81.2101 202.736 86.2845C197.703 90.9285 192.132 94.8275 186.244 98.3122C184.671 99.2424 183.43 99.3165 181.805 98.3585C171.677 92.3933 162.624 85.2086 155.664 75.6174C152.632 71.4385 150.144 66.9564 149.222 61.8033C148.182 55.9839 149.205 50.5508 153.039 45.9207C159.179 38.5023 169.281 38.0186 176.71 44.6758C179.469 47.1493 181.611 50.095 183.34 53.3576C183.518 53.6931 183.705 54.0193 184.001 54.5539ZM152.577 58.0224C152.577 58.4459 152.565 58.8716 152.581 59.2951C152.591 59.5635 152.642 59.8319 152.679 60.098C153.21 64.1658 154.906 67.7825 157.115 71.1608C163.814 81.3952 173.027 88.8645 183.462 94.9524C183.76 95.126 184.359 95.0543 184.685 94.8668C192.416 90.4149 199.395 85.0049 205.37 78.3501C208.889 74.4304 211.942 70.189 213.927 65.2557C215.5 61.3475 215.928 57.3606 214.715 53.265C212.36 45.3167 203.921 41.4479 196.964 45.1733C193.542 47.0059 191.004 49.8173 189.086 53.1262C187.82 55.3128 186.928 57.7147 185.761 59.9638C185.466 60.533 184.807 61.1161 184.211 61.2619C183.721 61.3822 182.991 60.968 182.531 60.5909C182.189 60.3109 182.092 59.7139 181.916 59.2488C180.16 54.6001 177.685 50.4212 173.875 47.154C170.194 44.0001 166.055 42.7622 161.335 44.4652C155.969 46.3996 152.588 51.6568 152.577 58.0224Z" fill="url(#paint2_linear_797_310)"/>
<defs>
<filter id="filter0_d_797_310" x="0" y="0" width="368" height="180" filterUnits="userSpaceOnUse" color-interpolation-filters="sRGB">
<feFlood flood-opacity="0" result="BackgroundImageFix"/>
<feColorMatrix in="SourceAlpha" type="matrix" values="0 0 0 0 0 0 0 0 0 0 0 0 0 0 0 0 0 0 127 0" result="hardAlpha"/>
<feOffset/>
<feGaussianBlur stdDeviation="5"/>
<feComposite in2="hardAlpha" operator="out"/>
<feColorMatrix type="matrix" values="0 0 0 0 0.156863 0 0 0 0 0.258824 0 0 0 0 0.937255 0 0 0 0.05 0"/>
<feBlend mode="normal" in2="BackgroundImageFix" result="effect1_dropShadow_797_310"/>
<feBlend mode="normal" in="SourceGraphic" in2="effect1_dropShadow_797_310" result="shape"/>
</filter>
<linearGradient id="paint0_linear_797_310" x1="10" y1="10" x2="194.161" y2="288.353" gradientUnits="userSpaceOnUse">
<stop stop-color="#2842EF"/>
<stop offset="1" stop-color="#A25FFD"/>
</linearGradient>
<linearGradient id="paint1_linear_797_310" x1="136" y1="63.9951" x2="213.1" y2="155.862" gradientUnits="userSpaceOnUse">
<stop stop-color="#2842EF"/>
<stop offset="1" stop-color="#A25FFD"/>
</linearGradient>
<linearGradient id="paint2_linear_797_310" x1="148.84" y1="40" x2="209.253" y2="107.815" gradientUnits="userSpaceOnUse">
<stop stop-color="#2842EF"/>
<stop offset="1" stop-color="#A25FFD"/>
</linearGradient>
</defs>
</svg>
