<svg width="368" height="270" viewBox="0 0 368 270" fill="none" xmlns="http://www.w3.org/2000/svg">
<rect x="10" y="10" width="348" height="260" rx="10" fill="url(#paint0_linear_797_291)"/>
<g filter="url(#filter0_d_797_291)">
<rect x="10" y="10" width="348" height="160" rx="10" fill="white"/>
</g>
<path d="M41.632 211V194.2H45.28L50.632 204.856L55.912 194.2H59.56V211H56.488V199.408L51.808 208.6H49.384L44.704 199.408V211H41.632ZM66.8515 211.288C65.8275 211.288 64.9875 211.128 64.3315 210.808C63.6755 210.472 63.1875 210.032 62.8675 209.488C62.5475 208.944 62.3875 208.344 62.3875 207.688C62.3875 206.584 62.8195 205.688 63.6835 205C64.5475 204.312 65.8435 203.968 67.5715 203.968H70.5955V203.68C70.5955 202.864 70.3635 202.264 69.8995 201.88C69.4355 201.496 68.8595 201.304 68.1715 201.304C67.5475 201.304 67.0035 201.456 66.5395 201.76C66.0755 202.048 65.7875 202.48 65.6755 203.056H62.6755C62.7555 202.192 63.0435 201.44 63.5395 200.8C64.0515 200.16 64.7075 199.672 65.5075 199.336C66.3075 198.984 67.2035 198.808 68.1955 198.808C69.8915 198.808 71.2275 199.232 72.2035 200.08C73.1795 200.928 73.6675 202.128 73.6675 203.68V211H71.0515L70.7635 209.08C70.4115 209.72 69.9155 210.248 69.2755 210.664C68.6515 211.08 67.8435 211.288 66.8515 211.288ZM67.5475 208.888C68.4275 208.888 69.1075 208.6 69.5875 208.024C70.0835 207.448 70.3955 206.736 70.5235 205.888H67.9075C67.0915 205.888 66.5075 206.04 66.1555 206.344C65.8035 206.632 65.6275 206.992 65.6275 207.424C65.6275 207.888 65.8035 208.248 66.1555 208.504C66.5075 208.76 66.9715 208.888 67.5475 208.888ZM76.5991 211V199.096H79.3351L79.6231 201.328C80.0551 200.56 80.6391 199.952 81.3751 199.504C82.1271 199.04 83.0071 198.808 84.0151 198.808V202.048H83.1511C82.4791 202.048 81.8791 202.152 81.3511 202.36C80.8231 202.568 80.4071 202.928 80.1031 203.44C79.8151 203.952 79.6711 204.664 79.6711 205.576V211H76.5991ZM86.1147 211V193.72H89.1867V203.92L93.4107 199.096H97.0587L92.1867 204.52L97.8507 211H94.0107L89.1867 205.024V211H86.1147ZM104.555 211.288C103.355 211.288 102.291 211.032 101.363 210.52C100.435 210.008 99.7069 209.288 99.1789 208.36C98.6509 207.432 98.3869 206.36 98.3869 205.144C98.3869 203.912 98.6429 202.816 99.1549 201.856C99.6829 200.896 100.403 200.152 101.315 199.624C102.243 199.08 103.331 198.808 104.579 198.808C105.747 198.808 106.779 199.064 107.675 199.576C108.571 200.088 109.267 200.792 109.763 201.688C110.275 202.568 110.531 203.552 110.531 204.64C110.531 204.816 110.523 205 110.507 205.192C110.507 205.384 110.499 205.584 110.483 205.792H101.435C101.499 206.72 101.819 207.448 102.395 207.976C102.987 208.504 103.699 208.768 104.531 208.768C105.155 208.768 105.675 208.632 106.091 208.36C106.523 208.072 106.843 207.704 107.051 207.256H110.171C109.947 208.008 109.571 208.696 109.043 209.32C108.531 209.928 107.891 210.408 107.123 210.76C106.371 211.112 105.515 211.288 104.555 211.288ZM104.579 201.304C103.827 201.304 103.163 201.52 102.587 201.952C102.011 202.368 101.643 203.008 101.483 203.872H107.411C107.363 203.088 107.075 202.464 106.547 202C106.019 201.536 105.363 201.304 104.579 201.304ZM118.208 211C116.96 211 115.96 210.696 115.208 210.088C114.456 209.48 114.08 208.4 114.08 206.848V201.664H112.04V199.096H114.08L114.44 195.904H117.152V199.096H120.368V201.664H117.152V206.872C117.152 207.448 117.272 207.848 117.512 208.072C117.768 208.28 118.2 208.384 118.808 208.384H120.296V211H118.208ZM124.661 197.248C124.101 197.248 123.637 197.08 123.269 196.744C122.917 196.408 122.741 195.984 122.741 195.472C122.741 194.96 122.917 194.544 123.269 194.224C123.637 193.888 124.101 193.72 124.661 193.72C125.221 193.72 125.677 193.888 126.029 194.224C126.397 194.544 126.581 194.96 126.581 195.472C126.581 195.984 126.397 196.408 126.029 196.744C125.677 197.08 125.221 197.248 124.661 197.248ZM123.125 211V199.096H126.197V211H123.125ZM129.404 211V199.096H132.116L132.356 201.112C132.724 200.408 133.252 199.848 133.94 199.432C134.644 199.016 135.468 198.808 136.412 198.808C137.884 198.808 139.028 199.272 139.844 200.2C140.66 201.128 141.068 202.488 141.068 204.28V211H137.996V204.568C137.996 203.544 137.788 202.76 137.372 202.216C136.956 201.672 136.308 201.4 135.428 201.4C134.564 201.4 133.852 201.704 133.292 202.312C132.748 202.92 132.476 203.768 132.476 204.856V211H129.404ZM149.045 207.448C148.469 207.448 147.933 207.384 147.437 207.256L146.549 208.144C146.821 208.288 147.189 208.408 147.653 208.504C148.117 208.6 148.869 208.696 149.909 208.792C151.493 208.936 152.645 209.312 153.365 209.92C154.085 210.528 154.445 211.368 154.445 212.44C154.445 213.144 154.253 213.808 153.869 214.432C153.485 215.072 152.893 215.584 152.093 215.968C151.293 216.368 150.269 216.568 149.021 216.568C147.325 216.568 145.957 216.248 144.917 215.608C143.877 214.984 143.357 214.04 143.357 212.776C143.357 211.704 143.877 210.776 144.917 209.992C144.597 209.848 144.317 209.696 144.077 209.536C143.853 209.376 143.653 209.208 143.477 209.032V208.48L145.565 206.272C144.637 205.456 144.173 204.408 144.173 203.128C144.173 202.328 144.365 201.6 144.749 200.944C145.149 200.288 145.709 199.768 146.429 199.384C147.149 199 148.021 198.808 149.045 198.808C149.717 198.808 150.341 198.904 150.917 199.096H155.429V200.968L153.389 201.112C153.709 201.72 153.869 202.392 153.869 203.128C153.869 203.928 153.677 204.656 153.293 205.312C152.909 205.968 152.349 206.488 151.613 206.872C150.893 207.256 150.037 207.448 149.045 207.448ZM149.045 205.096C149.669 205.096 150.181 204.928 150.581 204.592C150.997 204.256 151.205 203.776 151.205 203.152C151.205 202.528 150.997 202.048 150.581 201.712C150.181 201.376 149.669 201.208 149.045 201.208C148.389 201.208 147.861 201.376 147.461 201.712C147.061 202.048 146.861 202.528 146.861 203.152C146.861 203.776 147.061 204.256 147.461 204.592C147.861 204.928 148.389 205.096 149.045 205.096ZM146.165 212.464C146.165 213.056 146.437 213.496 146.981 213.784C147.541 214.088 148.221 214.24 149.021 214.24C149.789 214.24 150.413 214.08 150.893 213.76C151.373 213.456 151.613 213.04 151.613 212.512C151.613 212.08 151.453 211.72 151.133 211.432C150.829 211.144 150.213 210.968 149.285 210.904C148.629 210.856 148.021 210.784 147.461 210.688C146.997 210.944 146.661 211.224 146.453 211.528C146.261 211.832 146.165 212.144 146.165 212.464ZM168.836 211.264C167.604 211.264 166.532 211.056 165.62 210.64C164.708 210.208 163.996 209.608 163.484 208.84C162.988 208.072 162.74 207.176 162.74 206.152C162.74 205.064 163.044 204.08 163.652 203.2C164.26 202.32 165.164 201.616 166.364 201.088C165.884 200.528 165.54 200 165.332 199.504C165.124 199.008 165.02 198.48 165.02 197.92C165.02 197.152 165.212 196.472 165.596 195.88C165.98 195.272 166.524 194.792 167.228 194.44C167.948 194.088 168.804 193.912 169.796 193.912C170.804 193.912 171.66 194.096 172.364 194.464C173.068 194.832 173.596 195.328 173.948 195.952C174.316 196.576 174.484 197.272 174.452 198.04H171.524C171.524 197.448 171.348 197.008 170.996 196.72C170.66 196.416 170.252 196.264 169.772 196.264C169.228 196.264 168.788 196.416 168.452 196.72C168.132 197.024 167.972 197.416 167.972 197.896C167.972 198.296 168.1 198.704 168.356 199.12C168.612 199.536 168.988 200.016 169.484 200.56L174.188 205.216C174.524 204.672 174.876 204.04 175.244 203.32L175.772 202.264H178.916L178.076 203.896C177.436 205.192 176.796 206.288 176.156 207.184L180.02 211H176.348L174.476 209.128C173.66 209.88 172.788 210.424 171.86 210.76C170.948 211.096 169.94 211.264 168.836 211.264ZM165.716 205.96C165.716 206.744 166.004 207.408 166.58 207.952C167.172 208.48 167.956 208.744 168.932 208.744C170.324 208.744 171.532 208.248 172.556 207.256L168.116 202.864C167.3 203.216 166.692 203.656 166.292 204.184C165.908 204.712 165.716 205.304 165.716 205.96ZM41.632 242V225.2H47.368C49.336 225.2 50.952 225.552 52.216 226.256C53.496 226.944 54.44 227.92 55.048 229.184C55.672 230.432 55.984 231.904 55.984 233.6C55.984 235.296 55.672 236.776 55.048 238.04C54.44 239.288 53.496 240.264 52.216 240.968C50.952 241.656 49.336 242 47.368 242H41.632ZM44.704 239.36H47.224C48.632 239.36 49.744 239.136 50.56 238.688C51.376 238.224 51.96 237.568 52.312 236.72C52.664 235.856 52.84 234.816 52.84 233.6C52.84 232.4 52.664 231.368 52.312 230.504C51.96 229.64 51.376 228.976 50.56 228.512C49.744 228.048 48.632 227.816 47.224 227.816H44.704V239.36ZM64.4065 242.288C63.2065 242.288 62.1425 242.032 61.2145 241.52C60.2865 241.008 59.5585 240.288 59.0305 239.36C58.5025 238.432 58.2385 237.36 58.2385 236.144C58.2385 234.912 58.4945 233.816 59.0065 232.856C59.5345 231.896 60.2545 231.152 61.1665 230.624C62.0945 230.08 63.1825 229.808 64.4305 229.808C65.5985 229.808 66.6305 230.064 67.5265 230.576C68.4225 231.088 69.1185 231.792 69.6145 232.688C70.1265 233.568 70.3825 234.552 70.3825 235.64C70.3825 235.816 70.3745 236 70.3585 236.192C70.3585 236.384 70.3505 236.584 70.3345 236.792H61.2865C61.3505 237.72 61.6705 238.448 62.2465 238.976C62.8385 239.504 63.5505 239.768 64.3825 239.768C65.0065 239.768 65.5265 239.632 65.9425 239.36C66.3745 239.072 66.6945 238.704 66.9025 238.256H70.0225C69.7985 239.008 69.4225 239.696 68.8945 240.32C68.3825 240.928 67.7425 241.408 66.9745 241.76C66.2225 242.112 65.3665 242.288 64.4065 242.288ZM64.4305 232.304C63.6785 232.304 63.0145 232.52 62.4385 232.952C61.8625 233.368 61.4945 234.008 61.3345 234.872H67.2625C67.2145 234.088 66.9265 233.464 66.3985 233C65.8705 232.536 65.2145 232.304 64.4305 232.304ZM75.7135 242L71.3455 230.096H74.5615L77.5855 239.096L80.6095 230.096H83.8255L79.4335 242H75.7135ZM90.9612 242.288C89.7612 242.288 88.6972 242.032 87.7692 241.52C86.8412 241.008 86.1132 240.288 85.5852 239.36C85.0572 238.432 84.7932 237.36 84.7932 236.144C84.7932 234.912 85.0492 233.816 85.5612 232.856C86.0892 231.896 86.8092 231.152 87.7212 230.624C88.6492 230.08 89.7372 229.808 90.9852 229.808C92.1532 229.808 93.1852 230.064 94.0812 230.576C94.9772 231.088 95.6732 231.792 96.1692 232.688C96.6812 233.568 96.9372 234.552 96.9372 235.64C96.9372 235.816 96.9292 236 96.9132 236.192C96.9132 236.384 96.9052 236.584 96.8892 236.792H87.8412C87.9052 237.72 88.2252 238.448 88.8012 238.976C89.3932 239.504 90.1052 239.768 90.9372 239.768C91.5612 239.768 92.0812 239.632 92.4972 239.36C92.9292 239.072 93.2492 238.704 93.4572 238.256H96.5772C96.3532 239.008 95.9772 239.696 95.4492 240.32C94.9372 240.928 94.2972 241.408 93.5292 241.76C92.7772 242.112 91.9212 242.288 90.9612 242.288ZM90.9852 232.304C90.2332 232.304 89.5692 232.52 88.9932 232.952C88.4172 233.368 88.0492 234.008 87.8892 234.872H93.8172C93.7692 234.088 93.4812 233.464 92.9532 233C92.4252 232.536 91.7692 232.304 90.9852 232.304ZM99.5209 242V224.72H102.593V242H99.5209ZM111.444 242.288C110.292 242.288 109.252 242.024 108.324 241.496C107.412 240.968 106.684 240.24 106.14 239.312C105.612 238.368 105.348 237.28 105.348 236.048C105.348 234.816 105.62 233.736 106.164 232.808C106.708 231.864 107.436 231.128 108.348 230.6C109.276 230.072 110.316 229.808 111.468 229.808C112.604 229.808 113.628 230.072 114.54 230.6C115.468 231.128 116.196 231.864 116.724 232.808C117.268 233.736 117.54 234.816 117.54 236.048C117.54 237.28 117.268 238.368 116.724 239.312C116.196 240.24 115.468 240.968 114.54 241.496C113.612 242.024 112.58 242.288 111.444 242.288ZM111.444 239.624C112.244 239.624 112.94 239.328 113.532 238.736C114.124 238.128 114.42 237.232 114.42 236.048C114.42 234.864 114.124 233.976 113.532 233.384C112.94 232.776 112.252 232.472 111.468 232.472C110.652 232.472 109.948 232.776 109.356 233.384C108.78 233.976 108.492 234.864 108.492 236.048C108.492 237.232 108.78 238.128 109.356 238.736C109.948 239.328 110.644 239.624 111.444 239.624ZM120.287 247.28V230.096H123.023L123.359 231.8C123.743 231.272 124.247 230.808 124.871 230.408C125.511 230.008 126.335 229.808 127.343 229.808C128.463 229.808 129.463 230.08 130.343 230.624C131.223 231.168 131.919 231.912 132.431 232.856C132.943 233.8 133.199 234.872 133.199 236.072C133.199 237.272 132.943 238.344 132.431 239.288C131.919 240.216 131.223 240.952 130.343 241.496C129.463 242.024 128.463 242.288 127.343 242.288C126.447 242.288 125.663 242.12 124.991 241.784C124.319 241.448 123.775 240.976 123.359 240.368V247.28H120.287ZM126.695 239.6C127.671 239.6 128.479 239.272 129.119 238.616C129.759 237.96 130.079 237.112 130.079 236.072C130.079 235.032 129.759 234.176 129.119 233.504C128.479 232.832 127.671 232.496 126.695 232.496C125.703 232.496 124.887 232.832 124.247 233.504C123.623 234.16 123.311 235.008 123.311 236.048C123.311 237.088 123.623 237.944 124.247 238.616C124.887 239.272 125.703 239.6 126.695 239.6ZM135.943 242V230.096H138.655L138.919 231.704C139.303 231.128 139.807 230.672 140.431 230.336C141.071 229.984 141.807 229.808 142.639 229.808C144.479 229.808 145.783 230.52 146.551 231.944C146.983 231.288 147.559 230.768 148.279 230.384C149.015 230 149.815 229.808 150.679 229.808C152.231 229.808 153.423 230.272 154.255 231.2C155.087 232.128 155.503 233.488 155.503 235.28V242H152.431V235.568C152.431 234.544 152.231 233.76 151.831 233.216C151.447 232.672 150.847 232.4 150.031 232.4C149.199 232.4 148.527 232.704 148.015 233.312C147.519 233.92 147.271 234.768 147.271 235.856V242H144.199V235.568C144.199 234.544 143.999 233.76 143.599 233.216C143.199 232.672 142.583 232.4 141.751 232.4C140.935 232.4 140.271 232.704 139.759 233.312C139.263 233.92 139.015 234.768 139.015 235.856V242H135.943ZM164.203 242.288C163.003 242.288 161.939 242.032 161.011 241.52C160.083 241.008 159.355 240.288 158.827 239.36C158.299 238.432 158.035 237.36 158.035 236.144C158.035 234.912 158.291 233.816 158.803 232.856C159.331 231.896 160.051 231.152 160.963 230.624C161.891 230.08 162.979 229.808 164.227 229.808C165.395 229.808 166.427 230.064 167.323 230.576C168.219 231.088 168.915 231.792 169.411 232.688C169.923 233.568 170.179 234.552 170.179 235.64C170.179 235.816 170.171 236 170.155 236.192C170.155 236.384 170.147 236.584 170.131 236.792H161.083C161.147 237.72 161.467 238.448 162.043 238.976C162.635 239.504 163.347 239.768 164.179 239.768C164.803 239.768 165.323 239.632 165.739 239.36C166.171 239.072 166.491 238.704 166.699 238.256H169.819C169.595 239.008 169.219 239.696 168.691 240.32C168.179 240.928 167.539 241.408 166.771 241.76C166.019 242.112 165.163 242.288 164.203 242.288ZM164.227 232.304C163.475 232.304 162.811 232.52 162.235 232.952C161.659 233.368 161.291 234.008 161.131 234.872H167.059C167.011 234.088 166.723 233.464 166.195 233C165.667 232.536 165.011 232.304 164.227 232.304ZM172.763 242V230.096H175.475L175.715 232.112C176.083 231.408 176.611 230.848 177.299 230.432C178.003 230.016 178.827 229.808 179.771 229.808C181.243 229.808 182.387 230.272 183.203 231.2C184.019 232.128 184.427 233.488 184.427 235.28V242H181.355V235.568C181.355 234.544 181.147 233.76 180.731 233.216C180.315 232.672 179.667 232.4 178.787 232.4C177.923 232.4 177.211 232.704 176.651 233.312C176.107 233.92 175.835 234.768 175.835 235.856V242H172.763ZM192.669 242C191.421 242 190.421 241.696 189.669 241.088C188.917 240.48 188.541 239.4 188.541 237.848V232.664H186.501V230.096H188.541L188.901 226.904H191.613V230.096H194.829V232.664H191.613V237.872C191.613 238.448 191.733 238.848 191.973 239.072C192.229 239.28 192.661 239.384 193.269 239.384H194.757V242H192.669Z" fill="white"/>
<rect x="231" y="186" width="96" height="68" rx="19" stroke="white" stroke-opacity="0.2" stroke-width="2"/>
<path d="M238.04 234V230.28C239.747 228.867 241.4 227.467 243 226.08C244.627 224.693 246.067 223.32 247.32 221.96C248.6 220.6 249.613 219.28 250.36 218C251.133 216.693 251.52 215.427 251.52 214.2C251.52 213.053 251.2 212.04 250.56 211.16C249.947 210.28 248.92 209.84 247.48 209.84C246.013 209.84 244.907 210.32 244.16 211.28C243.413 212.24 243.04 213.4 243.04 214.76H238.08C238.133 212.707 238.587 211 239.44 209.64C240.293 208.253 241.427 207.227 242.84 206.56C244.253 205.867 245.84 205.52 247.6 205.52C250.453 205.52 252.667 206.307 254.24 207.88C255.84 209.427 256.64 211.44 256.64 213.92C256.64 215.467 256.28 216.973 255.56 218.44C254.867 219.907 253.947 221.32 252.8 222.68C251.653 224.04 250.413 225.32 249.08 226.52C247.747 227.693 246.453 228.787 245.2 229.8H257.32V234H238.04ZM272.856 234.48C270.27 234.48 268.056 233.88 266.216 232.68C264.376 231.453 262.95 229.76 261.936 227.6C260.95 225.413 260.456 222.88 260.456 220C260.456 217.147 260.95 214.627 261.936 212.44C262.95 210.253 264.376 208.56 266.216 207.36C268.056 206.133 270.27 205.52 272.856 205.52C275.443 205.52 277.656 206.133 279.496 207.36C281.336 208.56 282.75 210.253 283.736 212.44C284.75 214.627 285.256 217.147 285.256 220C285.256 222.88 284.75 225.413 283.736 227.6C282.75 229.76 281.336 231.453 279.496 232.68C277.656 233.88 275.443 234.48 272.856 234.48ZM272.856 229.88C274.963 229.88 276.683 229 278.016 227.24C279.35 225.48 280.016 223.067 280.016 220C280.016 216.933 279.35 214.52 278.016 212.76C276.683 211 274.963 210.12 272.856 210.12C270.723 210.12 268.99 211 267.656 212.76C266.35 214.52 265.696 216.933 265.696 220C265.696 223.067 266.35 225.48 267.656 227.24C268.99 229 270.723 229.88 272.856 229.88ZM295.535 219.76C294.255 219.76 293.095 219.48 292.055 218.92C291.015 218.333 290.188 217.507 289.575 216.44C288.961 215.373 288.655 214.107 288.655 212.64C288.655 211.173 288.961 209.907 289.575 208.84C290.188 207.773 291.015 206.96 292.055 206.4C293.095 205.813 294.268 205.52 295.575 205.52C296.855 205.52 298.001 205.813 299.015 206.4C300.055 206.96 300.881 207.773 301.495 208.84C302.108 209.907 302.415 211.173 302.415 212.64C302.415 214.107 302.108 215.373 301.495 216.44C300.881 217.507 300.055 218.333 299.015 218.92C297.975 219.48 296.815 219.76 295.535 219.76ZM294.015 234L309.815 206H314.815L299.015 234H294.015ZM295.535 216.2C296.308 216.2 296.975 215.907 297.535 215.32C298.095 214.707 298.375 213.813 298.375 212.64C298.375 211.467 298.095 210.573 297.535 209.96C297.001 209.347 296.335 209.04 295.535 209.04C294.735 209.04 294.055 209.347 293.495 209.96C292.961 210.573 292.695 211.467 292.695 212.64C292.695 213.813 292.961 214.707 293.495 215.32C294.055 215.907 294.735 216.2 295.535 216.2ZM313.455 234.48C312.175 234.48 311.015 234.2 309.975 233.64C308.935 233.053 308.108 232.227 307.495 231.16C306.881 230.093 306.575 228.827 306.575 227.36C306.575 225.893 306.881 224.64 307.495 223.6C308.108 222.533 308.935 221.72 309.975 221.16C311.015 220.573 312.188 220.28 313.495 220.28C314.775 220.28 315.921 220.573 316.935 221.16C317.975 221.72 318.801 222.533 319.415 223.6C320.028 224.64 320.335 225.893 320.335 227.36C320.335 228.827 320.028 230.093 319.415 231.16C318.801 232.227 317.975 233.053 316.935 233.64C315.921 234.2 314.761 234.48 313.455 234.48ZM313.455 230.92C314.255 230.92 314.921 230.627 315.455 230.04C316.015 229.427 316.295 228.533 316.295 227.36C316.295 226.187 316.015 225.293 315.455 224.68C314.921 224.067 314.255 223.76 313.455 223.76C312.655 223.76 311.975 224.067 311.415 224.68C310.881 225.293 310.615 226.187 310.615 227.36C310.615 228.533 310.881 229.427 311.415 230.04C311.975 230.627 312.655 230.92 313.455 230.92Z" fill="white"/>
<path d="M229.42 98.2638C228.124 99.8729 227.141 101.635 228.078 103.852C228.992 106.009 230.843 106.634 232.996 106.809C232.996 110.918 232.996 114.976 232.996 119.027C227.379 120.409 226.424 122.725 229.343 127.636C226.491 130.496 223.653 133.34 220.716 136.286C219.223 135.091 217.485 134.063 215.281 134.969C213.075 135.877 212.457 137.765 212.259 139.944C208.194 139.944 204.183 139.944 200.074 139.944C199.985 139.448 199.902 138.936 199.802 138.43C199.509 136.943 198.724 135.816 197.365 135.127C195.89 134.378 195.327 134.475 194.194 135.642C190.125 139.828 184.07 141.131 178.713 138.972C173.336 136.807 169.892 131.584 169.721 125.741C169.614 122.054 170.867 120.702 174.523 120.887C177.122 121.019 179.73 120.913 182.334 120.913C182.647 120.913 182.96 120.913 183.426 120.913C182.308 119.457 180.804 119.348 179.306 119.077C179.272 118.663 179.238 118.247 179.197 117.733C177.27 117.733 175.366 117.735 173.463 117.733C170.96 117.731 169.761 116.53 169.753 114.027C169.749 112.967 170.086 111.694 169.62 110.91C169.156 110.131 167.866 109.862 166.956 109.339C156.944 103.575 151.583 94.8902 150.798 83.3354C150.78 83.0706 150.861 82.7519 150.742 82.5528C150.473 82.0987 150.181 81.5013 149.759 81.3419C149.339 81.1826 148.689 81.3818 148.243 81.6208C147.797 81.8577 147.468 82.3258 147.107 82.7141C146.749 83.1004 146.418 83.5127 146.138 83.8393C143.08 80.7584 140.133 77.7931 137.01 74.6485C137.61 74.1048 138.345 73.4576 139.063 72.7904C139.582 72.3065 139.862 71.7389 139.562 71.014C139.255 70.2692 138.674 70.0103 137.905 70.0282C136.956 70.0481 136.007 70.0342 135 70.0342C135 65.7983 135 61.636 135 57.3124C135.84 57.3124 136.714 57.2945 137.586 57.3184C138.419 57.3403 139.18 57.2666 139.554 56.3545C139.935 55.4285 139.392 54.8509 138.797 54.2893C138.177 53.7058 137.555 53.1243 137.002 52.6065C140.08 49.5197 143.033 46.5543 146.113 43.4635C146.499 43.9036 146.903 44.4314 147.375 44.8894C148.059 45.5506 148.618 46.5683 149.846 46.0246C151.053 45.4869 150.728 44.3836 150.762 43.4257C150.784 42.8003 150.766 42.175 150.766 41.48C154.984 41.48 159.148 41.48 163.427 41.48C163.427 42.4678 163.436 43.4496 163.423 44.4334C163.413 45.1623 163.65 45.7239 164.35 46.0306C165.06 46.3412 165.636 46.1162 166.13 45.5885C166.806 44.8655 167.472 44.1327 168.201 43.3381C169.677 44.8237 171.025 46.1799 172.373 47.5342C173.421 48.5877 174.505 49.6093 175.504 50.7086C176.033 51.2921 176.571 51.4176 177.324 51.322C181.821 50.7504 186.349 50.629 190.824 51.33C200.922 52.9092 208.406 58.36 213.456 67.2461C213.587 67.4751 213.714 67.7061 213.844 67.9351C213.858 67.961 213.888 67.9789 214.064 68.1423C214.064 67.3158 214.064 66.6168 214.064 65.9197C214.064 65.2247 214.064 64.5297 214.064 63.755C215.093 63.755 216.092 63.755 217.229 63.755C217.229 64.0796 217.229 64.4301 217.229 64.7806C217.229 70.5102 217.338 76.2437 217.186 81.9713C217.105 84.9924 216.567 88.0035 216.225 91.1143C217.162 91.5604 217.38 91.5006 220.844 89.6406C223.69 92.5004 226.529 95.3542 229.42 98.2638ZM204.563 102.898C204.783 102.771 204.874 102.737 204.942 102.677C205.235 102.41 205.532 102.147 205.808 101.864C211.969 95.5553 214.699 87.9956 213.896 79.1931C212.841 67.6464 204.19 57.661 193.024 54.9386C189.288 54.0285 185.505 54.1201 181.718 54.132C176.166 54.1499 171.073 55.6973 166.419 58.7404C151.557 68.4629 149.634 90.009 162.547 102.217C162.788 102.444 163.048 102.651 163.472 103.015C163.472 100.347 163.472 97.9431 163.472 95.5493C166.663 95.5493 169.773 95.5493 172.956 95.5493C172.956 101.906 172.956 108.187 172.956 114.489C175.084 114.489 177.137 114.489 179.3 114.489C179.3 109.177 179.3 103.934 179.3 98.7099C182.494 98.7099 185.58 98.7099 188.775 98.7099C188.775 104.009 188.775 109.255 188.775 114.473C190.939 114.473 192.995 114.473 195.119 114.473C195.119 103.87 195.119 93.3487 195.119 82.8236C198.302 82.8236 201.412 82.8236 204.565 82.8236C204.563 89.5151 204.563 96.1348 204.563 102.898ZM229.888 109.51C225.137 107.301 223.712 104.031 225.205 98.9628C225.272 98.7318 225.123 98.3355 224.941 98.1443C223.613 96.7642 222.263 95.4 220.882 94.0736C220.688 93.8864 220.232 93.7849 219.98 93.8765C218.49 94.4241 216.994 94.6492 215.42 94.3166C215.184 94.2668 214.758 94.3425 214.671 94.5018C214.217 95.3243 213.842 96.1906 213.444 97.037C222.6 101.534 225.605 111.728 222.182 119.752C220.466 123.775 217.654 126.798 213.723 128.69C208.483 131.213 203.229 130.996 198.027 128.475C197.678 129.554 197.357 130.548 197.038 131.54C200.286 133.081 200.28 133.085 202.585 136.525C202.696 136.69 203.005 136.801 203.223 136.803C205.168 136.825 207.114 136.835 209.056 136.791C209.324 136.785 209.708 136.523 209.827 136.276C211.807 132.123 215.658 130.506 219.925 132.032C220.202 132.131 220.698 132.028 220.91 131.825C222.295 130.502 223.645 129.14 224.965 127.752C225.149 127.559 225.24 127.099 225.149 126.842C223.633 122.508 225.238 118.587 229.313 116.677C229.565 116.56 229.856 116.187 229.862 115.926C229.908 113.807 229.888 111.688 229.888 109.51ZM151.545 75.0946C151.099 74.8317 150.719 74.6326 150.364 74.3936C146.214 71.6015 144.119 67.6802 144.501 62.6815C144.88 57.7247 147.474 54.0623 152.001 52.0728C157.011 49.8702 161.643 50.8301 165.771 54.4029C166.041 54.6359 166.554 54.8987 166.804 54.7932C168.704 53.9846 170.569 53.0885 172.349 52.262C171.011 50.9177 169.602 49.5018 168.175 48.0699C166.722 49.3245 165.02 49.7706 163.117 48.9581C161.237 48.1555 160.378 46.6061 160.208 44.6604C158.071 44.6604 156.016 44.6604 153.965 44.6604C153.822 48.4881 149.478 51.0233 145.956 48.0758C144.487 49.5496 143.023 51.0193 141.54 52.5069C142.813 53.9846 143.263 55.6953 142.456 57.6072C141.659 59.4991 140.123 60.3714 138.169 60.5387C138.169 62.6815 138.169 64.7487 138.169 66.8139C142.119 66.9852 144.456 71.474 141.548 74.8775C143.015 76.3492 144.479 77.821 145.976 79.3206C147.385 78.0122 149.079 77.6796 150.982 78.2691C151.18 77.1558 151.359 76.1521 151.545 75.0946ZM172.942 124.131C172.67 129.12 174.383 133.039 178.729 135.421C182.833 137.672 186.946 137.315 190.69 134.499C194.099 131.934 195.345 128.355 195.028 124.129C187.638 124.131 180.34 124.131 172.942 124.131ZM198.239 112.214C198.247 117.994 202.613 121.783 207.794 120.728C211.361 120.001 214.019 116.755 214.06 113.073C214.102 109.346 211.571 106.092 207.996 105.26C207.387 105.119 206.927 105.234 206.373 105.622C204.194 107.146 201.993 108.651 199.692 109.98C198.637 110.589 197.874 111.101 198.239 112.214ZM209.712 102.376C210.124 102.557 210.457 102.697 210.784 102.846C215.479 105.011 218.046 110.137 216.996 115.251C215.969 120.244 211.518 124.014 206.426 124.072C202.032 124.121 198.732 122.126 196.469 118.356C196.302 118.079 196.027 117.679 195.789 117.671C194.82 117.639 193.847 117.739 192.711 117.798C193.1 118.605 193.452 119.306 193.779 120.017C194.065 120.636 194.441 120.939 195.204 120.943C196.844 120.953 198.197 122.271 198.197 123.904C198.197 124.777 198.603 125.117 199.242 125.472C204.823 128.565 211.686 127.605 216.197 123.08C220.726 118.539 221.711 111.549 218.575 105.961C216.992 103.139 214.71 101.082 211.72 99.8012C211.038 100.677 210.412 101.482 209.712 102.376ZM152.429 71.9819C152.724 71.2351 152.883 70.6117 153.2 70.082C153.664 69.3073 153.475 68.8612 152.817 68.2757C150.673 66.3718 150.172 63.2909 151.482 60.7518C152.809 58.1788 155.667 56.8006 158.458 57.5016C159.423 57.7446 160.321 58.2564 161.326 58.6766C162.029 58.1071 162.814 57.4718 163.601 56.8325C161.122 54.2635 157.1 53.443 153.679 54.7693C150.16 56.1335 147.692 59.5648 147.619 63.3188C147.545 67.0768 149.19 69.9008 152.429 71.9819ZM198.239 107.228C199.123 106.736 199.816 106.297 200.552 105.955C201.253 105.628 201.426 105.146 201.422 104.394C201.388 98.6063 201.404 92.819 201.404 87.0317C201.404 86.6832 201.404 86.3327 201.404 86.01C200.266 86.01 199.267 86.01 198.239 86.01C198.239 92.8688 198.239 99.6459 198.239 106.425C198.239 106.624 198.239 106.819 198.239 107.228ZM182.451 114.475C183.549 114.475 184.548 114.475 185.531 114.475C185.531 110.239 185.531 106.082 185.531 101.892C184.482 101.892 183.485 101.892 182.451 101.892C182.451 106.11 182.451 110.269 182.451 114.475ZM166.592 98.6939C166.592 100.855 166.588 102.928 166.6 105.001C166.602 105.176 166.675 105.433 166.802 105.513C167.731 106.086 168.681 106.624 169.699 107.216C169.699 104.252 169.699 101.494 169.699 98.6959C168.673 98.6939 167.7 98.6939 166.592 98.6939ZM155.095 66.0512C156.343 64.3664 157.552 62.7353 158.761 61.1063C157.404 60.1284 155.693 60.3614 154.645 61.6659C153.561 63.0181 153.721 64.7348 155.095 66.0512ZM189.401 117.81C187.891 117.81 186.442 117.81 185.101 117.81C185.739 118.722 186.367 119.637 187.019 120.533C187.136 120.694 187.348 120.887 187.523 120.893C188.521 120.927 189.522 120.909 190.599 120.909C190.17 119.804 189.794 118.826 189.401 117.81Z" fill="url(#paint1_linear_797_291)"/>
<path d="M141.305 114.534C139.759 114.534 138.39 114.534 136.848 114.534C140.455 108.735 143.983 103.065 147.602 97.2461C151.215 103.055 154.732 108.707 158.336 114.499C156.833 114.499 155.45 114.499 153.959 114.499C153.959 123.032 153.959 131.456 153.959 139.936C152.879 139.936 151.904 139.936 150.846 139.936C150.846 130.482 150.846 121.001 150.846 111.418C151.349 111.394 151.892 111.37 152.626 111.336C150.951 108.639 149.328 106.029 147.603 103.25C145.901 105.985 144.274 108.596 142.56 111.35C143.253 111.35 143.788 111.35 144.377 111.35C144.377 116.691 144.377 121.935 144.377 127.228C143.36 127.228 142.385 127.228 141.301 127.228C141.305 123.04 141.305 118.856 141.305 114.534Z" fill="url(#paint2_linear_797_291)"/>
<path d="M226.759 82.7039C225.607 82.7039 224.632 82.7039 223.612 82.7039C223.612 73.1725 223.612 63.689 223.612 54.1496C224.182 54.1496 224.702 54.1496 225.453 54.1496C223.744 51.3954 222.125 48.7845 220.399 46.0024C218.698 48.7347 217.073 51.3436 215.359 54.0959C216.041 54.0959 216.578 54.0959 217.168 54.0959C217.168 56.2587 217.168 58.3238 217.168 60.4388C216.16 60.4388 215.184 60.4388 214.098 60.4388C214.098 59.4391 214.098 58.4334 214.098 57.3261C212.598 57.3261 211.205 57.3261 209.613 57.3261C213.242 51.491 216.77 45.8212 220.391 40C224.004 45.8052 227.522 51.4591 231.123 57.2484C229.627 57.2484 228.243 57.2484 226.755 57.2484C226.759 65.784 226.759 74.2061 226.759 82.7039Z" fill="url(#paint3_linear_797_291)"/>
<path d="M144.37 139.95C143.324 139.95 142.349 139.95 141.324 139.95C141.324 136.807 141.324 133.71 141.324 130.534C142.301 130.534 143.3 130.534 144.37 130.534C144.37 133.63 144.37 136.749 144.37 139.95Z" fill="url(#paint4_linear_797_291)"/>
<path d="M176.194 85.9321C177.605 81.6762 180.479 79.392 184.32 79.619C185.497 79.6887 186.64 80.2622 187.814 80.547C188.119 80.6207 188.593 80.5968 188.791 80.4076C190.109 79.1589 191.357 77.8346 192.665 76.576C193.097 76.1597 193.127 75.853 192.848 75.3094C190.349 70.4381 193.129 64.8002 198.492 63.8005C202.63 63.0297 206.731 65.8457 207.553 70.0239C208.394 74.2917 205.722 78.4559 201.57 79.37C199.691 79.7823 197.892 79.5712 196.205 78.6591C195.654 78.3604 195.315 78.3484 194.863 78.8284C193.64 80.1268 192.342 81.3536 191.12 82.652C190.919 82.8631 190.785 83.3949 190.907 83.6159C193.284 87.9036 191.242 93.1473 186.948 94.8859C182.419 96.718 177.456 94.0395 176.303 89.4252C176.281 89.3355 176.227 89.2519 176.166 89.1105C175.157 89.1105 174.133 89.0527 173.122 89.1463C172.817 89.1742 172.466 89.5745 172.277 89.8892C171.209 91.6676 169.154 92.6215 167.216 92.1854C165.113 91.7114 163.583 89.9708 163.434 87.8837C163.286 85.7946 164.493 83.8669 166.431 83.0942C168.649 82.2099 171.114 83.0782 172.276 85.231C172.573 85.7827 172.88 85.9818 173.484 85.944C174.37 85.8922 175.26 85.9321 176.194 85.9321ZM204.563 71.635C204.569 69.0361 202.462 66.8833 199.882 66.8554C197.252 66.8256 195.081 68.9724 195.073 71.6072C195.067 74.2459 197.226 76.4067 199.852 76.3888C202.434 76.3708 204.557 74.228 204.563 71.635ZM184.036 92.2889C186.615 92.269 188.737 90.1242 188.739 87.5292C188.743 84.8925 186.581 82.7357 183.953 82.7556C181.37 82.7755 179.254 84.9164 179.252 87.5133C179.248 90.1501 181.408 92.3089 184.036 92.2889ZM168.191 85.94C167.335 85.9281 166.607 86.637 166.595 87.4994C166.583 88.3597 167.289 89.0906 168.147 89.1045C169.001 89.1165 169.731 88.4035 169.743 87.5432C169.756 86.6829 169.049 85.952 168.191 85.94Z" fill="url(#paint5_linear_797_291)"/>
<path d="M201.398 71.6669C201.372 72.5272 200.629 73.2302 199.777 73.2023C198.919 73.1744 198.223 72.4336 198.251 71.5733C198.277 70.7089 199.012 70.0119 199.87 70.0378C200.728 70.0657 201.424 70.8065 201.398 71.6669Z" fill="url(#paint6_linear_797_291)"/>
<path d="M185.569 87.5337C185.563 88.394 184.838 89.113 183.984 89.105C183.126 89.097 182.414 88.3721 182.422 87.5098C182.43 86.6435 183.147 85.9325 184.007 85.9405C184.866 85.9465 185.577 86.6714 185.569 87.5337Z" fill="url(#paint7_linear_797_291)"/>
<defs>
<filter id="filter0_d_797_291" x="0" y="0" width="368" height="180" filterUnits="userSpaceOnUse" color-interpolation-filters="sRGB">
<feFlood flood-opacity="0" result="BackgroundImageFix"/>
<feColorMatrix in="SourceAlpha" type="matrix" values="0 0 0 0 0 0 0 0 0 0 0 0 0 0 0 0 0 0 127 0" result="hardAlpha"/>
<feOffset/>
<feGaussianBlur stdDeviation="5"/>
<feComposite in2="hardAlpha" operator="out"/>
<feColorMatrix type="matrix" values="0 0 0 0 0.156863 0 0 0 0 0.258824 0 0 0 0 0.937255 0 0 0 0.05 0"/>
<feBlend mode="normal" in2="BackgroundImageFix" result="effect1_dropShadow_797_291"/>
<feBlend mode="normal" in="SourceGraphic" in2="effect1_dropShadow_797_291" result="shape"/>
</filter>
<linearGradient id="paint0_linear_797_291" x1="10" y1="10" x2="194.161" y2="288.353" gradientUnits="userSpaceOnUse">
<stop stop-color="#2842EF"/>
<stop offset="1" stop-color="#A25FFD"/>
</linearGradient>
<linearGradient id="paint1_linear_797_291" x1="135" y1="41.48" x2="236.273" y2="136.507" gradientUnits="userSpaceOnUse">
<stop stop-color="#2842EF"/>
<stop offset="1" stop-color="#A25FFD"/>
</linearGradient>
<linearGradient id="paint2_linear_797_291" x1="136.848" y1="97.2461" x2="170.923" y2="113.426" gradientUnits="userSpaceOnUse">
<stop stop-color="#2842EF"/>
<stop offset="1" stop-color="#A25FFD"/>
</linearGradient>
<linearGradient id="paint3_linear_797_291" x1="209.613" y1="40" x2="243.715" y2="56.2037" gradientUnits="userSpaceOnUse">
<stop stop-color="#2842EF"/>
<stop offset="1" stop-color="#A25FFD"/>
</linearGradient>
<linearGradient id="paint4_linear_797_291" x1="141.324" y1="130.534" x2="146.74" y2="132.186" gradientUnits="userSpaceOnUse">
<stop stop-color="#2842EF"/>
<stop offset="1" stop-color="#A25FFD"/>
</linearGradient>
<linearGradient id="paint5_linear_797_291" x1="163.422" y1="63.6733" x2="194.987" y2="105.149" gradientUnits="userSpaceOnUse">
<stop stop-color="#2842EF"/>
<stop offset="1" stop-color="#A25FFD"/>
</linearGradient>
<linearGradient id="paint6_linear_797_291" x1="198.25" y1="70.0371" x2="201.504" y2="73.0905" gradientUnits="userSpaceOnUse">
<stop stop-color="#2842EF"/>
<stop offset="1" stop-color="#A25FFD"/>
</linearGradient>
<linearGradient id="paint7_linear_797_291" x1="182.422" y1="85.9404" x2="185.675" y2="88.9925" gradientUnits="userSpaceOnUse">
<stop stop-color="#2842EF"/>
<stop offset="1" stop-color="#A25FFD"/>
</linearGradient>
</defs>
</svg>
