<svg width="368" height="270" viewBox="0 0 368 270" fill="none" xmlns="http://www.w3.org/2000/svg">
<rect x="10" y="10" width="348" height="260" rx="10" fill="url(#paint0_linear_797_329)"/>
<g filter="url(#filter0_d_797_329)">
<rect x="10" y="10" width="348" height="160" rx="10" fill="white"/>
</g>
<path d="M41.632 212V195.2H48.376C50.12 195.2 51.448 195.608 52.36 196.424C53.288 197.224 53.752 198.256 53.752 199.52C53.752 200.576 53.464 201.424 52.888 202.064C52.328 202.688 51.64 203.112 50.824 203.336C51.784 203.528 52.576 204.008 53.2 204.776C53.824 205.528 54.136 206.408 54.136 207.416C54.136 208.744 53.656 209.84 52.696 210.704C51.736 211.568 50.376 212 48.616 212H41.632ZM44.704 202.256H47.92C48.784 202.256 49.448 202.056 49.912 201.656C50.376 201.256 50.608 200.688 50.608 199.952C50.608 199.248 50.376 198.696 49.912 198.296C49.464 197.88 48.784 197.672 47.872 197.672H44.704V202.256ZM44.704 209.504H48.136C49.048 209.504 49.752 209.296 50.248 208.88C50.76 208.448 51.016 207.848 51.016 207.08C51.016 206.296 50.752 205.68 50.224 205.232C49.696 204.784 48.984 204.56 48.088 204.56H44.704V209.504ZM61.1646 212.288C59.6766 212.288 58.5246 211.824 57.7086 210.896C56.9086 209.968 56.5086 208.608 56.5086 206.816V200.096H59.5566V206.528C59.5566 207.552 59.7646 208.336 60.1806 208.88C60.5966 209.424 61.2526 209.696 62.1486 209.696C62.9966 209.696 63.6926 209.392 64.2366 208.784C64.7966 208.176 65.0766 207.328 65.0766 206.24V200.096H68.1486V212H65.4366L65.1966 209.984C64.8286 210.688 64.2926 211.248 63.5886 211.664C62.9006 212.08 62.0926 212.288 61.1646 212.288ZM72.7902 217.28L75.5502 211.208H74.8302L70.1982 200.096H73.5342L76.8702 208.472L80.3502 200.096H83.6142L76.0542 217.28H72.7902ZM91.4133 212V195.2H98.1573C99.9013 195.2 101.229 195.608 102.141 196.424C103.069 197.224 103.533 198.256 103.533 199.52C103.533 200.576 103.245 201.424 102.669 202.064C102.109 202.688 101.421 203.112 100.605 203.336C101.565 203.528 102.357 204.008 102.981 204.776C103.605 205.528 103.917 206.408 103.917 207.416C103.917 208.744 103.437 209.84 102.477 210.704C101.517 211.568 100.157 212 98.3973 212H91.4133ZM94.4853 202.256H97.7013C98.5653 202.256 99.2293 202.056 99.6933 201.656C100.157 201.256 100.389 200.688 100.389 199.952C100.389 199.248 100.157 198.696 99.6933 198.296C99.2453 197.88 98.5653 197.672 97.6533 197.672H94.4853V202.256ZM94.4853 209.504H97.9173C98.8293 209.504 99.5333 209.296 100.029 208.88C100.541 208.448 100.797 207.848 100.797 207.08C100.797 206.296 100.533 205.68 100.005 205.232C99.4773 204.784 98.7653 204.56 97.8693 204.56H94.4853V209.504ZM110.586 212.288C109.562 212.288 108.722 212.128 108.066 211.808C107.41 211.472 106.922 211.032 106.602 210.488C106.282 209.944 106.122 209.344 106.122 208.688C106.122 207.584 106.554 206.688 107.418 206C108.282 205.312 109.578 204.968 111.306 204.968H114.33V204.68C114.33 203.864 114.098 203.264 113.634 202.88C113.17 202.496 112.594 202.304 111.906 202.304C111.282 202.304 110.738 202.456 110.274 202.76C109.81 203.048 109.522 203.48 109.41 204.056H106.41C106.49 203.192 106.778 202.44 107.274 201.8C107.786 201.16 108.442 200.672 109.242 200.336C110.042 199.984 110.938 199.808 111.93 199.808C113.626 199.808 114.962 200.232 115.938 201.08C116.914 201.928 117.402 203.128 117.402 204.68V212H114.786L114.498 210.08C114.146 210.72 113.65 211.248 113.01 211.664C112.386 212.08 111.578 212.288 110.586 212.288ZM111.282 209.888C112.162 209.888 112.842 209.6 113.322 209.024C113.818 208.448 114.13 207.736 114.258 206.888H111.642C110.826 206.888 110.242 207.04 109.89 207.344C109.538 207.632 109.362 207.992 109.362 208.424C109.362 208.888 109.538 209.248 109.89 209.504C110.242 209.76 110.706 209.888 111.282 209.888ZM126.165 212.288C124.949 212.288 123.877 212.024 122.949 211.496C122.021 210.968 121.285 210.232 120.741 209.288C120.213 208.344 119.949 207.264 119.949 206.048C119.949 204.832 120.213 203.752 120.741 202.808C121.285 201.864 122.021 201.128 122.949 200.6C123.877 200.072 124.949 199.808 126.165 199.808C127.685 199.808 128.965 200.208 130.005 201.008C131.045 201.792 131.709 202.88 131.997 204.272H128.757C128.597 203.696 128.277 203.248 127.797 202.928C127.333 202.592 126.781 202.424 126.141 202.424C125.293 202.424 124.573 202.744 123.981 203.384C123.389 204.024 123.093 204.912 123.093 206.048C123.093 207.184 123.389 208.072 123.981 208.712C124.573 209.352 125.293 209.672 126.141 209.672C126.781 209.672 127.333 209.512 127.797 209.192C128.277 208.872 128.597 208.416 128.757 207.824H131.997C131.709 209.168 131.045 210.248 130.005 211.064C128.965 211.88 127.685 212.288 126.165 212.288ZM134.724 212V194.72H137.796V204.92L142.02 200.096H145.668L140.796 205.52L146.46 212H142.62L137.796 206.024V212H134.724ZM158.187 212.288C157.163 212.288 156.323 212.128 155.667 211.808C155.011 211.472 154.523 211.032 154.203 210.488C153.883 209.944 153.723 209.344 153.723 208.688C153.723 207.584 154.155 206.688 155.019 206C155.883 205.312 157.179 204.968 158.907 204.968H161.931V204.68C161.931 203.864 161.699 203.264 161.235 202.88C160.771 202.496 160.195 202.304 159.507 202.304C158.883 202.304 158.339 202.456 157.875 202.76C157.411 203.048 157.123 203.48 157.011 204.056H154.011C154.091 203.192 154.379 202.44 154.875 201.8C155.387 201.16 156.043 200.672 156.843 200.336C157.643 199.984 158.539 199.808 159.531 199.808C161.227 199.808 162.563 200.232 163.539 201.08C164.515 201.928 165.003 203.128 165.003 204.68V212H162.387L162.099 210.08C161.747 210.72 161.251 211.248 160.611 211.664C159.987 212.08 159.179 212.288 158.187 212.288ZM158.883 209.888C159.763 209.888 160.443 209.6 160.923 209.024C161.419 208.448 161.731 207.736 161.859 206.888H159.243C158.427 206.888 157.843 207.04 157.491 207.344C157.139 207.632 156.963 207.992 156.963 208.424C156.963 208.888 157.139 209.248 157.491 209.504C157.843 209.76 158.307 209.888 158.883 209.888ZM167.935 212V200.096H170.647L170.887 202.112C171.255 201.408 171.783 200.848 172.471 200.432C173.175 200.016 173.999 199.808 174.943 199.808C176.415 199.808 177.559 200.272 178.375 201.2C179.191 202.128 179.599 203.488 179.599 205.28V212H176.527V205.568C176.527 204.544 176.319 203.76 175.903 203.216C175.487 202.672 174.839 202.4 173.959 202.4C173.095 202.4 172.383 202.704 171.823 203.312C171.279 203.92 171.007 204.768 171.007 205.856V212H167.935ZM188.009 212.288C186.889 212.288 185.889 212.016 185.009 211.472C184.129 210.928 183.433 210.184 182.921 209.24C182.409 208.296 182.153 207.224 182.153 206.024C182.153 204.824 182.409 203.76 182.921 202.832C183.433 201.888 184.129 201.152 185.009 200.624C185.889 200.08 186.889 199.808 188.009 199.808C188.905 199.808 189.689 199.976 190.361 200.312C191.033 200.648 191.577 201.12 191.993 201.728V194.72H195.065V212H192.329L191.993 210.296C191.609 210.824 191.097 211.288 190.457 211.688C189.833 212.088 189.017 212.288 188.009 212.288ZM188.657 209.6C189.649 209.6 190.457 209.272 191.081 208.616C191.721 207.944 192.041 207.088 192.041 206.048C192.041 205.008 191.721 204.16 191.081 203.504C190.457 202.832 189.649 202.496 188.657 202.496C187.681 202.496 186.873 202.824 186.233 203.48C185.593 204.136 185.273 204.984 185.273 206.024C185.273 207.064 185.593 207.92 186.233 208.592C186.873 209.264 187.681 209.6 188.657 209.6ZM41.632 246V229.2H48.376C50.12 229.2 51.448 229.608 52.36 230.424C53.288 231.224 53.752 232.256 53.752 233.52C53.752 234.576 53.464 235.424 52.888 236.064C52.328 236.688 51.64 237.112 50.824 237.336C51.784 237.528 52.576 238.008 53.2 238.776C53.824 239.528 54.136 240.408 54.136 241.416C54.136 242.744 53.656 243.84 52.696 244.704C51.736 245.568 50.376 246 48.616 246H41.632ZM44.704 236.256H47.92C48.784 236.256 49.448 236.056 49.912 235.656C50.376 235.256 50.608 234.688 50.608 233.952C50.608 233.248 50.376 232.696 49.912 232.296C49.464 231.88 48.784 231.672 47.872 231.672H44.704V236.256ZM44.704 243.504H48.136C49.048 243.504 49.752 243.296 50.248 242.88C50.76 242.448 51.016 241.848 51.016 241.08C51.016 240.296 50.752 239.68 50.224 239.232C49.696 238.784 48.984 238.56 48.088 238.56H44.704V243.504ZM61.1646 246.288C59.6766 246.288 58.5246 245.824 57.7086 244.896C56.9086 243.968 56.5086 242.608 56.5086 240.816V234.096H59.5566V240.528C59.5566 241.552 59.7646 242.336 60.1806 242.88C60.5966 243.424 61.2526 243.696 62.1486 243.696C62.9966 243.696 63.6926 243.392 64.2366 242.784C64.7966 242.176 65.0766 241.328 65.0766 240.24V234.096H68.1486V246H65.4366L65.1966 243.984C64.8286 244.688 64.2926 245.248 63.5886 245.664C62.9006 246.08 62.0926 246.288 61.1646 246.288ZM71.3022 246V234.096H74.0382L74.3262 236.328C74.7582 235.56 75.3422 234.952 76.0782 234.504C76.8302 234.04 77.7102 233.808 78.7182 233.808V237.048H77.8542C77.1822 237.048 76.5822 237.152 76.0542 237.36C75.5262 237.568 75.1102 237.928 74.8062 238.44C74.5182 238.952 74.3742 239.664 74.3742 240.576V246H71.3022ZM80.8178 246V234.096H83.5298L83.7698 236.112C84.1378 235.408 84.6658 234.848 85.3538 234.432C86.0578 234.016 86.8818 233.808 87.8258 233.808C89.2978 233.808 90.4418 234.272 91.2578 235.2C92.0738 236.128 92.4818 237.488 92.4818 239.28V246H89.4098V239.568C89.4098 238.544 89.2018 237.76 88.7858 237.216C88.3698 236.672 87.7218 236.4 86.8418 236.4C85.9778 236.4 85.2658 236.704 84.7058 237.312C84.1618 237.92 83.8898 238.768 83.8898 239.856V246H80.8178ZM104.618 246L100.178 229.2H103.466L106.49 242.568L110.042 229.2H113.426L116.882 242.568L119.906 229.2H123.218L118.658 246H115.01L111.674 233.544L108.242 246H104.618ZM128.117 246.288C127.093 246.288 126.253 246.128 125.597 245.808C124.941 245.472 124.453 245.032 124.133 244.488C123.813 243.944 123.653 243.344 123.653 242.688C123.653 241.584 124.085 240.688 124.949 240C125.813 239.312 127.109 238.968 128.837 238.968H131.861V238.68C131.861 237.864 131.629 237.264 131.165 236.88C130.701 236.496 130.125 236.304 129.437 236.304C128.813 236.304 128.269 236.456 127.805 236.76C127.341 237.048 127.053 237.48 126.941 238.056H123.941C124.021 237.192 124.309 236.44 124.805 235.8C125.317 235.16 125.973 234.672 126.773 234.336C127.573 233.984 128.469 233.808 129.461 233.808C131.157 233.808 132.493 234.232 133.469 235.08C134.445 235.928 134.933 237.128 134.933 238.68V246H132.317L132.029 244.08C131.677 244.72 131.181 245.248 130.541 245.664C129.917 246.08 129.109 246.288 128.117 246.288ZM128.813 243.888C129.693 243.888 130.373 243.6 130.853 243.024C131.349 242.448 131.661 241.736 131.789 240.888H129.173C128.357 240.888 127.773 241.04 127.421 241.344C127.069 241.632 126.893 241.992 126.893 242.424C126.893 242.888 127.069 243.248 127.421 243.504C127.773 243.76 128.237 243.888 128.813 243.888ZM137.865 246V228.72H140.937V246H137.865ZM144.076 246V228.72H147.148V246H144.076ZM156.071 246.288C154.871 246.288 153.807 246.032 152.879 245.52C151.951 245.008 151.223 244.288 150.695 243.36C150.167 242.432 149.903 241.36 149.903 240.144C149.903 238.912 150.159 237.816 150.671 236.856C151.199 235.896 151.919 235.152 152.831 234.624C153.759 234.08 154.847 233.808 156.095 233.808C157.263 233.808 158.295 234.064 159.191 234.576C160.087 235.088 160.783 235.792 161.279 236.688C161.791 237.568 162.047 238.552 162.047 239.64C162.047 239.816 162.039 240 162.023 240.192C162.023 240.384 162.015 240.584 161.999 240.792H152.951C153.015 241.72 153.335 242.448 153.911 242.976C154.503 243.504 155.215 243.768 156.047 243.768C156.671 243.768 157.191 243.632 157.607 243.36C158.039 243.072 158.359 242.704 158.567 242.256H161.687C161.463 243.008 161.087 243.696 160.559 244.32C160.047 244.928 159.407 245.408 158.639 245.76C157.887 246.112 157.031 246.288 156.071 246.288ZM156.095 236.304C155.343 236.304 154.679 236.52 154.103 236.952C153.527 237.368 153.159 238.008 152.999 238.872H158.927C158.879 238.088 158.591 237.464 158.063 237C157.535 236.536 156.879 236.304 156.095 236.304ZM169.723 246C168.475 246 167.475 245.696 166.723 245.088C165.971 244.48 165.595 243.4 165.595 241.848V236.664H163.555V234.096H165.595L165.955 230.904H168.667V234.096H171.883V236.664H168.667V241.872C168.667 242.448 168.787 242.848 169.027 243.072C169.283 243.28 169.715 243.384 170.323 243.384H171.811V246H169.723Z" fill="white"/>
<rect x="246" y="186" width="81" height="68" rx="19" stroke="white" stroke-opacity="0.2" stroke-width="2"/>
<path d="M269.76 234.48C267.707 234.48 265.933 234.12 264.44 233.4C262.973 232.68 261.813 231.693 260.96 230.44C260.133 229.16 259.653 227.72 259.52 226.12H264.52C264.76 227.267 265.347 228.227 266.28 229C267.213 229.747 268.373 230.12 269.76 230.12C271.253 230.12 272.467 229.573 273.4 228.48C274.36 227.387 274.84 226.027 274.84 224.4C274.84 222.72 274.36 221.387 273.4 220.4C272.467 219.413 271.28 218.92 269.84 218.92C268.64 218.92 267.6 219.213 266.72 219.8C265.84 220.387 265.213 221.12 264.84 222H259.92L262.32 206H277.84V210.48H266.16L264.88 216.96C265.467 216.32 266.267 215.8 267.28 215.4C268.293 214.973 269.427 214.76 270.68 214.76C272.68 214.76 274.347 215.213 275.68 216.12C277.013 217 278.027 218.173 278.72 219.64C279.413 221.08 279.76 222.653 279.76 224.36C279.76 226.307 279.333 228.04 278.48 229.56C277.653 231.08 276.48 232.28 274.96 233.16C273.467 234.04 271.733 234.48 269.76 234.48ZM290.285 219.76C289.005 219.76 287.845 219.48 286.805 218.92C285.765 218.333 284.938 217.507 284.325 216.44C283.711 215.373 283.405 214.107 283.405 212.64C283.405 211.173 283.711 209.907 284.325 208.84C284.938 207.773 285.765 206.96 286.805 206.4C287.845 205.813 289.018 205.52 290.325 205.52C291.605 205.52 292.751 205.813 293.765 206.4C294.805 206.96 295.631 207.773 296.245 208.84C296.858 209.907 297.165 211.173 297.165 212.64C297.165 214.107 296.858 215.373 296.245 216.44C295.631 217.507 294.805 218.333 293.765 218.92C292.725 219.48 291.565 219.76 290.285 219.76ZM288.765 234L304.565 206H309.565L293.765 234H288.765ZM290.285 216.2C291.058 216.2 291.725 215.907 292.285 215.32C292.845 214.707 293.125 213.813 293.125 212.64C293.125 211.467 292.845 210.573 292.285 209.96C291.751 209.347 291.085 209.04 290.285 209.04C289.485 209.04 288.805 209.347 288.245 209.96C287.711 210.573 287.445 211.467 287.445 212.64C287.445 213.813 287.711 214.707 288.245 215.32C288.805 215.907 289.485 216.2 290.285 216.2ZM308.205 234.48C306.925 234.48 305.765 234.2 304.725 233.64C303.685 233.053 302.858 232.227 302.245 231.16C301.631 230.093 301.325 228.827 301.325 227.36C301.325 225.893 301.631 224.64 302.245 223.6C302.858 222.533 303.685 221.72 304.725 221.16C305.765 220.573 306.938 220.28 308.245 220.28C309.525 220.28 310.671 220.573 311.685 221.16C312.725 221.72 313.551 222.533 314.165 223.6C314.778 224.64 315.085 225.893 315.085 227.36C315.085 228.827 314.778 230.093 314.165 231.16C313.551 232.227 312.725 233.053 311.685 233.64C310.671 234.2 309.511 234.48 308.205 234.48ZM308.205 230.92C309.005 230.92 309.671 230.627 310.205 230.04C310.765 229.427 311.045 228.533 311.045 227.36C311.045 226.187 310.765 225.293 310.205 224.68C309.671 224.067 309.005 223.76 308.205 223.76C307.405 223.76 306.725 224.067 306.165 224.68C305.631 225.293 305.365 226.187 305.365 227.36C305.365 228.533 305.631 229.427 306.165 230.04C306.725 230.627 307.405 230.92 308.205 230.92Z" fill="white"/>
<path d="M187.206 98.0613C187.206 93.7414 187.206 89.5205 187.206 85.231C188.296 85.231 189.314 85.231 190.445 85.231C190.445 89.4801 190.445 93.7232 190.445 98.0148C191.547 98.0148 192.542 98.0148 193.647 98.0148C193.647 95.3793 193.647 92.7458 193.647 90.0577C194.749 90.0577 195.745 90.0577 196.851 90.0577C196.851 92.6589 196.851 95.2924 196.851 98.0633C197.313 98.0633 197.669 98.0633 198.022 98.0633C205.478 98.0633 212.935 98.0633 220.393 98.0633C222.243 98.0633 222.709 98.5318 222.709 100.384C222.709 112.812 222.709 125.241 222.709 137.669C222.709 139.527 222.24 140 220.401 140C196.15 140 171.898 140 147.647 140C145.739 140 145.293 139.547 145.293 137.617C145.293 125.222 145.293 112.826 145.293 100.432C145.293 98.5096 145.739 98.0653 147.661 98.0653C160.426 98.0653 173.19 98.0653 185.952 98.0653C186.346 98.0613 186.74 98.0613 187.206 98.0613ZM148.564 136.7C172.241 136.7 195.836 136.7 219.402 136.7C219.402 124.859 219.402 113.089 219.402 101.341C195.749 101.341 172.178 101.341 148.564 101.341C148.564 113.141 148.564 124.887 148.564 136.7Z" fill="url(#paint1_linear_797_329)"/>
<path d="M162.94 67.4169C163.035 56.0973 168.416 48.7884 179.095 45.3128C179.486 41.8472 181.265 39.9427 184.11 40.0013C186.848 40.0558 188.645 42.0593 188.885 45.4057C193.789 46.674 197.852 49.3135 200.894 53.4294C203.943 57.5554 205.181 62.2428 204.955 67.4169C205.528 67.4169 205.99 67.4008 206.451 67.421C207.531 67.4654 208.169 68.045 208.177 69.1073C208.203 72.2659 208.203 75.4245 208.179 78.5811C208.169 79.7928 207.503 80.3179 206.093 80.3179C198.098 80.3199 190.1 80.3199 182.105 80.3199C181.705 80.3199 181.308 80.3199 180.797 80.3199C180.797 83.008 180.797 85.6415 180.797 88.3275C179.692 88.3275 178.697 88.3275 177.591 88.3275C177.591 85.7182 177.591 83.0847 177.591 80.3866C176.462 80.3866 175.444 80.3866 174.35 80.3866C174.35 84.6277 174.35 88.8486 174.35 93.1462C173.26 93.1462 172.24 93.1462 171.109 93.1462C171.109 88.9132 171.109 84.6681 171.109 80.3199C168.323 80.3199 165.646 80.3199 162.967 80.3199C159.944 80.3199 159.801 80.1745 159.801 77.1331C159.801 74.7136 159.801 72.2942 159.801 69.8768C159.801 67.8208 160.188 67.4371 162.28 67.4169C162.482 67.4169 162.682 67.4169 162.94 67.4169ZM166.322 67.3442C178.156 67.3442 189.923 67.3442 201.684 67.3442C202.467 56.7597 194.252 47.9725 183.734 48.0675C173.544 48.1604 165.387 57.1575 166.322 67.3442ZM204.92 70.7169C190.914 70.7169 176.997 70.7169 163.078 70.7169C163.078 72.8597 163.078 74.9277 163.078 77.0402C177.043 77.0402 190.959 77.0402 204.92 77.0402C204.92 74.9176 204.92 72.8475 204.92 70.7169ZM185.636 44.816C185.41 43.8021 184.903 43.2245 183.967 43.2488C183.046 43.273 182.513 43.8143 182.406 44.816C183.474 44.816 184.498 44.816 185.636 44.816Z" fill="url(#paint2_linear_797_329)"/>
<path d="M140.453 75.481C138.846 75.481 137.372 75.4689 135.898 75.485C135.083 75.4931 134.445 75.2306 134.124 74.4389C133.815 73.6775 134.119 73.0757 134.657 72.5385C137.748 69.4526 140.829 66.3586 143.926 63.2788C144.883 62.3255 145.683 62.3114 146.629 63.2525C149.729 66.3303 152.808 69.4263 155.899 72.5122C156.464 73.0757 156.785 73.6997 156.428 74.4995C156.077 75.2871 155.418 75.4971 154.613 75.4871C153.169 75.4689 151.728 75.481 150.126 75.481C150.126 75.8708 150.126 76.2222 150.126 76.5756C150.126 81.9174 150.128 87.2591 150.126 92.6009C150.126 94.3256 149.626 94.8325 147.924 94.8345C146.177 94.8385 144.431 94.8365 142.682 94.8345C140.956 94.8325 140.451 94.3357 140.449 92.6332C140.447 87.3257 140.449 82.0163 140.449 76.7089C140.453 76.3454 140.453 75.9798 140.453 75.481ZM139.793 72.2557C140.32 72.2557 140.875 72.2537 141.43 72.2557C143.197 72.2598 143.678 72.7465 143.678 74.5419C143.68 79.8453 143.678 85.1487 143.678 90.452C143.678 90.8095 143.678 91.169 143.678 91.5426C144.806 91.5426 145.824 91.5426 146.904 91.5426C146.904 91.2457 146.904 91.0155 146.904 90.7853C146.904 85.2799 146.9 79.7766 146.906 74.2713C146.908 72.8253 147.473 72.2699 148.917 72.2578C149.561 72.2517 150.205 72.2557 150.736 72.2557C148.865 70.3755 147.025 68.5296 145.275 66.7706C143.512 68.5357 141.677 70.3735 139.793 72.2557Z" fill="url(#paint3_linear_797_329)"/>
<path d="M227.546 81.9335C229.167 81.9335 230.643 81.9456 232.117 81.9294C232.937 81.9214 233.567 82.198 233.88 82.9917C234.182 83.7571 233.863 84.3549 233.326 84.8901C230.237 87.976 227.156 91.072 224.057 94.1518C223.106 95.097 222.302 95.0909 221.351 94.1458C218.254 91.0659 215.171 87.972 212.082 84.8861C211.545 84.3509 211.228 83.7511 211.533 82.9877C211.848 82.196 212.48 81.9193 213.3 81.9294C214.773 81.9456 216.249 81.9335 217.869 81.9335C217.869 81.5296 217.869 81.1741 217.869 80.8207C217.869 75.4789 217.867 70.1372 217.869 64.7954C217.869 63.0808 218.369 62.582 220.086 62.58C221.901 62.5779 223.714 62.5739 225.529 62.582C226.975 62.588 227.54 63.1515 227.542 64.5975C227.548 69.9736 227.544 75.3477 227.544 80.7237C227.546 81.0873 227.546 81.4488 227.546 81.9335ZM221.095 65.8537C221.095 66.2919 221.095 66.6554 221.095 67.019C221.095 72.389 221.099 77.759 221.093 83.1291C221.091 84.5811 220.528 85.1446 219.094 85.1587C218.448 85.1648 217.802 85.1607 217.208 85.1607C219.116 87.0571 220.964 88.8929 222.605 90.5227C224.372 88.7535 226.215 86.9077 227.962 85.1607C227.621 85.1607 227.051 85.1628 226.482 85.1607C224.84 85.1547 224.324 84.6377 224.321 82.9897C224.319 77.654 224.319 72.3163 224.319 66.9806C224.319 66.6211 224.319 66.2616 224.319 65.8557C223.227 65.8537 222.232 65.8537 221.095 65.8537Z" fill="url(#paint4_linear_797_329)"/>
<path d="M183.944 133.545C176.118 133.545 168.291 133.545 160.465 133.545C158.749 133.545 158.347 133.182 158.173 131.488C157.933 129.151 156.094 127.331 153.752 127.109C152.138 126.956 151.741 126.519 151.741 124.873C151.739 120.943 151.737 117.013 151.741 113.083C151.743 111.573 152.191 111.082 153.653 110.957C156.152 110.743 157.977 108.895 158.185 106.368C158.294 105.021 158.815 104.516 160.166 104.516C176.054 104.512 191.942 104.512 207.829 104.516C209.178 104.516 209.701 105.023 209.81 106.37C210.018 108.941 211.841 110.747 214.442 110.961C215.718 111.066 216.247 111.605 216.251 112.883C216.261 116.981 216.261 121.079 216.251 125.176C216.247 126.453 215.716 126.996 214.442 127.099C211.837 127.311 210.02 129.115 209.81 131.689C209.699 133.067 209.174 133.545 207.728 133.545C199.8 133.547 191.873 133.545 183.944 133.545ZM193.224 130.274C197.829 130.274 202.247 130.274 206.711 130.274C207.583 126.982 209.673 124.88 212.974 124.007C212.974 120.665 212.974 117.353 212.974 114.04C209.618 113.16 207.569 111.013 206.707 107.814C202.196 107.814 197.787 107.814 193.296 107.814C200.333 114.02 200.113 124.264 193.224 130.274ZM154.995 114.061C154.995 117.387 154.995 120.673 154.995 123.999C158.302 124.877 160.404 126.97 161.268 130.237C165.747 130.237 170.182 130.237 174.76 130.237C171.303 127.168 169.484 123.474 169.492 118.982C169.5 114.513 171.358 110.848 174.824 107.739C174.348 107.739 174.122 107.739 173.898 107.739C169.702 107.739 165.506 107.739 161.291 107.739C160.402 111.086 158.3 113.18 154.995 114.061ZM179.2 123.868C180.788 123.868 182.264 123.88 183.74 123.864C184.863 123.852 185.568 123.246 185.6 122.307C185.632 121.369 184.962 120.733 183.843 120.638C181.467 120.438 179.769 119.011 179.266 116.789C178.792 114.701 179.783 112.695 181.851 111.492C182.071 111.363 182.343 111.092 182.355 110.874C182.41 109.908 182.379 108.937 182.379 107.964C178.24 108.244 172.573 112.35 172.714 119.344C172.823 124.75 177.568 130.05 182.331 130.066C182.331 129.106 182.331 128.147 182.331 127.077C181.263 127.077 180.241 127.077 179.197 127.077C179.2 125.972 179.2 124.976 179.2 123.868ZM185.61 130.09C189.636 129.842 195.36 125.827 195.277 118.819C195.212 113.356 190.484 108.032 185.658 107.992C185.658 108.951 185.658 109.91 185.658 110.981C186.726 110.981 187.748 110.981 188.76 110.981C188.76 112.112 188.76 113.13 188.76 114.194C187.209 114.194 185.733 114.184 184.257 114.198C183.131 114.208 182.428 114.808 182.392 115.747C182.355 116.684 183.028 117.328 184.14 117.421C186.525 117.623 188.215 119.041 188.721 121.262C189.198 123.353 188.212 125.35 186.147 126.566C185.911 126.705 185.65 127.026 185.634 127.279C185.574 128.212 185.61 129.149 185.61 130.09Z" fill="url(#paint5_linear_797_329)"/>
<defs>
<filter id="filter0_d_797_329" x="0" y="0" width="368" height="180" filterUnits="userSpaceOnUse" color-interpolation-filters="sRGB">
<feFlood flood-opacity="0" result="BackgroundImageFix"/>
<feColorMatrix in="SourceAlpha" type="matrix" values="0 0 0 0 0 0 0 0 0 0 0 0 0 0 0 0 0 0 127 0" result="hardAlpha"/>
<feOffset/>
<feGaussianBlur stdDeviation="5"/>
<feComposite in2="hardAlpha" operator="out"/>
<feColorMatrix type="matrix" values="0 0 0 0 0.156863 0 0 0 0 0.258824 0 0 0 0 0.937255 0 0 0 0.05 0"/>
<feBlend mode="normal" in2="BackgroundImageFix" result="effect1_dropShadow_797_329"/>
<feBlend mode="normal" in="SourceGraphic" in2="effect1_dropShadow_797_329" result="shape"/>
</filter>
<linearGradient id="paint0_linear_797_329" x1="10" y1="10" x2="194.161" y2="288.353" gradientUnits="userSpaceOnUse">
<stop stop-color="#2842EF"/>
<stop offset="1" stop-color="#A25FFD"/>
</linearGradient>
<linearGradient id="paint1_linear_797_329" x1="145.293" y1="85.231" x2="199.448" y2="157.444" gradientUnits="userSpaceOnUse">
<stop stop-color="#2842EF"/>
<stop offset="1" stop-color="#A25FFD"/>
</linearGradient>
<linearGradient id="paint2_linear_797_329" x1="159.801" y1="40" x2="213.917" y2="86.4877" gradientUnits="userSpaceOnUse">
<stop stop-color="#2842EF"/>
<stop offset="1" stop-color="#A25FFD"/>
</linearGradient>
<linearGradient id="paint3_linear_797_329" x1="134" y1="62.5552" x2="164.57" y2="82.7248" gradientUnits="userSpaceOnUse">
<stop stop-color="#2842EF"/>
<stop offset="1" stop-color="#A25FFD"/>
</linearGradient>
<linearGradient id="paint4_linear_797_329" x1="211.414" y1="62.5771" x2="241.986" y2="82.7528" gradientUnits="userSpaceOnUse">
<stop stop-color="#2842EF"/>
<stop offset="1" stop-color="#A25FFD"/>
</linearGradient>
<linearGradient id="paint5_linear_797_329" x1="151.738" y1="104.513" x2="174.98" y2="153.237" gradientUnits="userSpaceOnUse">
<stop stop-color="#2842EF"/>
<stop offset="1" stop-color="#A25FFD"/>
</linearGradient>
</defs>
</svg>
