<svg width="368" height="270" viewBox="0 0 368 270" fill="none" xmlns="http://www.w3.org/2000/svg">
<rect x="10" y="10" width="348" height="260" rx="10" fill="url(#paint0_linear_797_235)"/>
<g filter="url(#filter0_d_797_235)">
<rect x="10" y="10" width="348" height="160" rx="10" fill="white"/>
</g>
<path d="M40.552 212L46.696 195.2H50.152L56.296 212H53.032L51.688 208.112H45.136L43.768 212H40.552ZM45.976 205.712H50.848L48.4 198.728L45.976 205.712ZM60.5909 212V197.672H55.6949V195.2H68.5829V197.672H63.6629V212H60.5909ZM77.3386 212.288C76.1066 212.288 74.9946 212.048 74.0026 211.568C73.0106 211.072 72.2186 210.328 71.6266 209.336C71.0506 208.344 70.7626 207.088 70.7626 205.568V195.2H73.8346V205.592C73.8346 206.904 74.1466 207.88 74.7706 208.52C75.4106 209.16 76.2906 209.48 77.4106 209.48C78.5146 209.48 79.3866 209.16 80.0266 208.52C80.6666 207.88 80.9866 206.904 80.9866 205.592V195.2H84.0586V205.568C84.0586 207.088 83.7546 208.344 83.1466 209.336C82.5386 210.328 81.7226 211.072 80.6986 211.568C79.6906 212.048 78.5706 212.288 77.3386 212.288ZM87.1945 212V195.2H90.8425L96.1945 205.856L101.475 195.2H105.123V212H102.051V200.408L97.3705 209.6H94.9465L90.2665 200.408V212H87.1945ZM40.552 246L46.696 229.2H50.152L56.296 246H53.032L51.688 242.112H45.136L43.768 246H40.552ZM45.976 239.712H50.848L48.4 232.728L45.976 239.712ZM63.6576 246.288C62.4416 246.288 61.3696 246.024 60.4416 245.496C59.5136 244.968 58.7776 244.232 58.2336 243.288C57.7056 242.344 57.4416 241.264 57.4416 240.048C57.4416 238.832 57.7056 237.752 58.2336 236.808C58.7776 235.864 59.5136 235.128 60.4416 234.6C61.3696 234.072 62.4416 233.808 63.6576 233.808C65.1776 233.808 66.4576 234.208 67.4976 235.008C68.5376 235.792 69.2016 236.88 69.4896 238.272H66.2496C66.0896 237.696 65.7696 237.248 65.2896 236.928C64.8256 236.592 64.2736 236.424 63.6336 236.424C62.7856 236.424 62.0656 236.744 61.4736 237.384C60.8816 238.024 60.5856 238.912 60.5856 240.048C60.5856 241.184 60.8816 242.072 61.4736 242.712C62.0656 243.352 62.7856 243.672 63.6336 243.672C64.2736 243.672 64.8256 243.512 65.2896 243.192C65.7696 242.872 66.0896 242.416 66.2496 241.824H69.4896C69.2016 243.168 68.5376 244.248 67.4976 245.064C66.4576 245.88 65.1776 246.288 63.6576 246.288ZM81.6723 251.28V244.296C81.2883 244.824 80.7763 245.288 80.1363 245.688C79.5123 246.088 78.6963 246.288 77.6883 246.288C76.5683 246.288 75.5683 246.016 74.6883 245.472C73.8083 244.928 73.1123 244.184 72.6003 243.24C72.0883 242.296 71.8323 241.224 71.8323 240.024C71.8323 238.824 72.0883 237.76 72.6003 236.832C73.1123 235.888 73.8083 235.152 74.6883 234.624C75.5683 234.08 76.5683 233.808 77.6883 233.808C78.5843 233.808 79.3683 233.976 80.0403 234.312C80.7123 234.648 81.2563 235.12 81.6723 235.728L82.0083 234.096H84.7443V251.28H81.6723ZM78.3363 243.6C79.3283 243.6 80.1363 243.272 80.7603 242.616C81.4003 241.944 81.7203 241.088 81.7203 240.048C81.7203 239.008 81.4003 238.16 80.7603 237.504C80.1363 236.832 79.3283 236.496 78.3363 236.496C77.3603 236.496 76.5523 236.824 75.9123 237.48C75.2723 238.136 74.9523 238.984 74.9523 240.024C74.9523 241.064 75.2723 241.92 75.9123 242.592C76.5523 243.264 77.3603 243.6 78.3363 243.6ZM92.3365 246.288C90.8485 246.288 89.6965 245.824 88.8805 244.896C88.0805 243.968 87.6805 242.608 87.6805 240.816V234.096H90.7285V240.528C90.7285 241.552 90.9365 242.336 91.3525 242.88C91.7685 243.424 92.4245 243.696 93.3205 243.696C94.1685 243.696 94.8645 243.392 95.4085 242.784C95.9685 242.176 96.2485 241.328 96.2485 240.24V234.096H99.3205V246H96.6085L96.3685 243.984C96.0005 244.688 95.4645 245.248 94.7605 245.664C94.0725 246.08 93.2645 246.288 92.3365 246.288ZM107.394 246.288C106.338 246.288 105.41 246.12 104.61 245.784C103.81 245.432 103.17 244.952 102.69 244.344C102.21 243.736 101.922 243.032 101.826 242.232H104.922C105.018 242.696 105.274 243.096 105.69 243.432C106.122 243.752 106.674 243.912 107.346 243.912C108.018 243.912 108.506 243.776 108.81 243.504C109.13 243.232 109.29 242.92 109.29 242.568C109.29 242.056 109.066 241.712 108.618 241.536C108.17 241.344 107.546 241.16 106.746 240.984C106.234 240.872 105.714 240.736 105.186 240.576C104.658 240.416 104.17 240.216 103.722 239.976C103.29 239.72 102.938 239.4 102.666 239.016C102.394 238.616 102.258 238.128 102.258 237.552C102.258 236.496 102.674 235.608 103.506 234.888C104.354 234.168 105.538 233.808 107.058 233.808C108.466 233.808 109.586 234.136 110.418 234.792C111.266 235.448 111.77 236.352 111.93 237.504H109.026C108.85 236.624 108.186 236.184 107.034 236.184C106.458 236.184 106.01 236.296 105.69 236.52C105.386 236.744 105.234 237.024 105.234 237.36C105.234 237.712 105.466 237.992 105.93 238.2C106.394 238.408 107.01 238.6 107.778 238.776C108.61 238.968 109.37 239.184 110.058 239.424C110.762 239.648 111.322 239.992 111.738 240.456C112.154 240.904 112.362 241.552 112.362 242.4C112.378 243.136 112.186 243.8 111.786 244.392C111.386 244.984 110.81 245.448 110.058 245.784C109.306 246.12 108.418 246.288 107.394 246.288ZM116.739 232.248C116.179 232.248 115.715 232.08 115.347 231.744C114.995 231.408 114.819 230.984 114.819 230.472C114.819 229.96 114.995 229.544 115.347 229.224C115.715 228.888 116.179 228.72 116.739 228.72C117.299 228.72 117.755 228.888 118.107 229.224C118.475 229.544 118.659 229.96 118.659 230.472C118.659 230.984 118.475 231.408 118.107 231.744C117.755 232.08 117.299 232.248 116.739 232.248ZM115.203 246V234.096H118.275V246H115.203ZM126.402 246.288C125.346 246.288 124.418 246.12 123.618 245.784C122.818 245.432 122.178 244.952 121.698 244.344C121.218 243.736 120.93 243.032 120.834 242.232H123.93C124.026 242.696 124.282 243.096 124.698 243.432C125.13 243.752 125.682 243.912 126.354 243.912C127.026 243.912 127.514 243.776 127.818 243.504C128.138 243.232 128.298 242.92 128.298 242.568C128.298 242.056 128.074 241.712 127.626 241.536C127.178 241.344 126.554 241.16 125.754 240.984C125.242 240.872 124.722 240.736 124.194 240.576C123.666 240.416 123.178 240.216 122.73 239.976C122.298 239.72 121.946 239.4 121.674 239.016C121.402 238.616 121.266 238.128 121.266 237.552C121.266 236.496 121.682 235.608 122.514 234.888C123.362 234.168 124.546 233.808 126.066 233.808C127.474 233.808 128.594 234.136 129.426 234.792C130.274 235.448 130.778 236.352 130.938 237.504H128.034C127.858 236.624 127.194 236.184 126.042 236.184C125.466 236.184 125.018 236.296 124.698 236.52C124.394 236.744 124.242 237.024 124.242 237.36C124.242 237.712 124.474 237.992 124.938 238.2C125.402 238.408 126.018 238.6 126.786 238.776C127.618 238.968 128.378 239.184 129.066 239.424C129.77 239.648 130.33 239.992 130.746 240.456C131.162 240.904 131.37 241.552 131.37 242.4C131.386 243.136 131.194 243.8 130.794 244.392C130.394 244.984 129.818 245.448 129.066 245.784C128.314 246.12 127.426 246.288 126.402 246.288ZM139.02 246C137.772 246 136.772 245.696 136.02 245.088C135.268 244.48 134.892 243.4 134.892 241.848V236.664H132.852V234.096H134.892L135.252 230.904H137.964V234.096H141.18V236.664H137.964V241.872C137.964 242.448 138.084 242.848 138.324 243.072C138.58 243.28 139.012 243.384 139.62 243.384H141.108V246H139.02ZM145.474 232.248C144.914 232.248 144.45 232.08 144.082 231.744C143.73 231.408 143.554 230.984 143.554 230.472C143.554 229.96 143.73 229.544 144.082 229.224C144.45 228.888 144.914 228.72 145.474 228.72C146.034 228.72 146.49 228.888 146.842 229.224C147.21 229.544 147.394 229.96 147.394 230.472C147.394 230.984 147.21 231.408 146.842 231.744C146.49 232.08 146.034 232.248 145.474 232.248ZM143.938 246V234.096H147.01V246H143.938ZM155.928 246.288C154.776 246.288 153.736 246.024 152.808 245.496C151.896 244.968 151.168 244.24 150.624 243.312C150.096 242.368 149.832 241.28 149.832 240.048C149.832 238.816 150.104 237.736 150.648 236.808C151.192 235.864 151.92 235.128 152.832 234.6C153.76 234.072 154.8 233.808 155.952 233.808C157.088 233.808 158.112 234.072 159.024 234.6C159.952 235.128 160.68 235.864 161.208 236.808C161.752 237.736 162.024 238.816 162.024 240.048C162.024 241.28 161.752 242.368 161.208 243.312C160.68 244.24 159.952 244.968 159.024 245.496C158.096 246.024 157.064 246.288 155.928 246.288ZM155.928 243.624C156.728 243.624 157.424 243.328 158.016 242.736C158.608 242.128 158.904 241.232 158.904 240.048C158.904 238.864 158.608 237.976 158.016 237.384C157.424 236.776 156.736 236.472 155.952 236.472C155.136 236.472 154.432 236.776 153.84 237.384C153.264 237.976 152.976 238.864 152.976 240.048C152.976 241.232 153.264 242.128 153.84 242.736C154.432 243.328 155.128 243.624 155.928 243.624ZM164.771 246V234.096H167.483L167.723 236.112C168.091 235.408 168.619 234.848 169.307 234.432C170.011 234.016 170.835 233.808 171.779 233.808C173.251 233.808 174.395 234.272 175.211 235.2C176.027 236.128 176.435 237.488 176.435 239.28V246H173.363V239.568C173.363 238.544 173.155 237.76 172.739 237.216C172.323 236.672 171.675 236.4 170.795 236.4C169.931 236.4 169.219 236.704 168.659 237.312C168.115 237.92 167.843 238.768 167.843 239.856V246H164.771ZM184.293 246.288C183.237 246.288 182.309 246.12 181.509 245.784C180.709 245.432 180.069 244.952 179.589 244.344C179.109 243.736 178.821 243.032 178.725 242.232H181.821C181.917 242.696 182.173 243.096 182.589 243.432C183.021 243.752 183.573 243.912 184.245 243.912C184.917 243.912 185.405 243.776 185.709 243.504C186.029 243.232 186.189 242.92 186.189 242.568C186.189 242.056 185.965 241.712 185.517 241.536C185.069 241.344 184.445 241.16 183.645 240.984C183.133 240.872 182.613 240.736 182.085 240.576C181.557 240.416 181.069 240.216 180.621 239.976C180.189 239.72 179.837 239.4 179.565 239.016C179.293 238.616 179.157 238.128 179.157 237.552C179.157 236.496 179.573 235.608 180.405 234.888C181.253 234.168 182.437 233.808 183.957 233.808C185.365 233.808 186.485 234.136 187.317 234.792C188.165 235.448 188.669 236.352 188.829 237.504H185.925C185.749 236.624 185.085 236.184 183.933 236.184C183.357 236.184 182.909 236.296 182.589 236.52C182.285 236.744 182.133 237.024 182.133 237.36C182.133 237.712 182.365 237.992 182.829 238.2C183.293 238.408 183.909 238.6 184.677 238.776C185.509 238.968 186.269 239.184 186.957 239.424C187.661 239.648 188.221 239.992 188.637 240.456C189.053 240.904 189.261 241.552 189.261 242.4C189.277 243.136 189.085 243.8 188.685 244.392C188.285 244.984 187.709 245.448 186.957 245.784C186.205 246.12 185.317 246.288 184.293 246.288Z" fill="white"/>
<rect x="231" y="186" width="96" height="68" rx="19" stroke="white" stroke-opacity="0.2" stroke-width="2"/>
<path d="M238.04 234V230.28C239.747 228.867 241.4 227.467 243 226.08C244.627 224.693 246.067 223.32 247.32 221.96C248.6 220.6 249.613 219.28 250.36 218C251.133 216.693 251.52 215.427 251.52 214.2C251.52 213.053 251.2 212.04 250.56 211.16C249.947 210.28 248.92 209.84 247.48 209.84C246.013 209.84 244.907 210.32 244.16 211.28C243.413 212.24 243.04 213.4 243.04 214.76H238.08C238.133 212.707 238.587 211 239.44 209.64C240.293 208.253 241.427 207.227 242.84 206.56C244.253 205.867 245.84 205.52 247.6 205.52C250.453 205.52 252.667 206.307 254.24 207.88C255.84 209.427 256.64 211.44 256.64 213.92C256.64 215.467 256.28 216.973 255.56 218.44C254.867 219.907 253.947 221.32 252.8 222.68C251.653 224.04 250.413 225.32 249.08 226.52C247.747 227.693 246.453 228.787 245.2 229.8H257.32V234H238.04ZM272.856 234.48C270.27 234.48 268.056 233.88 266.216 232.68C264.376 231.453 262.95 229.76 261.936 227.6C260.95 225.413 260.456 222.88 260.456 220C260.456 217.147 260.95 214.627 261.936 212.44C262.95 210.253 264.376 208.56 266.216 207.36C268.056 206.133 270.27 205.52 272.856 205.52C275.443 205.52 277.656 206.133 279.496 207.36C281.336 208.56 282.75 210.253 283.736 212.44C284.75 214.627 285.256 217.147 285.256 220C285.256 222.88 284.75 225.413 283.736 227.6C282.75 229.76 281.336 231.453 279.496 232.68C277.656 233.88 275.443 234.48 272.856 234.48ZM272.856 229.88C274.963 229.88 276.683 229 278.016 227.24C279.35 225.48 280.016 223.067 280.016 220C280.016 216.933 279.35 214.52 278.016 212.76C276.683 211 274.963 210.12 272.856 210.12C270.723 210.12 268.99 211 267.656 212.76C266.35 214.52 265.696 216.933 265.696 220C265.696 223.067 266.35 225.48 267.656 227.24C268.99 229 270.723 229.88 272.856 229.88ZM295.535 219.76C294.255 219.76 293.095 219.48 292.055 218.92C291.015 218.333 290.188 217.507 289.575 216.44C288.961 215.373 288.655 214.107 288.655 212.64C288.655 211.173 288.961 209.907 289.575 208.84C290.188 207.773 291.015 206.96 292.055 206.4C293.095 205.813 294.268 205.52 295.575 205.52C296.855 205.52 298.001 205.813 299.015 206.4C300.055 206.96 300.881 207.773 301.495 208.84C302.108 209.907 302.415 211.173 302.415 212.64C302.415 214.107 302.108 215.373 301.495 216.44C300.881 217.507 300.055 218.333 299.015 218.92C297.975 219.48 296.815 219.76 295.535 219.76ZM294.015 234L309.815 206H314.815L299.015 234H294.015ZM295.535 216.2C296.308 216.2 296.975 215.907 297.535 215.32C298.095 214.707 298.375 213.813 298.375 212.64C298.375 211.467 298.095 210.573 297.535 209.96C297.001 209.347 296.335 209.04 295.535 209.04C294.735 209.04 294.055 209.347 293.495 209.96C292.961 210.573 292.695 211.467 292.695 212.64C292.695 213.813 292.961 214.707 293.495 215.32C294.055 215.907 294.735 216.2 295.535 216.2ZM313.455 234.48C312.175 234.48 311.015 234.2 309.975 233.64C308.935 233.053 308.108 232.227 307.495 231.16C306.881 230.093 306.575 228.827 306.575 227.36C306.575 225.893 306.881 224.64 307.495 223.6C308.108 222.533 308.935 221.72 309.975 221.16C311.015 220.573 312.188 220.28 313.495 220.28C314.775 220.28 315.921 220.573 316.935 221.16C317.975 221.72 318.801 222.533 319.415 223.6C320.028 224.64 320.335 225.893 320.335 227.36C320.335 228.827 320.028 230.093 319.415 231.16C318.801 232.227 317.975 233.053 316.935 233.64C315.921 234.2 314.761 234.48 313.455 234.48ZM313.455 230.92C314.255 230.92 314.921 230.627 315.455 230.04C316.015 229.427 316.295 228.533 316.295 227.36C316.295 226.187 316.015 225.293 315.455 224.68C314.921 224.067 314.255 223.76 313.455 223.76C312.655 223.76 311.975 224.067 311.415 224.68C310.881 225.293 310.615 226.187 310.615 227.36C310.615 228.533 310.881 229.427 311.415 230.04C311.975 230.627 312.655 230.92 313.455 230.92Z" fill="white"/>
<path d="M183.029 140C180.815 139.344 179.115 138.115 178.492 135.77C178.319 135.121 178.276 134.42 178.278 133.745C178.28 133.207 178.088 132.966 177.608 132.731C175.52 131.705 174.464 129.997 174.46 127.656C174.456 125.051 174.483 122.446 174.434 119.843C174.427 119.432 174.184 118.924 173.884 118.638C172.48 117.311 171.768 115.718 171.743 113.788C171.711 111.447 171.793 109.093 171.563 106.77C171.292 104.036 169.879 101.82 167.774 100.061C163.345 96.3579 160.4 91.7293 159.043 86.0947C155.555 71.614 165.346 56.9669 180.046 54.6868C181.131 54.5185 181.904 54.9843 182.041 55.8865C182.174 56.7653 181.592 57.3916 180.46 57.5892C170.931 59.2547 163.625 66.1321 161.757 75.6398C160.064 84.257 162.674 91.6079 169.238 97.4147C172.172 100.01 174.184 103.026 174.561 106.944C174.766 109.073 174.653 111.236 174.665 113.383C174.68 115.949 175.861 117.143 178.426 117.143C182.224 117.144 186.023 117.148 189.821 117.141C192.05 117.137 193.313 115.861 193.35 113.637C193.389 111.263 193.294 108.876 193.542 106.523C193.907 103.043 195.613 100.17 198.263 97.9255C202.731 94.1424 205.544 89.4375 206.483 83.6268C206.668 82.4819 207.32 81.9652 208.238 82.1237C209.114 82.2764 209.53 82.9398 209.358 84.0554C208.398 90.2477 205.573 95.4537 200.834 99.5128C197.67 102.225 196.056 105.494 196.261 109.674C196.327 111.038 196.276 112.408 196.271 113.776C196.263 115.741 195.521 117.362 194.063 118.691C193.782 118.947 193.585 119.442 193.579 119.832C193.536 122.435 193.561 125.04 193.555 127.644C193.55 129.983 192.486 131.664 190.428 132.758C190.145 132.909 189.782 133.281 189.786 133.547C189.843 136.958 188.184 139.047 184.983 140C184.327 140 183.677 140 183.029 140ZM177.491 126.496C177.042 129.118 178.012 130.294 180.589 130.298C182.855 130.3 185.121 130.302 187.387 130.298C189.979 130.294 190.92 129.171 190.524 126.496C186.183 126.496 181.832 126.496 177.491 126.496ZM177.423 123.433C181.859 123.433 186.214 123.433 190.547 123.433C190.547 122.272 190.547 121.186 190.547 120.123C186.134 120.123 181.801 120.123 177.423 120.123C177.423 121.233 177.423 122.294 177.423 123.433ZM186.733 133.23C185.025 133.23 183.411 133.244 181.797 133.222C181.241 133.216 181.174 133.518 181.176 133.964C181.182 135.158 181.594 136.123 182.677 136.712C183.72 137.279 184.744 137.185 185.681 136.481C186.729 135.694 186.952 134.598 186.733 133.23Z" fill="url(#paint1_linear_797_235)"/>
<path d="M171.524 78.7544C169.207 77.8189 167.844 76.2219 167.834 73.707C167.817 69.826 172.066 67.2602 175.392 69.2428C176.474 69.8867 177.128 69.7243 178.045 69.1528C178.701 68.7457 178.943 68.3778 178.894 67.5636C178.662 63.6356 182.829 60.9505 186.321 62.7608C188.257 63.7648 189.249 65.4264 189.099 67.6164C189.044 68.411 189.306 68.7379 189.919 69.1293C190.857 69.7282 191.558 69.8965 192.655 69.2154C195.056 67.728 198.245 68.8044 199.573 71.3193C200.904 73.8401 199.957 76.9597 197.455 78.2906C197.17 78.4432 196.869 78.5685 196.528 78.729C196.528 79.6116 196.528 80.5119 196.528 81.4964C196.76 81.6099 197.045 81.743 197.324 81.8839C200.018 83.2499 200.984 86.5418 199.454 89.135C197.949 91.6832 194.613 92.4739 192.181 90.7751C191.545 90.3308 191.15 90.4385 190.549 90.7555C189.583 91.2663 189.058 91.7634 189.079 93.0727C189.134 96.5075 185.656 98.8619 182.392 97.7933C180.19 97.0731 178.691 94.9496 178.898 92.6265C178.97 91.8261 178.75 91.4131 178.066 91.1352C177.858 91.0491 177.655 90.9316 177.479 90.7907C176.899 90.3249 176.425 90.3484 175.771 90.8025C173.823 92.1588 171.239 91.9063 169.484 90.3034C167.756 88.726 167.233 86.0702 168.475 84.0719C169.029 83.1795 169.948 82.4593 170.833 81.8526C171.326 81.514 171.58 81.2752 171.533 80.6783C171.485 80.0403 171.524 79.3885 171.524 78.7544ZM174.446 81.465C177.057 82.7959 178.287 84.4046 178.098 86.6181C178.014 87.5987 178.324 88.0488 179.121 88.3796C179.359 88.4774 179.587 88.6125 179.794 88.7671C180.219 89.0861 180.543 89.0313 180.992 88.7123C182.899 87.3619 185.062 87.3775 186.993 88.6712C187.201 88.8101 187.506 89.0763 187.641 89.0137C188.371 88.6712 189.114 88.3071 189.739 87.81C189.95 87.6417 189.827 87.0546 189.86 86.6592C189.893 86.2717 189.901 85.8784 189.979 85.5006C190.387 83.475 191.693 82.2244 193.557 81.4964C193.557 80.8857 193.52 80.3299 193.567 79.7819C193.629 79.0637 193.438 78.6664 192.706 78.3141C190.816 77.404 189.817 75.7737 189.903 73.6835C189.944 72.705 189.69 72.1844 188.839 71.8517C188.601 71.7577 188.4 71.5189 188.162 71.4857C187.803 71.4348 187.342 71.3722 187.073 71.5444C184.992 72.8791 183.019 72.8791 180.889 71.4896C180.694 71.3624 180.376 71.2038 180.221 71.2802C179.525 71.6227 178.785 71.9554 178.232 72.476C177.99 72.703 178.166 73.3704 178.141 73.8381C178.127 74.0965 178.107 74.3587 178.061 74.6112C177.666 76.6799 176.401 78.0029 174.448 78.7446C174.448 79.4218 174.448 80.0696 174.448 80.7194C174.446 80.9758 174.446 81.2341 174.446 81.465ZM173.015 84.2892C171.766 84.2716 170.77 85.2305 170.753 86.4674C170.733 87.6965 171.713 88.7123 172.941 88.7377C174.153 88.7612 175.193 87.7591 175.215 86.5438C175.238 85.3167 174.25 84.3048 173.015 84.2892ZM195.058 84.2892C193.815 84.2716 192.807 85.2345 192.782 86.4655C192.757 87.675 193.762 88.7142 194.98 88.7358C196.202 88.7592 197.225 87.767 197.246 86.5418C197.266 85.303 196.301 84.3068 195.058 84.2892ZM173.009 75.9636C174.245 75.9518 175.234 74.9419 175.217 73.7148C175.199 72.5092 174.149 71.4837 172.947 71.5013C171.738 71.5189 170.735 72.5582 170.753 73.7775C170.768 75.0163 171.758 75.9753 173.009 75.9636ZM195.052 75.9597C196.299 75.944 197.264 74.9576 197.246 73.7129C197.229 72.4936 196.19 71.4798 194.988 71.5033C193.774 71.5268 192.764 72.5699 192.784 73.7775C192.804 75.0124 193.805 75.9734 195.052 75.9597ZM181.787 67.4031C181.806 68.642 182.812 69.6244 184.035 69.6029C185.267 69.5794 186.227 68.5754 186.21 67.3307C186.192 66.0781 185.22 65.1368 183.961 65.1524C182.718 65.1681 181.767 66.1506 181.787 67.4031ZM184.026 95.1003C185.271 95.0886 186.226 94.11 186.214 92.8555C186.202 91.6206 185.193 90.6244 183.975 90.642C182.747 90.6596 181.777 91.6656 181.789 92.9083C181.8 94.1609 182.773 95.114 184.026 95.1003Z" fill="url(#paint2_linear_797_235)"/>
<path d="M209.401 76.4985C209.452 77.3772 208.995 78.0035 208.212 78.1248C207.375 78.254 206.797 77.8019 206.53 76.8879C205.903 74.7449 205.513 72.4844 204.564 70.494C201.138 63.3231 195.413 59.0409 187.602 57.5985C186.413 57.3793 185.812 56.7491 185.976 55.845C186.142 54.929 186.928 54.5102 188.101 54.7118C198.929 56.575 207.236 64.744 209.272 75.5356C209.329 75.8526 209.358 76.1775 209.401 76.4985Z" fill="url(#paint3_linear_797_235)"/>
<path d="M182.541 44.4446C182.541 43.5033 182.517 42.5599 182.546 41.6186C182.58 40.6146 183.15 40.0039 183.991 40C184.836 39.9961 185.431 40.6009 185.447 41.6049C185.478 43.5209 185.478 45.4389 185.447 47.3549C185.431 48.3648 184.85 48.9676 184.004 48.9715C183.155 48.9754 182.582 48.3745 182.548 47.3686C182.515 46.3939 182.541 45.4193 182.541 44.4446Z" fill="url(#paint4_linear_797_235)"/>
<path d="M162.57 57.1719C162.301 57.5359 162.088 58.1074 161.702 58.2757C161.274 58.4617 160.495 58.4891 160.201 58.219C158.598 56.755 157.066 55.2109 155.58 53.6276C155.061 53.0737 155.157 52.33 155.705 51.7742C156.287 51.1851 157.027 51.1009 157.626 51.6685C159.154 53.1187 160.628 54.6277 162.098 56.1405C162.303 56.3519 162.365 56.7081 162.57 57.1719Z" fill="url(#paint5_linear_797_235)"/>
<path d="M206.888 58.6769C206.504 58.3677 205.914 58.1172 205.745 57.6964C205.573 57.2697 205.62 56.4967 205.905 56.1816C207.322 54.6237 208.825 53.1421 210.347 51.6841C210.945 51.1146 211.68 51.1733 212.268 51.7565C212.855 52.3397 212.924 53.0971 212.371 53.6862C210.929 55.2226 209.42 56.6963 207.913 58.168C207.7 58.3794 207.353 58.4538 206.888 58.6769Z" fill="url(#paint6_linear_797_235)"/>
<path d="M161.233 101.604C161.582 101.914 162.119 102.174 162.275 102.583C162.433 102.996 162.404 103.728 162.132 104.022C160.663 105.619 159.123 107.155 157.54 108.642C156.974 109.175 156.244 109.034 155.703 108.474C155.16 107.912 155.067 107.173 155.586 106.619C157.071 105.035 158.629 103.519 160.186 102.006C160.395 101.802 160.772 101.775 161.233 101.604Z" fill="url(#paint7_linear_797_235)"/>
<path d="M206.851 101.532C207.367 101.812 207.788 101.939 208.071 102.213C209.471 103.566 210.847 104.942 212.201 106.341C212.879 107.04 212.875 107.928 212.274 108.509C211.653 109.11 210.845 109.089 210.119 108.378C208.75 107.04 207.365 105.713 206.092 104.288C205.752 103.906 205.604 103.143 205.717 102.632C205.813 102.217 206.428 101.92 206.851 101.532Z" fill="url(#paint8_linear_797_235)"/>
<path d="M148.499 78.663C149.438 78.663 150.379 78.6454 151.318 78.667C152.298 78.6904 152.922 79.2737 152.926 80.1191C152.93 80.9666 152.302 81.5733 151.33 81.5831C149.419 81.6046 147.508 81.6026 145.597 81.5831C144.609 81.5733 144.002 80.9901 144 80.1289C143.996 79.2678 144.601 78.6885 145.587 78.665C146.555 78.6454 147.527 78.663 148.499 78.663Z" fill="url(#paint9_linear_797_235)"/>
<path d="M219.552 78.6628C220.525 78.6628 221.497 78.6413 222.467 78.6687C223.394 78.6961 223.978 79.2617 223.997 80.0857C224.019 80.9507 223.413 81.5692 222.445 81.5809C220.501 81.6044 218.559 81.6044 216.615 81.5809C215.699 81.5692 215.096 80.9742 215.075 80.162C215.053 79.3067 215.666 78.6941 216.636 78.6687C217.608 78.6433 218.58 78.6628 219.552 78.6628Z" fill="url(#paint10_linear_797_235)"/>
<defs>
<filter id="filter0_d_797_235" x="0" y="0" width="368" height="180" filterUnits="userSpaceOnUse" color-interpolation-filters="sRGB">
<feFlood flood-opacity="0" result="BackgroundImageFix"/>
<feColorMatrix in="SourceAlpha" type="matrix" values="0 0 0 0 0 0 0 0 0 0 0 0 0 0 0 0 0 0 127 0" result="hardAlpha"/>
<feOffset/>
<feGaussianBlur stdDeviation="5"/>
<feComposite in2="hardAlpha" operator="out"/>
<feColorMatrix type="matrix" values="0 0 0 0 0.156863 0 0 0 0 0.258824 0 0 0 0 0.937255 0 0 0 0.05 0"/>
<feBlend mode="normal" in2="BackgroundImageFix" result="effect1_dropShadow_797_235"/>
<feBlend mode="normal" in="SourceGraphic" in2="effect1_dropShadow_797_235" result="shape"/>
</filter>
<linearGradient id="paint0_linear_797_235" x1="10" y1="10" x2="194.161" y2="288.353" gradientUnits="userSpaceOnUse">
<stop stop-color="#2842EF"/>
<stop offset="1" stop-color="#A25FFD"/>
</linearGradient>
<linearGradient id="paint1_linear_797_235" x1="158.336" y1="54.6528" x2="233.593" y2="97.1263" gradientUnits="userSpaceOnUse">
<stop stop-color="#2842EF"/>
<stop offset="1" stop-color="#A25FFD"/>
</linearGradient>
<linearGradient id="paint2_linear_797_235" x1="167.793" y1="62.1841" x2="204.269" y2="93.2544" gradientUnits="userSpaceOnUse">
<stop stop-color="#2842EF"/>
<stop offset="1" stop-color="#A25FFD"/>
</linearGradient>
<linearGradient id="paint3_linear_797_235" x1="185.949" y1="54.6621" x2="210.096" y2="77.4129" gradientUnits="userSpaceOnUse">
<stop stop-color="#2842EF"/>
<stop offset="1" stop-color="#A25FFD"/>
</linearGradient>
<linearGradient id="paint4_linear_797_235" x1="182.531" y1="40" x2="187.745" y2="41.6113" gradientUnits="userSpaceOnUse">
<stop stop-color="#2842EF"/>
<stop offset="1" stop-color="#A25FFD"/>
</linearGradient>
<linearGradient id="paint5_linear_797_235" x1="155.238" y1="51.2847" x2="162.583" y2="58.4056" gradientUnits="userSpaceOnUse">
<stop stop-color="#2842EF"/>
<stop offset="1" stop-color="#A25FFD"/>
</linearGradient>
<linearGradient id="paint6_linear_797_235" x1="205.645" y1="51.2866" x2="213.221" y2="58.1576" gradientUnits="userSpaceOnUse">
<stop stop-color="#2842EF"/>
<stop offset="1" stop-color="#A25FFD"/>
</linearGradient>
<linearGradient id="paint7_linear_797_235" x1="155.242" y1="101.604" x2="162.803" y2="108.503" gradientUnits="userSpaceOnUse">
<stop stop-color="#2842EF"/>
<stop offset="1" stop-color="#A25FFD"/>
</linearGradient>
<linearGradient id="paint8_linear_797_235" x1="205.68" y1="101.532" x2="213.262" y2="108.33" gradientUnits="userSpaceOnUse">
<stop stop-color="#2842EF"/>
<stop offset="1" stop-color="#A25FFD"/>
</linearGradient>
<linearGradient id="paint9_linear_797_235" x1="144" y1="78.6558" x2="145.888" y2="84.0581" gradientUnits="userSpaceOnUse">
<stop stop-color="#2842EF"/>
<stop offset="1" stop-color="#A25FFD"/>
</linearGradient>
<linearGradient id="paint10_linear_797_235" x1="215.074" y1="78.6548" x2="216.964" y2="84.0582" gradientUnits="userSpaceOnUse">
<stop stop-color="#2842EF"/>
<stop offset="1" stop-color="#A25FFD"/>
</linearGradient>
</defs>
</svg>
