<svg width="60" height="55" viewBox="0 0 60 55" fill="none" xmlns="http://www.w3.org/2000/svg">
<path d="M14.6226 19.6782C15.5329 19.6782 16.4402 19.6661 17.3459 19.6797C19.8766 19.7176 21.6608 21.4851 21.729 24.0203C21.7442 24.5498 21.7412 25.0808 21.7306 25.6103C21.7124 26.5768 21.3755 26.9121 20.3848 26.9181C18.8206 26.9272 17.2549 26.9212 15.6907 26.9212C11.3501 26.9212 7.00948 26.9212 2.66886 26.9212C1.34437 26.9212 1.05914 26.6511 1.08342 25.3297C1.09859 24.5013 1.06825 23.6486 1.25182 22.8521C1.67511 21.0254 3.3349 19.745 5.21467 19.6919C6.21752 19.663 7.22188 19.6873 8.22625 19.6873C8.2839 19.6236 8.34155 19.5599 8.39769 19.4977C8.23687 19.2534 8.1337 18.9151 7.90764 18.78C5.33756 17.2325 4.13444 14.9522 4.15265 11.9801C4.16479 9.98653 4.14658 7.99145 4.1572 5.99789C4.17389 2.99238 6.10069 1.06709 9.08648 1.05799C10.0954 1.05495 11.1058 1.05799 12.1148 1.05799C13.2693 1.05799 14.1417 1.5359 14.7516 2.53419C14.8897 2.75874 15.1597 2.95597 15.4131 3.05003C17.2382 3.72365 18.4444 5.00111 18.5749 6.92488C18.7235 9.10657 18.7053 11.3201 18.5157 13.4988C18.3185 15.7685 17.0167 17.4692 15.0717 18.6511C14.703 18.8726 14.3571 19.0637 14.6226 19.6782ZM16.5676 11.9042C16.8984 10.9848 16.2126 10.3173 15.5132 9.62544C15.2158 9.33111 14.9883 9.28104 14.6014 9.43276C12.7641 10.1519 10.8343 10.3901 8.98787 9.69675C7.7893 9.24615 7.03982 9.54655 6.52854 10.5039C6.24938 11.0273 6.25848 11.7389 6.24938 12.367C6.22358 14.0313 6.87142 15.4271 8.1777 16.4512C9.85417 17.765 11.7309 17.9987 13.6425 17.0702C15.6771 16.0825 16.5995 14.3529 16.5676 11.9042ZM6.25241 7.75022C6.85169 7.07356 7.35539 6.73372 8.0897 7.15094C10.0817 8.28123 12.1481 8.25544 14.1948 7.36334C15.0414 6.99467 15.7848 6.68972 16.4948 7.68498C16.5767 6.16933 15.7089 5.13766 14.2964 4.95863C13.597 4.87063 13.0933 4.65216 13.0159 3.8511C12.9674 3.34284 12.6185 3.13499 12.1148 3.13954C10.9541 3.15016 9.79348 3.1183 8.63437 3.15623C7.38422 3.1972 6.37075 4.14088 6.26303 5.3804C6.20083 6.09954 6.25241 6.82778 6.25241 7.75022ZM8.31576 24.8017C8.31576 24.0886 8.31576 23.415 8.31576 22.7398C8.31576 22.444 8.31576 22.1466 8.31576 21.7431C7.38725 21.7431 6.53916 21.734 5.69106 21.7446C3.83404 21.7673 2.92071 22.8809 3.21656 24.8017C4.88393 24.8017 6.55736 24.8017 8.31576 24.8017ZM19.6536 24.8062C19.7613 23.0873 19.1453 21.9706 17.8921 21.8295C16.8074 21.7067 15.6983 21.8038 14.5817 21.8038C14.5817 22.8309 14.5817 23.817 14.5817 24.8062C16.2991 24.8062 17.9513 24.8062 19.6536 24.8062ZM12.4258 19.6949C11.6899 19.6949 11.0512 19.6949 10.3761 19.6949C10.3837 20.3928 10.1606 21.1241 10.8464 21.5231C11.1316 21.6884 11.6702 21.696 11.9539 21.5322C12.6776 21.1134 12.4091 20.3549 12.4258 19.6949ZM12.4136 23.7366C11.6945 23.7366 11.0588 23.7366 10.4201 23.7366C10.4201 24.0886 10.4201 24.4451 10.4201 24.7926C11.121 24.7926 11.7613 24.7926 12.4136 24.7926C12.4136 24.4011 12.4136 24.0583 12.4136 23.7366Z" fill="white"/>
<path d="M50.7716 47.5789C51.6166 47.5789 52.4693 47.5728 53.3235 47.5804C56.1181 47.6032 57.8932 49.3858 57.9144 52.1865C57.9174 52.666 57.925 53.1454 57.9114 53.6248C57.8886 54.4638 57.5397 54.8203 56.7067 54.8279C55.3185 54.8416 53.9318 54.831 52.5436 54.8325C47.9512 54.8325 43.3602 54.8325 38.7677 54.8325C37.5464 54.8325 37.2551 54.5472 37.2642 53.3199C37.2703 52.5643 37.2142 51.7921 37.3507 51.0562C37.7254 49.0369 39.4353 47.6563 41.5533 47.591C42.506 47.5622 43.4603 47.5865 44.4131 47.5865C44.4677 47.5228 44.5239 47.4605 44.5785 47.3968C44.4116 47.1541 44.2993 46.8218 44.0702 46.6838C41.5335 45.1484 40.3259 42.8954 40.3365 39.9521C40.3441 37.9327 40.3289 35.9149 40.3395 33.8955C40.3547 30.9189 42.2982 28.989 45.287 28.9708C46.2459 28.9647 47.2047 28.9723 48.1636 28.9693C49.397 28.9647 50.3574 29.4275 50.9764 30.5411C51.0811 30.7292 51.3223 30.884 51.5347 30.9598C53.6527 31.726 54.8179 33.3509 54.8315 35.6145C54.8406 37.1544 54.8528 38.6928 54.8285 40.2328C54.786 43.0274 53.5632 45.1605 51.1842 46.6291C50.7124 46.9174 50.7109 46.9144 50.7716 47.5789ZM52.7378 39.7867C53.0853 38.8688 52.3858 38.2589 51.7456 37.5959C51.4422 37.2819 51.204 37.1999 50.7701 37.3653C48.6172 38.1831 46.4492 38.2164 44.2796 37.3865C44.0991 37.3183 43.7835 37.2895 43.6788 37.3941C43.0173 38.0496 42.1632 38.6185 42.418 39.7746C42.4711 40.0158 42.4241 40.2768 42.4317 40.5286C42.4878 42.5571 43.782 44.3974 45.6663 45.1438C49.2089 46.5442 53.0018 43.8254 52.7378 39.7867ZM52.6969 35.6661C52.7484 34.0518 51.8412 33.0004 50.4257 32.8669C49.7323 32.8017 49.2939 32.5362 49.2074 31.7927C49.1497 31.3027 48.8433 31.0448 48.3289 31.0478C47.1698 31.0554 46.0107 31.0281 44.8531 31.0584C43.6682 31.0903 42.6396 31.9445 42.4848 33.1112C42.3816 33.8864 42.4651 34.686 42.4651 35.6615C43.0431 34.9515 43.565 34.6723 44.3221 35.0941C46.3414 36.2229 48.4336 36.1607 50.4909 35.2322C51.3102 34.865 52.0005 34.6647 52.6969 35.6661ZM44.4526 49.668C43.5408 49.668 42.6684 49.662 41.796 49.6695C40.0255 49.6832 39.0651 50.8878 39.4095 52.7024C41.0708 52.7024 42.7397 52.7024 44.4526 52.7024C44.4526 51.6889 44.4526 50.7209 44.4526 49.668ZM50.7261 52.6978C52.4617 52.6978 54.1291 52.6978 55.7873 52.6978C56.0286 51.1306 55.3458 49.8804 54.0411 49.7287C52.9593 49.6028 51.8503 49.7029 50.7245 49.7029C50.7261 50.7179 50.7261 51.6661 50.7261 52.6978ZM46.5508 47.5819C46.5857 48.2889 46.3187 49.046 47.05 49.4587C47.3337 49.6195 47.8768 49.6119 48.1514 49.442C48.8478 49.0081 48.6187 48.2692 48.5929 47.5819C47.9178 47.5819 47.2942 47.5819 46.5508 47.5819ZM48.599 51.6692C47.9072 51.6692 47.2502 51.6692 46.5872 51.6692C46.5872 52.0303 46.5872 52.3458 46.5872 52.6826C47.2897 52.6826 47.9466 52.6826 48.599 52.6826C48.599 52.2958 48.599 51.9756 48.599 51.6692Z" fill="white"/>
<path d="M43.4936 1.05642C47.8842 1.05642 52.2734 1.05491 56.6641 1.05642C58.8564 1.05794 59.9973 2.21706 59.9988 4.43516C60.0004 8.72571 60.0004 13.0147 59.9988 17.3053C59.9988 19.5583 58.8503 20.7174 56.6095 20.7189C48.485 20.722 40.3606 20.725 32.2362 20.7083C31.6885 20.7068 31.2895 20.8433 30.9162 21.2515C30.2699 21.9585 29.5614 22.6093 28.8938 23.2966C28.5146 23.688 28.0366 24.0127 27.5694 23.685C27.2416 23.4559 26.9458 22.9264 26.9428 22.5289C26.9048 16.3722 26.9003 10.2141 26.9276 4.05738C26.9352 2.22768 28.1762 1.06401 30.0196 1.05946C34.5104 1.05036 39.0027 1.05642 43.4936 1.05642ZM28.9697 20.2486C29.2792 19.9619 29.4506 19.845 29.5675 19.6873C30.2138 18.8134 31.0664 18.6055 32.136 18.6101C40.2817 18.651 48.4289 18.6328 56.5761 18.6313C57.7049 18.6313 57.9142 18.4295 57.9158 17.3265C57.9188 13.0375 57.9188 8.74999 57.9158 4.46095C57.9158 3.32611 57.7291 3.13798 56.6004 3.13798C47.8478 3.13646 39.0968 3.13646 30.3443 3.13798C29.1836 3.13798 28.9712 3.34887 28.9712 4.49585C28.9697 9.46609 28.9712 14.4348 28.9712 19.4051C28.9697 19.6235 28.9697 19.8405 28.9697 20.2486Z" fill="white"/>
<path d="M16.5916 28.9663C20.9565 28.9663 25.3198 28.9648 29.6847 28.9678C31.9878 28.9693 33.1105 30.0966 33.112 32.4148C33.115 37.9661 33.1135 43.5175 33.112 49.0673C33.112 49.2691 33.1697 49.5042 33.0877 49.665C32.9163 50.0003 32.7282 50.4494 32.4338 50.5662C32.141 50.6831 31.6085 50.5662 31.3551 50.3493C30.5556 49.659 29.8152 48.8928 29.0961 48.116C28.7213 47.7109 28.3284 47.5653 27.7776 47.5668C19.679 47.585 11.5819 47.5334 3.48323 47.6078C1.24237 47.629 -0.047226 46.127 0.00132339 44.1046C0.0953879 40.1706 0.0271153 36.2335 0.0301496 32.2965C0.0316668 30.1497 1.19989 28.9709 3.34668 28.9678C7.76316 28.9617 12.1781 28.9663 16.5916 28.9663ZM31.0578 46.9994C31.0578 41.9654 31.0654 36.9997 31.0502 32.0325C31.0487 31.2845 30.6967 31.0494 29.7591 31.0494C20.9823 31.0479 12.2054 31.0479 3.42861 31.0494C2.31501 31.0494 2.11474 31.2512 2.11474 32.3799C2.11171 36.2396 2.11322 40.0993 2.11322 43.959C2.11322 45.4048 2.23156 45.5247 3.65011 45.5247C11.4681 45.5247 19.2876 45.5505 27.1055 45.5019C28.5817 45.4928 29.9153 45.5672 30.8226 46.9205C30.8423 46.9508 30.9091 46.9523 31.0578 46.9994Z" fill="white"/>
<path d="M20.7469 2.19583C20.1568 2.21404 19.6258 1.71944 19.606 1.1323C19.5863 0.546672 20.087 0.0202147 20.6787 0.00049147C21.2704 -0.0177146 21.7953 0.472331 21.8165 1.06554C21.8378 1.65421 21.3432 2.17763 20.7469 2.19583Z" fill="white"/>
<path d="M36.2412 25.982C35.6283 25.9942 35.1382 25.5087 35.1367 24.8866C35.1352 24.298 35.5813 23.8185 36.1593 23.7867C36.7616 23.7533 37.2805 24.2327 37.3002 24.8441C37.3214 25.4662 36.8542 25.9684 36.2412 25.982Z" fill="white"/>
<path d="M43.4182 7.26771C47.4296 7.26771 51.441 7.2662 55.4524 7.26771C56.5796 7.26771 56.8861 7.56963 56.8937 8.70144C56.9013 9.86207 56.9073 11.0227 56.8906 12.1833C56.877 13.1179 56.525 13.4684 55.6026 13.4699C47.5039 13.4745 39.4053 13.4745 31.3066 13.4699C30.3903 13.4699 30.0261 13.0967 30.0185 12.1818C30.0094 10.9711 30.0094 9.75891 30.0185 8.5482C30.0261 7.63183 30.3872 7.27075 31.3066 7.26923C35.3438 7.26468 39.381 7.26771 43.4182 7.26771ZM39.3658 11.3201C44.5485 11.3201 49.6719 11.3201 54.7878 11.3201C54.7878 10.6373 54.7878 10.0199 54.7878 9.37354C49.6295 9.37354 44.5227 9.37354 39.3658 9.37354C39.3658 10.029 39.3658 10.6464 39.3658 11.3201ZM32.1395 11.3307C33.8555 11.3307 35.5274 11.3307 37.2205 11.3307C37.2205 10.6586 37.2205 10.0411 37.2205 9.39327C35.5031 9.39327 33.8327 9.39327 32.1395 9.39327C32.1395 10.0684 32.1395 10.6859 32.1395 11.3307Z" fill="white"/>
<path d="M12.4425 38.7444C12.4425 37.1165 12.4334 35.7192 12.4455 34.3218C12.4531 33.495 12.9492 33.0262 13.6562 33.1582C14.2919 33.2765 14.5028 33.7408 14.5104 34.3203C14.5225 35.3793 14.515 36.4383 14.515 37.4973C14.515 39.0357 14.5119 40.5726 14.5165 42.111C14.518 42.7118 14.3784 43.2337 13.7245 43.4112C13.1025 43.5796 12.7368 43.2034 12.4379 42.7224C11.5868 41.3539 10.7327 39.987 9.87545 38.6215C9.74801 38.4182 9.60539 38.2225 9.33079 38.0556C9.33079 39.2542 9.3323 40.4527 9.32927 41.6513C9.32775 41.9532 9.33837 42.2597 9.29741 42.557C9.217 43.1472 8.83164 43.4658 8.26118 43.4415C7.69376 43.4173 7.29778 43.0714 7.29323 42.4797C7.27502 39.682 7.26137 36.8828 7.3175 34.0852C7.32357 33.7726 7.73321 33.3433 8.0594 33.1946C8.54641 32.9716 8.97274 33.272 9.25493 33.7256C10.1334 35.1366 11.0148 36.5475 11.8978 37.9555C12.0268 38.1573 12.1694 38.3499 12.4425 38.7444Z" fill="white"/>
<path d="M17.6029 38.2741C17.6029 37.3911 17.5893 36.5081 17.606 35.6266C17.6348 34.1717 18.6376 33.1673 20.088 33.1369C20.8694 33.1203 21.6522 33.1172 22.4321 33.1385C23.7702 33.1764 24.8019 34.1322 24.8353 35.4673C24.8823 37.3577 24.8853 39.2511 24.8322 41.14C24.7958 42.4357 23.7793 43.393 22.4791 43.4522C21.6492 43.4901 20.8148 43.4901 19.9834 43.4522C18.6255 43.393 17.656 42.3704 17.6044 40.9974C17.6029 40.9473 17.6029 40.8973 17.6029 40.8457C17.6029 39.9885 17.6029 39.1313 17.6029 38.2741ZM22.7658 38.2999C22.7658 37.4927 22.7446 36.6841 22.7734 35.877C22.7932 35.3444 22.5701 35.1502 22.0588 35.1715C21.5051 35.1942 20.9483 35.1942 20.3945 35.1715C19.8802 35.1502 19.6693 35.3505 19.6814 35.8785C19.7072 36.9375 19.689 37.998 19.689 39.0585C19.689 41.4844 19.689 41.4738 22.0998 41.3843C22.5777 41.3661 22.7871 41.2174 22.7719 40.7213C22.7476 39.9157 22.7643 39.107 22.7658 38.2999Z" fill="white"/>
</svg>
