<svg width="60" height="60" viewBox="0 0 60 60" fill="none" xmlns="http://www.w3.org/2000/svg">
<path d="M0.00352156 26.7169C0.515321 25.9749 0.781786 25.8939 1.62461 26.2626C6.39397 28.3464 11.1622 30.4338 15.9315 32.5165C16.4116 32.7266 16.853 32.9427 16.8823 33.5731C16.887 33.6717 17.1077 33.8067 17.2498 33.8455C18.0398 34.0591 18.8368 34.2482 19.6315 34.4477C20.5694 34.6837 20.803 35.1287 20.4567 36.0397C18.6196 40.8672 16.779 45.6947 14.942 50.5222C14.8751 50.6972 14.8234 50.8768 14.7471 51.1057C16.637 50.0609 17.4622 50.1207 18.9436 51.3922C19.8945 50.7993 20.918 50.6537 21.9111 51.2501C22.3771 51.5295 22.6671 52.1494 23.1472 52.3467C23.6062 52.5345 24.2236 52.2891 24.7448 52.3842C25.6452 52.5498 26.2826 53.1285 26.6277 53.9785C26.7462 54.2697 26.8847 54.3742 27.2064 54.4141C28.284 54.5479 28.9613 55.2382 29.2454 56.3136C29.3087 56.552 29.52 56.8126 29.736 56.9359C30.3957 57.3127 31.086 57.6356 31.7715 57.9631C32.3385 58.2343 32.8913 58.0758 33.1308 57.5968C33.3703 57.1178 33.1684 56.5848 32.6084 56.2855C31.9546 55.9368 31.2867 55.6151 30.6329 55.2652C30.0483 54.953 29.8593 54.4622 30.107 53.9656C30.3676 53.442 30.8864 53.3 31.505 53.6099C33.004 54.3613 34.4937 55.1326 35.995 55.8792C36.6418 56.2009 37.0092 56.1047 37.2804 55.6034C37.6525 54.9142 37.5774 54.6078 36.8695 54.238C35.7285 53.6428 34.5723 53.0757 33.4219 52.4981C32.5603 52.0649 32.2962 51.6106 32.5779 51.0412C32.8667 50.4565 33.3855 50.3849 34.2378 50.8122C35.6159 51.5014 36.9916 52.194 38.3709 52.8797C39.1574 53.2706 39.5741 53.1274 39.9755 52.3384C40.0554 52.1823 40.1364 52.0262 40.208 51.8665C40.5096 51.1985 40.3676 50.7441 39.7161 50.4107C38.3615 49.7204 36.9975 49.0465 35.637 48.3656C35.1569 48.1249 34.8411 47.7821 34.9949 47.2033C35.1639 46.567 35.7778 46.3428 36.454 46.6774C38.0269 47.4557 39.5964 48.2412 41.16 49.0383C41.6307 49.2778 42.1378 49.549 42.5533 49.0888C43.0017 48.591 43.4384 48.0017 43.2412 47.2573C43.1191 46.7948 43.0217 46.3733 43.422 46.0188C43.8176 45.6689 44.2155 45.7616 44.6639 45.9835C44.8576 46.0798 45.171 45.9331 45.5208 45.8849C44.1932 42.0999 42.8949 38.3994 41.6178 34.7577C40.458 34.9338 39.3628 35.2461 38.2723 35.2285C36.9376 35.2085 35.6029 34.935 34.2753 34.7283C33.4372 34.598 32.6577 34.6532 31.89 35.0477C30.1903 35.9199 28.4589 36.7335 26.7744 37.6352C26.3389 37.8676 25.9292 38.2774 25.6827 38.707C25.0805 39.7531 24.5699 40.8531 24.0487 41.9438C23.9618 42.1246 24.0088 42.3688 23.9935 42.5848C24.2154 42.5343 24.4877 42.5496 24.6509 42.4239C25.8107 41.5305 26.9352 40.5913 28.0997 39.7049C28.446 39.442 28.8662 39.2483 29.2817 39.1109C29.891 38.909 30.5237 38.7775 31.1505 38.6319C32.3396 38.3572 33.4301 38.5626 34.4174 39.3011C36.0584 40.5291 37.6959 41.763 39.3557 42.964C40.0178 43.443 40.7315 43.8515 41.4323 44.2754C42.045 44.6463 42.2446 45.1089 41.977 45.6208C41.7058 46.1385 41.1189 46.3064 40.5202 45.9025C38.6608 44.651 36.8296 43.3561 34.9937 42.0682C34.4185 41.6644 33.8774 41.2124 33.2963 40.8179C33.0299 40.6371 32.7012 40.4281 32.403 40.4317C31.2092 40.4446 30.0224 40.6207 29.0341 41.3509C27.9048 42.1868 26.8354 43.1025 25.732 43.9725C24.7882 44.7156 23.6672 44.7485 22.8267 44.0781C21.9757 43.4007 21.7679 42.303 22.3008 41.2218C22.8702 40.0677 23.4547 38.9207 24.0264 37.7678C24.4232 36.9695 25.0242 36.3837 25.8212 35.988C27.4951 35.158 29.1655 34.3198 30.8324 33.4181C30.0483 33.1916 29.2371 33.1364 28.4718 33.3489C27.2158 33.6964 25.9891 34.1519 24.7577 34.5804C24.3281 34.7295 23.9513 34.7154 23.6261 34.382C23.2165 33.9617 23.2669 33.1998 23.8081 32.9755C26.4093 31.8966 29.0235 30.7719 31.9393 31.6747C32.6624 31.899 33.348 32.2406 34.0499 32.5306C36.0091 33.3395 38.0058 33.6248 40.1047 33.1176C43.0393 32.4085 45.7556 31.1053 48.5634 30.0546C51.8491 28.8242 55.1065 27.5176 58.3769 26.2485C59.4744 25.8223 59.9991 26.1921 59.9991 27.3861C60.0003 32.1314 60.0003 36.8768 59.9991 41.6221C59.9991 42.5003 59.8536 42.7045 59.0354 42.9957C54.5747 44.5876 50.1153 46.1855 45.6499 47.7657C45.3025 47.8889 45.1464 48.0674 45.0231 48.4196C44.5817 49.6817 44.0054 50.8474 42.5064 51.1668C42.3855 51.1926 42.2552 51.4204 42.2211 51.5742C41.795 53.5512 40.9193 54.6677 39.4426 54.9776C38.9109 57.6086 37.6807 58.3529 35.0818 57.5933C34.8528 58.8894 34.0112 59.6149 32.8115 60C32.4605 60 32.1084 60 31.7574 60C30.9674 59.6255 30.1668 59.2721 29.3909 58.8706C28.9507 58.6429 28.6232 58.5161 28.149 58.9058C27.8508 59.15 27.278 59.2404 26.8871 59.1489C26.2579 59.0021 25.6768 58.6499 25.0758 58.3822C24.9244 58.3141 24.7824 58.2214 24.6274 58.1662C23.6977 57.8351 22.7622 57.5205 21.836 57.1777C21.6094 57.0943 21.4275 56.8854 21.2009 56.8044C20.29 56.4768 19.3627 56.1904 18.4541 55.8569C18.2088 55.7665 18.0233 55.5118 17.778 55.4261C17.0479 55.1725 16.3013 54.9647 15.5606 54.7393C14.7706 54.4974 14.206 54.0231 13.99 53.0475C13.6789 53.8506 13.4207 54.5197 13.1601 55.1878C12.8361 56.0178 12.4628 56.1962 11.6188 55.9086C10.0681 55.3815 8.50926 54.879 6.97855 54.2979C6.41745 54.0854 6.20146 54.2262 5.97139 54.7228C5.5711 55.5893 5.10743 56.4275 4.65902 57.2704C4.33621 57.8762 3.95706 58.0289 3.30322 57.8211C2.52261 57.5733 1.73495 57.3421 0.976645 57.038C0.61862 56.8948 0.323983 56.5954 0 56.3676C0.00352156 46.4813 0.00352156 36.5985 0.00352156 26.7169ZM1.87816 28.4157C1.87816 28.7421 1.87816 28.971 1.87816 29.1999C1.87816 37.6352 1.88873 46.0716 1.85821 54.5068C1.85586 55.2007 2.06363 55.486 2.70338 55.6714C3.17997 55.8088 3.36896 55.7231 3.59199 55.2887C5.82348 50.9543 8.07845 46.6316 10.3287 42.3065C11.7597 39.5558 13.1906 36.8063 14.6473 34.0051C10.4015 32.1467 6.17799 30.2976 1.87816 28.4157ZM58.1268 28.3605C55.3694 29.4324 52.6895 30.4737 49.958 31.5362C51.2492 35.3353 52.524 39.0862 53.8059 42.8572C54.8541 42.4873 55.8284 42.1457 56.8004 41.7982C58.128 41.3239 58.1268 41.3216 58.1268 39.8846C58.1268 36.0808 58.1268 32.2758 58.1268 28.3605ZM18.4365 36.0808C17.7616 35.9141 17.1289 35.799 16.5267 35.5936C16.0865 35.4433 15.9186 35.6018 15.7296 35.9669C12.9805 41.2816 10.2172 46.5893 7.45866 51.8994C7.38118 52.0485 7.31897 52.2058 7.22623 52.4112C8.71585 52.9231 10.1609 53.4185 11.6376 53.9257C13.9113 47.9606 16.1628 42.0518 18.4365 36.0808ZM43.375 34.0944C44.6815 37.816 45.9692 41.4836 47.2722 45.1958C48.8874 44.6205 50.4416 44.0676 52.0416 43.4982C50.7562 39.7167 49.4873 35.9845 48.2054 32.2148C46.5644 32.8534 44.9914 33.4663 43.375 34.0944ZM22.8737 55.6174C23.4524 55.8464 24.0018 56.0636 24.5429 56.2772C25.1568 55.1279 25.1028 54.5092 24.402 54.2215C23.7247 53.9433 23.2998 54.3178 22.8737 55.6174ZM19.3686 54.2262C19.9672 54.4622 20.5142 54.6794 21.0883 54.906C21.3277 54.2885 21.7656 53.7496 21.3101 53.1673C21.1387 52.9489 20.742 52.7705 20.4685 52.7951C19.6867 52.8656 19.6374 53.5982 19.3686 54.2262ZM17.5984 53.523C17.7064 52.8421 17.4881 52.4089 17.0009 52.2938C16.5231 52.1811 16.1463 52.329 15.9022 52.8491C16.4821 53.0792 17.015 53.2917 17.5984 53.523ZM26.2297 56.9452C26.6335 57.1061 26.8906 57.2094 27.2815 57.3644C27.3003 57.018 27.3555 56.7468 27.3073 56.4956C27.2885 56.3958 26.9704 56.2408 26.9059 56.2843C26.6781 56.4381 26.5021 56.667 26.2297 56.9452Z" fill="white"/>
<path d="M44.0657 14.0364C44.0775 21.8119 37.7727 28.1245 29.9971 28.1222C22.2474 28.1198 15.952 21.8307 15.9414 14.0834C15.9332 6.30677 22.2344 -0.00234736 30.01 6.55169e-07C37.7622 0.00234867 44.054 6.28564 44.0657 14.0364ZM30.0276 1.87489C23.3026 1.8655 17.8325 7.3082 17.8184 14.0223C17.8043 20.7482 23.2404 26.225 29.9525 26.2473C36.7045 26.2696 42.1888 20.8128 42.1911 14.0693C42.1946 7.34459 36.7479 1.88428 30.0276 1.87489Z" fill="white"/>
<path d="M29.4539 24.3688C26.0462 24.1998 22.9495 22.5538 21.0303 19.0964C19.1216 15.6589 19.219 12.1545 21.1782 8.7299C21.7381 7.75077 22.311 7.69912 23.1174 8.50449C27.2717 12.657 31.4248 16.8094 35.5767 20.9642C36.3561 21.7449 36.2892 22.2991 35.356 22.8649C33.7102 23.8629 31.8884 24.37 29.4539 24.3688ZM33.486 21.6815C29.7849 17.9811 26.072 14.27 22.3708 10.5684C20.9986 13.0021 21.2322 17.2356 24.0553 20.0415C26.8221 22.7933 31.0069 23.0692 33.486 21.6815Z" fill="white"/>
<path d="M30.5875 3.75565C33.9213 3.91649 37.005 5.5378 38.9372 8.96355C40.8705 12.3917 40.7872 15.8937 38.8644 19.3312C38.2763 20.3831 37.7105 20.4383 36.8559 19.5836C32.7298 15.4582 28.6037 11.3327 24.4788 7.20723C23.6243 6.35256 23.6935 5.81486 24.7347 5.19499C26.3159 4.25343 28.1753 3.74743 30.5875 3.75565ZM26.5436 6.41713C30.253 10.1329 33.9553 13.8439 37.6471 17.542C39.0229 15.052 38.7341 10.8666 35.9732 8.09948C33.2569 5.37813 29.1155 5.02593 26.5436 6.41713Z" fill="white"/>
</svg>
