<svg width="24" height="24" viewBox="0 0 24 24" fill="none" xmlns="http://www.w3.org/2000/svg">
<path d="M0 21.5597C0 21.3406 0 21.1223 0 20.9032C0.132845 19.9897 0.706491 19.3591 1.33276 18.7389C3.52642 16.5694 5.70024 14.3809 7.88441 12.2028C7.94911 12.139 8.04572 12.107 8.12767 12.0605C8.11387 12.026 8.10006 11.9906 8.08626 11.9561C8.01812 11.9035 7.94393 11.8577 7.88355 11.7974C5.5579 9.47344 3.23399 7.1478 0.906621 4.82474C0.546043 4.46503 0.265689 4.06046 0.120768 3.56962C0.0733233 3.41435 0.0396808 3.25476 0 3.0969C0 2.8778 0 2.65955 0 2.44044C0.0155273 2.38955 0.0353677 2.33865 0.0448566 2.2869C0.198404 1.48465 0.615915 0.856662 1.30688 0.425349C2.43778 -0.279417 3.81367 -0.0965402 4.79707 0.885991C7.12961 3.21422 9.45956 5.54504 11.7878 7.87758C11.8525 7.94228 11.8956 8.03026 11.9482 8.10704C11.9819 8.10704 12.0155 8.10704 12.0492 8.10704C12.1018 8.03026 12.1449 7.94228 12.2096 7.87758C14.5111 5.5735 16.8143 3.27115 19.1175 0.968804C19.2116 0.874777 19.3056 0.781614 19.4048 0.693626C20.7772 -0.521815 22.9614 -0.0637603 23.7326 1.59938C24.2433 2.70096 24.0147 3.89915 23.1149 4.80059C20.7859 7.13227 18.455 9.46222 16.1225 11.7905C16.0578 11.8552 15.9698 11.8974 15.8827 11.9569C15.9922 12.0725 16.0483 12.1346 16.1087 12.1942C18.4171 14.5026 20.7255 16.8101 23.0339 19.1185C23.1279 19.2125 23.221 19.3065 23.309 19.4057C24.6461 20.9188 23.9293 23.3522 21.9884 23.8914C21.8469 23.9302 21.7037 23.9621 21.5614 23.9966C21.3422 23.9966 21.124 23.9966 20.9049 23.9966C19.9991 23.8672 19.372 23.3013 18.7578 22.6803C16.5823 20.4814 14.3869 18.3024 12.2027 16.1131C12.1389 16.0484 12.107 15.9518 12.0604 15.8698C12.025 15.8836 11.9905 15.8974 11.9551 15.9112C11.9025 15.9794 11.8568 16.0544 11.7973 16.1139C9.47337 18.4404 7.146 20.7635 4.82295 23.0909C4.46323 23.4514 4.0578 23.7309 3.56696 23.8759C3.41083 23.9224 3.2521 23.9561 3.09424 23.9958C2.87513 23.9958 2.65689 23.9958 2.43778 23.9958C2.40242 23.982 2.36791 23.9621 2.33082 23.9552C1.23614 23.7516 0.50895 23.1185 0.138883 22.0738C0.0793617 21.9082 0.0457192 21.7322 0 21.5597Z" fill="black"/>
</svg>
