<svg width="60" height="60" viewBox="0 0 60 60" fill="none" xmlns="http://www.w3.org/2000/svg">
<path d="M6.95717 59.9988C6.12886 59.7534 5.24801 59.6078 4.47956 59.2427C1.6733 57.91 0.197483 55.6886 0.0191138 52.6863C-0.0199807 52.0288 0.0130053 51.3666 0.0130053 50.6704C10.7933 50.6704 21.5297 50.6704 32.2916 50.6704C32.3369 51.5627 32.3234 52.441 32.437 53.3039C32.7791 55.8952 35.1321 58.0087 37.8516 58.2247C40.5895 58.4419 43.243 56.75 44.0127 54.2221C44.2314 53.5035 44.3389 52.7286 44.3401 51.9783C44.3584 37.4485 44.3731 22.9187 44.3364 8.38881C44.3303 5.83274 44.9864 3.61246 47.117 1.79256C46.8177 1.77729 46.6308 1.76086 46.4439 1.76086C38.2548 1.75968 30.0657 1.75616 21.8754 1.76203C18.3056 1.76438 15.6899 4.2594 15.6569 7.7043C15.6325 10.224 15.652 12.7425 15.652 15.2622C15.652 26.2966 15.652 37.3311 15.652 48.3644C15.652 48.6145 15.652 48.8634 15.652 49.151C15.0302 49.151 14.4731 49.151 13.8537 49.151C13.8427 48.9256 13.8231 48.7178 13.8231 48.51C13.8219 34.9758 13.8195 21.4416 13.8231 7.90742C13.8244 4.00931 16.181 1.04111 19.9549 0.202787C20.5816 0.0630655 21.2413 0.0114039 21.8864 0.0102297C31.9044 -0.00151156 41.9223 -0.00268568 51.9415 0.00435909C56.584 0.00788148 59.9791 3.27313 59.9975 7.72895C60.0023 8.89839 59.9987 10.069 59.9987 11.2725C55.884 11.2725 51.8108 11.2725 47.7144 11.2725C47.7144 10.7101 47.7144 10.1864 47.7144 9.5512C49.4541 9.5512 51.1877 9.5512 52.9226 9.5512C54.6464 9.5512 56.3714 9.5512 58.1124 9.5512C58.3763 6.96694 58.0403 4.65391 55.7704 2.92911C52.7124 0.606687 47.7719 1.97337 46.5893 5.5392C46.329 6.32235 46.202 7.18064 46.2008 8.00487C46.1775 22.6909 46.1812 37.3769 46.1861 52.0641C46.1873 55.1027 44.9363 57.4921 42.1642 59.0067C41.2871 59.4857 40.2388 59.6771 39.27 60C28.4995 59.9988 17.7289 59.9988 6.95717 59.9988ZM30.508 52.4339C20.9005 52.4339 11.3834 52.4339 1.84556 52.4339C1.84556 52.5725 1.84312 52.6687 1.84556 52.765C1.94085 55.7614 4.66159 58.2318 7.92598 58.2365C16.214 58.2482 24.5021 58.2412 32.7901 58.2388C32.9184 58.2388 33.0479 58.22 33.2763 58.2024C31.4438 56.6197 30.5764 54.7059 30.508 52.4339Z" fill="white"/>
<path d="M18.6876 23.3061C18.6656 17.3638 23.7454 12.4583 29.9553 12.4242C36.1665 12.3902 41.2952 17.2875 41.3184 23.2755C41.3416 29.2401 36.2019 34.1726 29.9871 34.1503C23.7625 34.1292 18.7096 29.2789 18.6876 23.3061ZM30.0164 32.3927C35.2319 32.3762 39.4712 28.309 39.4883 23.3061C39.5054 18.3055 35.2026 14.1725 29.9883 14.1807C24.768 14.1901 20.4639 18.3489 20.5165 23.3319C20.5702 28.356 24.8217 32.4103 30.0164 32.3927Z" fill="white"/>
<path d="M36.678 45.0006C36.678 45.5571 36.678 46.0961 36.678 46.6761C31.0154 46.6761 25.3601 46.6761 19.6719 46.6761C19.6719 46.116 19.6719 45.5795 19.6719 45.0006C25.3394 45.0006 30.9922 45.0006 36.678 45.0006Z" fill="white"/>
<path d="M31.8728 42.9869C27.7581 42.9869 23.7009 42.9869 19.6094 42.9869C19.6094 42.4069 19.6094 41.8515 19.6094 41.275C23.7082 41.275 27.7667 41.275 31.8728 41.275C31.8728 41.8363 31.8728 42.3893 31.8728 42.9869Z" fill="white"/>
<path d="M29.3555 39.2684C29.3555 38.6919 29.3555 38.1717 29.3555 37.6082C33.0438 37.6082 36.7016 37.6082 40.3972 37.6082C40.3972 38.167 40.3972 38.7024 40.3972 39.2684C36.7016 39.2684 33.0316 39.2684 29.3555 39.2684Z" fill="white"/>
<path d="M42.4134 4.95447C39.4947 4.95447 36.6384 4.95447 33.7344 4.95447C33.7344 4.39558 33.7344 3.86136 33.7344 3.27429C36.6103 3.27429 39.4984 3.27429 42.4134 3.27429C42.4134 3.82613 42.4134 4.36623 42.4134 4.95447Z" fill="white"/>
<path d="M33.7148 42.9764C33.7148 42.3928 33.7148 41.8704 33.7148 41.3009C35.9359 41.3009 38.1362 41.3009 40.3866 41.3009C40.3866 41.8363 40.3866 42.3881 40.3866 42.9764C38.1753 42.9764 35.9738 42.9764 33.7148 42.9764Z" fill="white"/>
<path d="M27.6094 4.93448C27.6094 4.35446 27.6094 3.83432 27.6094 3.26721C28.2019 3.26721 28.7749 3.26721 29.3833 3.26721C29.3833 3.81788 29.3833 4.35211 29.3833 4.93448C28.8054 4.93448 28.2361 4.93448 27.6094 4.93448Z" fill="white"/>
<path d="M32.438 3.26257C32.438 3.8696 32.438 4.38974 32.438 4.94275C31.8381 4.94275 31.2651 4.94275 30.6641 4.94275C30.6641 4.36978 30.6641 3.83555 30.6641 3.26257C31.2651 3.26257 31.8381 3.26257 32.438 3.26257Z" fill="white"/>
<path d="M49.1089 5.89612C49.1089 6.48083 49.1089 7.00097 49.1089 7.56925C48.5237 7.56925 47.9544 7.56925 47.3398 7.56925C47.3398 7.0315 47.3398 6.48201 47.3398 5.89612C47.914 5.89612 48.4846 5.89612 49.1089 5.89612Z" fill="white"/>
<path d="M50.3789 7.57975C50.3789 7.02556 50.3789 6.49016 50.3789 5.90662C50.9409 5.90662 51.5126 5.90662 52.1308 5.90662C52.1308 6.44319 52.1308 6.99151 52.1308 7.57975C51.553 7.57975 50.9824 7.57975 50.3789 7.57975Z" fill="white"/>
<path d="M53.4414 5.8855C54.0352 5.8855 54.5923 5.8855 55.186 5.8855C55.186 6.45965 55.186 7.00797 55.186 7.58799C54.602 7.58799 54.0449 7.58799 53.4414 7.58799C53.4414 7.03732 53.4414 6.489 53.4414 5.8855Z" fill="white"/>
<path d="M19.6172 8.64954C20.2085 8.64954 20.7497 8.64954 21.3471 8.64954C21.3471 9.20725 21.3471 9.75674 21.3471 10.3426C20.7766 10.3426 20.2195 10.3426 19.6172 10.3426C19.6172 9.78609 19.6172 9.25304 19.6172 8.64954Z" fill="white"/>
<path d="M22.6562 10.3333C22.6562 9.75676 22.6562 9.22135 22.6562 8.65308C23.2512 8.65308 23.8083 8.65308 24.4057 8.65308C24.4057 9.21901 24.4057 9.75323 24.4057 10.3333C23.834 10.3333 23.2793 10.3333 22.6562 10.3333Z" fill="white"/>
<path d="M27.4613 8.62126C27.4613 9.23885 27.4613 9.77425 27.4613 10.3437C26.8675 10.3437 26.3105 10.3437 25.6715 10.3437C25.6715 9.85762 25.6458 9.39501 25.6898 8.93827C25.7008 8.82203 25.9244 8.64826 26.0637 8.63535C26.5023 8.5966 26.9482 8.62126 27.4613 8.62126Z" fill="white"/>
<path d="M23.2773 37.6C23.8662 37.6 24.4233 37.6 25.0183 37.6C25.0183 38.1694 25.0183 38.7037 25.0183 39.2802C24.4392 39.2802 23.8833 39.2802 23.2773 39.2802C23.2773 38.726 23.2773 38.1776 23.2773 37.6Z" fill="white"/>
<path d="M28.0676 37.6188C28.0676 38.1718 28.0676 38.706 28.0676 39.2825C27.4861 39.2825 26.929 39.2825 26.3242 39.2825C26.3242 38.7389 26.3242 38.207 26.3242 37.6188C26.8935 37.6188 27.4616 37.6188 28.0676 37.6188Z" fill="white"/>
<path d="M19.6406 56.0854C19.6406 55.5136 19.6406 54.9759 19.6406 54.4076C22.85 54.4076 26.0265 54.4076 29.2408 54.4076C29.2408 54.9594 29.2408 55.4972 29.2408 56.0854C26.0705 56.0854 22.8806 56.0854 19.6406 56.0854Z" fill="white"/>
<path d="M13.5508 54.4065C14.1421 54.4065 14.7004 54.4065 15.3003 54.4065C15.3003 54.9619 15.3003 55.4984 15.3003 56.0855C14.7334 56.0855 14.1629 56.0855 13.5508 56.0855C13.5508 55.536 13.5508 54.9853 13.5508 54.4065Z" fill="white"/>
<path d="M18.3576 54.417C18.3576 54.9817 18.3576 55.5183 18.3576 56.0948C17.7651 56.0948 17.1921 56.0948 16.5898 56.0948C16.5898 55.5312 16.5898 54.9935 16.5898 54.417C17.1628 54.417 17.7224 54.417 18.3576 54.417Z" fill="white"/>
<path d="M33.0113 31.0284C30.9906 31.0284 29.0248 31.0284 27.0078 31.0284C27.0078 28.0696 27.0078 25.1179 27.0078 22.1191C28.9821 22.1191 30.9759 22.1191 33.0113 22.1191C33.0113 25.0732 33.0113 28.0227 33.0113 31.0284ZM28.8367 23.858C28.8367 25.7049 28.8367 27.4837 28.8367 29.2496C29.6504 29.2496 30.4115 29.2496 31.1824 29.2496C31.1824 27.4356 31.1824 25.658 31.1824 23.858C30.3809 23.858 29.6198 23.858 28.8367 23.858Z" fill="white"/>
<path d="M26.9727 21.3676C26.9727 19.4303 26.9727 17.54 26.9727 15.6027C28.986 15.6027 30.9811 15.6027 33.014 15.6027C33.014 17.5094 33.014 19.4151 33.014 21.3676C31.0238 21.3676 29.0276 21.3676 26.9727 21.3676ZM31.1949 17.3474C30.3666 17.3474 29.6042 17.3474 28.8321 17.3474C28.8321 18.127 28.8321 18.8726 28.8321 19.6205C29.6433 19.6205 30.4056 19.6205 31.1949 19.6205C31.1949 18.8527 31.1949 18.12 31.1949 17.3474Z" fill="white"/>
<path d="M35.8817 28.8621C35.4248 28.4348 35.0216 28.0579 34.5781 27.6434C35.6606 26.4939 36.3264 25.166 36.407 23.5586C37.035 23.5915 37.5957 23.6208 38.2286 23.6537C38.1369 25.7002 37.3294 27.3933 35.8817 28.8621Z" fill="white"/>
<path d="M35.9134 17.7185C36.3019 18.1987 36.6953 18.6825 37.1278 19.2167C36.5622 19.5408 36.0662 19.8249 35.5592 20.1149C35.2183 19.6934 34.9092 19.3118 34.5781 18.9032C35.0069 18.5216 35.4235 18.1529 35.9134 17.7185Z" fill="white"/>
<path d="M38.234 22.3305C37.5474 22.4045 36.9927 22.4632 36.4173 22.5254C36.2841 22.0158 36.1632 21.5532 36.0312 21.0472C36.5688 20.8452 37.0892 20.6492 37.7221 20.412C37.8919 21.0507 38.0519 21.6519 38.234 22.3305Z" fill="white"/>
</svg>
