<svg width="60" height="60" viewBox="0 0 60 60" fill="none" xmlns="http://www.w3.org/2000/svg">
<path d="M0 44.6481C0.358304 44.0939 0.892822 43.987 1.51192 43.9894C5.4192 44.0023 9.32764 43.9964 13.2349 43.9952C13.464 43.9952 13.6931 43.9952 14.0032 43.9952C14.0032 43.6653 14.0032 43.3988 14.0032 43.1334C14.0032 31.5728 14.0103 20.011 13.9973 8.45034C13.995 6.2089 14.6129 4.2152 16.1613 2.56083C17.6438 0.976912 19.4847 0.142095 21.6486 0.0129396C21.8824 -0.00115018 22.1173 2.39621e-05 22.3523 2.39621e-05C34.6814 2.39621e-05 47.0106 2.39621e-05 59.3398 2.39621e-05C59.5501 2.39621e-05 59.7603 2.39621e-05 60 2.39621e-05C60 0.685725 60 1.31976 60 1.98668C58.4611 2.04304 57.1195 2.55614 56.0023 3.59056C54.8216 4.68369 54.145 6.03043 54.051 7.64958C54.0334 7.96073 54.0392 8.27422 54.0392 8.58654C54.0392 22.9405 54.0451 37.2944 54.0345 51.6471C54.0322 55.1567 52.4733 57.7503 49.2861 59.2802C48.5778 59.6208 47.7754 59.7652 47.0165 60C33.6888 60 20.3622 60 7.0345 60C6.94874 59.9636 6.86651 59.9072 6.77723 59.8932C4.25735 59.4752 2.32016 58.1636 1.08548 55.948C0.577985 55.0357 0.353605 53.9672 0 52.9692C0 50.1947 0 47.4214 0 44.6481ZM54.7441 1.99607C54.4257 1.99607 54.2754 1.99607 54.125 1.99607C43.4757 1.99607 32.8253 1.99372 22.1761 2.00429C21.6533 2.00429 21.1188 2.06182 20.6113 2.18393C17.82 2.85907 16.0179 5.23319 16.0156 8.26248C16.0074 19.9617 16.0121 31.6597 16.0132 43.3588C16.0132 43.5479 16.0344 43.7381 16.0497 43.9964C16.3339 43.9964 16.5818 43.9964 16.8297 43.9964C24.0792 43.9964 31.3287 43.9952 38.5781 43.9976C39.713 43.9976 40.0102 44.2935 40.0114 45.4148C40.0137 47.5048 40.0161 49.5947 40.0114 51.6835C40.009 52.8988 40.2851 54.0236 40.8924 55.0944C42.5794 58.0638 46.8708 58.9268 49.5646 56.8275C51.2774 55.4913 52.0421 53.7453 52.041 51.5908C52.0304 37.2169 52.0316 22.8418 52.0445 8.46796C52.0457 7.6942 52.1161 6.90517 52.2736 6.14785C52.6048 4.55571 53.4483 3.23127 54.7441 1.99607ZM38.0107 46.0547C25.9541 46.0547 13.995 46.0547 1.9971 46.0547C1.9971 47.938 1.99593 49.7708 1.9971 51.6037C1.99945 55.4161 4.57689 58.0028 8.37961 58.0028C18.9267 58.0051 29.4737 58.004 40.0208 58.004C40.2064 58.004 40.392 58.004 40.5694 58.004C40.5776 57.9206 40.587 57.8971 40.5799 57.8865C40.5341 57.8243 40.4883 57.7609 40.4331 57.7057C38.9658 56.258 38.1552 54.5038 38.0495 52.4502C37.9896 51.282 38.0166 50.109 38.0096 48.9384C38.0072 47.9861 38.0107 47.0339 38.0107 46.0547Z" fill="white"/>
<path d="M46.9818 39.9282C49.4089 40.5693 50.2806 41.7575 49.9704 43.9485C49.3501 43.9485 48.7216 43.9485 48.0144 43.9485C48.0144 43.6162 48.0356 43.3085 48.0097 43.0033C47.9616 42.4197 47.6385 42.051 47.0464 42.0205C46.3651 41.9853 45.679 41.9782 44.9988 42.0217C44.3985 42.0593 44.0766 42.3974 44.039 42.9997C44.0003 43.622 44.0014 44.249 44.0249 44.8725C44.0531 45.6228 44.4044 45.9656 45.1597 45.9962C45.7835 46.022 46.4109 45.9821 47.0335 46.0161C48.7557 46.1124 49.8576 47.1586 50.001 48.8822C50.0632 49.6372 50.0609 50.4074 49.9939 51.1624C49.8553 52.7252 48.939 53.6774 47.3977 53.9616C47.2837 53.9827 47.1709 54.012 47.0253 54.0461C47.0253 54.6719 47.0253 55.2942 47.0253 55.9611C46.3604 55.9611 45.7295 55.9611 45.0387 55.9611C45.0387 55.3318 45.0387 54.6966 45.0387 54.079C42.614 53.3827 41.7012 52.1299 42.0842 50.0446C42.6927 50.0446 43.3083 50.0446 43.985 50.0446C43.9991 50.3546 44.0003 50.6599 44.0284 50.9628C44.086 51.5933 44.3961 51.9479 45.0164 51.9878C45.6778 52.0313 46.3451 52.0301 47.0065 51.9902C47.6291 51.9526 47.9698 51.6062 48.0074 50.9781C48.0461 50.3358 48.0473 49.6888 48.0109 49.0466C47.9721 48.3621 47.6103 48.0403 46.9137 48.0122C46.1536 47.9805 45.3877 48.0157 44.6323 47.9429C43.2754 47.8126 42.197 46.7417 42.076 45.3856C42.002 44.5531 41.982 43.7066 42.0443 42.8741C42.1664 41.2585 43.1133 40.2933 44.7216 40.035C44.7979 40.0233 44.8708 39.9986 45.0035 39.9646C45.0035 39.3352 45.0035 38.7012 45.0035 38.0308C45.6802 38.0308 46.2957 38.0308 46.9783 38.0308C46.9818 38.6507 46.9818 39.2836 46.9818 39.9282Z" fill="white"/>
<path d="M18.0469 9.95215C18.0469 9.30167 18.0469 8.68642 18.0469 8.03125C28.6914 8.03125 39.3101 8.03125 49.9817 8.03125C49.9817 8.65355 49.9817 9.28289 49.9817 9.95215C39.3548 9.95215 28.7384 9.95215 18.0469 9.95215Z" fill="white"/>
<path d="M24.0508 5.93997C24.0508 5.30593 24.0508 4.6895 24.0508 4.03198C30.6894 4.03198 37.3115 4.03198 43.9783 4.03198C43.9783 4.65898 43.9783 5.27423 43.9783 5.93997C37.3644 5.93997 30.7422 5.93997 24.0508 5.93997Z" fill="white"/>
<path d="M20.0508 37.9473C20.0508 37.3097 20.0508 36.6933 20.0508 36.0334C25.3549 36.0334 30.6507 36.0334 35.9771 36.0334C35.9771 36.671 35.9771 37.2874 35.9771 37.9473C30.673 37.9473 25.3783 37.9473 20.0508 37.9473Z" fill="white"/>
<path d="M35.9759 40.0254C35.9759 40.6923 35.9759 41.3099 35.9759 41.9592C30.6659 41.9592 25.3865 41.9592 20.0625 41.9592C20.0625 41.3193 20.0625 40.69 20.0625 40.0254C25.363 40.0254 30.6413 40.0254 35.9759 40.0254Z" fill="white"/>
<path d="M20.0547 22.0376C24.0501 22.0376 28.0008 22.0376 31.9821 22.0376C31.9821 22.6834 31.9821 23.301 31.9821 23.9644C28.0196 23.9644 24.0548 23.9644 20.0547 23.9644C20.0547 23.3315 20.0547 22.7163 20.0547 22.0376Z" fill="white"/>
<path d="M29.9983 14.0371C29.9983 14.6946 29.9983 15.297 29.9983 15.9521C26.682 15.9521 23.3785 15.9521 20.0469 15.9521C20.0469 15.3146 20.0469 14.6958 20.0469 14.0371C23.3621 14.0371 26.6526 14.0371 29.9983 14.0371Z" fill="white"/>
<path d="M29.9916 30.0334C29.9916 30.6945 29.9916 31.3121 29.9916 31.9626C26.68 31.9626 23.393 31.9626 20.0625 31.9626C20.0625 31.3262 20.0625 30.6968 20.0625 30.0334C23.3601 30.0334 26.6482 30.0334 29.9916 30.0334Z" fill="white"/>
<path d="M28 18.0454C28 18.7076 28 19.3088 28 19.9593C25.3662 19.9593 22.7441 19.9593 20.0703 19.9593C20.0703 19.3393 20.0703 18.7123 20.0703 18.0454C22.6994 18.0454 25.3227 18.0454 28 18.0454Z" fill="white"/>
<path d="M20.0664 26.031C22.0529 26.031 23.9995 26.031 25.9825 26.031C25.9825 26.6709 25.9825 27.2873 25.9825 27.9543C24.0359 27.9543 22.0764 27.9543 20.0664 27.9543C20.0664 27.3437 20.0664 26.7144 20.0664 26.031Z" fill="white"/>
<path d="M44.0586 14.0288C45.3861 14.0288 46.6666 14.0288 47.9882 14.0288C47.9882 14.6746 47.9882 15.2887 47.9882 15.9532C46.6889 15.9532 45.3943 15.9532 44.0586 15.9532C44.0586 15.3251 44.0586 14.711 44.0586 14.0288Z" fill="white"/>
<path d="M48.0011 26.0273C48.0011 26.7048 48.0011 27.3201 48.0011 27.9694C46.676 27.9694 45.3826 27.9694 44.0586 27.9694C44.0586 27.313 44.0586 26.6813 44.0586 26.0273C45.3802 26.0273 46.663 26.0273 48.0011 26.0273Z" fill="white"/>
<path d="M47.9976 30.0417C47.9976 30.704 47.9976 31.3192 47.9976 31.965C46.6842 31.965 45.4048 31.965 44.0703 31.965C44.0703 31.3404 44.0703 30.7122 44.0703 30.0417C45.3602 30.0417 46.6548 30.0417 47.9976 30.0417Z" fill="white"/>
<path d="M47.9925 18.0396C47.9925 18.7065 47.9925 19.3205 47.9925 19.971C46.6756 19.971 45.3962 19.971 44.0664 19.971C44.0664 19.3358 44.0664 18.7053 44.0664 18.0396C45.3669 18.0396 46.6485 18.0396 47.9925 18.0396Z" fill="white"/>
<path d="M44.0625 23.9655C44.0625 23.3338 44.0625 22.7033 44.0625 22.0435C45.3818 22.0435 46.674 22.0435 48.0003 22.0435C48.0003 22.6928 48.0003 23.3068 48.0003 23.9655C46.6881 23.9655 45.397 23.9655 44.0625 23.9655Z" fill="white"/>
</svg>
