<svg width="60" height="60" viewBox="0 0 60 60" fill="none" xmlns="http://www.w3.org/2000/svg">
<path d="M10.0035 49.9688C9.29753 49.9688 8.68164 49.9688 8.00316 49.9688C8.00316 49.7159 8.00316 49.493 8.00316 49.2701C8.00316 34.6474 8.00316 20.0259 8.00316 5.40309C8.00316 2.07108 10.0849 0.00125216 13.431 0C25.1567 0 36.8837 0 48.6094 0C51.9066 0 53.9947 2.08736 53.9984 5.3793C53.9984 5.85887 54.0047 6.3372 53.9972 6.81678C53.9834 7.62943 53.6241 7.99507 52.8054 7.99757C50.785 8.00508 48.7646 8.00007 46.7442 8.00007C46.5201 8.00007 46.2948 8.00007 45.9993 8.00007C45.9993 8.31312 45.9993 8.57732 45.9993 8.84028C45.9993 24.1292 46.0006 39.4181 45.9981 54.707C45.9981 57.2352 44.581 59.2086 42.3128 59.8071C41.8358 59.9323 41.3276 59.9912 40.8331 59.9912C28.9409 60.0012 17.0475 60.0024 5.15529 59.9962C2.16096 59.9949 0.0191131 57.8249 0.00534317 54.8185C0.00283955 54.235 -0.00717493 53.6515 0.0090986 53.0692C0.0291276 52.4006 0.39716 52.0387 1.05937 52.0024C1.20458 51.9948 1.35104 51.9999 1.49625 51.9999C13.1594 51.9999 24.8237 51.9999 36.4868 51.9999C37.7299 51.9999 37.9978 52.2641 37.999 53.4874C37.999 54.0296 37.9853 54.5706 38.0053 55.1115C38.0654 56.7318 39.4086 58.009 41.0234 57.9965C42.6107 57.9852 43.9213 56.7193 43.9927 55.1228C44.004 54.8736 43.9977 54.6231 43.9977 54.3727C43.9977 38.355 44.0015 22.3373 43.9927 6.31842C43.9914 4.8321 43.9589 3.3558 45.0192 1.99845C44.6737 1.99845 44.4759 1.99845 44.2769 1.99845C33.9669 1.99845 23.657 1.99845 13.3471 1.99845C11.194 1.99845 10.001 3.20429 10.001 5.37679C10.001 19.957 10.001 34.5384 10.001 49.1186C10.0036 49.3878 10.0035 49.6546 10.0035 49.9688ZM2.04204 54.0221C1.68026 56.7017 3.41152 58.0441 5.62847 58.029C15.8145 57.9602 26.0004 57.999 36.1877 57.999C36.4217 57.999 36.6571 57.999 37.0088 57.999C36.075 56.738 35.9398 55.407 35.9949 54.0221C24.6422 54.0221 13.3609 54.0221 2.04204 54.0221ZM46.0331 5.9578C48.0436 5.9578 50.0039 5.9578 51.9642 5.9578C52.127 4.50278 51.8566 3.24937 50.5584 2.45048C49.537 1.82315 48.4629 1.82065 47.4352 2.45549C46.1345 3.26063 45.8729 4.50904 46.0331 5.9578Z" fill="white"/>
<path d="M55.9966 18.0526C55.9966 18.3369 55.9966 18.5848 55.9966 18.8327C55.9966 28.3905 56.0016 37.9495 55.9828 47.5073C55.9816 47.9643 55.8589 48.4577 55.6611 48.8721C54.8086 50.654 53.9011 52.4095 53.026 54.1813C52.8107 54.6183 52.5504 54.9789 52.0208 54.9902C51.4588 55.0027 51.1884 54.6271 50.9618 54.1688C50.0693 52.3594 49.1504 50.5638 48.2654 48.7519C48.1164 48.4451 48.0088 48.082 48.0075 47.7452C47.995 37.1669 47.9925 26.5886 48.0013 16.0091C48.0025 14.1058 49.2781 12.5281 51.0845 12.1136C52.9109 11.6941 54.7748 12.5531 55.5697 14.2373C55.8138 14.7544 55.9165 15.3392 56.118 16.0028C56.3784 16.0028 56.7452 15.9903 57.1095 16.0053C58.6567 16.068 59.9611 17.2951 59.9773 18.839C60.0162 22.4828 59.9911 26.1266 59.9899 29.7716C59.9899 29.8292 59.9623 29.8868 59.941 29.9707C59.3164 29.9707 58.7005 29.9707 57.9945 29.9707C57.9945 29.7491 57.9945 29.53 57.9945 29.3096C57.9945 26.1241 57.9519 22.9373 58.012 19.7518C58.0458 18.0501 57.4312 17.8686 55.9966 18.0526ZM53.9536 46.9714C53.9536 41.9564 53.9536 36.9954 53.9536 32.0506C52.6117 32.0506 51.3136 32.0506 50.0317 32.0506C50.0317 37.0492 50.0317 41.9965 50.0317 46.9714C51.3461 46.9714 52.6292 46.9714 53.9536 46.9714ZM53.9536 25.9713C53.9536 23.2917 53.9536 20.6634 53.9536 18.0501C52.6117 18.0501 51.3148 18.0501 50.0305 18.0501C50.0305 20.7147 50.0305 23.3293 50.0305 25.9713C51.3449 25.9713 52.6267 25.9713 53.9536 25.9713ZM53.9449 29.987C53.9449 29.3371 53.9449 28.6923 53.9449 28.0411C52.6267 28.0411 51.3311 28.0411 50.0455 28.0411C50.0455 28.7148 50.0455 29.3459 50.0455 29.987C51.3599 29.987 52.6267 29.987 53.9449 29.987ZM50.0392 15.9753C51.3436 15.9753 52.6505 15.9753 53.9561 15.9753C53.9274 14.8283 53.0661 14.0031 51.9658 13.9969C51.1233 13.9906 49.9591 14.797 50.0392 15.9753ZM53.3553 49.0412C52.4164 49.0412 51.5652 49.0412 50.6351 49.0412C51.0945 49.9553 51.5201 50.8017 51.9996 51.7559C52.489 50.7779 52.9034 49.9477 53.3553 49.0412Z" fill="white"/>
<path d="M20.8164 10.9903C21.1206 10.3655 21.391 9.82078 21.6514 9.27233C21.7765 9.00813 21.9643 8.74267 21.9868 8.46719C22.092 7.1424 23.131 6.09559 24.4492 5.98791C24.7271 5.96537 25.04 5.83765 25.2541 5.65859C26.2881 4.78959 27.7114 4.78959 28.7454 5.65859C28.9582 5.83765 29.2724 5.96537 29.5503 5.98791C30.8709 6.09559 31.9074 7.1399 32.0126 8.46594C32.0351 8.74267 32.1728 9.05195 32.3518 9.26732C33.2143 10.3016 33.2056 11.7216 32.3281 12.7584C32.1591 12.9574 32.0314 13.248 32.0126 13.5071C31.9125 14.8708 30.8747 15.9138 29.5152 16.014C29.2561 16.0328 28.9619 16.1542 28.7641 16.3233C27.7039 17.2236 26.2906 17.2211 25.229 16.317C25.0313 16.1492 24.7346 16.0328 24.4754 16.014C23.1473 15.9138 22.097 14.877 21.9868 13.5622C21.9631 13.2843 21.7916 13.0138 21.6676 12.7496C21.4023 12.1799 21.1231 11.6189 20.8164 10.9903ZM29.3437 13.9942C29.842 13.9955 30.0798 13.5898 29.9146 13.1052C29.6266 12.2625 29.7468 12.0121 30.548 11.5625C30.737 11.4561 30.9711 11.1944 30.9586 11.0216C30.9423 10.81 30.7295 10.5395 30.5292 10.4281C29.7744 10.0061 29.6467 9.70934 29.8845 8.92673C29.9509 8.70635 29.9346 8.34949 29.7969 8.20924C29.6604 8.07025 29.3012 8.04521 29.0821 8.11158C28.2847 8.35199 27.993 8.22928 27.5762 7.47923C27.4635 7.27638 27.1869 7.03847 26.9903 7.04223C26.7925 7.04598 26.5309 7.29266 26.417 7.49802C26.0202 8.21926 25.711 8.34072 24.8986 8.10156C24.682 8.0377 24.3428 8.08403 24.185 8.22177C24.0548 8.33446 24.0361 8.68256 24.0974 8.88667C24.354 9.74189 24.2526 9.98481 23.4527 10.4331C23.2637 10.5395 23.0296 10.8012 23.0421 10.974C23.0584 11.1869 23.27 11.4561 23.4715 11.5688C24.2276 11.9933 24.354 12.2863 24.1162 13.0701C24.0498 13.2905 24.0661 13.6486 24.2026 13.7876C24.339 13.9266 24.6983 13.9517 24.9173 13.8853C25.7147 13.6449 26.0089 13.7676 26.4233 14.5164C26.5359 14.7192 26.8001 14.9359 27.0129 14.9559C27.1844 14.9722 27.4523 14.7418 27.5587 14.554C28.0231 13.7338 28.2146 13.6424 29.1535 13.9341C29.2311 13.9617 29.3099 13.9842 29.3437 13.9942Z" fill="white"/>
<path d="M40.9691 28.042C40.9691 28.7055 40.9691 29.3213 40.9691 29.9685C32.9938 29.9685 25.0473 29.9685 17.0508 29.9685C17.0508 29.3489 17.0508 28.7167 17.0508 28.042C24.9998 28.042 32.9613 28.042 40.9691 28.042Z" fill="white"/>
<path d="M17.0312 37.9563C17.0312 37.2953 17.0312 36.6794 17.0312 36.0322C25.0065 36.0322 32.9518 36.0322 40.9496 36.0322C40.9496 36.6494 40.9496 37.2815 40.9496 37.9563C33.0031 37.9563 25.0428 37.9563 17.0312 37.9563Z" fill="white"/>
<path d="M17.0312 49.956C17.0312 49.2938 17.0312 48.6779 17.0312 48.0308C25.0065 48.0308 32.953 48.0308 40.9496 48.0308C40.9496 48.6492 40.9496 49.2813 40.9496 49.956C33.0018 49.956 25.0416 49.956 17.0312 49.956Z" fill="white"/>
<path d="M32.9701 32.042C32.9701 32.7067 32.9701 33.3226 32.9701 33.9685C27.6599 33.9685 22.381 33.9685 17.0508 33.9685C17.0508 33.3476 17.0508 32.7155 17.0508 32.042C22.3347 32.042 27.6286 32.042 32.9701 32.042Z" fill="white"/>
<path d="M25.0312 41.9568C25.0312 41.2921 25.0312 40.6762 25.0312 40.0303C30.3414 40.0303 35.6216 40.0303 40.9505 40.0303C40.9505 40.6524 40.9505 41.2833 40.9505 41.9568C35.6666 41.9568 30.3727 41.9568 25.0312 41.9568Z" fill="white"/>
<path d="M32.9718 44.0435C32.9718 44.6982 32.9718 45.3153 32.9718 45.9637C27.6504 45.9637 22.3552 45.9637 17.0312 45.9637C17.0312 45.3203 17.0312 44.7044 17.0312 44.0435C22.3277 44.0435 27.6216 44.0435 32.9718 44.0435Z" fill="white"/>
<path d="M34.9532 20.9733C31.6309 20.9733 28.3499 20.9733 25.0352 20.9733C25.0352 20.3324 25.0352 19.7165 25.0352 19.0493C28.3162 19.0493 31.6122 19.0493 34.9532 19.0493C34.9532 19.6589 34.9532 20.2899 34.9532 20.9733Z" fill="white"/>
<path d="M22.0312 24.9561C22.0312 24.2964 22.0312 23.6805 22.0312 22.9995C23.6962 22.9995 25.3335 22.9995 26.9709 22.9995C28.6145 22.9995 30.2569 22.9995 31.9506 22.9995C31.9506 23.6492 31.9506 24.2801 31.9506 24.9561C28.6709 24.9561 25.3761 24.9561 22.0312 24.9561Z" fill="white"/>
<path d="M35.0352 32.0254C37.0205 32.0254 38.9671 32.0254 40.9587 32.0254C40.9587 32.6638 40.9587 33.2947 40.9587 33.9619C38.9921 33.9619 37.0305 33.9619 35.0352 33.9619C35.0352 33.3273 35.0352 32.7114 35.0352 32.0254Z" fill="white"/>
<path d="M17.0156 41.9596C17.0156 41.3024 17.0156 40.7015 17.0156 40.0493C18.9847 40.0493 20.9476 40.0493 22.9555 40.0493C22.9555 40.6577 22.9555 41.2886 22.9555 41.9596C20.9976 41.9596 19.036 41.9596 17.0156 41.9596Z" fill="white"/>
<path d="M35.0312 45.9548C35.0312 45.2938 35.0312 44.6779 35.0312 44.0308C37.0066 44.0308 38.9544 44.0308 40.9523 44.0308C40.9523 44.6492 40.9523 45.2801 40.9523 45.9548C39.0045 45.9548 37.0417 45.9548 35.0312 45.9548Z" fill="white"/>
<path d="M19.043 19.0117C20.3661 19.0117 21.633 19.0117 22.9499 19.0117C22.9499 19.6464 22.9499 20.2773 22.9499 20.9533C21.6755 20.9533 20.3799 20.9533 19.043 20.9533C19.043 20.3286 19.043 19.699 19.043 19.0117Z" fill="white"/>
<path d="M13.0352 28.0259C13.6886 28.0259 14.3032 28.0259 14.9604 28.0259C14.9604 28.6656 14.9604 29.2952 14.9604 29.9624C14.3258 29.9624 13.6961 29.9624 13.0352 29.9624C13.0352 29.3265 13.0352 28.7119 13.0352 28.0259Z" fill="white"/>
<path d="M13.0312 37.9637C13.0312 37.3215 13.0312 36.7069 13.0312 36.0459C13.6597 36.0459 14.2893 36.0459 14.9603 36.0459C14.9603 36.6693 14.9603 37.299 14.9603 37.9637C14.3356 37.9637 13.7197 37.9637 13.0312 37.9637Z" fill="white"/>
<path d="M14.9531 45.9748C14.3059 45.9748 13.6913 45.9748 13.0391 45.9748C13.0391 45.3214 13.0391 44.693 13.0391 44.0308C13.6737 44.0308 14.2896 44.0308 14.9531 44.0308C14.9531 44.6517 14.9531 45.2813 14.9531 45.9748Z" fill="white"/>
</svg>
