<svg width="60" height="65" viewBox="0 0 60 65" fill="none" xmlns="http://www.w3.org/2000/svg">
<path d="M59.9991 22.151C59.8296 29.2773 58.7014 36.1839 55.697 42.68C50.6843 53.5211 42.3085 60.5135 30.9462 63.9873C30.3446 64.1712 29.5966 64.1658 28.9879 63.9945C23.404 62.4128 18.4145 59.7066 14.0124 55.9185C13.3805 55.3759 13.268 54.7386 13.6982 54.2423C14.1356 53.7371 14.7532 53.746 15.4012 54.3012C19.4624 57.784 24.0448 60.3171 29.1771 61.8237C29.6519 61.963 30.2482 61.9737 30.7159 61.822C43.8009 57.6019 52.2106 48.8298 55.9665 35.6252C57.6678 29.6503 58.0516 23.5327 57.4982 17.3544C57.4196 16.4672 57.3072 15.5835 57.2001 14.6999C57.0876 13.7752 56.8823 13.5628 55.9023 13.3878C52.2142 12.7291 48.6207 11.7241 45.1237 10.3817C40.1324 8.46621 35.4768 5.93132 31.1586 2.77521C29.959 1.89871 29.9447 1.89871 28.7237 2.78414C21.2547 8.20201 12.9949 11.7651 3.91037 13.395C3.22309 13.5181 2.77859 13.8145 2.67684 14.5678C1.75928 21.3245 1.95208 28.0294 3.60868 34.663C4.603 38.6385 6.13464 42.3962 8.28393 45.8932C8.38926 46.0646 8.50172 46.2306 8.58919 46.4109C8.86232 46.9786 8.69094 47.5731 8.18397 47.8605C7.69484 48.1372 7.11824 48.0229 6.78264 47.4999C6.26674 46.6948 5.7794 45.87 5.32597 45.0275C2.77859 40.2897 1.25588 35.2271 0.516834 29.911C-0.204358 24.7359 -0.149019 19.5644 0.547181 14.3928C0.781033 12.6577 1.68609 11.6562 3.41053 11.3421C11.7167 9.83183 19.3553 6.70607 26.3012 1.89871C26.8511 1.51848 27.3884 1.12218 27.9311 0.733023C29.2878 -0.241658 30.623 -0.254154 31.9994 0.754444C34.9145 2.89303 37.9814 4.77099 41.2285 6.36154C46.1144 8.7554 51.2484 10.3763 56.5931 11.3599C58.1408 11.6437 59.1548 12.6845 59.3101 14.2411C59.5689 16.8724 59.7706 19.5126 59.9991 22.151Z" fill="white"/>
<path d="M6.45415 22.5187C6.45415 21.5173 6.41131 20.5122 6.46307 19.5126C6.55233 17.7953 7.46989 16.726 9.14434 16.294C15.8493 14.5606 22.1472 11.8829 27.9846 8.14842C29.2895 7.31298 30.5409 7.28442 31.8494 8.12878C34.6788 9.9514 37.6439 11.5223 40.734 12.8576C41.5302 13.2021 41.8176 13.8091 41.5195 14.4285C41.2356 15.0176 40.634 15.1568 39.8414 14.8087C36.6996 13.4306 33.6667 11.8419 30.7855 9.97818C30.1803 9.58545 29.6912 9.58366 29.0789 9.97461C23.0862 13.7966 16.6401 16.5742 9.75128 18.3272C8.93369 18.5361 8.6213 18.8574 8.59631 19.6554C8.3446 27.4082 9.54242 34.8468 13.6018 41.6017C17.3113 47.7747 22.6631 51.9733 29.4198 54.3958C29.7572 54.5172 30.2214 54.4904 30.5641 54.3636C38.6668 51.3682 44.5863 45.9932 48.1012 38.0654C50.6879 32.2298 51.4894 26.0658 51.2645 19.7375C51.252 19.3697 51.0485 18.977 50.8432 18.6539C50.4701 18.0648 50.4808 17.4971 50.9557 17.1026C51.4109 16.7242 51.9732 16.7706 52.4498 17.2383C53.0496 17.8292 53.3638 18.5611 53.3924 19.3894C53.7119 28.1954 52.2285 36.573 47.2515 44.0384C43.2796 49.9972 37.8028 54.0655 31.0675 56.4629C30.2464 56.7557 29.4663 56.7164 28.6612 56.4147C17.5755 52.2679 10.7331 44.3366 7.76443 32.9581C6.87187 29.5414 6.49878 26.0479 6.45415 22.5187Z" fill="white"/>
<path d="M29.929 27.0352C31.3428 25.6213 32.7102 24.2557 34.0759 22.8883C34.5632 22.401 35.0452 21.9047 35.5415 21.4245C37.032 19.9875 39.2438 19.9553 40.6505 21.3406C42.059 22.7294 42.0447 24.9412 40.5755 26.4336C38.7315 28.3044 36.8553 30.1448 34.9488 32.0424C35.1487 32.2513 35.3094 32.4262 35.479 32.5958C37.2231 34.347 38.9868 36.0804 40.7094 37.8548C41.7662 38.9438 41.9733 40.4772 41.3342 41.8178C40.7112 43.1281 39.3741 43.9314 37.9282 43.8422C36.9767 43.7832 36.1841 43.3744 35.5129 42.6979C33.6778 40.8503 31.832 39.0134 29.763 36.9426C29.638 37.189 29.5702 37.455 29.4042 37.6245C27.7155 39.3383 26.0249 41.0484 24.3076 42.7318C23.2705 43.7511 22.0191 44.076 20.6196 43.6297C19.2932 43.2066 18.497 42.273 18.2418 40.9145C18.0061 39.6596 18.4096 38.5885 19.3021 37.6924C20.9855 36.0054 22.6707 34.3203 24.3523 32.6333C24.5236 32.4619 24.6861 32.2834 25.0074 31.946C24.7325 31.7515 24.4505 31.6015 24.2327 31.3873C22.5868 29.7575 20.9462 28.1223 19.32 26.4728C17.8383 24.9698 17.7901 22.7919 19.179 21.3799C20.5821 19.9553 22.8367 19.9643 24.3326 21.4388C26.1892 23.265 28.0171 25.1215 29.929 27.0352ZM21.7103 22.2528C21.2551 22.5973 20.7927 22.8276 20.5053 23.1936C20.1661 23.6256 20.2411 24.17 20.5624 24.6306C20.7142 24.8484 20.9105 25.034 21.098 25.2232C22.7956 26.9263 24.4987 28.6239 26.1927 30.3305C27.3531 31.4998 27.3424 32.6405 26.1767 33.8222C25.8018 34.2025 25.4216 34.5773 25.0431 34.9558C23.6275 36.375 22.2101 37.7906 20.7999 39.2133C20.3786 39.6382 20.1876 40.1362 20.3911 40.7342C20.5732 41.2716 20.9784 41.6768 21.5032 41.6464C21.987 41.6179 22.56 41.4072 22.9063 41.077C24.645 39.4168 26.3231 37.6924 28.0225 35.9911C29.3863 34.6255 30.4842 34.6273 31.857 36.0019C33.5403 37.687 35.2237 39.3722 36.9035 41.0627C37.3123 41.4751 37.7622 41.791 38.3745 41.6714C38.9154 41.5661 39.3009 41.2555 39.4759 40.7146C39.6812 40.0827 39.442 39.5864 39.0046 39.149C37.1963 37.3371 35.3826 35.5288 33.5814 33.7098C32.5407 32.6583 32.546 31.473 33.5921 30.4144C34.8899 29.0988 36.202 27.7974 37.5069 26.4889C38.0567 25.9373 38.6208 25.3982 39.1474 24.8234C39.6955 24.2236 39.6847 23.4417 39.1688 22.8937C38.6422 22.3367 37.8121 22.301 37.1802 22.8169C37.0249 22.9436 36.8892 23.0918 36.7464 23.2328C35.063 24.918 33.3832 26.6067 31.6963 28.2901C30.527 29.4576 29.331 29.4504 28.1546 28.274C26.423 26.5425 24.7022 24.7984 22.9545 23.0847C22.6368 22.7776 22.2101 22.583 21.7103 22.2528Z" fill="white"/>
<path d="M47.8512 16.037C47.8565 16.9456 47.2674 17.4776 46.6141 17.3205C45.9911 17.1705 45.377 16.9599 44.7861 16.7117C44.2559 16.4886 44.0221 16.0459 44.1827 15.4621C44.3363 14.9016 44.8307 14.5767 45.4163 14.7213C46.0375 14.8748 46.6676 15.0569 47.2353 15.3425C47.5424 15.4961 47.728 15.8906 47.8512 16.037Z" fill="white"/>
<path d="M12.4478 51.9645C12.255 52.1805 12.0515 52.5982 11.7391 52.7071C11.4249 52.8178 10.909 52.7446 10.6519 52.5375C10.1753 52.1555 9.79151 51.6414 9.42734 51.1398C9.11673 50.7114 9.18635 50.2437 9.54694 49.8581C9.90933 49.4707 10.4359 49.3279 10.8072 49.6671C11.3874 50.1972 11.8426 50.8631 12.3389 51.4825C12.3996 51.5593 12.3889 51.695 12.4478 51.9645Z" fill="white"/>
</svg>
